<svg transform="scale(1)" version="1.1" id="Incip1R5vC" xmlns="http://www.w3.org/2000/svg" xmlns:xlink="http://www.w3.org/1999/xlink" x="0px" y="0px" viewBox="0 0 500 500" xml:space="preserve" class="pbimage_pbimage__wrapper__image__0LEis false"><title>Saying Hello</title><style type="text/css"> .st0{fill:#FFFFFF;} .st1{fill:#59BE4C;} .st2{fill:#000005;}
 .st2{fill:#000005;}
 .st1{fill:#59BE4C;}
 .st0{fill:#FFFFFF;}</style><g id="character-3"><path class="st0" d="M328.6,37.8H271c-7,0-12.7,5.7-12.7,12.7l0,0v29.1c0,7,5.7,12.7,12.7,12.7h7.4c5.3,0,10.1,3.4,11.9,8.4
		c0.3,0.7,0.5,1.4,0.8,2c0.1,0.3,0.3,0.6,0.6,0.6s0.5-0.2,0.6-0.4c1.6-1.8,3.1-3.7,4.5-5.6c2.4-3.2,6.1-5,10.1-5h21.6
		c7,0,12.7-5.7,12.7-12.7v0V50.5C341.3,43.5,335.6,37.9,328.6,37.8z" fill="#FFFFFF"></path><path class="st1" d="M327.8,35.9h-55c-2.8,0-5.5,0-8.2,1c-5.5,2.2-8.5,7.5-8.5,13.3c0,3.4,0,6.8,0,10.1v14.1
		c0,3.5-0.2,6.9,1.3,10.2c2.8,5.9,8.8,9.6,15.4,9.5c4.6,0,10-0.8,13.5,2.9c1.1,1.3,1.9,2.8,2.4,4.4c0.3,1,0.9,1.9,1.6,2.7
		c1,0.8,2.5,1.3,3.6,0.5c0.9-0.8,1.6-1.7,2.3-2.6c0.8-0.9,1.5-1.9,2.2-2.8c1.1-1.6,2.6-2.9,4.2-3.8c3.4-1.8,7.5-1.3,11.3-1.3h13.5
		c1.4,0.1,2.9,0,4.3-0.2c6.8-1,11.8-6.9,11.7-13.8V52.5c0-1.3,0-2.6-0.3-3.9c-0.8-3.6-2.8-6.8-5.6-9.1
		C334.9,37.3,331.4,36,327.8,35.9c-0.7-0.1-1.3,0.3-1.4,1c0,0.3,0,0.5,0.1,0.8c0.5,1.1,1.6,1.9,2.9,2c4.6-0.1,8.5,3.1,9.4,7.6
		c0.3,2,0.4,4,0.3,6.1v20.4c0,1.7,0,3.4,0,5.2c-0.1,4.8-3.1,9-7.6,10.7c-2.3,0.9-4.8,0.7-7.2,0.7h-10.5c-2.5,0-5.1,0-7.6,0
		c-3.1,0-6.1,0.9-8.6,2.8c-3,2.3-4.8,5.9-7.5,8.6l0.7-0.4l-0.3,0.1l1.6,0.3l-0.2-0.1l1.5,1.2c-0.5-1-1-2-1.3-3c-0.5-1-1.1-2-1.8-2.9
		c-1.5-1.9-3.3-3.5-5.4-4.6c-2.9-1.6-6-1.9-9.2-1.9c-2.4,0.2-4.8,0.1-7.2-0.1c-3.5-0.6-6.3-3.1-7.3-6.5c-0.4-1.6-0.6-3.3-0.5-5v-23
		c0-1.5,0-3,0-4.4c0-3,1.2-5.9,3.3-8.1c2.1-2.2,5-3.5,8.1-3.5h31.9c8.4,0,16.8,0.1,25.1,0h0.4c0.7,0.1,1.3-0.4,1.4-1
		c0-0.2,0-0.5-0.1-0.7C330.2,36.9,329.1,36.1,327.8,35.9z" fill="#59BE4C"></path><path class="st0" d="M345.4,155.1c0,0-8.2-28.7-0.1-29.5s11.7,14,11.7,14s16.3-29.7,22.2-28.2s-2.7,27.6-2.7,27.6
		s15.4-25.7,19.9-19.7s-7.7,24.9-7.7,24.9s11.7-13.1,14.5-7.9s-24.6,49.4-24.6,49.4c-14.2-2-27.3-8.8-37-19.4
		C342.6,162.4,343.8,158.7,345.4,155.1z" fill="#FFFFFF"></path><path class="st2" d="M347.9,154.6c-1.8-5.9-2.9-12-3.5-18.2c-0.2-3-0.7-7.2,1.2-9.8c0.1-0.2,0.3-0.3,0.4-0.4c0.2-0.2,0-0.1,0.1-0.1
		c-0.3,0-0.2,0.1-0.7,0.2c-0.2,0-0.4,0-0.6,0.1c0,0,0.4,0,0.2,0h0.2c0.4,0.1,0.9,0.2,1.3,0.4c1.8,1,3.3,2.4,4.3,4.1
		c1.8,2.8,3.1,5.8,3.8,9c0.3,1.3,4.4,0.2,4.9-0.6c4.1-7.8,8.9-15.3,14.4-22.3c1.3-1.8,2.9-3.3,4.7-4.7c0.2-0.2-0.1,0.1,0.2-0.2
		l0.5-0.2c-0.5,0.3-0.1,0,0.1,0c-0.5,0.2-1,0.3-1.6,0.3c0.2,0-0.4-0.1-0.4-0.1s0.4,0.2,0.2,0.1c0.2,0.2,0.4,0.4,0.6,0.6
		c1,1.6,0.8,4.1,0.6,5.8c-0.2,2.7-0.7,5.4-1.3,8.1c-0.9,4.1-2,8.2-3.4,12.3c-0.4,1.3,4.2,0.6,4.8-0.4c3.6-5.9,7.5-12,12.5-17
		c0.7-0.7,1.4-1.3,2.2-1.9c0.2-0.2,0.5-0.4,0.7-0.5l0.5-0.3c0.3-0.2-0.3,0.2,0.1-0.1c-0.6,0.3,0.3,0-0.5,0.1c-0.2,0-0.4,0.1-0.6,0.1
		c-0.6,0,0.3,0-0.2,0c-0.3,0-0.1,0,0,0.1c0.6,0.4,1,1,1.1,1.7c0.5,2,0.4,4.1-0.2,6.1c-0.7,2.5-1.6,4.9-2.7,7.2
		c-1.6,3.4-3.4,6.8-5.5,9.9c-0.5,0.7,1.4,0.7,1.6,0.7c0.9,0,2.4-0.2,3-0.9c1.2-1.4,2.5-2.7,3.9-3.9c1.1-1.1,2.4-2.1,3.6-3
		c0.5-0.4,1-0.7,1.6-1c0.1-0.1,0.8-0.4,0.5-0.3c0.2-0.1,0.4-0.1,0.5-0.2c-0.5,0.2,0.3,0-0.4,0.1c-0.2,0-0.5,0-0.7,0s0.1,0,0.1,0.1
		c0.3,0.2,0.6,0.5,0.7,0.9c0.1,0.5,0.1,1.1,0,1.6c-0.3,1.8-0.9,3.6-1.7,5.3c-2.4,5.6-5.1,11.2-8.1,16.5c-3,5.6-6.2,11.2-9.5,16.7
		c-1.8,3-3.5,6-5.4,8.9l4-1.1c-2.6-0.3-5.1-0.8-7.5-1.5c-6.3-1.8-12.2-4.5-17.6-8.1c-4-2.7-7.7-5.9-11-9.5l0.1,0.4
		c0.9-3.8,2.2-7.5,3.8-11.1c0.4-1-4.3-0.9-4.8,0.4c-1.1,2.6-2.1,5.2-2.9,7.9c-0.4,1-0.7,2.1-0.9,3.2c0,0.9,1.3,1.8,1.9,2.4
		c1.1,1.1,2.2,2.1,3.4,3.1c2,1.7,4.2,3.4,6.4,4.8c6.6,4.3,14,7.4,21.7,9.1c1.5,0.3,2.9,0.6,4.4,0.7c1.1,0.1,3.4,0,4-1.1
		c5.1-8.3,10-16.8,14.7-25.4c3.2-5.6,6-11.3,8.4-17.2c0.8-1.8,1.3-3.7,1.6-5.7c0.2-2.1-1.6-3.2-3.6-3.2c-4,0-7.6,2.4-10.5,5
		c-1.8,1.6-3.6,3.3-5.2,5.1l4.6-0.2c1.9-3,3.6-6.1,5.1-9.2c1.2-2.5,2.2-5.1,3-7.8c0.5-2.1,1-4.6,0.4-6.7c-1.5-4.6-7.5-2.5-10.4-0.4
		c-3.8,2.8-6.7,7-9.4,10.8c-2,2.8-3.9,5.7-5.7,8.7l4.8-0.4c1.2-3.7,2.3-7.5,3.2-11.3c0.7-2.9,1.2-5.8,1.5-8.8c0.2-2,0.4-4.5-0.5-6.4
		c-1.1-2.2-3.8-2-5.9-1.5c-2.2,0.7-4.1,2-5.6,3.8c-4.1,4.3-7.4,9.4-10.6,14.4c-2.2,3.6-4.4,7.2-6.4,10.9l4.9-0.6
		c-0.8-3-2-5.9-3.6-8.6c-1.1-2-2.7-3.7-4.6-4.9c-2.4-1.2-5.2-1.4-7.7-0.6c-3.7,1.2-4.2,5-4.3,8.5c0.1,4.5,0.6,9,1.6,13.4
		c0.6,2.9,1.2,5.7,2,8.5C343.3,156.8,348.2,155.7,347.9,154.6z" fill="#000005"></path><path class="st2" d="M357.3,141.3c1.4,1.2,3,2.2,4.4,3.5c1.1,1.1,2,2.4,2.6,3.9c1.4,3.2,1.9,6.9,2.3,10.4c0.1,1.1,1.5,2.1,2.4,2.4
		c0.8,0.3,1.9,0.3,1.8-0.8c-0.5-4-1.1-8.1-2.9-11.8c-0.9-1.9-2.2-3.7-3.8-5.2c-1.7-1.6-3.7-2.9-5.4-4.4c-0.6-0.5-2.1-1.3-2.7-0.6
		S356.8,140.9,357.3,141.3L357.3,141.3z" fill="#000005"></path><path class="st1" d="M378.6,185.6c0,0-21.3,92.3-73.9,132.6s-147.9-12.1-174.8-119.8c0,0,21.9-24.6,28-24.6s113,64.1,183.7-7.7
		L378.6,185.6z" fill="#59BE4C"></path><path class="st1" d="M376.1,185.6c-0.7,3-1.5,5.9-2.3,8.8c-2.2,7.6-4.6,15.2-7.2,22.7c-3.7,10.5-7.9,20.8-12.6,30.9
		c-5.3,11.4-11.4,22.5-18.3,33c-7,10.8-15.2,20.7-24.4,29.6c-7.5,7-15.6,13-25.2,16.7c-4.2,1.6-8.5,2.7-12.9,3.4
		c-1.1,0.2-2.1,0.3-3.2,0.4l-1.4,0.1l-0.8,0.1h-0.5l-1.7,0.1h-0.4h-1h-2h-0.7c-9.6-0.5-19.1-2.6-28.1-6c-10.1-3.9-19.7-9-28.5-15.2
		c-9.8-6.9-18.8-14.9-26.8-23.9c-8.7-9.7-16.4-20.3-23-31.6c-7.1-12.3-13-25.4-17.6-38.9c-1.2-3.6-2.3-7.2-3.3-10.8
		c-0.5-1.8-1-3.7-1.5-5.5c-0.2-0.7-0.4-0.9-0.1-1.4c0.7-0.9,1.5-1.8,2.4-2.6c1.4-1.5,2.8-3,4.3-4.5c3.6-3.7,7.3-7.4,11.1-10.8
		c1.7-1.5,3.6-3,5.5-4.3c0.7-0.5,1.4-0.9,2.2-1.3c0.3-0.1,0.6-0.3,0.9-0.4l0.3-0.1c1.4-0.5-1.7,0.1-2.8,0c-0.2,0-0.3,0-0.5-0.1
		c0,0,0.1,0,0.1,0s-0.1,0,0.1,0l0.8,0.3c0.7,0.3,1.4,0.6,2.2,0.9c2.3,0.9,4.5,2,6.7,2.9c7.1,3.1,14.3,6.1,21.6,8.8
		c9.7,3.6,19.7,6.5,29.8,8.9c11.7,2.7,23.6,4.2,35.6,4.6c13,0.5,26-0.8,38.6-3.9c13-3.2,25.3-8.8,36.4-16.4
		c5.8-4.1,11.3-8.7,16.3-13.8l-4.9,0.1l32.4,17L376.1,185.6c0.9,0.5,2.3,0.3,3.2,0.2c0.3,0,2-0.2,1.7-0.4l-32.4-17l-4.5-2.4
		c-0.9-0.2-1.8-0.3-2.7-0.2c-0.5,0-1.8-0.1-2.2,0.3c-10.2,10.4-22.3,18.8-35.7,24.6c-11.9,5-24.5,8-37.3,8.8
		c-11.7,0.7-23.4-0.1-34.9-2.2c-10.8-1.9-21.4-4.7-31.8-8.2c-8.2-2.7-16.3-5.9-24.3-9.3c-4.4-1.9-8.8-4.2-13.4-5.8
		c-2.6-0.9-5.4-0.9-8,0.2c-3.8,1.6-7.2,4.9-10.2,7.7c-3.8,3.5-7.4,7.1-10.9,10.8c-1.3,1.3-2.5,2.7-3.7,4c-0.3,0.4-1.3,1.1-1.5,1.6
		s0.5,1.9,0.6,2.4c0.3,1,0.5,2,0.8,3c0.5,1.8,1,3.7,1.6,5.5c1.1,3.6,2.3,7.2,3.6,10.8c2.5,6.8,5.3,13.6,8.4,20.1
		c5.9,12.4,13,24.1,21.4,35c7.6,9.9,16.2,19,25.7,27c8.6,7.3,18,13.6,28.1,18.6c9.2,4.6,19,7.9,29.1,9.8c10.1,1.8,20.4,2,30.5,0.4
		c8.9-1.4,17.5-4.6,25.2-9.4c10-6.3,18.7-15.1,26.2-24.2c8.2-10.1,15.5-20.9,21.7-32.4c5.9-10.7,11.1-21.7,15.6-33.1
		c3.7-9.1,7-18.3,10-27.7c1.7-5.5,3.4-11,4.8-16.6c0.2-0.8,0.4-1.5,0.5-2.2C381.1,185.6,376.3,184.9,376.1,185.6z" fill="#59BE4C"></path><path class="st0" d="M163.2,167.9c0,0,8.2-28.7,0.1-29.5s-11.7,14-11.7,14s-16.3-29.7-22.2-28.2s2.7,27.6,2.7,27.6
		s-15.4-25.7-20-19.8s7.7,24.9,7.7,24.9s-11.7-13.1-14.5-7.9s24.6,49.4,24.6,49.4c14.2-2,27.3-8.8,37-19.4
		C166,175.2,164.7,171.5,163.2,167.9z" fill="#FFFFFF"></path><path class="st2" d="M165.4,169.1c2-6.6,3.3-13.5,3.7-20.4c0.1-3.6,0-7.9-3.3-10.2c-1.9-1.4-4.3-1.8-6.6-1.2c-2.1,0.7-4,2.1-5.2,4
		c-2.2,3-3.7,6.5-4.6,10.1l4.4,1.7c-1.7-3.1-3.4-6.1-5.3-9c-3.1-5.3-6.6-10.3-10.5-15c-1.7-2.1-3.7-3.8-5.9-5.2
		c-1.7-0.9-4.3-1.9-5.8-0.2c-1.3,1.4-1.3,3.8-1.2,5.6c0.2,2.9,0.6,5.7,1.2,8.5c1,4.6,2.2,9.1,3.7,13.6l4.3,1.1
		c-1.5-2.5-3.1-4.9-4.8-7.4c-2.7-4.2-5.9-8-9.5-11.5c-2.2-2-7.8-6.1-10.2-2.3c-1.1,1.8-1,4.2-0.6,6.2c0.6,2.7,1.4,5.3,2.6,7.9
		c1.7,3.9,3.7,7.6,6,11.2l4.1,0.7c-1.4-1.6-2.9-3-4.4-4.4c-2.6-2.3-5.4-4.7-8.7-5.8c-2-0.7-5.3-1-5.6,1.9c0,1.7,0.4,3.4,1.1,5
		c2.2,5.7,4.8,11.2,7.8,16.5c3.2,6,6.6,12,10.1,17.9c1.9,3.3,3.8,6.5,5.8,9.7c0.9,1.3,2.3,2,3.8,2c4.3-0.5,8.5-1.5,12.6-3.1
		c9.3-3.4,17.7-8.9,24.5-16.2c0.5-0.6,0.5-0.7,0.4-1.3s-0.4-1.5-0.6-2.3c-0.9-2.9-1.9-5.8-3.1-8.6c-0.7-1-1.7-1.7-2.9-1.9
		c-0.7-0.2-1.9-0.2-1.4,0.8c1.1,2.5,2,5,2.8,7.6c0.2,0.7,0.4,1.4,0.6,2.1c0.1,0.2,0.3,0.8,0.3,1.1c0,0.1-0.8,0.7-1,0.9
		c-0.5,0.5-1,1-1.5,1.5c-1.1,1-2.1,2-3.2,2.9c-1.9,1.6-4,3.1-6.1,4.5c-6.2,4.1-13.2,6.9-20.4,8.5c-1.4,0.3-2.8,0.5-4.1,0.7l3.8,2
		c-4.7-7.7-9.3-15.4-13.6-23.3c-3.1-5.6-6.1-11.2-8.6-17c-0.9-1.9-1.6-3.9-2.2-5.9c-0.2-0.7-0.3-1.3-0.3-2c0-0.4-0.1-0.1,0.1-0.4
		c0.1-0.4,0.4-0.7,0.7-0.9c0.3-0.2,0.2-0.1,0.5-0.2h0.3c-0.3,0,0.2,0,0.2,0.1c-0.5-0.3,0,0,0.1,0c0.6,0.2-0.4-0.2,0,0l0.6,0.3
		c0.1,0.1,0.4,0.2,0,0l0.6,0.4c0.4,0.2,0.8,0.5,1.1,0.8c0.2,0.1,0.3,0.2,0.6,0.5s0.7,0.6,1.1,0.9c1.6,1.4,3.1,2.9,4.6,4.5
		c0.8,0.8,1.8,1.4,2.9,1.6c0.5,0.1,1.8,0,1.2-0.9c-1.7-2.6-3.2-5.4-4.6-8.2c-2-4-4.5-9-4-13.7c0.1-0.8,0.4-1.6,0.9-2.3
		c0.1-0.2,0.3-0.3,0.5-0.4c0.4-0.3,0.3-0.2,0.5-0.2c0.4-0.1-0.1,0.1,0.1,0s-0.3-0.1,0,0c0,0-0.5-0.2,0,0s-0.5-0.3,0,0
		c0.4,0.2-0.4-0.3,0,0l0.5,0.3c0.5,0.4-0.1-0.1,0.2,0.2l0.6,0.5c1.5,1.4,2.9,2.9,4.2,4.5c1.5,1.8,2.9,3.7,4.2,5.6
		c1.7,2.4,3.4,5,4.9,7.6c0.7,1,1.7,1.7,2.9,1.9c0.8,0.2,1.8,0.2,1.4-0.8c0-0.1,0-0.1-0.1-0.2c0.2,0.5-0.1-0.2-0.1-0.4
		c-0.2-0.8-0.5-1.5-0.7-2.3c-0.7-2.4-1.4-4.8-1.9-7.2c-0.7-2.8-1.2-5.6-1.6-8.4c-0.3-2.1-0.6-4.5,0-6.5c0.1-0.6,0.5-1.2,0.9-1.6
		c0.4-0.3,0.3,0,0.6-0.2c0.1-0.1-0.4-0.1-0.1,0s0.2,0.1-0.2,0c0.5,0.2-0.5-0.2,0.1,0c0.4,0.2-0.6-0.3-0.1,0c0.4,0.2-0.5-0.4,0,0
		l0.5,0.3c-0.5-0.4,0.1,0.1,0.3,0.2c0.8,0.7,1.5,1.4,2.1,2.2c3.6,4.3,6.9,8.9,9.7,13.7c2,3.2,3.9,6.5,5.8,9.8
		c0.5,0.8,1.3,1.4,2.3,1.7c0.4,0.1,1.9,0.6,2.1,0c0.7-2.7,1.7-5.2,3-7.6c0.9-1.8,2.2-3.5,3.8-4.8c0.7-0.6,1.6-1,2.5-1.2
		c0.4-0.1,0.8-0.1,1.1-0.1c0.3,0,0.4,0.1,0.1,0c0.3,0.1-0.2-0.1-0.2-0.1c0.3,0.1-0.2-0.1-0.3-0.1c-0.2-0.1-0.4-0.2-0.6-0.4
		c0.3,0.2-0.3-0.3,0,0s0.1,0.1,0.1,0.1c0.1,0.1,0.2,0.3,0.2,0.4c0.3,0.6,0.5,1.2,0.6,1.8c0.3,1.8,0.4,3.6,0.3,5.4
		c-0.3,4.2-0.9,8.3-1.8,12.3c-0.5,2.4-1.1,4.9-1.8,7.3C160.5,168.3,165,170.3,165.4,169.1z" fill="#000005"></path><path class="st2" d="M148.2,153.9c-1.6,1.4-3.4,2.5-4.9,3.9c-1.3,1.3-2.4,2.8-3.2,4.5c-1.7,3.5-2.2,7.4-2.6,11.2
		c0.8-0.1,1.7-0.3,2.4-0.6c0.4-0.1,2.2-0.6,2.3-1c0.5-3.7,1-7.5,2.5-10.9c0.8-1.7,1.9-3.3,3.2-4.6c1.5-1.4,3.3-2.6,4.9-3.9
		c0.2-0.2-0.3-0.1-0.3-0.1c-0.5,0.1-1,0.2-1.4,0.4C150,153,149,153.4,148.2,153.9L148.2,153.9z" fill="#000005"></path><path class="st2" d="M214.5,201.5c0,0,83.5,15.1,102.8-3.4c0,0-18.9-61.9-27.6-74.2s-47.4-6.2-62.3,6.3S214.5,201.5,214.5,201.5z" fill="#000005"></path><path class="st2" d="M215.9,202.7c2.8,0.5,5.7,0.9,8.5,1.4c7,1.1,14.1,2,21.2,2.7c9,0.9,18.1,1.6,27.1,1.8
		c8.8,0.3,17.5-0.1,26.2-1.4c6.5-1,13.7-2.5,19.1-6.7c0.5-0.4,1.1-0.9,1.6-1.3V199c-3.4-11.1-7-22.2-10.8-33.1
		c-2.9-8.5-5.9-16.9-9.2-25.2c-1.3-3.3-2.7-6.6-4.3-9.9c-1-2.4-2.3-4.7-3.9-6.8c-2.5-3.1-6.4-4.9-10.1-6.1
		c-4.5-1.3-9.2-1.9-13.9-1.8c-10.2,0.1-20.2,2.2-29.6,6c-4.2,1.6-8.1,3.8-11.7,6.5c-2.4,2-4.4,4.5-5.7,7.4c-3.5,7.2-5,15.4-6.1,23.3
		c-1.8,13.5-2.5,27.1-2.1,40.8c0,0.2,0,0.5,0,0.7c0,1.2,4.6,2.8,4.6,1.6c-0.2-7.2-0.1-14.4,0.3-21.6c0.6-12.6,1.7-25.7,5.8-37.6
		c1.5-4.5,3.6-9.1,7.4-12.1c5.4-4.3,12.1-7,18.6-8.9c7.2-2.2,14.7-3.3,22.2-3.4c3.2-0.1,6.3,0.2,9.4,0.9c0.4,0.1,0.7,0.2,1.1,0.3
		s0.5,0.1,0.7,0.2s0.6,0.2,0.9,0.3l0.3,0.1c-0.3-0.1,0.2,0.1,0.3,0.1s1.1,0.5,0.6,0.2l0.7,0.4c0.4,0.2,0.1,0,0,0l0.4,0.3
		c0.2,0.1,0.4,0.2,0.5,0.4c2.9,2.4,4.5,6.8,6.1,10.3c2.5,5.5,4.6,11.1,6.7,16.7c4.4,12,8.5,24.1,12.4,36.2c1.1,3.6,2.3,7.2,3.4,10.8
		c0.1,0.4,0.2,0.8,0.4,1.2c0,0.1,0.1,0.2,0.1,0.3c0,0.1,0,0.1,0,0.1s-0.8,0.6-1,0.7c-0.4,0.3-0.9,0.7-1.4,1
		c-0.9,0.6-1.8,1.1-2.8,1.6c-4.7,2.1-9.6,3.5-14.7,4.2c-6.2,0.9-12.5,1.3-18.7,1.4c-12.9,0-25.8-0.7-38.7-2.3
		c-7.9-0.9-15.7-2-23.5-3.3l-1.1-0.2c-1-0.2-1.1,0.4-0.5,1C213.5,202.1,214.7,202.6,215.9,202.7z" fill="#000005"></path><path class="st0" d="M293,184.4l-1.1,18.2c0.1,0.4,0.3,0.7,0.5,1c0.3,0.5,0.7,1.1,1.1,1.5c0.1,0.2,1.4,1.5,1.4,1.1l1.1-18.2
		c0-0.3-0.4-0.9-0.5-1c-0.4-0.5-0.7-1.1-1.1-1.6C294.3,185.4,293,184,293,184.4L293,184.4z" fill="#FFFFFF"></path><path class="st0" d="M231.7,163.1c0,0-3.6-11.1-8.1-8s2.3,24.2,9.3,19.4S231.7,163.1,231.7,163.1z" fill="#FFFFFF"></path><path class="st2" d="M234.2,163.2c-1-3-2.6-6.9-5.4-8.5c-2.2-1.2-6.1-1.3-8,0.6c-1,1.1-1.2,3-1.2,4.4c0.1,4.5,1.5,8.8,4,12.5
		c1,1.6,2.5,2.8,4.3,3.5c2.6,0.9,5.6,0.5,7.8-1.2c1.3-0.9,2.1-2.3,2.4-3.9c0.1-1.3-0.2-2.6-0.9-3.7c-0.8-1.5-1.9-2.8-3.2-3.9
		c-0.9-0.6-2-0.8-3.1-0.6c-0.2,0-2.4,0.4-1.8,1c2.2,1.8,4.6,4.9,3.8,7.9c-0.4,1.2-1.2,2.2-2.2,2.9l-0.6,0.3
		c-0.1,0.1-0.4,0.2-0.1,0.1c-0.4,0.2,0.1,0-0.1,0c0,0,0.6-0.1,0.2,0c0.3,0,0.6,0,0.9,0c-0.4,0,0.2,0,0.2,0c-0.3-0.1,0.1,0,0.1,0.1
		s-0.6-0.2-0.2-0.1c-0.3-0.2-0.6-0.3-0.9-0.5c-0.6-0.5-1.1-1-1.5-1.6c-2.3-3.1-3.7-6.7-4.1-10.6c-0.3-1.6-0.2-3.2,0.1-4.8
		c0.1-0.5,0.4-1,0.7-1.4c0.1-0.1,0.3-0.2,0.1-0.1c0.2-0.1,0.4-0.2,0.6-0.3c0,0.1-1,0.1-1,0.1c-0.4,0-0.7-0.1-1.1-0.1
		c0.1,0,0.2,0,0.3,0.1l0.3,0.2c0.1,0.1,0.3,0.2,0.4,0.3c0.4,0.3,0.7,0.7,1,1.1c0.6,0.8,1.2,1.7,1.6,2.7c0.6,1.1,1,2.2,1.4,3.4
		C229.6,164.5,234.4,163.9,234.2,163.2z" fill="#000005"></path><path class="st0" d="M293.4,164c0,0,5.4-10.3,9.3-6.5s-6.2,23.5-12.3,17.6S293.4,164,293.4,164z" fill="#FFFFFF"></path><path class="st2" d="M295.8,163.7c0.1-0.3,0.3-0.6,0.5-0.8c0,0,0.3-0.5,0.1-0.2l0.3-0.4c0.2-0.4,0.5-0.7,0.7-1.1
		c0.5-0.8,1.1-1.5,1.7-2.2c0.2-0.2,0.3-0.4,0.5-0.5s-0.2,0.1,0,0l0.2-0.2c0.2-0.1,0.4-0.3,0.5-0.4s0.3-0.2-0.1,0
		c0.1-0.1,0.2-0.1,0.3-0.2c0.2-0.2-0.5,0.2-0.1,0c0.2-0.1,0.5-0.1-0.2,0.1c0.5-0.1-0.9,0.1-0.5,0.1c-0.1,0-0.5,0-0.2,0s0.1,0,0,0
		c0.2,0,0.3,0.1,0.4,0.2c0.2,0.2,0.5,0.4,0.6,0.6c0.2,0.2-0.1-0.1,0,0c0,0.1,0.1,0.1,0.1,0.2c0.1,0.1,0.1,0.3,0.1,0.4
		c0.3,1.4,0.3,2.9-0.2,4.2c-0.9,3.7-2.7,7.1-5.3,9.9l-0.4,0.4c-0.3,0.3,0.1-0.1-0.3,0.2s-0.6,0.5-1,0.7c0.4-0.2,0.1-0.1-0.1,0.1
		c-0.1,0-0.2,0.1-0.2,0.1c-0.3,0.2,0.2-0.1,0.2-0.1s-0.7,0.2,0.1,0l-0.2,0.1c-0.4,0.1,0.6-0.1,0.2-0.1s0.6,0,0.1,0
		c0.6,0,0.1,0-0.1,0s0.3,0.1,0.1,0c-0.1,0-0.1,0-0.2-0.1l-0.4-0.2c-0.3-0.3-0.6-0.5-0.9-0.8c-0.5-0.5-0.8-1-1.1-1.6
		c-1-2.1-0.2-4.1,1.2-5.6c0.2-0.2,0.4-0.4,0.5-0.6c0,0,0.3-0.2,0.1-0.1s0.2-0.1,0.2-0.2c0.3-0.3,0.7-0.5,1-0.8
		c0.2-0.2,0.5-0.3,0.8-0.5s-0.5,0.3-0.1,0.1c0.6-0.3,1.6-1.2,0.5-1.6c-1.1-0.3-2.4-0.2-3.4,0.4c-3,1.7-6.9,5.1-6,9
		c0.6,2.4,2.4,4.3,4.9,4.9c2.6,0.3,5.2-0.4,7.2-2c3.5-2.6,6-7.1,7.3-11.2c0.6-1.8,0.9-3.6,0.6-5.5c-0.5-1.9-2.3-3.2-4.3-3
		c-5.1,0.1-8.5,4.7-10.6,8.8c-0.5,0.9,1.6,0.9,2,0.9C294.1,165.2,295.2,164.6,295.8,163.7z" fill="#000005"></path><path class="st0" d="M248.9,188.4l-5.4,15.4c0,0,10.9,17.4,28,2.9l-0.3-13L248.9,188.4z" fill="#FFFFFF"></path><path class="st2" d="M247,186.7l-4,11.5l-1,2.8c-0.2,0.4-0.4,0.8-0.4,1.3c0,0.8,1.5,2.2,1.9,2.7c3.2,3.8,7.4,7.3,12.3,8.6
		c2.9,0.8,5.9,0.7,8.7-0.2c1.8-0.6,3.6-1.4,5.2-2.4c0.9-0.6,1.8-1.2,2.7-1.9c0.4-0.3,0.8-0.5,0.9-1c0.1-0.8,0-1.7-0.1-2.5l-0.1-4.5
		l-0.1-5.9c0-0.6-1.1-1.6-1.5-1.9c-0.6-0.6-1.3-1.1-2.1-1.3l-19.5-4.6l-2.8-0.6c-0.7-0.1,0.8,1.6,0.8,1.7c0.7,0.8,1.5,1.4,2.5,1.8
		l19.5,4.6l2.8,0.7l-3.6-3.2l0.2,7.1l0.1,4.5c0.1,0.4,0.1,0.8,0,1.2c-0.2,0.6-1.5,1.2-2,1.6c-3.7,2.6-8,4.5-12.6,4
		c-1.6-0.2-3.2-0.6-4.7-1.4c-0.6-0.3-1.1-0.6-1.6-1l-0.4-0.3c-0.5-0.4,0.2,0.2-0.1-0.1l-0.4-0.3l-0.3-0.2c0.2,0.2,0.3,0.2,0.1,0.1
		c-0.2-0.1-0.9-0.8-0.4-0.3l-0.7-0.7c-0.4-0.4,0.3,0.4,0,0l-0.3-0.3l-0.5-0.6c-0.3-0.3,0.2,0.3,0.1,0.1l-0.2-0.3l-0.3-0.4
		c-0.1-0.1-0.2-0.2-0.2-0.3l0.3,0.8l5.4-15.4C251.2,188.9,247.1,186.5,247,186.7z" fill="#000005"></path><path class="st0" d="M231.1,158.5c0,0-1.9,33.2,22.1,41.8c29.9,10.7,45.1-23.3,43.7-49c0,0-23.2-5.3-27.4-20
		C269.5,131.4,244.6,160.9,231.1,158.5z" fill="#FFFFFF"></path><path class="st2" d="M229.1,157.5c-0.2,4.7,0.2,9.4,1.1,14.1c1.6,8.8,5.2,17.5,11.6,23.9c7.2,7.2,18.8,10.9,28.8,8.5
		c9.6-2.3,16.6-9.8,21-18.2c4.8-9.4,7.2-19.7,7.2-30.3c0-1.2,0-2.5-0.1-3.7c-0.1-1.3-0.9-2.4-2.1-2.8c-2.5-0.6-5-1.4-7.4-2.4
		c-5-1.8-9.6-4.7-13.5-8.3c-2.1-2-3.6-4.4-4.5-7.2c-0.3-1.1-2.1-3.2-3.3-1.8c-2.8,3.4-5.9,6.6-9,9.7c-5.6,5.5-11.6,11-18.6,14.7
		c-1.6,0.8-3.2,1.5-4.9,2c-0.8,0.2-1.6,0.4-2.5,0.4c-0.4,0-0.8,0-1.1,0c-0.3,0-0.6,0-0.9-0.1c-2.8-0.5-1.9,4.3,0.3,4.7
		c7.2,1.2,14.5-4.1,19.9-8.3c5.9-4.7,11.5-9.9,16.5-15.5c1.1-1.2,2.3-2.5,3.3-3.8l-3.4-1.8c3.4,11.6,15.5,17.9,26.3,21.2
		c1,0.3,2,0.6,3.1,0.9l-2.1-2.8c0.5,9.7-1.2,19.4-5,28.3c-3.5,8-9.1,15.7-17.5,19.1c-8.6,3.5-19.4,1.4-26.5-4.3
		c-1.6-1.2-3.1-2.7-4.3-4.3c-1.3-1.6-2.4-3.3-3.3-5.1c-1.8-3.4-3.1-7.1-3.9-10.9c-0.4-1.8-0.7-3.6-0.9-5.5c-0.2-1.6-0.3-3.1-0.4-4.7
		c0-1.1-0.1-2.2-0.1-3.3c0-0.3,0-0.6,0-0.9c0,0.9,0,0.4,0,0.2c0.1-1.3-0.5-2.5-1.6-3.2c-0.7-0.4-1.6-0.2-2,0.5
		C229.2,157,229.1,157.2,229.1,157.5z" fill="#000005"></path><path class="st2" d="M245.1,169.2c-0.1,0.9-0.1,1.8,0,2.7c0.1,0.8,0.4,1.5,0.8,2.1c0.5,0.8,1.3,1.5,2.2,1.9c1.6,0.6,3.3,0.7,5,0.4
		c0.6-0.1,1.2-0.3,1.7-0.6c0.3-0.2,0.7-0.6,0.6-1c-0.2-1-1.9-1.1-2.6-1c-0.2,0-0.4,0.1-0.5,0.1H252c-0.2,0-0.6,0,0.4,0h-0.6
		c-0.4,0,0.6,0.1,0.3,0l-0.4-0.1h-0.2c-0.3-0.1,0.6,0.2,0.3,0.1s-0.4-0.2-0.6-0.3l0.4,0.2c-0.3-0.2-0.5-0.3-0.8-0.6l0.3,0.3
		c-0.4-0.4-0.7-0.8-0.9-1.4l0.1,0.3c-0.4-1.1-0.5-2.3-0.4-3.4v0.4c0,0,0-0.1,0-0.1c0.1-0.2,0.1-0.4,0-0.5c-0.1-0.2-0.2-0.4-0.4-0.4
		c-0.5-0.3-1-0.4-1.6-0.4c-0.7,0-1.3,0.1-1.9,0.4l-0.5,0.3C245.5,168.7,245.3,169,245.1,169.2L245.1,169.2z" fill="#000005"></path><path class="st2" d="M269.4,126.9c-0.8,1.2-1.7,2.4-2.5,3.5c-0.5,0.6-0.9,1.2-1.4,1.7c0,0.1-0.4,0.5-0.2,0.3l-0.3,0.4l-0.8,1
		c-1.3,1.6-2.6,3.1-4,4.6c-6.5,7-14,13.4-22.9,16.7c-5,1.9-10.4,2.3-15.5,1.1c-1.3-0.2-2.5,0.3-3.2,1.4c-0.5,0.6-0.3,1.5,0.3,2
		c0.2,0.1,0.4,0.2,0.7,0.3c10.9,2.6,21.9-1.6,30.8-7.8c7.6-5.5,14.3-12.1,20-19.5c1.2-1.5,2.4-3.1,3.5-4.8c0.5-0.6,0.3-1.5-0.3-2
		c-0.2-0.1-0.4-0.2-0.7-0.3C271.4,125.3,270.1,125.8,269.4,126.9L269.4,126.9z" fill="#000005"></path><path class="st0" d="M227.4,152.9c13.1-3.9,29.5-9.4,35.4-23.1c0.9-2.1-4-2.9-4.8-1c-5.6,12.7-20.8,17.7-33.1,21.3
		c-0.9,0.3-1.7,1.2-1,2.1C224.9,153,226.2,153.3,227.4,152.9L227.4,152.9z" fill="#FFFFFF"></path><path class="st0" d="M224.3,148.4c10-5.8,20.7-12.2,26.4-22.7c0.8-1.5-3-4.6-3.6-3.5c-5.6,10.5-16.4,16.9-26.4,22.7
		C219.6,145.6,222.8,149.3,224.3,148.4z" fill="#FFFFFF"></path><path class="st0" d="M275.2,132.9c5.3,5.7,12.2,9.8,19.7,11.9c0.8,0.2,2.3,0,2.3-1.1s-1.6-1.8-2.5-2.1c-1.5-0.4-2.9-1-4.3-1.6
		c-0.8-0.4-1.1-0.5-1.9-0.9s-1.5-0.8-2.1-1.2c-2.6-1.6-5-3.5-7.1-5.8c-0.8-0.9-2-1.4-3.3-1.3C275,131.2,274.5,132.1,275.2,132.9
		L275.2,132.9z" fill="#FFFFFF"></path><path class="st0" d="M270.8,174c0,0,17.2-2.7,21.1-12.6s-8.2-10.4-18.6,0" fill="#FFFFFF"></path><path class="st2" d="M272.2,175.7c5.8-0.8,11.4-3,16.2-6.3c3.2-2.3,6.2-5.8,6.4-10c0.2-4.4-4.2-7.3-8.2-7.4
		c-5.8-0.1-11.4,4-15.4,7.9c-1.1,1.1,2.8,4.2,4.1,2.9c3.3-3.2,7.6-6.5,12.4-7.2c0.7-0.1,1.5-0.2,2.2-0.1l0.4,0.1
		c0.6,0.1-0.4-0.1,0.1,0c0.2,0,0.5,0.3,0.1,0c0.2,0.1,0.2,0.1-0.1-0.1c0.2,0.2,0.2,0.1-0.1-0.1c0.1,0.1,0.5,0.4,0,0
		c0.1,0.1,0.1,0.3,0-0.1c0,0.1,0.2,0.3,0.2,0.4c-0.1-0.4,0,0.1,0,0.2c0.1,0.7,0.1,1.4,0,2.1c-1.3,7.1-9.4,10.8-15.5,12.8
		c-1.8,0.6-3.6,1.1-5.5,1.4c-1.1,0.2-0.7,1.2-0.2,1.8S271.2,175.8,272.2,175.7L272.2,175.7z" fill="#000005"></path><path class="st0" d="M226,180.4l-1,18.2c0,0.3,0.4,0.9,0.6,1c0.4,0.5,0.8,1,1.3,1.4c0.2,0.2,1.6,1.4,1.7,0.8l1.1-18.2
		c0-0.3-0.4-0.9-0.6-1.1c-0.4-0.5-0.8-1-1.3-1.4C227.6,181,226.1,179.7,226,180.4L226,180.4z" fill="#FFFFFF"></path><path class="st2" d="M260.8,153.8c-0.3,1.1,0.3,2.2,1.4,2.5c0.1,0,0.2,0,0.3,0.1c2.2,0.3,2.6-2.4,0.8-3.2c-0.8-0.5-1.8-0.3-2.3,0.5
		C260.9,153.6,260.9,153.7,260.8,153.8z" fill="#000005"></path><path class="st2" d="M271.2,154.9c-0.3,1.1,0.3,2.2,1.4,2.5c0.1,0,0.2,0,0.3,0.1c2.2,0.3,2.6-2.4,0.8-3.2c-0.8-0.5-1.8-0.3-2.3,0.5
		C271.2,154.7,271.2,154.8,271.2,154.9z" fill="#000005"></path><path class="st1" d="M271.9,59.7c-0.3,5.6-0.1,11.3,0.7,16.9c0.2,1.2,1.2,2.2,2.4,2.3c1,0.1,2.5-0.4,2.4-1.7c-0.2-1.5,0-3,0.5-4.3
		c0.2-0.6,0.4-1.1,0.8-1.6c0.2-0.3,0.4-0.6,0.7-0.9c0.1-0.1,0.4-0.3,0.5-0.3c-0.1,0,0,0,0.2,0c-0.2,0-0.5,0-0.6-0.2
		c0.2,0.2,0.2,0.2,0,0l0.1,0.1c0.3,0.4,0.4,0.8,0.5,1.2c0.4,1.5,0.5,3.1,0.4,4.7c-0.1,1.2,1.4,2.2,2.5,2.3c1.1,0.2,2.1-0.4,2.4-1.5
		c0-0.1,0-0.1,0-0.2c0.4-4.2-1-10.8-6.5-10.4c-4.8,0.4-6.7,6.6-6.3,10.6l4.9,0.6c-0.8-5.6-1-11.3-0.7-16.9
		C276.9,57.9,272,57,271.9,59.7L271.9,59.7z" fill="#59BE4C"></path><path class="st1" d="M288.2,71.4c1.9,2.1,5.3,3.2,8,1.9c1.1-0.6,1.9-1.6,2.3-2.8c0.3-1.5-0.3-3.1-1.4-4.1c-1.2-1.4-3.1-2-5-1.5
		c-1.3,0.5-2.3,1.4-2.9,2.7c-0.6,1.2-1,2.6-1.1,4c-0.2,1.6,0.4,3.2,1.6,4.3c1.3,1.3,3,2,4.8,2c1.6-0.1,3.2-0.7,4.5-1.7
		c0.9-0.7,0.3-1.9-0.4-2.5c-0.5-0.5-1-0.8-1.7-1c-0.5-0.2-1-0.1-1.5,0.1c-0.4,0.3-0.7,0.5-1.1,0.7c-0.2,0.1-0.4,0.2-0.6,0.3
		s-0.3,0.1,0,0c-0.1,0.1-0.3,0.1-0.4,0.1c-0.2,0-0.4,0.1-0.6,0.1s0,0,0,0h-0.3c-0.1,0-0.2,0-0.2,0c0.2-0.1,0.4,0.1,0.2,0l-0.3-0.1
		c-0.3-0.1,0.5,0.2,0.2,0.1s0.2,0.2,0.2,0.2s-0.2-0.1-0.3-0.2c-0.2-0.2,0.4,0.4,0.2,0.2c-0.1-0.1-0.3-0.3,0,0s0,0,0-0.1
		s0.3,0.5,0.1,0.2s-0.1,0,0,0.1c-0.1-0.1,0-0.4-0.1-0.5s0-0.3,0,0c0-0.1,0-0.2,0-0.3s0-0.4,0.1-0.7c0.1-0.5,0.2-1,0.3-1.5
		c0-0.1,0.1-0.2,0.1-0.3c0,0,0.2-0.5,0.1-0.3s0.1-0.2,0.1-0.2s0.1-0.2,0.1-0.3c0.2-0.4,0.5-0.8,0.8-1.2l0.2-0.2
		c-0.1,0.1-0.2,0.2,0,0c0.2-0.1,0.3-0.2,0.5-0.3c0.3-0.2,0.1,0,0,0l0.4-0.1c0.3-0.1-0.3,0-0.1,0s0.1,0-0.2,0l-0.4-0.1
		c0.4,0.2-0.5-0.3-0.2-0.1s-0.5-0.4-0.2-0.2s-0.4-0.4-0.2-0.2S294,68,294,67.8c0,0,0.1,0.2,0.1,0.2s-0.1-0.4,0-0.1v0.2
		c0.1,0.3,0.1-0.3,0,0c0,0.2-0.1,0.3-0.1,0.5s0,0,0,0l-0.1,0.2c-0.1,0.2-0.2,0.3-0.4,0.5c0,0-0.2,0.2-0.1,0.1s-0.1,0.1-0.1,0.1
		c-0.2,0.1-0.4,0.3-0.6,0.3c-0.1,0-0.2,0.1-0.2,0.1c0.4-0.1,0,0-0.1,0s-0.4,0-0.6,0.1c0.3-0.1,0.3,0,0.1,0h-0.4
		c-0.2,0-0.3-0.1,0.2,0c-0.1,0-0.3-0.1-0.4-0.1l-0.2-0.1l0.3,0.1l-0.2-0.1c-0.2-0.1-0.2-0.2,0.2,0.2c-0.1-0.1-0.2-0.1-0.3-0.2
		c-0.3-0.2,0.5,0.5,0.2,0.1c-0.1-0.1-0.2-0.2-0.3-0.3c-0.5-0.5-1-0.8-1.7-1c-0.5-0.2-1-0.1-1.5,0.1
		C286.9,69.6,287.6,70.7,288.2,71.4L288.2,71.4z" fill="#59BE4C"></path><path class="st1" d="M301.7,61c0,4.9,0.1,9.8,0.4,14.7c0,0.8,2.1,0.6,2.6,0.6s2.5-0.2,2.4-1c-0.3-4.9-0.4-9.8-0.4-14.7
		c0-0.8-2.1-0.6-2.6-0.6S301.7,60.2,301.7,61L301.7,61z" fill="#59BE4C"></path><path class="st1" d="M310,61.4l1.2,12.3c0.2,1.2,1.2,2.1,2.4,2.3c0.8,0.1,2.5-0.1,2.4-1.3l-1.2-12.3c-0.2-1.2-1.2-2.1-2.4-2.3
		C311.6,60,309.9,60.2,310,61.4z" fill="#59BE4C"></path><path class="st1" d="M320.6,65.5c-1.5,1.5-2.6,3.4-2.9,5.5c-0.4,1.8,0.4,3.7,2.1,4.6c1.1,0.4,2.3,0.6,3.5,0.6
		c1.4,0.1,2.8-0.2,4.1-0.8c1.2-0.7,2-1.8,2.2-3.2c0.2-0.8,0.2-1.6,0.2-2.4c0-1.1-0.5-2.2-1.2-3c-0.9-0.8-1.9-1.3-3-1.8
		c-0.5-0.2-1.1-0.3-1.7-0.2c-0.6,0.1-1.3,0.4-1.8,0.8c-0.4,0.3-0.7,0.8-0.7,1.3c0,0.5,0.2,0.9,0.7,1.1c0.9,0.3,1.7,0.8,2.4,1.3
		l-0.4-0.3c0.3,0.2,0.5,0.5,0.7,0.7l-0.2-0.4c0.2,0.4,0.3,0.7,0.4,1.1l-0.1-0.4c0.1,1,0.1,2-0.1,2.9l0.1-0.5c0,0.1,0,0.2-0.1,0.3
		c0,0.1-0.1,0.2-0.1,0.3c0.2-0.3,0.2-0.3,0.1-0.2l-0.1,0.1c0.2-0.3,0.3-0.3,0.2-0.2s0,0.1,0.3-0.2c-0.4,0.2,0.6-0.2,0.2-0.1
		c0.7-0.2,0.4-0.1,0.2-0.1h-0.4h-0.2h0.2c-0.1,0-0.3,0-0.4,0h-0.4h-0.9c-0.4,0,0.5,0.1,0,0l-0.3-0.1l-0.2-0.1
		c0.3,0.1,0.3,0.1,0.2,0.1c-0.1-0.1-0.2-0.1-0.3-0.2l0.4,0.3c-0.2-0.2-0.4-0.4-0.5-0.6l0.2,0.4c-0.2-0.3-0.3-0.7-0.4-1.1l0.1,0.4
		c-0.1-0.6,0-1.2,0.1-1.8l-0.1,0.5c0.1-0.3,0.2-0.7,0.3-1c0-0.1,0.4-0.9,0.4-0.9c-0.1,0.3-0.2,0.3-0.1,0.1s0.1-0.1,0.1-0.2l0.3-0.4
		c0.1-0.1,0.2-0.3,0.3-0.4l-0.1,0.1l0.2-0.2c0.4-0.3,0.7-0.8,0.7-1.3c0-0.5-0.3-0.9-0.7-1.1C322.9,64.4,321.6,64.7,320.6,65.5
		L320.6,65.5z" fill="#59BE4C"></path></g><g id="character-2"><path class="st0" d="M462.6,420.6c13-7.8-8.9-117.3-80.3-125.1c-42.9-4.7-86,60.1-86,60.1s-20.1-3.5-29.9,5.6s-4,75.4,38.9,70.8"></path><path class="st1" d="M463.6,422.9c3.4-2.1,3.8-7.6,4-11.1c0.2-7-0.4-14.1-1.9-21c-1.8-9.1-4.4-18.1-7.8-26.8
		c-3.8-9.8-8.5-19.2-14.2-28c-5.7-9-12.7-17.1-20.7-24.2c-7.9-7-17.2-12.3-27.2-15.6c-5.3-1.7-10.8-2.8-16.4-3.2
		c-5.7-0.3-11.4,0.5-16.9,2.2c-11.6,3.5-22.1,10.4-31.4,18.1c-8.7,7.3-16.7,15.3-23.9,24c-4.2,5-8.2,10.1-12,15.5l-0.5,0.8l0.6-0.3
		c-3.2-0.5-6.4-0.7-9.6-0.6c-5.9,0.1-12.3,0.9-17.5,4c-2.8,1.5-5,4-6,7c-1,3-1.6,6.2-1.7,9.4c-0.5,8.7,0.5,17.4,2.9,25.7
		c2.5,9.1,6.8,18,13.3,24.9c6.5,7,15.5,11,25.1,11c1.3,0,2.6-0.1,4-0.2c2.1-0.2,0.3-4.8-1.5-4.7c-4.7,0.6-9.4,0.1-13.9-1.3
		c-3.9-1.3-7.6-3.4-10.7-6.2c-1.5-1.4-2.8-2.8-4.1-4.4c-0.4-0.5-1.2-1.6-1.8-2.4s-1.2-1.8-1.7-2.7c-0.1-0.1-0.1-0.2-0.2-0.3
		c0.2,0.4,0,0.1,0,0l-0.4-0.7c-0.3-0.5-0.5-1-0.8-1.5c-0.5-1-1-2-1.4-3c-0.2-0.5-0.4-1-0.6-1.5c-0.1-0.1-0.3-0.8-0.1-0.3
		c-0.1-0.3-0.2-0.6-0.3-0.9c-0.4-1-0.8-2.1-1.1-3.1c-1.3-4-2.3-8.2-2.8-12.4c-0.6-3.8-0.8-7.6-0.7-11.4c0-1.7,0.2-3.4,0.4-5.1
		c0-0.4,0.1-0.8,0.2-1.1c0-0.1,0-0.2,0-0.3s0,0.3,0,0.1s0.1-0.4,0.1-0.6c0.1-0.7,0.3-1.4,0.5-2.1s0.4-1.2,0.6-1.8
		c0.1-0.3,0.2-0.5,0.3-0.8s0.4-0.9,0.2-0.5c0.4-0.8,1-1.6,1.6-2.3c4.2-4,10.7-5.3,16.3-5.8c4.1-0.3,8.3-0.2,12.4,0.4l0.7,0.1
		c0.3,0,0.5-0.1,0.6-0.3c2.5-3.7,5.2-7.2,7.9-10.7c6.3-8.1,13.3-15.7,20.7-22.7c8.6-8.1,18.2-15.6,29-20.8
		c5.1-2.5,10.6-4.3,16.3-5.3c5.4-0.8,11-0.7,16.4,0.4c10.1,1.9,19.7,5.9,28.1,11.8c8.2,5.8,15.4,12.9,21.3,21c6,8,11,16.7,15,25.9
		c0.5,1.1,1,2.2,1.5,3.4l0.7,1.7l0.3,0.8c0,0.1,0.1,0.2,0.1,0.3c0.3,0.7-0.1-0.2,0.1,0.2c0.9,2.2,1.7,4.5,2.5,6.8
		c1.5,4.3,2.7,8.6,3.8,13c0.1,0.5,0.2,1,0.4,1.4c0,0.2,0.1,0.5,0.2,0.7c0.1,0.4,0,0.1,0,0c0,0.2,0.1,0.3,0.1,0.5c0.2,1,0.4,2,0.6,3
		c0.4,1.9,0.7,3.9,1,5.8c0.3,1.8,0.5,3.5,0.6,5.3c0.1,0.8,0.1,1.7,0.2,2.5c0,0.2,0,0.4,0,0.6c0,0.4,0-0.3,0,0.2s0,0.8,0,1.2
		c0.1,2.7,0,5.4-0.4,8c0.1-0.5,0,0.2-0.1,0.4s-0.1,0.5-0.2,0.8c-0.1,0.5-0.2,0.9-0.4,1.4s-0.3,0.8-0.5,1.2s0.1-0.3,0,0l-0.1,0.2
		c-0.1,0.2-0.2,0.3-0.3,0.5c-0.2,0.3-0.4,0.5-0.6,0.8c-0.1,0.1-0.4,0.4-0.1,0.1l-0.4,0.3C459.8,419.4,462.1,423.8,463.6,422.9
		L463.6,422.9z"></path><path class="st0" d="M392,357.1c8.5,22.7,11.4,47,8.6,71.1c-0.2,1.8,4.5,0.4,4.7-1.3c2.2-18.8,0.9-37.9-3.9-56.3
		c-1.3-5.2-3-10.4-4.9-15.4C396,353.5,391.4,355.4,392,357.1L392,357.1z"></path><path class="st2" d="M402.5,259.2c0,0,20.7,3.1,23.6-5.4s-10.1-5.9-10.1-5.9s14.4-17.7-6.6-19.8c0,0,16.8-13.7,2.5-25.1
		s-41.1-2.3-41.1-2.3s-0.1-18.6-21.3-15.2S334,199.8,334,199.8s-13.6,2-13.6,8.4s10.3,8.4,10.3,8.4s4.7,18,23.1,14.5l19,22
		c0,0-5.9,8.6,1.3,16.9S404,270.9,402.5,259.2z"></path><path class="st2" d="M402.8,261.2c5.7,0.8,12,1,17.6-0.5c3.7-1,7.1-2.9,8.2-6.8s-1.6-7.3-5.4-8.1c-2.7-0.5-5.4-0.5-8.1,0l2.8,3.7
		c4.3-5.3,8.3-14.1,2.1-19.6c-3-2.6-7.1-3.5-10.9-3.9l2.2,3.7c2.6-2.2,4.8-4.8,6.5-7.8c3-5.4,3.1-11.7-0.8-16.7
		c-8.5-10.9-24.6-11.1-37-9c-3.6,0.6-7.1,1.4-10.5,2.6l3.8,2.1c-0.1-6.6-3.9-12.7-9.7-15.8c-6.3-3.1-13.8-2.3-20.3-0.5
		c-4.7,1.3-10,3.7-11.7,8.6c-0.8,2.2-0.6,4.7,0.4,6.9l1.3-2.4c-4.2,0.6-8.8,1.9-12.2,4.6c-2.3,1.7-3.4,4.6-2.7,7.4
		c0.8,3.1,3.4,5.3,6.2,6.7c1.9,1,3.8,1.7,5.9,2.1l-2-2.1c1.9,7.4,7.6,14,14.9,16.3c3.7,1.1,7.7,1.2,11.5,0.4l-2.8-1.2l16.6,19.3
		l2.4,2.7l-0.3-2.1c-4.9,7.1-2.2,18.4,5.7,22.1c7.4,3.5,17.2,1.3,23.5-3.7c3.4-2.7,5.6-6.6,5.1-11c-0.3-2.4-5.1-3.3-4.7-0.4
		c0.1,1.3-0.1,2.6-0.6,3.8c-0.6,1.3-1.5,2.5-2.6,3.5c-2.4,2.1-5.4,3.7-8.5,4.4c-1.6,0.4-3.3,0.7-4.9,0.7c-0.8,0-1.6,0-2.4-0.1
		c-0.7-0.1-1.5-0.2-2.2-0.5c-0.2-0.1-0.9-0.3-0.8-0.3s-0.6-0.3-0.8-0.4s-0.9-0.6-0.5-0.3c-0.4-0.3-0.7-0.5-1-0.8
		c-0.3-0.3-0.1-0.1,0,0c-0.3-0.4-0.6-0.7-0.9-1.1c-0.4-0.5-0.8-1.1-1.1-1.7c-0.5-1.1-0.9-2.2-1.1-3.4c-0.4-3.1,0.3-6.2,2-8.7
		c0.3-0.7,0.2-1.5-0.3-2.1l-15.7-18l-3-3.4c-0.2-0.3-0.5-0.6-0.8-0.9c-1.6-1.4-4.2-0.3-6.1-0.3c-2.7,0.1-5.3-0.5-7.6-1.7
		c-0.3-0.1-0.5-0.3-0.8-0.5c-0.1-0.1-0.7-0.4-0.5-0.3s-0.5-0.3-0.5-0.4c-0.3-0.2-0.5-0.4-0.8-0.6c-0.8-0.6-1.5-1.4-2.1-2.2
		c-0.4-0.5-0.7-0.9-1-1.4c-0.1-0.2-0.3-0.4-0.4-0.6l-0.2-0.3c-0.3-0.5,0.2,0.4-0.1-0.1c-0.5-0.8-0.9-1.6-1.2-2.5
		c-0.3-0.6-0.5-1.2-0.7-1.8c0-0.2-0.1-0.4-0.2-0.5c0,0.1,0.2,0.6,0.1,0.3c-0.2-1-1-1.9-2.1-2.1c-1.3-0.3-2.5-0.6-3.7-1.1
		c0.5,0.2-0.2-0.1-0.3-0.1l-0.7-0.4c-0.3-0.1-0.5-0.3-0.8-0.5l-0.3-0.2c-0.2-0.1,0.2,0.2-0.1-0.1s-0.5-0.3-0.7-0.5s-0.6-0.6-0.3-0.3
		c-0.4-0.4-0.6-0.8-0.9-1.2c-0.8-1.8,0-3.4,1.6-4.6c0.9-0.7,1.8-1.2,2.9-1.6c0.5-0.2,1-0.4,1.6-0.6l0.9-0.3l0.6-0.2
		c1.4-0.4,2.9-0.8,4.3-1c0.9-0.1,1.6-0.9,1.5-1.9c0-0.2-0.1-0.4-0.2-0.5c-0.1-0.1-0.1-0.2-0.1-0.3c0-0.1-0.1-0.2-0.1-0.4
		c-0.2-0.6,0,0.3,0-0.1s-0.2-0.9-0.2-1.4c0-0.1,0-0.3,0-0.4s0,0.5,0,0s0-0.6,0.1-0.9c0.1-0.3,0.1-0.6,0.2-0.9c0,0-0.1,0.3,0-0.1
		c0.1-0.2,0.1-0.4,0.2-0.5c0.2-0.3,0.3-0.6,0.5-0.9c0-0.1,0.4-0.5,0.2-0.3s0.3-0.3,0.4-0.4c1.6-1.6,3.5-2.8,5.7-3.5
		c3.4-1.2,6.9-2,10.5-2.2c2.5-0.2,5,0.1,7.4,1c0.4,0.2-0.2-0.1,0.3,0.1l0.7,0.4l0.7,0.4l0.3,0.2c0.6,0.4-0.2-0.2,0.1,0
		s0.8,0.6,1.1,0.9l0.5,0.5l0.3,0.3c-0.1-0.1-0.2-0.2,0,0c0.6,0.7,1.1,1.4,1.6,2.1c0.2,0.3-0.2-0.3,0-0.1l0.1,0.2l0.3,0.5
		c0.2,0.4,0.4,0.8,0.5,1.1s0.3,0.8,0.5,1.2l0.1,0.2c0.2,0.5-0.1-0.3,0-0.1l0.1,0.5c0.2,0.6,0.3,1.3,0.4,1.9c0.1,0.6,0.2,1.2,0.2,1.8
		c0,1.8,2.4,2.5,3.8,2.1l0.5-0.2l0.6-0.2c0.5-0.2-0.3,0.1,0,0l0.5-0.1c1.8-0.5,3.6-0.9,5.4-1.3c5.2-1.2,10.6-1.6,15.9-1.4
		c5.8,0.3,11.6,1.7,15.9,5.4c2.2,1.7,3.7,4.2,4.1,7c0.2,2.3-0.3,4.6-1.3,6.7c-1.5,3.1-3.7,5.8-6.3,8c-1.7,1.4,0.7,3.5,2.2,3.7
		c1.6,0.1,3.1,0.5,4.6,0.9c0.3,0.1,0.6,0.2,0.9,0.3c-0.4-0.2,0.4,0.2,0.5,0.3c0.2,0.1,0.5,0.3,0.7,0.4s-0.1-0.1-0.1-0.1l0.4,0.3
		c0.2,0.2,0.4,0.3,0.6,0.5s-0.1-0.1-0.1-0.1c0.1,0.1,0.2,0.2,0.2,0.3l0.4,0.5c-0.1-0.1,0,0,0.2,0.3c0.1,0.2,0.1,0.4,0.2,0.6
		c0.2,0.5,0-0.2,0.1,0.2c0.1,0.4,0.2,0.9,0.2,1.3c0,0.1,0,0.2,0,0.3c0-0.1,0-0.4,0,0c0,0.2,0,0.4,0,0.6c0,0.5-0.1,0.9-0.2,1.4
		c-0.1,0.4-0.2,0.9-0.3,1.3c0,0.1,0,0.2-0.1,0.2c-0.1,0.3,0.1-0.3,0,0s-0.2,0.5-0.3,0.7c-0.6,1.4-1.3,2.8-2.2,4.1
		c-0.3,0.5-0.7,1.1-1.1,1.6c-0.2,0.3-0.7,0.9-0.1,0.2c-1.4,1.8,0.8,4,2.8,3.6c0.5-0.1,1.1-0.2,1.6-0.2s1.1-0.1,1.6-0.1
		c-0.6,0,0.3,0,0.5,0c0.4,0,0.8,0,1.1,0.1l0.9,0.1c0.6,0.1-0.5-0.1,0.1,0c0.1,0,0.2,0.1,0.4,0.1c0.2,0.1,1,0.4,0.4,0.1
		c0.1,0.1,0.3,0.2,0.5,0.2c0.5,0.2-0.5-0.3,0,0s0.2,0,0,0c0,0,0.2,0.3,0.2,0.3l-0.1-0.2c0,0.1,0.1,0.2,0.1,0.3s0.1,0.4,0,0
		c0.1,0.7,0,1.4-0.2,2c-0.4,1.2-1.1,2.2-2.2,2.8c-1.2,0.7-2.4,1.2-3.8,1.5c-3.2,0.7-6.5,1-9.8,0.8c-2-0.1-4-0.2-6-0.5
		c-1-0.2-1.9,0.5-2,1.4c0,0.1,0,0.3,0,0.5C400.4,260.2,401.5,261.2,402.8,261.2z"></path><path class="st0" d="M387.4,293.3c1.3-4.9-5.5-33.5-5.5-33.5s11.1-0.3,12.3-12.5s-11.5-13.5-17.4-1c0,0-13.2-25.1-6.3-38.9
		c0,0-23.4,15.1-38.1,12.3c0,0-14.9,42.1-2.9,57.8c10.5,13.7,20.3,12.7,20.3,12.7l1.2,2.8l4.6,4.5L387.4,293.3z"></path><path class="st2" d="M389.8,293.9c0.3-1.8,0.4-3.7,0.1-5.6c-0.3-2.9-0.8-5.8-1.3-8.6c-1-5.6-2.2-11.1-3.4-16.6
		c-0.3-1.2-0.6-2.5-0.9-3.7l-2.5,2.5c5.7-0.1,10.8-3.4,13.4-8.5c1.9-4,2.4-9.4,0.2-13.3c-2-3.4-5.9-5.2-9.7-4.4
		c-5.3,0.9-9.1,5.4-11.3,10l4.6-0.3c-0.1-0.2-0.2-0.4-0.3-0.7s-0.2-0.5-0.4-0.8c-0.2-0.4,0.1,0.3,0-0.1l-0.3-0.7
		c-1-2.2-1.9-4.3-2.7-6.6c-2.2-5.9-4-12.3-4.2-18.6c-0.2-3.4,0.5-6.9,1.9-10c0.3-0.9-0.2-1.9-1.1-2.3c-1-0.5-2.1-0.4-3,0.2
		c-0.8,0.5-1.5,1-2.3,1.4c-0.5,0.3,0.1-0.1-0.2,0.1l-0.6,0.4c-0.5,0.3-1,0.6-1.5,0.8c-1.1,0.6-2.3,1.2-3.5,1.8
		c-5.7,3-11.7,5.3-17.9,6.8c-1.6,0.4-3.2,0.6-4.9,0.7c-1.6,0.1-3.2,0-4.8-0.2c-1.1-0.2-2.7,0.1-3.1,1.3c-3.1,8.9-5.3,18.1-6.7,27.4
		c-1,6.9-1.5,14-0.4,21c0.5,3.1,1.4,6,2.9,8.8c2.3,3.9,5.3,7.3,8.8,10c4.3,3.4,10,6.5,15.7,6l-3-1.5c0.5,1.2,1,2.8,2,3.8
		c1.2,1.2,2.5,2.4,3.7,3.6c0.9,1,2.2,1.5,3.5,1.3c0.9-0.1,1.7-0.2,2.6-0.3l22.3-2.9l6.6-0.9c1.1-0.1,2-1.1,1.9-2.2
		c0-0.1,0-0.1,0-0.2c-0.4-1.3-1.9-1.7-3-1.5l-28,3.7l-4,0.5l2.4,0.6l-4.6-4.5l0.6,0.9l-1.2-2.8c-0.5-1.1-1.8-1.8-3-1.5
		c1.3-0.1,0.1,0-0.3,0s-0.6-0.1-1-0.1c0.3,0,0.3,0.1-0.1,0c-0.3,0-0.5-0.1-0.8-0.2c-1.1-0.2-2.1-0.6-3.2-1c-1.5-0.7-3-1.5-4.3-2.5
		c-3.5-2.5-6.6-5.7-8.9-9.3c-0.7-1.1-1.2-2.3-1.6-3.5c-0.5-1.4-0.8-2.8-1.1-4.2c-1.2-6.4-0.7-13.2,0.2-19.6
		c0.9-6.1,2.1-12.1,3.8-18.1c0.9-3.1,1.8-6.3,2.9-9.4l-3.1,1.3c7,1.3,14.2-0.6,20.8-2.9c5.6-2.1,11.1-4.7,16.2-7.7
		c1.2-0.7,2.4-1.4,3.6-2.1l-4.1-2.1c-3,6.2-2.4,13.6-1,20c1.3,5.8,3.2,11.4,5.7,16.7c0.6,1.3,1.1,2.5,1.8,3.7
		c0.9,1.7,3.8,1.2,4.6-0.3c1.5-3.1,3.9-6.2,7.2-7.2c-0.3,0.1,0.6-0.1,0.8-0.1l0.4-0.1c-0.1,0-0.5,0,0,0c0.2,0,1,0.1,0.7,0
		s1.1,0.4,0.5,0.1c0.3,0.1,0.5,0.2,0.7,0.4c0.4,0.2,0.1,0.1,0,0c0.6,0.4,1.1,1,1.5,1.7c1.5,2.7,0.9,7.1-0.4,10
		c-0.3,0.7-0.6,1.3-1,1.9c-0.4,0.5-0.8,1-1.3,1.5c-0.5,0.4-1,0.8-1.6,1.2c-0.4,0.3,0.1,0-0.5,0.3c-0.3,0.1-0.6,0.3-0.9,0.4
		s-0.5,0.2-0.8,0.3l-0.4,0.1c-0.2,0.1,0.5-0.1,0,0s-0.9,0.2-1.4,0.3l-1,0.1c-0.5,0.1,0.8,0,0.2,0c-1.4,0-2.9,0.9-2.5,2.5
		c2.2,8.8,4,17.7,5.3,26.7c0.1,1.2,0.3,2.4,0.3,3.7c0,0.5,0,0.9,0,1.4c0,0.2,0,0.4,0,0.6c0,0.6,0,0,0,0c-0.3,1.1,0.4,2.3,1.5,2.5
		c0,0,0.1,0,0.1,0C387.7,295.5,389.5,295.1,389.8,293.9z"></path><path class="st0" d="M343.5,263.8c0,0-27.5,10.3-35.9-3.3s10.6-25.2,29.3-16.4"></path><path class="st2" d="M342.5,262.2l-0.5,0.2l-0.6,0.2l-0.4,0.1c-0.6,0.2,0.4-0.1,0,0c-1.8,0.5-3.5,1-5.3,1.5
		c-4.8,1.3-9.7,1.7-14.6,1.4c-0.2,0-0.4,0-0.5,0l-1-0.1c-0.6-0.1-1.2-0.2-1.9-0.4c-1.1-0.3-2.2-0.6-3.1-1.1c-2.1-1.1-3.9-2.8-5-4.9
		c-1.4-2.3-1.8-5.1-1.1-7.8c0.8-2.3,2.4-4.2,4.5-5.5c6.5-4.3,15.7-3.1,22.5,0.1c1.2,0.5,2.6,0.2,3.5-0.7c0.6-0.7,0.6-1.7-0.1-2.3
		c-0.1-0.1-0.3-0.2-0.5-0.3c-7.8-3.6-17.2-4.7-25.2-1.3c-6,2.6-11.1,8.3-9.8,15.2c1.2,6.4,6.5,10.7,12.6,12.2
		c5.8,1.5,12,0.9,17.8-0.2c3.7-0.7,7.3-1.7,10.9-3c1-0.4,1.9-1.6,1.2-2.6S343.5,261.8,342.5,262.2L342.5,262.2z"></path><path class="st0" d="M366.7,259.5c0,0-1.3,5.7-6.9,5.5"></path><path class="st2" d="M364.2,259.7c-0.1,0.5-0.3,1.1-0.6,1.6l0.1-0.2c-0.5,1-1.1,1.8-1.9,2.5l-0.4,0.3c-0.1,0-0.1,0.1-0.2,0.1
		c0.2-0.2,0.1-0.1,0,0s-0.3,0.2-0.5,0.2s-0.7,0.3-0.2,0.1l-0.4,0.1c-0.5,0.1,0.4-0.1,0.1,0H360c0.8-0.2,0.4-0.1,0.2,0s0.8-0.1,0.3,0
		c-0.2,0-0.6,0,0.3,0h-0.4c-0.6,0-1.3,0-1.9,0.2c-0.4,0-0.8,0.2-1.1,0.4c-0.5,0.6,1.7,0.6,1.8,0.6c2.6,0.1,5.6-0.4,7.6-2.2
		c0.9-0.9,1.7-2,2.1-3.3c0.1-0.2,0.2-0.5,0.2-0.8c0-0.2-0.7-0.4-0.8-0.4c-0.6-0.1-1.2-0.1-1.8-0.1c-0.6,0-1.2,0.1-1.8,0.3
		C364.7,259.4,364.3,259.5,364.2,259.7L364.2,259.7z"></path><path class="st2" d="M348.1,237.1c0.3,1.1-0.3,2.3-1.5,2.6c-0.1,0-0.2,0-0.3,0.1c-2.3,0.3-2.7-2.5-0.8-3.4c0.8-0.5,1.9-0.3,2.5,0.5
		C348.1,237,348.1,237.1,348.1,237.1z"></path><path class="st2" d="M337.3,238.3c0.3,1.1-0.3,2.3-1.4,2.6c-0.1,0-0.2,0.1-0.3,0.1c-2.3,0.3-2.7-2.5-0.8-3.4
		c0.8-0.5,1.9-0.3,2.4,0.5C337.2,238.1,337.2,238.2,337.3,238.3z"></path><path class="st0" d="M346.6,306.5c0,0-7.3-8.7,0.7-11.6s45.8-17.4,50.9-13.1s4.4,21.8,4.4,21.8"></path><path class="st1" d="M348.6,306.2c-0.1-0.1-0.2-0.3,0.1,0.2c-0.1-0.1-0.2-0.2-0.3-0.4c-0.3-0.4-0.6-0.9-0.9-1.3
		c-0.7-1.1-1.3-2.4-1.5-3.8c-0.3-1.4,0.2-2.9,1.3-3.8c1-0.7,2.2-1.2,3.4-1.5c5.8-2.1,11.5-4.2,17.3-6.2c6.8-2.4,13.8-4.5,20.9-6.1
		c1.4-0.3,2.8-0.5,4.2-0.7c0.5-0.1,1.1-0.1,1.6-0.2c-0.5,0,0.3,0,0.5,0c0.3,0,0.6,0,0.9,0s0.4,0,0.1,0l0.5,0.1c0.6,0.1-0.6-0.2,0,0
		c0.4,0.1-0.6-0.2-0.3-0.1s0.6,0.3-0.2-0.1c0.3,0.2-0.2-0.3,0.1,0.1c0.2,0.3,0.3,0.3,0.4,0.5c0.5,0.7,0.8,1.4,1.1,2.1
		c1.4,3.6,1.8,7.7,2,11.5c0.1,2.2,0.2,4.5,0.1,6.7c-0.1,1.6,4.7,2.9,4.8,0.9c0.2-5.7,0-12-1.8-17.4c-1-3-2.6-5.7-5.8-6.6
		c-2.6-0.6-5.4-0.6-8-0.1c-7.4,1.1-14.7,3.5-21.9,5.8c-6.6,2.2-13.1,4.5-19.6,6.9c-3.2,1.2-6.8,2.4-6.7,6.5c0.1,2.8,1.7,5.5,3.5,7.6
		c0.9,0.9,2.1,1.3,3.4,1.1C349.2,307.7,349.3,306.9,348.6,306.2L348.6,306.2z"></path><path class="st1" d="M379.8,295.4v8c0.1,0.6,0.4,1,0.8,1.4c0.5,0.4,1.2,0.6,1.8,0.7c1.1,0,2.3-0.5,2.3-1.8v-8
		c-0.1-0.6-0.4-1-0.8-1.4c-0.5-0.4-1.2-0.6-1.8-0.7C380.9,293.6,379.8,294.2,379.8,295.4L379.8,295.4z"></path><path class="st1" d="M363.1,297.3v5.8c0,0.6,0.2,1.1,0.6,1.6c0.5,0.5,1.1,0.8,1.7,0.9c0.6,0.1,1.2,0,1.7-0.3
		c0.5-0.3,0.8-0.8,0.9-1.3v-5.8c0-0.6-0.2-1.1-0.6-1.6c-0.5-0.5-1.1-0.8-1.7-0.9c-0.6-0.1-1.2,0-1.7,0.3
		C363.5,296.3,363.2,296.8,363.1,297.3L363.1,297.3z"></path><path class="st1" d="M352.2,299.8v8.7c0,0.4,0.7,0.6,0.9,0.6c0.6,0.1,1.2,0.1,1.8-0.1c0.9-0.2,2.1-0.7,2.1-1.8v-8.7
		c0-0.4-0.7-0.6-0.9-0.6c-0.6-0.1-1.2-0.1-1.8,0.1C353.5,298.3,352.2,298.7,352.2,299.8z"></path><path class="st0" d="M267.5,358.6c-3.2-2-14.2-34.4-14.8-54.1s11.4-19,11.1-12.9s5.9,23.4,5.9,23.4c-1.6-9-2.5-18.1-2.8-27.2
		c-0.8-16.9,10.5-15.6,11.6-8s6.2,23.6,6.2,23.6c-5.9-32.9,13.4-34.4,12.2-26.4s5.9,38,5.9,38c10.4-8.5,28.1-9.5,16.2,2.6
		s-18.2,39.7-18.2,39.7S286.9,370.5,267.5,358.6z"></path><path class="st2" d="M269.4,357.2C269,357,269.6,357.6,269.4,357.2s-0.2-0.2-0.3-0.4c-0.3-0.3-0.5-0.7-0.7-1.1
		c-0.6-1-1.1-2-1.5-3.1c-1.5-3.5-2.8-7-3.9-10.6c-3.1-9.2-5.4-18.7-6.9-28.3c-0.8-4.7-1.1-9.4-0.8-14.1c0.1-2.1,0.6-4.2,1.3-6.2
		c0.3-0.7,0.6-1.4,1-2c0.3-0.5,0.7-0.9,1.1-1.3c0.4-0.4-0.2,0,0.3-0.3l0.4-0.2c0.4-0.3-0.5,0.2,0,0c0.3-0.1,0.9-0.2,0.1-0.1
		c0.1,0,0.2,0,0.2-0.1c0.6-0.2-0.5,0,0,0c0.1,0,0.2,0,0.2,0c0.5,0-0.6,0-0.1,0c0.2,0,0.8,0.2,0.1,0l0.5,0.2c0.4,0.1-0.4-0.3-0.1,0
		c0.1,0.1,0.2,0.1,0.3,0.2c0.4,0.3,0,0,0.1,0.1c0.1,0.1,0.2,0.3,0.4,0.5c0.3,0.4,0-0.2,0.1,0.2c0.1,0.2,0.1,0.5,0.2,0.7
		c0,0.1,0,0.2,0,0.2c0,0.4,0-0.4,0,0.1s0,0.5,0,0.8c0,0.8,0.1,1.7,0.2,2.5c1,7,3.4,14,5.7,20.7c0.7,2.1,5.3,1,4.9-1.2
		c-0.7-3.4-1.1-6.9-1.5-10.4c-0.5-3.9-0.8-7.9-1-11.9s-0.6-7.9,0.3-11.8c0.3-1.1,0.7-2.2,1.4-3.1c-0.2,0.2,0.2-0.2,0.2-0.3
		s0.3-0.3,0.4-0.5s-0.2,0.2,0.2-0.2s-0.1,0.1,0.1-0.1c0.1-0.1,0.2-0.1,0.3-0.1c0.3,0-0.1-0.2-0.2,0.1c0,0,0.8-0.2,0.2-0.1
		s0.1,0,0.2,0c0.4-0.1-0.1,0-0.2,0h0.4c0.5,0.1-0.3-0.1,0.1,0l0.5,0.2c0.3,0.1-0.3-0.2,0.1,0.1l0.5,0.4c0.1,0,0.4,0.4,0.3,0.2
		s0.2,0.2,0.2,0.3c0.3,0.3,0.5,0.7,0.8,1.1c0.3,0.8,0.5,1.6,0.7,2.5c0.5,2.9,1.2,5.8,1.9,8.6c1.3,4.9,2.7,9.8,4.2,14.6
		c0.7,2.1,5.2,1,4.9-1.2c-1.3-7.4-2.2-16.2,1.1-23.2c0.2-0.5,0.5-1,0.8-1.5c0.1-0.2,0.3-0.5,0.5-0.7l0.2-0.3
		c-0.3,0.4,0.1-0.1,0.1-0.2c0.3-0.4,0.6-0.7,1-1.1l0.2-0.2c0.4-0.4-0.4,0.3,0,0l0.5-0.4c0.2-0.1,0.4-0.2,0.5-0.3s-0.5,0.2,0,0
		l0.5-0.2c0.5-0.2-0.6,0.1,0.1,0c0.2,0,0.3,0,0.5-0.1c0,0-0.7,0.1-0.1,0c0.3,0,0.6,0.1,0,0c0.1,0,0.3,0,0.5,0c0.4,0.1-0.5-0.2-0.1,0
		c0.1,0.1,0.3,0.1,0.4,0.1c0.1,0-0.4-0.3-0.1,0c0.1,0.1,0.2,0.2,0.4,0.2c0.3,0.2-0.2-0.3,0,0c0.1,0.1,0.1,0.2,0.2,0.3
		s0.1,0.2,0.2,0.3c0-0.1-0.1-0.3,0,0.1s0.1,0.5,0.2,0.8c0,0.1,0-0.3,0,0.1c0,0.2,0,0.3,0,0.5c-0.1,1.1-0.2,2.2-0.1,3.3
		c0.2,6.9,1.6,13.7,2.9,20.4c1,4.9,2,9.9,3.1,14.8c0.4,1.6,3.1,1.2,4,0.4c2.3-1.8,4.8-3.3,7.6-4.4c2.1-0.9,4.3-1.4,6.5-1.4
		c-0.4,0,0,0,0.2,0s0.5,0,0.7,0.1c0.4,0.1-0.3-0.1,0.2,0c0.1,0,0.6,0.3,0.4,0.1s0.2,0.1,0.2,0.2c0.2,0.2-0.2-0.2,0.1,0.1
		c0.1,0.1,0.2,0.4,0.1,0.1c0.1,0.2,0.1,0.3,0.1,0.5c0,0.2,0-0.2,0,0.2c0,0.2-0.1,0.4-0.1,0.6c-0.2,0.4-0.3,0.9-0.6,1.2
		c-0.7,1.2-1.6,2.4-2.7,3.4c-8.3,8.6-12.8,20.6-16.3,31.8c-0.9,2.9-1.8,5.9-2.5,8.9l0.5-0.9c-0.4,0.3,0.5-0.4,0,0s-0.7,0.6-1.1,0.8
		c-0.5,0.4-1.1,0.8-1.7,1.1l-0.5,0.3c0.5-0.3-0.1,0.1-0.2,0.1c-0.4,0.2-0.8,0.4-1.2,0.6c-1.9,0.9-3.9,1.6-5.9,1.9
		c-2.6,0.4-5.2,0.4-7.8,0C276.5,360.9,272.8,359.4,269.4,357.2c-1.1-0.6-2.5-0.5-3.5,0.2c-0.8,0.5-1.4,1.8-0.3,2.4
		c5.3,3.4,11.4,5.2,17.6,5.4c4.5,0,8.9-1,13-2.9c2.2-1,4.2-2.3,6-3.8c1.2-1,1.3-2.4,1.7-3.9c2-7.8,4.8-15.4,8.2-22.7
		c1.9-4.2,4.3-8.2,7.2-11.8c1.7-1.8,3.3-3.6,4.8-5.6c0.8-1.3,1.7-3,1.3-4.6c-0.9-3.9-6.8-3.3-9.7-2.8c-5.3,1-10.2,3.3-14.4,6.7
		l4,0.4c-1-4.5-2-9-2.9-13.5c-1.4-6.9-2.9-14.3-3.1-21.2c0-1.7,0.5-3.7-0.1-5.4c-0.6-1.4-1.8-2.5-3.3-2.8c-4.6-1.2-8.9,2-11.3,5.8
		c-1.8,3.1-2.9,6.5-3.1,10.1c-0.5,5.6-0.2,11.2,0.9,16.6l4.9-1.2c-1.4-4.5-2.8-9.1-4-13.7c-0.8-3.1-1.6-6.2-2.1-9.4
		c-0.2-2.1-1.2-4.1-2.8-5.5c-3.9-3.2-9.4-1.1-11.8,2.8c-1.7,2.7-2.1,6.2-2.1,9.3c0,4.8,0.5,9.5,0.9,14.3c0.4,5,1.1,10,2,14.9
		l4.9-1.2c-2.4-6.3-4.3-12.9-5.6-19.5c-0.3-1.6-0.2-2.9-0.4-4.5c-0.1-1-0.5-1.9-1.2-2.6c-1.9-2-5-2-7.4-1c-3.2,1.3-5.1,4.4-6.1,7.5
		c-1.6,4.8-1.4,10-1,15c1.1,10.2,3.2,20.3,6.3,30.1c1.4,4.6,2.9,9.1,4.8,13.6c0.6,1.6,1.4,3.1,2.2,4.6c0.4,0.9,1,1.7,1.8,2.3
		c1.1,0.6,2.5,0.5,3.5-0.3C269.9,359.1,270.4,357.9,269.4,357.2z"></path><path class="st2" d="M282.2,328.7c3.4-5.2,9.1-8.5,15.3-8.9c1.1,0,2.2-0.7,1.9-1.9c-0.4-1.2-1.5-2.1-2.8-2.1
		c-7.7,0.3-14.8,4.3-19,10.7c-0.7,1,0.6,2.4,1.5,2.8C280.2,329.9,281.5,329.7,282.2,328.7z"></path><path class="st1" d="M320.6,395.4c-0.6-4.8-1.4-9.5-2.5-14.2c-1.2-5.8-2.5-11.6-3.9-17.4c-0.5-2.2-1.1-4.5-1.6-6.8s-5.1-3-4.4,0
		c2.4,10.2,4.9,20.5,6.8,30.9c0.4,2.1,0.8,4.3,1,6.5c0.2,1.3,1.1,2.3,2.4,2.5C319.4,397.1,320.8,396.6,320.6,395.4L320.6,395.4z"></path><path class="st2" d="M402.4,321.8h62.5c5.7,0,10.2,4.6,10.2,10.2v34c0,5.7-4.6,10.2-10.2,10.2h-62.5c-5.7,0-10.2-4.6-10.2-10.2v-34
		C392.2,326.4,396.8,321.8,402.4,321.8z"></path><path class="st2" d="M464.4,374.9H405c-2.2,0-4.5,0.2-6.4-1.1c-2.4-1.7-3.9-4.5-3.9-7.5c0-1,0-2,0-3v-28c0-0.9,0-1.9,0-2.8
		c0-3.1,1.4-6,3.9-7.9c2.3-1.6,4.6-1.5,7.2-1.5h42c5.8,0,11.7-0.1,17.5,0c3,0,5.5,2.3,6.6,5c0.6,1.5,0.8,3,0.7,4.6V360
		c0,3.1,0.5,6.8-0.8,9.6C470.5,372.6,467.7,374.7,464.4,374.9c-0.7,0-2.2,0.2-2,1.3s2.1,1.4,2.9,1.4c6.6-0.1,12.2-4.7,12.2-11.6
		c0-3.8,0-7.6,0-11.4v-15.9c0-3.1,0.5-6.9-0.6-9.9c-1.9-5.6-7.7-8.3-13.2-8.3h-39.6c-7.3,0-14.6,0-21.9,0c-6,0-11.9,3.7-12.5,10.1
		c-0.2,3-0.2,6,0,9c0,8.6-0.1,17.3,0,26c0.1,7.2,6.4,11.9,13.2,12c2,0,4.1,0,6.1,0h56.3c0.7,0,2.2-0.2,2-1.3
		S465.2,374.9,464.4,374.9z"></path><path class="st0" d="M412.9,344.4c-2.6-0.1-5.1,1.1-6.6,3.2c-1.2,1.8-1.7,3.9-1.5,6.1c0.1,1.2,0.8,2.3,1.7,2.9
		c0.8,0.7,1.7,1.3,2.6,1.8c2.4,1.2,5.3,0.8,7.4-0.9c0.6-0.4,0.7-1.2,0.2-1.8c-0.2-0.2-0.4-0.4-0.6-0.4c-1.2-0.4-2.5-0.2-3.5,0.6
		c-0.4,0.3,0.3-0.2,0,0c0.3-0.1,0.4-0.2,0.2-0.1s-0.1,0,0.3,0h-0.2c-0.2,0-0.1,0,0.3,0h-0.2c-0.2,0-0.1,0,0.2,0
		c-0.2,0-0.3,0-0.5-0.1l0.2,0.1l-0.3-0.1l-0.4-0.2c-0.1-0.1-0.1-0.1,0,0l-0.2-0.2c-0.6-0.4-1.2-0.9-1.7-1.4c0,0-0.4-0.4-0.2-0.2
		c0,0-0.3-0.4-0.2-0.2c-0.1-0.4-0.1-0.8-0.1-1.2c0,0.2,0-0.4,0-0.3c0-0.2,0-0.4,0-0.6s0.1-0.7,0.2-1c0.1-0.6,0.3-1.2,0.7-1.8
		c0.1-0.1,0.2-0.3,0.3-0.4c-0.2,0.3,0.1-0.1,0.1-0.1s0.3-0.2,0.4-0.4c-0.4,0.3,0,0,0.1,0c0.4-0.3-0.4,0.1,0,0l0.1-0.1
		c0.3-0.1,0.2-0.1-0.2,0h0.2l0,0c-0.2,0-0.2,0,0,0h0.3c1,0.1,2.6-0.6,2.8-1.6s-1.2-1.6-2.1-1.6L412.9,344.4z"></path><path class="st0" d="M422.4,345.1v10.5c0,1.3,1,2.3,2.3,2.3c1.1,0.1,2.7-0.5,2.7-1.8v-10.5c0-1.3-1-2.3-2.3-2.3
		C424,343.2,422.4,343.8,422.4,345.1z"></path><path class="st0" d="M422.3,335.9c-0.2,0.2-0.3,0.4-0.4,0.7c-0.1,0.4-0.2,0.7-0.1,1.1c0,0.3,0.1,0.5,0.2,0.8
		c0.1,0.2,0.2,0.4,0.3,0.6c0,0.1,0.1,0.1,0.1,0.2c0.3,0.4,0.6,0.7,1,1c0.3,0.2,0.5,0.3,0.8,0.5c0.2,0.1,0.5,0.2,0.7,0.3
		c0.2,0.1,0.5,0.1,0.7,0.1h0.1c0.2,0,0.5,0,0.7,0h0.1l0.6-0.1c0.2-0.1,0.4-0.2,0.6-0.3c0.1,0,0.1-0.1,0.2-0.2
		c0.1-0.1,0.2-0.3,0.3-0.4c0,0,0.1-0.1,0.1-0.1c0,0,0-0.1,0-0.1c0.1-0.2,0.1-0.4,0.1-0.5c0-0.1,0-0.1,0-0.2c0-0.2-0.1-0.4-0.1-0.6
		c-0.1-0.1-0.1-0.3-0.2-0.4c-0.1-0.1-0.1-0.3-0.2-0.4c-0.1-0.2-0.3-0.4-0.5-0.6c0-0.1-0.1-0.1-0.1-0.2c-0.2-0.2-0.4-0.4-0.6-0.5
		l-0.2-0.1c-0.3-0.2-0.6-0.4-0.9-0.6c-0.3-0.1-0.6-0.3-0.9-0.3c-0.3-0.1-0.6-0.1-0.9-0.1c-0.2,0-0.5,0.1-0.7,0.2
		c-0.2,0.1-0.3,0.2-0.4,0.4l-0.1,0.4c0,0.3,0.1,0.6,0.3,0.9l0.4,0.4c0.3,0.3,0.7,0.5,1,0.7l0,0l-0.6-0.3c0.2,0.1,0.3,0.2,0.5,0.3
		l-0.5-0.4c0.1,0.1,0.2,0.2,0.3,0.3l-0.4-0.4c0.1,0.1,0.1,0.2,0.2,0.3l-0.2-0.4c0,0.1,0.1,0.2,0.1,0.3l-0.1-0.4c0,0.1,0,0.2,0,0.4
		l0.1-0.4c0,0.1-0.1,0.2-0.1,0.3l0.2-0.3c-0.1,0.1-0.2,0.2-0.3,0.2l0.4-0.2c-0.1,0-0.2,0.1-0.3,0.1l0.5-0.1H424h0.6
		c-0.1,0-0.2,0-0.2,0l0.6,0.1c-0.1,0-0.1,0-0.2-0.1l0.6,0.2l-0.1-0.1l0.6,0.3l-0.1-0.1l0.5,0.4c0,0-0.1-0.1-0.1-0.1l0.4,0.4
		l-0.1-0.2l0.2,0.4c-0.1-0.1-0.1-0.2-0.1-0.4l0.1,0.4c0-0.2,0-0.4,0-0.7l-0.1,0.4c0.1-0.3,0.2-0.5,0.4-0.8c0.1-0.2,0.1-0.4,0-0.6
		c0-0.2-0.1-0.5-0.3-0.6c-0.2-0.2-0.4-0.5-0.6-0.6c-0.2-0.2-0.5-0.4-0.8-0.5l-0.6-0.2c-0.4-0.1-0.8-0.2-1.1-0.1l-0.5,0.1
		c-0.3,0.1-0.5,0.3-0.6,0.5L422.3,335.9z"></path><path class="st0" d="M436.5,348.4l0.7-0.5c0.1-0.1,0.8-0.4,0.5-0.3c0.1,0,0.7-0.2,0.2-0.1c0.3,0,0.3,0,0,0s-0.4-0.1-0.1,0
		c-0.3-0.1-0.3-0.1,0,0s0.2,0.1,0,0c0.1,0.1,0.3,0.3,0.4,0.5s0.2,0.2,0,0l0.2,0.4c0.1,0.2,0.3,0.4,0.4,0.7c1,2,1.4,4.2,1.4,6.4h4.9
		c-0.8-2.6-3-4-5.6-4.5c-2.3-0.5-5-0.4-6.7,1.4c-1.6,1.8-1.9,4.4-0.8,6.5c1.5,2.2,4.3,2.5,6.7,2.5c1.5,0.2,3-0.2,4.2-1.1
		c0.4-0.4,0.8-0.8,1.1-1.2c0.1-0.1,0.6-0.5,0.2-0.2c0.1-0.1,0.1-0.1,0.2-0.1c0.3,0-0.5,0.2,0,0c1.1-0.3,1.7-1.4,1.3-2.5
		c0-0.1-0.1-0.2-0.1-0.3c-0.7-1.1-2.1-1.6-3.3-1.2c-0.9,0.3-1.7,0.9-2.3,1.7l-0.4,0.4c-0.2,0.2-0.4,0.3-0.1,0.1
		c-0.1,0.1-0.2,0.1-0.3,0.2l0.2-0.1c0.3,0,0.2,0,0,0h-0.2c-0.1,0-0.7,0-0.3,0h-0.8c-0.5,0-1-0.1-1.6-0.2c-0.3,0-0.5-0.2-0.1,0
		l-0.4-0.1l0.2,0.1c-0.3-0.4,0,0.1,0.1,0.2c-0.1-0.2-0.1-0.2,0,0c0-0.1,0-0.2-0.1-0.3c0-0.2,0-0.1,0,0.1c0-0.1,0-0.2,0-0.3
		c0-0.2,0-0.4,0.1-0.6l0.1-0.3c0,0.2-0.1,0.2,0,0s0.3-0.6,0.2-0.4s0,0.1,0.1-0.1c-0.2,0.2-0.2,0.2-0.1,0.1c0.1-0.1,0.1-0.1-0.1,0
		c0.1,0,0.2-0.1,0.3-0.1c0.2,0,0.1,0-0.1,0l0.3,0c0.1,0,0.7,0,0.4,0s0.3,0,0.4,0c0.2,0,0.5,0,0.7,0.1l0.4,0.1c-0.2-0.1-0.2-0.1,0,0
		l0.7,0.2c0.2,0.1,0.1,0.1,0,0l0.2,0.1l0.2,0.2c-0.2-0.2-0.2-0.2-0.1-0.1s0.4,0.5,0.3,0.3s0.2,0.7,0.1,0.1c0.3,1.1,1.4,1.9,2.5,1.8
		c1,0,2.4-0.7,2.4-1.9c0.2-3.4-0.6-6.7-2.3-9.6c-0.9-1.6-2.5-2.8-4.3-3.1c-1.9-0.1-3.7,0.5-5.1,1.8c-0.9,0.6-1.1,1.9-0.5,2.8
		c0.1,0.1,0.1,0.2,0.2,0.2c0.9,0.9,2.4,1.1,3.5,0.4L436.5,348.4z"></path><path class="st0" d="M454.7,345.1c-2.1,1.2-3.7,3.2-4.4,5.5c-0.4,1.2-0.5,2.5-0.3,3.8c0.4,1.6,1.8,2.6,3.1,3.4
		c2.7,1.6,5.8,2.9,8.8,1.3c2.2-1.2,3.5-3.5,3.4-6c-0.1-1.5-0.9-2.9-2.2-3.8c-1.8-1.5-3.9-2.6-6.1-3.4c0,0-0.7-0.3-0.8-0.1
		s0.5,0.6,0.5,0.6c0.9,0.7,2,1.3,3.1,1.7c0.1,0,0.2,0.1,0.4,0.1c-0.1-0.1-0.2-0.1-0.3-0.2c-0.3-0.2-0.5-0.3-0.8-0.5
		c0.3,0.1,0.7,0.6,0.9,0.9c0.7,0.8,1,1.9,0.8,3c-0.2,2-1.2,3.8-2.8,5c-0.8,0.6-1.8,0.9-2.8,1c-0.4,0-0.9,0-1.3,0
		c-0.1,0-0.5-0.1-0.5-0.1c0.8,0.1,2.4,1.6,1.6,0.8c-1.4-1.5-0.8-4-0.1-5.6c0.8-2,2.3-3.7,4.2-4.9c0.2-0.1-1.9-1.4-2-1.5
		c-0.5-0.3-1-0.5-1.6-0.8C455.3,345.2,455,345.1,454.7,345.1L454.7,345.1z"></path><path class="st2" d="M410.5,327.6c-1.4-5-2.2-10.2-2.5-15.4c0-0.3,0-0.7,0.1-1c0.2-0.2,0.4-0.4,0.7-0.5c2.5-1,5.2,0.6,7.4,2.2
		l14.1,10.4"></path><path class="st2" d="M412.9,327.1c-0.9-3.2-1.6-6.6-2-9.9c-0.2-1.6-0.4-3.2-0.4-4.8c0-0.2,0-0.4,0-0.6c-0.4,0.2-0.5,0.3-0.3,0.2
		c0.1,0,0.3,0,0.4,0c0.5,0.1,1,0.3,1.5,0.6c2.9,1.5,5.4,3.8,8,5.7l8.5,6.3c1.7,1.2,5.9-0.5,3.5-2.3l-10.2-7.6
		c-3-2.2-6.2-5.2-10.1-5.8c-1.8-0.2-4.5,0-5.8,1.6c-0.5,0.8-0.6,1.8-0.4,2.7c0.1,1,0.1,2,0.2,2.9c0.4,4.1,1.2,8.1,2.3,12
		C408.6,330,413.5,329.5,412.9,327.1L412.9,327.1z"></path></g><g id="character-1"><path class="st2" d="M146.8,297.5c0,0-109.5,115.7-76.9,147s174.8,15.7,187.9-7.2c13.1-22.9-47.9-111.7-73.3-126.1
		S146.8,297.5,146.8,297.5z"></path><path class="st2" d="M146.7,462.6c-8.1,0-15.9-0.3-23.2-0.9c-18.2-1.5-42.3-5.6-53.9-16.8c-13.8-13.2-5-42.1,26.1-85.9
		c23.1-32.5,50.5-61.5,50.7-61.8l0.1-0.1h0.2c0.5,0,12.8-0.5,38,13.8c9.8,5.6,25.4,22.5,40.8,44.3c16,22.8,28.2,45.9,32.6,61.8
		c2.6,9.3,2.6,16.2,0,20.7c-4.9,8.5-28,16.7-60.5,21.4C180.8,461.4,163.8,462.6,146.7,462.6z M147,298
		c-4.5,4.8-108.2,116-76.8,146.2c19.1,18.4,78.5,20.8,127.3,13.8c32.2-4.6,55.1-12.6,59.8-20.9c2.4-4.2,2.3-10.9-0.1-19.9
		c-4.4-15.8-16.5-38.8-32.5-61.5c-15.2-21.6-30.8-38.5-40.4-44C161,298.5,148.7,298,147,298z"></path><path class="st0" d="M138.4,307.1c0,0-25.2-22.6-20.2-57.8s22.5-43.3,50.6-47.9s55.8,42.9,46.6,78.1s-26.2,29.1-26.2,29.1
		s12.1,13.4,7.3,21.7s-47.5,8.3-57.1,1S138.4,307.1,138.4,307.1z"></path><path class="st2" d="M138.6,305.5c-0.9-0.8-1.8-1.7-2.6-2.7l-0.3-0.3c-0.4-0.4,0.2,0.3,0,0l-0.7-0.8c-0.5-0.6-1-1.2-1.5-1.9
		c-0.5-0.7-1.1-1.4-1.6-2.1c-0.3-0.4-0.5-0.7-0.8-1.1l-0.3-0.5c0.1,0.2-0.2-0.4-0.3-0.5c-2.6-3.8-4.8-7.9-6.5-12.1
		c-2.1-5.2-3.6-10.6-4.3-16.1c-0.8-6.6-0.5-13.3,0.7-19.9c0.9-5.7,2.5-11.3,4.8-16.6c3.5-8.3,9.8-15.1,17.7-19.4
		c4.1-2.1,8.3-3.8,12.8-5c5-1.4,10-2.4,15.1-3.1c9.4-1.2,18.2,3.5,24.8,9.9c7.9,7.7,13.4,17.7,16.7,28.1c3.6,11.1,4.7,23.3,2.1,34.8
		c-1.4,6.4-3.7,12.6-6.9,18.3c-1.9,3.6-4.5,6.7-7.7,9.1c-3.1,2.4-7,3.4-10.9,2.8c-0.2,0,0.3,0.1-0.1,0h-0.2c-0.8-0.3-1,0.4-0.9,1
		c0.2,1,0.7,1.9,1.4,2.7c-0.6-0.6-0.3-0.3,0,0s0.7,0.9,1,1.3c1,1.2,1.9,2.6,2.7,3.9c1.8,2.9,3.8,6.8,3,10.7c-0.5,2.7-2.2,4-4.7,5
		c-3.1,1.2-6.3,2-9.5,2.4c-8.4,1.1-16.9,1.3-25.3,0.4c-3.8-0.3-7.5-0.9-11.2-1.9c-2.6-0.7-5.4-1.6-7-3.4c-0.6-0.6-1-1.3-1.2-2.1
		c-0.3-1-0.5-2.1-0.6-3.2c-0.1-2.2,0.2-4.4,0.8-6.5c0.6-2.6,1.5-5.2,2.7-7.6c0.7-1.3-2.3-5.2-3-3.8c-3.1,6.1-5.1,14.1-2.6,20.7
		c1.5,4.1,4.7,7.4,8.8,9.1c3.5,1.3,7.2,2.3,11,2.7c9,1.3,18.2,1.4,27.2,0.4c3.8-0.3,7.6-1.1,11.2-2.4c2.5-0.9,4.9-2.2,5.9-4.8
		c1.9-5.1-0.6-10.9-3.1-15.3c-1.7-3.1-3.8-6-6.2-8.6l0.5,3.7c2.8,1,6.2,0.4,8.9-0.7c8.2-3.4,12.8-12.8,15.7-20.6
		c2.4-6.3,3.8-12.9,4.2-19.6c0.3-6.2-0.2-12.4-1.5-18.5c-2.5-12.4-7.8-24.1-15.5-34.2c-6.3-8.2-14.9-15.8-25.4-17.8
		c-5.1-1-10,0-15,1c-5,0.9-9.9,2.3-14.7,4c-8.7,3.3-16.2,8.7-21.3,16.6c-2.8,4.6-4.9,9.5-6.3,14.7c-1.9,6.6-2.9,13.4-3.1,20.2
		c-0.1,12.3,3,24.5,9,35.3c3.3,6.2,7.6,11.9,12.5,16.9c0.2,0.2,0.5,0.5,0.8,0.7c0.5,0.5,1.5,1.1,1.7,0S139.2,306.1,138.6,305.5z"></path><path class="st0" d="M157,288.6c0,0,8.6,16.5,32.2,13.5c0,0,14.4-5.6,22-16.8c11.2-16.5-14.9-56.3-14.9-56.3
		c-9.1-10.6-22.3-3.8-22.3-3.8c-18.6,11.4-22.2,32.5-22.2,32.5S151.8,276.5,157,288.6z"></path><path class="st2" d="M155.6,287.5c2.5,4.5,6,8.3,10.2,11.3c3.5,2.4,7.4,4.1,11.6,5c2.7,0.5,5.4,0.8,8.1,0.8c1.9,0.1,3.7,0,5.5-0.5
		c3-1.2,5.9-2.7,8.6-4.5c4.7-2.9,8.8-6.6,12.2-10.9c4.8-6.5,4.1-14.7,2.3-22.2c-2-8.4-5.6-16.3-9.5-24c-2.2-4.5-4.8-8.9-7.5-13.1
		c-2.8-4.2-7.1-7-12.1-8c-3.8-0.6-7.6-0.1-11.1,1.2c-3.5,1.3-6.6,4.1-9.3,6.7c-3.6,3.5-6.7,7.6-9.1,12.1c-1.8,3.3-3.2,6.7-4.3,10.2
		c-0.5,1.4-0.9,2.9-1.1,4.4c-0.1,2.6,0.1,5.1,0.4,7.7c0.4,5.3,1.2,10.6,2.5,15.8C153.6,282.2,154.5,284.8,155.6,287.5
		c0.5,1,1.2,2,2.1,2.7c0.7,0.5,1,0.4,0.6-0.5c-3.7-8.7-4.7-18.8-5.1-28.2c-0.1-3.5,1.1-6.9,2.4-10.2c3.4-8.7,9.1-16.4,16.6-22
		c2.2-1.7,4.7-2.9,7.3-3.6c4.1-1.1,8.4-0.8,12.3,0.9c1.1,0.5,2.2,1.2,3.1,2.1c0.4,0.4,1.4,1.7,0.3,0.1c0,0,0,0.1,0.1,0.1
		c0.3,0.4-0.4-0.7,0,0c0.2,0.3,0.4,0.6,0.5,0.8c1.2,2,2.4,4,3.6,6.1c3.8,6.7,7,13.6,9.6,20.9c2.4,7,4.5,15.1,2.4,22.4
		c-1.2,4.3-4.4,7.8-7.6,10.8c-3.4,3.1-7.3,5.8-11.4,7.9c-1.2,0.7-2.5,1.3-3.8,1.9c-1,0.4-2.2,0.7-3.3,0.7c-5,0.4-10-0.2-14.7-1.8
		c-3.4-1.2-6.5-3-9.3-5.4c-0.3-0.3-0.7-0.7-1.2-1.2s0.1,0.2-0.3-0.3l-0.7-0.8c0.8,0.9-1-1.4-0.2-0.3c-0.2-0.3-0.9-1.4-0.4-0.5
		c-0.2-0.3-0.7-1.2-0.2-0.3c-0.5-1.1-1.3-2-2.2-2.8C155.6,286.5,155.2,286.6,155.6,287.5z"></path><path class="st0" d="M164.7,275.1c0,0-0.8,10.5,8.8,8"></path><path class="st2" d="M162.6,274c-0.1,1.3,0,2.7,0.3,4c0.3,1.3,0.8,2.5,1.6,3.6c1.1,1.5,2.6,2.7,4.4,3.3c1.9,0.6,4,0.7,5.9,0.1
		c0.4,0,0.8-0.3,0.9-0.7c0-0.5-0.1-1-0.4-1.4c-0.4-0.5-0.9-1-1.4-1.3c-0.5-0.3-1-0.4-1.6-0.4c-0.8,0.2-1.6,0.3-2.4,0.4
		c-0.1,0-0.5,0,0.1,0h-0.3c-0.1,0-0.3,0-0.4,0l-0.5-0.1h-0.2c0.7,0.1,0.4,0.1,0.2,0l-0.4-0.1c-0.6-0.2,0.5,0.3,0.1,0l-0.3-0.2
		c-0.2-0.1-0.4-0.3,0.3,0.2l-0.2-0.2l-0.3-0.2c0.7,0.5,0.5,0.4,0.3,0.3l-0.1-0.1l-0.2-0.2c-0.2-0.2,0.4,0.5,0.2,0.3l-0.1-0.2
		c-0.1-0.2-0.3-0.4-0.4-0.5c-0.2-0.3,0.3,0.5,0.1,0.3l-0.1-0.2l-0.2-0.3c-0.1-0.2-0.2-0.4-0.2-0.6s-0.2-0.6,0,0.1l-0.1-0.4
		c-0.2-0.8-0.3-1.6-0.3-2.3c0-0.2,0-0.3,0-0.5v-0.2c0-0.2,0,0.6,0,0.2c0-0.1,0-0.2,0-0.3c0-1.2-0.8-2.2-1.9-2.6
		c-0.5-0.3-1-0.4-1.6-0.4C163,273.4,162.6,273.6,162.6,274L162.6,274z"></path><path class="st0" d="M193.8,254.7c4.9,2.6,10.1,4.5,15.6,5.6c18.3,4,20.1,10.5,14.2,13.8s-30.8-0.7-30.8-0.7"></path><path class="st2" d="M192.6,256.2c4.8,2.8,10.5,4.5,15.9,5.8c3.9,0.8,7.6,1.9,11.2,3.5c0.2,0.1,1.1,0.6,1.6,0.9l0.7,0.5
		c0.1,0.1,0.2,0.2,0.4,0.3s-0.2-0.2,0.1,0.1s0.7,0.6,1.1,1s-0.2-0.3-0.1-0.1c0.1,0.1,0.1,0.1,0.1,0.2s0.3,0.4,0.4,0.6
		s-0.2-0.4,0-0.1c0,0.1,0.1,0.2,0.1,0.3c0,0.1,0.1,0.3,0.1,0.4s0-0.3,0,0.1c0,0.2,0,0.4,0,0.5c0,0,0.1-0.3,0,0
		c-0.1,0.1-0.1,0.3-0.2,0.5c-0.1,0.4,0,0.1,0,0.1c-0.1,0.2-0.2,0.3-0.4,0.5l-0.4,0.4c-0.2,0.2,0.3-0.2-0.1,0.1s-0.8,0.5-1.2,0.8
		s0,0-0.1,0l-0.5,0.2l-0.6,0.2l-0.6,0.1c-4.8,0.9-10.4,0.4-15.4-0.1c-4-0.4-7.9-0.9-11.9-1.5c-1.1-0.2-2.4,0.4-2.4,1.6
		s1.3,2.1,2.4,2.3c3.6,0.6,7.2,1,10.8,1.4c5.7,0.6,11.8,1.2,17.6,0.3c3.5-0.6,8.4-2.8,7.9-7.1c-0.3-2.4-2.1-4.3-4-5.6
		c-2.9-2-6.1-3.4-9.5-4.4c-4.9-1.5-10-2.3-14.8-4.2c-0.9-0.3-1.8-0.7-2.6-1.1c-0.3-0.1-0.7-0.3-1-0.4l-0.4-0.2
		c-0.6-0.3,0.5,0.2-0.1,0s-1-0.5-1.5-0.8c-1-0.6-2.5-0.8-3.3,0.2S191.8,255.7,192.6,256.2L192.6,256.2z"></path><path class="st2" d="M174.6,253.2c0,0,2.9-0.2,2.9,2.6s-3.5,2.8-4.3,0.4c-0.5-1.1,0-2.4,1-2.9C174.4,253.3,174.5,253.3,174.6,253.2
		z"></path><path class="st2" d="M194,247.9c0,0,2.9-0.2,2.9,2.6s-3.5,2.8-4.3,0.4c-0.5-1.1,0-2.4,1-2.9C193.8,248,193.9,247.9,194,247.9z"></path><path class="st2" d="M144.4,307.9c6.7,1.1,13.3,2.2,20,3.3c6.4,1,12.8,0.6,18.6-2.7c2.7-1.5-0.4-4.9-2.7-3.6
		c-2.4,1.4-5,2.3-7.8,2.7c-2.9,0.3-5.7,0.1-8.6-0.4l-18.5-3c-1.1-0.2-2.6,0-2.9,1.3C142.3,306.6,143.1,307.7,144.4,307.9
		L144.4,307.9z"></path><path class="st0" d="M153.3,338l-1.1,7.8c-0.2,1.2,0.7,2.3,1.8,2.4c0.1,0,0.1,0,0.2,0c1.3,0.1,2.5-0.8,2.8-2.1l1.1-7.8
		c0.2-1.2-0.7-2.2-1.8-2.4c-0.1,0-0.1,0-0.2,0C154.8,335.8,153.6,336.7,153.3,338L153.3,338z"></path><path class="st0" d="M166.6,339.9v8.1c0,0.6,0.2,1.1,0.6,1.5c0.5,0.4,1.1,0.6,1.7,0.6c1.1-0.1,2.7-0.8,2.7-2.1v-8.2
		c0-0.6-0.2-1.1-0.6-1.5c-0.5-0.4-1.1-0.6-1.7-0.6C168.2,337.8,166.6,338.5,166.6,339.9L166.6,339.9z"></path><path class="st0" d="M178.1,338.8l1.5,4.6c0,0.1,0.1,0.3,0.2,0.3c0.1,0.1,0.3,0.2,0.5,0.3c0.6,0.2,1.2,0.3,1.8,0.3
		c0.6,0,1.2-0.1,1.8-0.2l0.4-0.2c0.2-0.1,0.3-0.2,0.3-0.4l-1.5-4.6c0-0.1-0.1-0.3-0.2-0.3c-0.1-0.1-0.3-0.2-0.5-0.3
		c-0.6-0.2-1.2-0.3-1.8-0.2c-0.6,0-1.2,0.1-1.8,0.2l-0.4,0.2C178.3,338.4,178.1,338.6,178.1,338.8L178.1,338.8z"></path><path class="st0" d="M190.6,336.7l4.9,4c0.1,0.1,0.3,0.1,0.4,0.1c0.2,0.1,0.5,0.1,0.7,0.2c0.6,0.1,1.3,0.2,1.9,0.2
		c0.5,0.1,1,0.1,1.5,0c0.1,0,0.5,0,0.3-0.2l-4.9-4c-0.1-0.1-0.3-0.1-0.4-0.2c-0.2-0.1-0.5-0.1-0.7-0.2c-0.6-0.1-1.3-0.2-1.9-0.2
		c-0.5-0.1-1-0.1-1.5,0C190.8,336.4,190.4,336.4,190.6,336.7L190.6,336.7z"></path><path class="st0" d="M199.7,334.4h0.5h-0.4c0.5,0,1,0.2,1.5,0.4l-0.4-0.2c0.2,0.1,0.4,0.1,0.5,0.2s0.8,0.5,0.1,0l0.4,0.3l0.2,0.1
		c-0.4-0.3-0.4-0.4-0.3-0.3l0.1,0.1l0.2,0.2l0.1,0.1l-0.3-0.3l0.3,0.4c-0.3-0.5-0.4-0.6-0.2-0.4l0.1,0.1l0.1,0.2
		c0.2,0.4-0.2-0.5-0.1-0.2c0,0.1,0.1,0.2,0.1,0.3c0.2,0.6,0.6,1.2,1,1.6c0.4,0.4,0.8,0.7,1.3,0.9c0.4,0.1,0.7,0,0.9-0.4
		c0.1-0.4,0.1-0.9-0.1-1.4c-1.1-3.3-4.3-6.3-7.9-6.2c-0.4,0-0.6,0.4-0.6,0.8c0,0.5,0.1,1.1,0.4,1.5c0.3,0.6,0.7,1.1,1.2,1.5
		C198.7,334.2,199.2,334.4,199.7,334.4L199.7,334.4z"></path><path class="st0" d="M103.7,377c-1.9-0.1,0.9-19.6,0.9-19.6s-9.5,1.9-20.3-18.9c-15.6-30-4.3-31.4-0.1-27.7s10.2,16.6,10.2,16.6
		s-15.8-28-15.8-44.5c0-14.2,11.8-8.7,13.8,0.2s11.2,25.8,11.2,25.8s-17.8-34.6-9.5-44s11.3,7,16.2,22c2.6,8.2,6.4,16,11.3,23.1
		c0,0,3.8-4.2,0.2-14.6s-1.1-18.4,7.7-10s20.7,30,15.1,54.9c0,0-0.6,23.6-2.4,27.2C138.1,376.4,115.3,377.6,103.7,377z"></path><path class="st2" d="M104.6,375.2c0.4,0,0.9,0.2,1.2,0.6l-0.1-0.1c0.3,0.2,0.1,0.4,0.1,0.1s-0.1-0.5-0.2-0.8c0-0.1,0-0.6,0-0.2
		c0-0.2,0-0.4,0-0.7c0-0.4,0-0.9,0-1.3c0-2.2,0.2-4.4,0.5-6.5c0.3-3,0.7-6.1,1.1-9.1c0.2-1.6-1.9-1.6-2.9-1.5c1.3-0.3,0.3-0.1,0-0.1
		s0.7,0.1,0.3,0c-0.1,0-0.2,0-0.4,0l-0.4-0.1c-0.1,0-0.7-0.1-0.3,0s-0.2,0-0.3-0.1l-0.6-0.2c-0.5-0.2-1-0.4-1.5-0.6
		c0.4,0.2-0.3-0.1-0.4-0.2s-0.5-0.3-0.7-0.4c-0.7-0.4-1.3-0.8-1.9-1.3c-3.2-2.7-5.9-5.8-8-9.4c-3.1-4.9-5.8-10.2-7.9-15.6
		c-1.5-3.5-2.5-7.2-3.1-11c-0.1-1.1-0.1-2.2,0-3.2c0.1-0.4,0.1-0.8,0.2-1.2c-0.1,0.5,0-0.1,0.1-0.2s0.2-0.4,0.3-0.6
		c0.2-0.5-0.3,0.3,0-0.1c0.1-0.1,0.2-0.2,0.3-0.3c0.2-0.4-0.4,0.4-0.1,0s0.6-0.2,0,0c0.1,0,0.3-0.1,0.4-0.2c0.3-0.1-0.8,0.2-0.2,0.1
		c0.9-0.1,1.7-0.9,1.6-1.8s-0.9-1.7-1.8-1.6s-1.7,0.9-1.6,1.8c0.1,0.9,0.7,1.5,1.6,1.6c0.1,0,0.3,0,0.4,0c0.5,0-0.6-0.1-0.1,0h0.4
		c0.4,0,0,0-0.1,0c0.1,0.1,0.3,0.1,0.4,0.1s0.3,0.1,0.4,0.1c0.5,0.2-0.2-0.1,0,0s0.5,0.3,0.7,0.5c1.1,0.9,2,2,2.7,3.1
		c1.3,1.8,2.5,3.7,3.5,5.7c1.4,2.5,2.7,5,3.8,7.4l4.6-1.7c-2.1-3.7-4-7.5-5.8-11.4c-3.7-7.5-6.6-15.4-8.6-23.5
		c-1-3.7-1.4-7.7-1-11.5c0.1-1.4,0.6-2.7,1.5-3.8c0.3-0.3-0.4,0.4,0,0c0.1-0.1,0.2-0.1,0.3-0.2c-0.6,0.4,0,0.1,0.1,0
		s-0.6,0.2-0.2,0.1s-0.3,0.2-0.1,0c0,0,0.3,0,0.4,0c-0.7,0,0.3,0,0.5,0.1c0.3,0.1-0.5-0.2,0,0l0.3,0.1c0.2,0.1,0.4,0.1,0.6,0.2
		c0.6,0.3,1.2,0.8,1.8,1.2c1,1,1.9,2.1,2.5,3.3c0.6,1.4,1.1,2.9,1.4,4.5c0.5,1.9,1.2,3.7,1.9,5.5c2.6,6.5,5.6,12.9,9,19
		c1,1.9,5.6,0.1,4.4-2.1c-0.1-0.3-0.3-0.5-0.4-0.8c-0.2-0.4,0.2,0.4,0-0.1l-0.2-0.5c-0.2-0.5-0.4-0.9-0.6-1.4
		c-1.2-2.5-2.3-5-3.3-7.5c-2.7-6.6-5.2-13.4-6.4-20.5c-0.6-2.9-0.6-5.9,0-8.8c0.4-1.8,1.5-3.3,3-4.3c-0.5,0.3,1-0.5,0.2-0.1
		c0.1-0.1,0.5-0.1-0.1,0h0.4c-0.3,0-0.4,0-0.2,0l0.3,0.1c-0.1,0,0.5,0.3,0.6,0.5c0.5,0.5,0.9,1.1,1.3,1.7c1.1,1.8,2,3.8,2.6,5.8
		c1.9,5.3,3.4,10.9,5.2,16.2c1.9,5.7,4.4,11.3,7.4,16.6c1.2,2.2,2.5,4.3,4,6.3c1,1.3,3.3,0.7,4.2-0.4c2.5-2.8,2.4-7.4,1.9-10.8
		c-0.5-3.7-2.2-7.2-2.7-10.9c-0.2-1.3-0.2-2.7,0-4c0.1-0.4,0.2-0.8,0.3-1.1c0.1-0.1,0.1-0.2,0.2-0.3c0,0-0.2,0.2,0,0
		s0.2-0.2,0.2-0.3c0.2-0.2-0.3,0.2,0,0s-0.4,0.2-0.1,0.1s-0.2,0.1-0.2,0.1c-0.2,0.1-0.3,0.2-0.1,0c0,0-0.4,0-0.2,0s0,0,0.4,0.1
		c0.3,0.1,0.6,0.2,0.9,0.4c1.3,0.7,2.4,1.6,3.5,2.6c1.8,1.7,3.4,3.7,4.8,5.7c8.1,11.6,12,25.7,11,39.9c-0.2,2.1-0.5,4.3-0.9,6.4
		c-0.2,0.7-0.3,1.4-0.4,2.1c-0.1,1.3-0.1,2.7-0.1,4c-0.2,4.9-0.4,9.7-0.9,14.5c-0.2,2.1-0.4,4.1-0.8,6.2c-0.1,0.4-0.2,0.7-0.2,1.1
		s0.1-0.2,0,0.1c-0.1,0.1-0.1,0.3-0.1,0.4c-0.3,0.7-0.8,1.4-1.4,1.9c-0.7,0.6-1.4,1.1-2.1,1.5c-0.5,0.3-1,0.6-1.6,0.8l-0.9,0.4
		l-0.6,0.3c-2.6,0.9-5.3,1.6-8,2c-5.9,1-11.9,1.4-17.9,1.2h-1.4C105.8,375.3,105.2,375.3,104.6,375.2c-1.2-0.2-2.5,0.4-3.1,1.5
		c-0.3,0.8,0.1,1.6,0.9,1.9c0.2,0.1,0.4,0.1,0.6,0.1c6.1,0.3,12.2,0.2,18.2-0.5c6.1-0.7,12.5-1.8,17.9-4.8c2.3-1.2,4.3-3,5.6-5.2
		c0.7-1.5,1.1-3.2,1.2-4.9c0.7-5.1,1-10.2,1.2-15.4c0.1-2,0.2-4,0.2-6c0.1-1.6,0.3-3.2,0.7-4.8c1.4-8.3,1-16.8-1-25
		c-1.7-6.9-4.5-13.4-8.3-19.4c-1.5-2.4-3.2-4.6-5.1-6.6c-2-2.2-4.5-4.7-7.5-5.5c-2.8-0.9-5.8,0.3-7.2,2.9c-1.3,2.6-0.9,5.9-0.4,8.6
		c0.8,3.8,2.5,7.4,2.6,11.3c0.1,1.3-0.1,2.7-0.4,4c-0.2,0.6-0.4,1.3-0.8,1.9c0,0.1-0.1,0.2-0.2,0.3s0.4-0.4,0.1-0.2
		c-0.1,0-0.1,0.1-0.1,0.2l4.2-0.4c-4.5-6.3-8-13.2-10.4-20.5c-2-5.8-3.5-11.7-5.6-17.4c-1.3-3.5-2.9-8.6-6.7-10.2s-8.1,1.5-10.1,4.7
		c-1.5,2.5-1.7,5.5-1.6,8.3c0.4,7.5,2.9,14.9,5.6,21.9c1.9,4.8,3.9,9.5,6.3,14.1l4.4-2.1c-3.1-5.6-5.8-11.4-8.3-17.3
		c-0.8-1.9-1.5-3.9-2.1-5.9c-0.4-1.7-0.9-3.4-1.6-5c-1.4-3-3.8-5.4-6.9-6.7c-3.2-1.2-6.9-0.2-8.9,2.6c-2.4,3.4-2.1,8.2-1.6,12.1
		c1.1,8.7,4.4,17.1,8,25.1c2.3,5.3,4.9,10.6,7.8,15.6c1,1.7,5.5,0.2,4.6-1.7c-1.2-2.5-2.4-4.9-3.7-7.3c-1.9-3.5-4-7.4-7-10
		c-2.8-2.4-6.8-2.5-9.7-0.3c-4.4,3.7-2.2,11.2-0.7,15.7c1.9,5.7,4.4,11.2,7.3,16.4c2.4,4.7,5.6,9,9.4,12.7c3.3,3,7.9,6,12.6,5.1
		l-2.9-1.5c-0.5,3.5-0.9,6.9-1.2,10.4c-0.3,2.3-0.4,4.5-0.3,6.8c0,1.7,0.1,3.7,2.3,4c1.2,0.2,2.5-0.4,3.1-1.5
		C106.5,376.1,105.6,375.4,104.6,375.2z"></path><path class="st0" d="M103,327.8c7.8-3.4,16.9-1.2,22.3,5.3"></path><path class="st2" d="M104.1,329.3c6.7-2.7,14.4-0.7,19,4.9c0.9,0.9,2.2,1,3.3,0.5c0.8-0.4,2-1.6,1.2-2.5
		c-6.3-7.4-16.7-9.7-25.6-5.8c-0.9,0.4-1.9,1.5-1.2,2.5S103.1,329.7,104.1,329.3L104.1,329.3z"></path><path class="st1" d="M35.1,191.3h62.5c5.7,0,10.2,4.6,10.2,10.2v34c0,5.7-4.6,10.2-10.2,10.2H35.1c-5.7,0-10.2-4.6-10.2-10.2v-34
		C24.9,195.9,29.4,191.3,35.1,191.3z"></path><path class="st1" d="M97.9,243.5H38.4c-2.5,0-4.9,0.2-7.1-1.1c-2-1.2-3.5-3.2-3.9-5.6c-0.1-0.4-0.1-0.9-0.1-1.4s0,0.2,0,0
		c0-0.9,0-1.9,0-2.8v-28.1c0-1,0-2,0-3c-0.1-2.7,1.2-5.3,3.4-6.9c2.1-1.4,4.6-1.2,7-1.2h42c5.8,0,11.7-0.1,17.6,0
		c3.1,0,5.9,1.8,7.3,4.6c0.3,0.7,0.6,1.5,0.7,2.2c0.1,0.4,0.1,0.9,0.1,1.4v-0.2c0,0.3,0,0.6,0,0.9v27.2c0,2.9,0.5,6.6-0.7,9.3
		C103.6,241.7,100.9,243.5,97.9,243.5c-1.3-0.1-2.5,0.9-2.7,2.2c-0.2,1.1,0.6,2.1,1.7,2.3c0.1,0,0.3,0,0.4,0c7.1,0,12.9-5.7,13-12.8
		c0-3.7,0-7.5,0-11.2v-16c0-3.2,0.4-7-0.4-10c-1.7-5.7-6.8-8.9-12.6-8.9H57.6c-7.3,0-14.6,0-21.9,0c-6.5,0-12.3,4.5-13.2,11.1
		c-0.2,3-0.3,6.1-0.1,9.1c0,8.7,0,17.4,0,26.2c-0.1,6.9,5.4,12.5,12.3,12.6c0,0,0.1,0,0.1,0c2,0,4.1,0,6.1,0h56.3
		c1.3,0,2.5-0.9,2.7-2.2c0.1-1.1-0.6-2.1-1.7-2.2C98.2,243.5,98,243.5,97.9,243.5z"></path><path class="st1" d="M63.6,242.2l14.3,14.6c0.1,0.2,0.4,0.3,0.6,0.4c0.3,0,0.7-0.1,0.9-0.4c1.4-1.3,1.9-3.3,2.3-5.2l2.6-11.7"></path><path class="st1" d="M61.6,241.4l8.3,8.5l4,4.1c1.4,1.7,3.1,3,5,4.1c0.7,0.3,1.6,0.8,2.4,0.3c0.6-0.4,1-1,1.4-1.6
		c0.6-1.3,1.1-2.7,1.3-4.2c0.8-3.8,1.6-7.6,2.5-11.4c0.1-0.6-1.5-1.4-1.9-1.7c-0.2-0.1-2.3-1.2-2.4-0.8l-2.2,10
		c-0.3,1.4-0.6,2.8-1,4.1c-0.3,1-1.2,3-2.4,3.1l1.1,0.3l-0.2-0.1l2.2,1.3c0.9,0.6-0.2-0.3-0.4-0.5l-0.8-0.9l-1.9-1.9l-3.6-3.6
		l-7.3-7.5c-0.8-0.8-1.8-1.4-2.9-1.9C62.5,241.1,60.9,240.6,61.6,241.4L61.6,241.4z"></path><path class="st0" d="M41.9,211.3c-0.2,6.1,0.4,12.2,1.9,18.1c0.3,1.1,5.1,0.4,5-0.5c-0.5-3.4-0.1-8,3.4-9.8
		c0.1-0.1,0.2-0.1,0.3-0.1s-1.6-0.3-1.2,0.1c0.3,0.2,0.6,0.5,1,0.7c0.6,0.7,1.1,1.5,1.4,2.4c0.8,1.8,1.2,3.8,1.2,5.7
		c0,0.9,5,0.6,5-0.5c0-2.5-0.7-5-2-7.2c-0.5-1.1-1.4-1.9-2.5-2.3c-1.7-0.4-3.5-0.4-5.2,0.1c-2.3,0.5-4.2,2-5.4,4
		c-1.2,2.3-1.5,5-1,7.5l5-0.5c-1.4-5.9-2.1-12-1.9-18.1C47,209.9,42,210.1,41.9,211.3L41.9,211.3z"></path><path class="st0" d="M67.1,215c0.7-0.9,1.7-1.5,2.8-1.8c0.3-0.1-0.1,0.1-0.2,0s0.4,0.1,0.1,0s0,0,0.1,0l0.3,0.1
		c0.6,0.3,1,0.8,1.3,1.3c1.7,2.9,2.5,6.1,2.6,9.4l5,0.2c-0.2-2.2-2.5-3.4-4.4-3.9c-2.8-0.7-5.8-0.3-8.3,1.3c-1.5,1.1-3.4,3-2.5,5
		c0.6,1,1.6,1.7,2.7,1.9c1.5,0.4,3,0.4,4.5,0.2c2.8-0.4,5.6-1.3,8.1-2.7c1-0.5-0.4-1.2-0.8-1.3c-1.1-0.3-2.3-0.3-3.4,0.1
		c-1,0.5-2,0.9-3,1.2c-0.5,0.2-1,0.3-1.5,0.5l-0.8,0.2c-0.1,0-0.5,0.1-0.3,0.1c-0.2,0-0.4,0.1-0.7,0.1c0.4-0.1-0.5-0.1,0.1,0
		c0,0,0.5,0.1,0.5,0.1s-0.3-0.2-0.3-0.2c-0.5-0.6-0.6-1.4-0.2-2.1c0.7-1.5,2-2.6,3.6-3c0.1,0,0.5,0,0.2,0c-0.2,0-0.3-0.1-0.5-0.1
		c0.3,0.1,0.5,0.2,0.8,0.4c0.6,0.4,1.1,1.1,1.1,1.8c0.1,1.4,5,1.4,5,0.2c-0.1-2.2-0.5-4.3-1.1-6.3c-0.6-1.9-1.4-4.1-3.2-5.3
		c-2.2-1.3-4.8-1.7-7.3-1.3c-2,0.3-3.9,1.3-5.2,2.8c-0.6,0.7,1.3,1.2,1.7,1.2C64.8,215.6,66.4,215.8,67.1,215L67.1,215z"></path><path class="st0" d="M83.9,212.9v14.7c0,1.2,1.5,1.9,2.6,1.7c1.3-0.2,2.2-1.2,2.3-2.5v-14.7c0-1.2-1.5-1.9-2.6-1.7
		C84.9,210.6,83.9,211.6,83.9,212.9z"></path><path class="st0" d="M82.6,204.2c-0.1,0.3-0.1,0.6,0,0.9c0.2,0.4,0.5,0.8,0.9,1c0.7,0.5,1.5,0.9,2.3,1.3c0.5,0.2,1.1,0.4,1.6,0.6
		c0.3,0.1,0.6,0.1,0.9,0c0.5-0.1,0.9-0.3,1.1-0.8c0.2-0.5,0.1-1-0.2-1.4c-0.1-0.2-0.3-0.3-0.4-0.5c-0.5-0.4-1-0.7-1.5-1
		c-0.8-0.5-1.6-0.8-2.5-1.1c-0.3-0.1-0.7-0.2-1-0.2c-0.3,0,0.1,0.4,0.1,0.4c0.2,0.1,0.3,0.3,0.5,0.4c0.2,0.2,0.5,0.3,0.7,0.4
		c0.6,0.3,1.2,0.6,1.8,0.8c0.4,0.2,0.7,0.3,1.1,0.3h0.1h-0.3h0.2l-0.4-0.1h0.1c-0.5-0.2-1-0.4-1.5-0.6c-0.3-0.1-0.5-0.3-0.8-0.4
		l-0.2-0.1c0,0-0.5-0.4-0.3-0.2l-0.3-0.2l0.2,0.2l-0.2-0.2c0.2,0.2,0.3,0.4,0.3,0.6v-0.1c0.1,0.6-0.2,1.2-0.7,1.4l0.1-0.1
		c-0.2,0.1-0.5,0.1-0.7,0.1h0.3h-0.2l0.4,0.1H84c0.4,0.1,0.8,0.3,1.2,0.5c0.4,0.2,0.9,0.4,1.3,0.7l0.3,0.2l0.3,0.2
		c-0.1,0-0.1-0.1-0.2-0.1l0.2,0.2c-0.1-0.2-0.2-0.3-0.3-0.5v0.1c-0.1-0.2-0.1-0.4,0-0.6c0-0.1,0-0.2-0.1-0.2
		c-0.1-0.1-0.2-0.3-0.4-0.4c-0.4-0.3-0.9-0.6-1.4-0.8c-0.5-0.3-1.1-0.5-1.6-0.7l-0.4-0.1C82.8,204.2,82.7,204.2,82.6,204.2
		L82.6,204.2z"></path></g></svg>