<svg transform="scale(1)" version="1.1" id="IqoulQjUmk" xmlns="http://www.w3.org/2000/svg" xmlns:xlink="http://www.w3.org/1999/xlink" x="0px" y="0px" viewBox="0 0 500 500" xml:space="preserve" class="pbimage_pbimage__wrapper__image__0LEis false"><title>Diversity</title><style type="text/css"> .st0{fill:#59BE4C;} .st1{fill:#FFFFFE;} .st2{fill:#101013;}
 .st2{fill:#101013;}
 .st1{fill:#FFFFFE;}
 .st0{fill:#59BE4C;}</style><g id="line"><path class="st0" d="M73.2,191.3c1,4,3.2,7.7,6.2,10.5c0.4,0.4,0.9,0.8,1.5,1c0.3,0.1,0.8,0.2,1.1,0c0.7-0.7-0.6-2.1-1-2.5
		s-0.6-0.6-0.8-0.8c-0.1-0.1-0.3-0.3,0,0s0.1,0.1,0,0s-0.3-0.3-0.4-0.5s-0.2-0.3-0.3-0.4l-0.2-0.2l-0.1-0.1c0.2,0.3,0,0,0,0
		l-0.2-0.3c-0.1-0.2-0.2-0.4-0.3-0.5l-0.3-0.5l-0.1-0.2c-0.1-0.2,0,0,0.1,0.1c-0.2-0.3-0.4-0.7-0.5-1.1c-0.2-0.4-0.3-0.8-0.4-1.1
		l-0.1-0.3l-0.1-0.2c0.1,0.2,0-0.1,0-0.1l-0.1-0.3c-0.3-1.1-1.1-2.1-2.2-2.7c-0.4-0.3-0.8-0.4-1.3-0.3
		C73.3,190.6,73.2,191,73.2,191.3L73.2,191.3z" fill="#59BE4C"></path><path class="st0" d="M170.8,171.1l6.6,17.1c0.5,1.2,1.8,1.8,3,1.5c1.3-0.5,1.1-1.9,0.8-2.9l-6.6-17.1c-0.5-1.2-1.8-1.8-3-1.5
		C170.3,168.8,170.4,170.1,170.8,171.1z" fill="#59BE4C"></path><path class="st0" d="M239.1,139.6c-0.1,7.6,0.3,15.3,1.4,22.8c0.3,1.3,1.4,2.2,2.7,2.2c1.4-0.1,1.7-1.3,1.6-2.4
		c-1-7.2-1.4-14.4-1.2-21.6c0-1.3-0.9-2.4-2.2-2.8c-0.9-0.2-1.9,0.3-2.1,1.3C239.1,139.2,239.1,139.4,239.1,139.6z" fill="#59BE4C"></path><path class="st0" d="M294.2,97.4v19.3c0,3,4.7,1.9,4.7-0.7V96.7C299,93.7,294.2,94.8,294.2,97.4z" fill="#59BE4C"></path><path class="st0" d="M332.2,124.2v12.9c0,0.6,2.3,0,2.6-0.1c0.6-0.1,1.1-0.4,1.7-0.6c0.2-0.1,0.6-0.3,0.6-0.6v-12.9
		c0-0.6-2.3,0-2.6,0c-0.6,0.1-1.1,0.4-1.7,0.6C332.5,123.7,332.2,123.9,332.2,124.2L332.2,124.2z" fill="#59BE4C"></path><path class="st0" d="M375.2,192.1l4.5,13.6c0.3,1,1.9,1.4,2.8,1.4c0.5,0,2.3,0,2-1l-4.5-13.6c-0.3-1-1.9-1.4-2.8-1.4
		C376.6,191.1,374.8,191.1,375.2,192.1L375.2,192.1z" fill="#59BE4C"></path><path class="st0" d="M422.1,190.3c0,5.6-0.5,11.2-1.5,16.6c-0.2,1.3,0.4,2.5,1.5,3.2c0.9,0.5,2.3,0.5,2.5-0.7
		c1.2-5.8,1.7-11.8,1.7-17.7c0-1.3-0.9-2.4-2.1-2.9c-0.8-0.3-1.7,0.1-2,0.9C422.1,189.8,422.1,190,422.1,190.3L422.1,190.3z" fill="#59BE4C"></path><path class="st0" d="M442,240.8l10.7-5c0.8-0.4,1.6-1.4,0.7-2.1c-1-0.7-2.4-0.7-3.5-0.2l-10.7,5c-0.8,0.4-1.6,1.4-0.7,2.1
		C439.6,241.3,440.9,241.4,442,240.8z" fill="#59BE4C"></path><path class="st0" d="M128.8,201.8v-18.4c-0.1-1.2-1-2.2-2.2-2.2c-0.9-0.1-2.7,0.3-2.7,1.6v18.4c0.1,1.2,1,2.2,2.2,2.2
		C127,203.4,128.8,203,128.8,201.8z" fill="#59BE4C"></path></g><g id="character-3"><path class="st1" d="M324.5,250.9c0,0-16.9-37.4-19.9-42.6c0,0-28.5-12.9-24.9-18.7s15.4-0.6,15.4-0.6s-11.5-26-7.4-29.2
		s17,15.9,17,15.9s-9.2-23.4-2.9-23.4s12.6,17.9,12.6,17.9s-2.7-14.5,2.1-13.7s20.4,41.6,20.4,41.6s42,52.7,31.5,77.6
		s-34.8,30.5-34.8,30.5l-21.8-51.6L324.5,250.9z"></path><path class="st2" d="M326.8,249.9c-5.5-12.1-10.9-24.1-16.6-36.1c-0.7-1.3-1.3-2.7-2-4.1c-0.3-0.8-0.8-1.7-1.3-2.4
		c-0.4-0.4-0.9-0.7-1.4-0.8c-1.1-0.5-2.2-1-3.2-1.6c-3.3-1.7-6.6-3.4-9.8-5.3c-3.2-1.8-6.2-3.9-8.8-6.4c-1-0.8-1.7-2-2-3.2
		c0-0.4,0.1-0.9,0.5-1.2c0.2-0.2,0.4-0.4,0.6-0.5c-0.5,0.3,0.4-0.1-0.1,0c0,0,0.7-0.2,0.4-0.1c3.2-0.6,7.1,0.6,10.2,1.9
		c0.9,0.4,4.7-0.9,4.1-2.2c-3.1-6.7-5.5-13.6-7.4-20.7c-0.5-1.8-0.8-3.7-0.9-5.6c0-0.3,0-0.6,0.1-0.9c0-0.2,0.1-0.3,0.1-0.5
		s0.1-0.5,0-0.2c0-0.1,0.1-0.2,0.2-0.3s-0.3,0.2,0,0c-0.5,0.4-1,0.6-1.5,0.8c-0.5,0.2-0.5,0.1-0.3,0.1c-0.2,0-0.3,0-0.3,0
		s-0.2-0.1,0,0s0.2,0,0.2,0.1l0.5,0.2c0.1,0,0.6,0.3,0.9,0.5c0.8,0.5,1.5,1.1,2.2,1.8c1.7,1.6,3.3,3.2,4.8,5
		c2.2,2.7,4.3,5.5,6.3,8.4c0.9,1.2,5.2-0.4,4.6-1.9c-2.2-5.4-3.8-11-4.7-16.7c-0.3-1.4-0.3-2.9,0-4.3c0-0.1,0.1-0.3,0.1-0.4
		c0.1-0.4-0.1,0.2,0-0.1c0-0.1,0.2-0.2,0.2-0.3c0-0.3-0.2,0.1,0,0c-0.5,0.3-1.1,0.6-1.7,0.8c-0.7,0.1,0,0.1-0.2,0
		c0.2,0.1,0.5,0.1,0.7,0.2c1.5,0.7,2.7,1.7,3.6,3.1c1.3,1.7,2.5,3.6,3.5,5.5c1.5,2.8,2.7,5.7,3.8,8.7c0.5,1.4,4.9-0.4,4.6-1.9
		c-0.5-2.4-0.7-4.8-0.7-7.3c-0.1-1.5,0.1-3,0.5-4.4c0.1-0.1,0.2-0.3,0.2-0.4c0.1-0.4,0,0.1,0,0l0.1-0.1c-0.2,0.1-0.3,0.3-0.5,0.4
		c-0.4,0.3-0.9,0.4-1.4,0.4c-0.2,0,0,0.1,0,0s0.2,0.1,0.3,0.2c1.6,1.2,2.6,3.3,3.7,5.1c1.8,3.1,3.3,6.3,4.8,9.6
		c3.1,6.6,5.9,13.4,8.6,20.2c0.7,1.9,1.5,3.7,2.2,5.6c0.2,0.5,0.5,0.9,0.8,1.3c7.7,9.9,14.6,20.5,20.6,31.5
		c4.2,7.4,7.6,15.2,10,23.4c1.9,6.6,3,14.1,0.6,20.7c-3.3,9.1-10.1,17.1-18,22.6c-1.5,1-3,2-4.6,2.9c-0.7,0.4-1.4,0.8-2.2,1.1
		l-0.6,0.3l-0.2,0.1l-0.2,0.1l-0.7,0.3c-1.1,0.5-2.3,1-3.5,1.4c-0.2,0.1-1.1,0.4-0.2,0.1l-0.5,0.2c-0.3,0.1-0.7,0.2-1,0.3l-0.8,0.2
		l2.1,0.3l-7.4-17.5l-11.7-27.8l-2.7-6.4l-2.5,2.1l12.9-3.6c0.8-0.2,2.5-0.9,2.6-1.8s-1.6-0.7-2.1-0.6l-12.9,3.6
		c-0.6,0.2-3,1.1-2.5,2.1l7.4,17.4l11.7,27.8l2.7,6.4c0.3,0.7,1.6,0.4,2.1,0.3c4.5-1.2,8.7-2.9,12.7-5.2c8.6-4.7,15.8-11.5,21-19.8
		c2.3-3.8,4.5-7.9,5.1-12.4c0.5-3.6,0.4-7.3-0.3-10.9c-1.4-8.5-4.8-16.7-8.6-24.4c-6.4-12.6-14-24.6-22.7-35.8
		c-0.5-0.5-0.9-1.1-1.3-1.7c-0.7-1.4-1.2-2.9-1.7-4.4c-2.7-6.9-5.5-13.8-8.6-20.6c-1.5-3.4-3.1-6.8-4.9-10.1
		c-1.2-2.1-2.4-4.5-4.2-6.2c-2.4-2.2-6.8-0.1-7.8,2.6c-1.2,3.1-0.6,6.9-0.2,10.1c0.1,0.8,0.2,1.6,0.4,2.4l4.6-1.9
		c-1-2.8-2.2-5.6-3.6-8.2c-1.1-2.2-2.3-4.2-3.8-6.1c-1.1-1.6-2.7-2.9-4.5-3.7c-2.2-0.7-4.6-0.1-6.2,1.5c-0.9,1-1.4,2.4-1.4,3.8
		c-0.1,4,1.1,8.1,2.3,11.8c0.9,2.8,1.8,5.6,2.9,8.3l4.6-1.9c-1.9-2.7-3.9-5.4-5.9-7.9c-1.6-2-3.3-3.8-5.1-5.6
		c-1.3-1.4-3-2.5-4.8-3.1c-2.4-0.5-4.8,0.5-6.1,2.5c-0.8,1.5-0.6,3.4-0.3,4.9c0.7,4.9,2.4,9.8,4.1,14.4c1.2,3.4,2.6,6.7,4,10
		l4.1-2.2c-3-1.3-6.2-2.1-9.5-2.2c-2.7-0.1-5.4,0.7-7.7,2.2c-1.3,0.9-2.7,2.4-2.5,4.1c0.3,2.7,3.5,5,5.5,6.5
		c3.3,2.4,6.7,4.5,10.3,6.4c2.7,1.5,5.5,2.9,8.3,4.2c0.3,0.1,0.6,0.3,0.9,0.4s0-0.2,0.2,0.1c0.5,1,1,1.9,1.5,2.9
		c3.6,7.3,7,14.8,10.4,22.2c1.7,3.7,3.4,7.3,5,11c0.9,2,1.7,4.1,2.7,6c0,0.1,0.1,0.2,0.1,0.3C322.8,253.2,327.4,251.3,326.8,249.9z"></path><path class="st2" d="M298.4,189.3c2.5-0.5,5.2-1.8,7.8-1.3c0.9,0.2,1.7,0.6,2.5,1c1.3,0.6,2.5,1.4,3.8,2.1c1,0.5,2.1,0.9,3.3,1
		c0.3,0,1.9,0.2,1-0.3c-3.5-2.2-7.3-3.8-11.3-4.7c-1.9-0.5-3.8-0.6-5.8-0.4c-2,0.2-3.9,1-5.8,1.4c-0.5,0.1,1.5,0.9,1.6,0.9
		C296.3,189.2,297.3,189.4,298.4,189.3L298.4,189.3z"></path><path class="st1" d="M300.9,401c0,0-3.2-40-13.1-76.2l45.5-18.6l-21.8-51.7l-55.4,14.8c-2-0.9-4.1-1.5-6.2-1.7
		c-7.4-0.7-13.7,3.4-19.1,10.6c-26.3-0.4-63,35.3-69.7,45.7l45.4,36.4l1.4-7.6c-4,27.1-5.1,50.2-5.1,50.2"></path><path class="st2" d="M303.2,401.8c-1.2-14.5-3.3-28.9-5.8-43.1c-1.1-6.2-2.3-12.4-3.7-18.5c-0.7-3.2-1.5-6.5-2.3-9.7
		c-0.4-1.5-0.9-2.9-1.1-4.4c-0.2-1-0.2-0.2,0-0.5c0.4-0.2,0.9-0.4,1.3-0.5l2.4-1l7.4-3l33.1-13.5c0.2-0.1,1-0.2,1.1-0.4
		s0-0.1-0.1-0.3c-0.1-0.5-0.3-0.9-0.6-1.4l-1-2.3l-6.8-16.2l-13-30.8l-0.2-0.6c-0.2-0.5-1.5-0.9-1.9-1c-0.6-0.3-1.9-1-2.6-0.8
		l-18.8,5l-29.7,7.9l-6.9,1.8l3,0.9c-4.7-2-10-3.5-15.1-2.1c-4.4,1.2-8.2,4.1-11.2,7.6c-0.6,0.7-1.5,2.4-2.5,2.5s-1.8,0-2.6,0.1
		c-1.7,0.1-3.4,0.4-5.1,0.8c-3.6,0.8-7.1,2-10.5,3.5c-7.5,3.4-14.6,7.6-21.2,12.6c-6.4,4.7-12.4,9.8-18.1,15.4
		c-4.2,4.1-8.5,8.4-11.7,13.3v0.1l15.3,12.3l24.4,19.5l5.6,4.5c0.4,0.3,4.5,2.1,4.6,1.6l1.4-7.6l-4.7-1.8c-2.3,15.6-4,31.3-4.9,47
		c-0.1,1.1-0.1,2.1-0.2,3.2c0,0.5,1.9,1,2.2,1.2c0.2,0.1,2.4,0.8,2.4,0.6c0.5-11,1.6-22,2.9-33c0.7-5.7,1.4-11.5,2.3-17.2
		c0.1-0.7-4.7-1.9-4.7-1.8l-1.4,7.6l4.6,1.6l-9.9-7.9l-19.6-15.7l-14.7-11.8c-0.2-0.2-1.1-0.6-1.1-0.9c0.1-0.2,0.3-0.4,0.5-0.6
		c0.4-0.5,0.8-1,1.1-1.6c2.4-3,4.9-5.8,7.6-8.5c7.5-7.7,15.7-14.6,24.5-20.7c8.9-6.1,18.8-11.8,29.5-13.7c1.1-0.2,2.3-0.4,3.5-0.4
		c0.6,0,1.1-0.1,1.7-0.1c0.8,0,1.1,0.1,1.6-0.5c2-2.7,4.4-5.1,7.2-7c2.6-1.8,5.5-2.8,8.6-3.1c1.7-0.1,3.4,0,5,0.5
		c1.3,0.4,2.7,1.4,4,1.3c1.3-0.2,2.6-0.6,3.9-1l9.1-2.4l24.5-6.5l17-4.5l0.9-0.2l-4.6-1.8l11.2,26.6l7.6,17.8l2.3,5.5
		c0.1,0.3,0.8,1.4,0.6,1.7s-0.9,0.4-1.1,0.5l-2.2,0.9l-7.2,2.9l-19.2,7.8l-14.3,5.8c-0.3,0.1-1,0.3-1.2,0.5s-0.2-0.6,0,0.5
		c0.3,1.6,0.9,3.2,1.3,4.8c1.6,6.3,3,12.6,4.2,18.9c3.4,16.9,5.9,34,7.4,51.2c0,0.3,0,0.5,0.1,0.8c0,0.5,1.9,1,2.2,1.2
		C301.6,401.5,302.4,401.7,303.2,401.8L303.2,401.8z"></path><path class="st2" d="M222.9,245.1c0,0-4-27.5,19.6-32.9s48.6,17.1,44.4,45.9s-39.6,25.5-39.6,25.5L222.9,245.1z"></path><path class="st2" d="M225.3,245.1l-0.1-0.5c0.1,0.6,0-0.1,0-0.3l-0.1-0.8c-0.1-1.6-0.1-3.3,0-4.9c0.2-4.7,1.3-9.3,3.4-13.6
		c2.7-5.2,7.4-9.1,13-10.9c6.3-2,13.2-1.7,19.3,0.8c14,5.6,23.3,19.9,23.9,34.7c0.3,6.9-0.8,14.1-4.8,19.9c-3,4.3-7.2,7.6-12.1,9.5
		c-2.1,0.9-4.3,1.6-6.6,2.1c-1.1,0.2-2.2,0.5-3.3,0.6c-0.5,0.1-1,0.2-1.6,0.2l-0.7,0.1l-0.4,0c0.3,0,0.3,0,0,0
		c-1.7,0.1-3.4,0.2-5.1,0.2c-0.6,0-1.2,0-1.8,0h-0.6c-0.7,0,0.7,0.2,0.1,0c-0.1,0-0.3,0-0.4,0l2,1l-8.3-13l-13.1-20.8l-3.1-4.8
		c-0.9-1.5-5.8-1.3-4.5,0.8l19.9,31.5l3.9,6.2c0.2,0.3,0.4,0.6,0.6,0.9c0.7,0.7,1.7,1,2.6,1c5,0.3,10.1,0,15-1
		c7.5-1.5,14.9-4.7,20-10.6c6.8-7.7,8.1-18.9,6.4-28.8c-1.9-10.9-8-20.6-17-27.1c-8.8-6.3-20.2-9.2-30.8-6.8
		c-4.8,1-9.3,3.3-12.8,6.6c-2.8,2.8-4.9,6.2-6.2,9.9c-1.9,5.3-2.5,10.9-2,16.5c0,0.4,0.1,0.8,0.1,1.2
		C220.7,246.9,225.6,247.2,225.3,245.1z"></path><path class="st1" d="M218.9,268.5c-6.1-11.5,8.4-45.4,8.4-45.4c7.5-7.9,36.5,3.8,36.5,3.8c-6,8.3-7.6,23.4-7.6,23.4
		c5.2-7.4,14-2,11.9,5.8s-11.9,8.4-11.9,8.4s-0.8,17.4-2.1,20.5s-17.2,4.6-23.2-6C230.8,279,224.3,278.5,218.9,268.5z"></path><path class="st2" d="M221,267.7c0.2,0.5-0.1-0.4-0.2-0.5c-0.1-0.3-0.2-0.6-0.3-0.9c-0.2-0.5-0.3-1.1-0.4-1.6
		c-0.2-1.4-0.3-2.8-0.2-4.3c0.1-3.4,0.5-6.8,1.3-10.1c1.5-6.7,3.4-13.3,5.9-19.8c0.7-1.9,1.4-3.8,2.2-5.7c0.2-0.3,0.3-0.7,0.4-1
		c0-0.1-0.7,0.7-0.2,0.5c0.2-0.2,0.5-0.3,0.7-0.5c0.1-0.1,0.7-0.4,0.3-0.2c0.3-0.2,0.7-0.3,1-0.5c0.3-0.1,0.6-0.2,0.9-0.3
		c0.4-0.1-0.5,0.1,0.1,0l0.4-0.1c0.7-0.1,1.4-0.2,2.2-0.3c1.5-0.1,3-0.1,4.5,0.1c3.3,0.3,6.6,0.9,9.8,1.8c4.7,1.2,9.3,2.7,13.9,4.5
		l-1.6-3.1c-3.2,4.5-5,10-6.3,15.3c-0.7,3-1.3,6.1-1.6,9.2c-0.1,1,1.1,1.9,1.9,2.1c1,0.4,2.1,0.1,2.7-0.7c0.7-1.1,1.6-1.9,2.8-2.4
		c0.6-0.3,1.3-0.3,2-0.1c0.5,0.1,0,0,0.4,0.2c0.1,0,0.6,0.4,0.3,0.2c0.4,0.2,0.7,0.5,1,0.9c0.6,0.8,1,1.8,1.1,2.8
		c0.4,4.8-3.4,7.7-7.4,9c-0.5,0.2,0.1,0-0.4,0.1l-0.6,0.1c-0.3,0.1-0.7,0.1-1,0.2s-0.7,0.1-1,0.1c-1,0.1-1.7,0.9-1.8,1.8
		c-0.1,3.3-0.4,6.5-0.6,9.8c-0.2,2.3-0.4,4.7-0.7,6.8c-0.1,0.8-0.3,1.7-0.5,2.5c-0.1,0.3-0.2,0.5-0.3,0.8s0.2-0.4,0.1-0.1
		s0.3-0.2,0,0l-0.3,0.2c-0.3,0.3,0.2-0.1,0,0c-0.4,0.2-0.7,0.3-1.1,0.4c-0.2,0.1-0.5,0.1-0.1,0c-0.2,0.1-0.4,0.1-0.6,0.1
		c-0.5,0.1-0.9,0.2-1.4,0.2c-0.9,0.1-1.8,0.2-2.7,0.1c-0.6,0-1.2-0.1-1.8-0.2c-0.5-0.1-0.9-0.1-1.4-0.2c-0.6-0.1-1.1-0.3-1.7-0.5
		c-0.3-0.1-0.6-0.2-0.9-0.3l-0.5-0.2c-1.1-0.5-2.1-1.1-3.1-1.9c-1-0.8-1.8-1.7-2.5-2.7c-0.8-1.2-1.4-2-3-2.3c-0.6-0.1,0.6,0.2,0,0
		c-0.3-0.1-0.6-0.2-0.9-0.3l-0.5-0.2c0.6,0.2,0,0-0.2-0.1c-0.5-0.2-1-0.5-1.4-0.8c-0.5-0.3-0.9-0.7-1.4-1.1
		c-0.6-0.5-1.2-1.1-1.7-1.6c-1.3-1.6-2.5-3.3-3.5-5.2c-1.2-2.3-5.7-1.1-4.2,1.7c2,4,5.1,7.4,8.8,9.8c1.6,1,3.3,1.6,5.2,1.9l-2.2-1.2
		c4.3,7.4,14.2,10.8,22.4,9c1.4-0.2,2.8-0.8,4-1.6c0.9-0.8,1.5-1.8,1.7-3c0.7-3.6,1.2-7.2,1.4-10.9c0.2-2.9,0.4-5.8,0.5-8.7
		l-1.8,1.8c4.2-0.2,8.3-2,11.2-5.1c4.6-5.1,3.3-14.1-3.6-16.3c-4.1-1.3-8,0.6-10.4,4l4.6,1.4c0-0.1,0-0.1,0-0.2c0-0.1,0-0.1,0-0.2
		c0.2-0.2-0.1,0.5,0,0.2c0.1-0.6,0.2-1.2,0.3-1.8c0.3-2,0.7-4.1,1.2-6.1c1.2-5,2.8-10.1,5.8-14.3c1-1.4-0.4-2.6-1.6-3.1
		c-4-1.6-8.1-3-12.3-4.1c-3.6-1-7.4-1.8-11.1-2.3c-3.3-0.5-6.8-0.4-10.1,0.2c-2.2,0.5-5,1.6-6,3.8c-0.6,1.5-1.2,3-1.8,4.5
		c-2.5,6.4-4.6,13-6.2,19.7c-1,4.1-1.6,8.3-1.9,12.5c-0.3,3.5,0.4,6.9,1.8,10.1C218,271.6,222.5,270.5,221,267.7z"></path><path class="st1" d="M231.3,254.6c0,0-19.3-1.9-20.3-12.4s13.6-11.8,22.1-1.1"></path><path class="st2" d="M230.8,252.5c-1.7-0.2-3.4-0.5-5-0.9l-0.5-0.1c-0.1,0-0.1,0-0.2,0l-1.2-0.3c-0.8-0.2-1.6-0.5-2.4-0.8
		s-1.6-0.6-2.5-1h0.1l-0.3-0.1l-0.6-0.3c-0.4-0.2-0.8-0.5-1.2-0.7l-0.5-0.4c-0.2-0.1-0.5-0.4-0.1-0.1c-0.4-0.3-0.7-0.6-1-0.9
		c-0.1-0.1-0.3-0.3-0.4-0.4s0.1,0.1,0.1,0.1l-0.2-0.2c-0.3-0.3-0.5-0.7-0.8-1c0.2,0.4,0-0.1-0.1-0.2s-0.2-0.4-0.3-0.5
		s-0.1-0.2-0.1-0.3s0.1,0.3,0,0.1s-0.1-0.4-0.2-0.7c-0.2-0.8-0.3-1.7-0.1-2.5c0.3-3.3,3.1-5.2,6.4-5.4c4.6-0.3,9.1,2.5,12,6.1
		c0.7,0.8,2,1.7,3.1,1.2s0.7-2,0.1-2.7c-3.6-4.5-8.8-8.1-14.6-8.7c-4.2-0.4-8.9,1-10.7,5.3s0.1,9.2,3.3,12.3c3,3,7.1,4.7,11.1,5.9
		c2.6,0.8,5.2,1.3,7.9,1.6c0.8,0.1,1.5-0.4,1.7-1.1c0-0.2,0-0.5,0-0.7C233.1,253.7,232.1,252.8,230.8,252.5L230.8,252.5z"></path><path class="st2" d="M235.1,235.3c0.8,0.4,1.1,1.4,0.7,2.2c0,0.1-0.1,0.1-0.1,0.2c-1,1.4-2.8,0.2-2.4-1.3c0.1-0.7,0.8-1.2,1.6-1.1
		C235,235.3,235.1,235.3,235.1,235.3z"></path><path class="st2" d="M246.6,238.6c0.8,0.4,1.1,1.4,0.7,2.2c0,0.1-0.1,0.1-0.1,0.2c-1,1.5-2.8,0.2-2.4-1.3c0.1-0.7,0.8-1.2,1.6-1.1
		C246.4,238.6,246.5,238.6,246.6,238.6z"></path><path class="st2" d="M246.9,255.4c0,0.6-0.1,1.3-0.3,1.8l0.1-0.1c-0.3,1.2-1.2,2-2.4,2.3h0.2c-0.4,0-0.8-0.1-1.1-0.2l0.2,0.1
		l-0.3-0.2c-0.1-0.1-0.4-0.3,0,0c-0.1-0.1-0.4-0.4-0.1-0.1s0.1,0.1,0,0c-0.2-0.2,0.4,0.5,0.2,0.2c-0.1-0.1-1.5-1.7-1.6-1
		c0,0.4,0.2,0.8,0.4,1.1c0.3,0.6,0.7,1.1,1.1,1.6c1,1.2,2.7,3.1,4.5,2.4c1.4-0.9,2.3-2.5,2.2-4.2c-0.1-0.4-0.2-0.8-0.4-1.1
		c-0.3-0.6-0.7-1.1-1.1-1.6c-0.3-0.4-0.7-0.8-1.1-1.1C247.2,255.3,246.9,255.1,246.9,255.4L246.9,255.4z"></path><path class="st2" d="M204.8,287c0.5,6.1,3.5,11.8,8.2,15.8c5,4.4,11.3,6.9,17.8,8.1c3.6,0.7,7.2,1.1,10.8,1.2
		c3.6,0.3,7.2,0.3,10.9,0c7-1,11.9-5.7,15.7-11.3c4.3-6.5,7-13.9,7.8-21.6c0.2-1.3-0.6-2.5-1.9-2.9c-1-0.3-2.8,0.1-2.9,1.4
		c-0.6,6.1-2.5,12.1-5.5,17.5c-2.7,4.8-6.6,10.3-12.2,12c-3,0.7-6,1-9.1,0.7c-3.3-0.1-6.5-0.3-9.8-0.8c-5.8-0.8-11.7-2.3-16.6-5.8
		c-4.6-3.2-8.1-8.3-8.4-14C209.5,284.6,204.7,283.9,204.8,287L204.8,287z"></path><path class="st2" d="M176.9,310.3c2.9,6.7,7.5,12.5,13.5,16.7c7,5,15.1,6.7,23.3,8.5c8.9,2,17.9,4.4,26.9,5.8
		c4.5,0.8,9.1,1,13.6,0.6c4.2-0.4,8.3-1.5,12.2-3.2c8.3-3.5,15.4-9.3,22.2-14.9c1-0.8,0.3-2.1-0.5-2.7c-1.1-0.7-2.5-0.6-3.5,0.2
		c-5.7,4.7-11.5,9.4-18.1,12.8c-3.3,1.7-6.8,2.9-10.4,3.6c-4.1,0.7-8.2,0.7-12.3,0.2c-8.6-1-17-3.3-25.4-5.2
		c-7.7-1.7-15.9-2.9-22.7-7c-6.4-3.9-11.4-9.8-14.3-16.7C180.5,306.8,175.8,307.6,176.9,310.3z"></path><path class="st2" d="M290.4,262.8c0.2,18.1,12.8,34.9,8.5,53.2c-0.3,1.2,4.6,2.1,5,0.7c4.4-18.3-8.3-35.1-8.5-53.1
		C295.3,262,290.3,261.6,290.4,262.8z"></path><path class="st2" d="M209.5,370.2c22.6,3.5,46.5,4.7,68.7-1.8c6.2-1.8,12.2-4.3,17.9-7.4c1.8-1-2-4.1-3.7-3.2
		c-20,10.9-43.3,12.8-65.7,11.1c-6.4-0.5-12.8-1.3-19.2-2.3c-1.1-0.2-1.5,0.8-1.1,1.7C207.1,369.4,208.3,370.1,209.5,370.2
		L209.5,370.2z"></path></g><g id="character-2"><path class="st2" d="M436.8,340.3c0,0-6.2,12.9-9,12.9s-20-41.1-32.4-37.8c-3.7-5.4-8.2-9.2-13.8-10.6c-5.9-1.5-11.3,0.6-16.2,5
		c-0.7-2.4-1.3-3.8-1.3-3.8s-25.7,37.2-70.2,43.4l5,33.5c0,0,16.3-1.8,37.8-11.5c-3.5,12.2-5.8,21.8-6.9,24.1h81
		c0,0,0.2-7.9-0.5-19.1c9.7,9.2,21.8,17.7,31.5,15.2c19.7-5.1,20-39.4,20-39.4L436.8,340.3z"></path><path class="st2" d="M434.4,339.8c-1.9,3.9-3.8,7.8-6.7,11.1c-0.4,0.4,0.2-0.1-0.3,0.3c-0.2,0.2-0.6,0.3-0.1,0.1
		c-0.6,0.2,0.4-0.1,0.1,0c0.5-0.1,1,0,1.5,0.1c0.5,0.3,0.3,0.3,0.1,0c-0.5-0.6,0.2,0.3-0.2-0.2c-0.9-1.3-1.8-2.7-2.6-4.1
		c-5.6-9.5-10.6-19.6-18.2-27.7c-3.3-3.5-8-7.3-13.1-6l2.7,0.9c-3.7-5.3-8.6-9.9-15-11.5c-6.9-1.8-13.6,0.9-18.8,5.5l4.1,0.9
		c-0.4-1.5-0.9-2.9-1.5-4.4c-0.7-1.6-3.5-1.1-4.3,0s-1.9,2.5-2.9,3.7c-1.1,1.4-2.3,2.7-3.5,4c-0.8,0.8-1.5,1.6-2.3,2.4l-0.9,1
		l-1.4,1.4c-9.2,9.1-19.9,16.6-31.6,22.2c-8.3,3.8-17,6.4-26,7.7c-1.3,0.2-2.1,1.3-2,2.6l4.4,29.3l0.6,4.2c0.3,1,1.2,1.7,2.3,1.6
		c8.6-1,17.1-3.5,25.2-6.3c4.7-1.6,9.3-3.5,13.8-5.5l-3.4-2.3c-1.5,5.2-2.9,10.5-4.3,15.7c-0.6,2.9-1.5,5.7-2.6,8.4
		c-0.7,1.5,0.9,2.6,2.1,2.6h81c1.1,0,2.6-0.8,2.7-2.1c0.1-6.4-0.1-12.8-0.5-19.1l-4.3,1.5c6.6,6.3,14.2,12.5,23.1,15.2
		c6.6,2.1,13.9,0.6,19.2-3.9c8.3-6.9,11.5-18.6,12.9-29c0.4-2.7,0.6-5.4,0.7-8.1c0-0.8-0.4-1.5-1.1-1.8L441.3,340l-3.1-1.5
		c-1.2-0.5-2.6-0.2-3.4,0.8c-0.6,0.8-0.5,2,0.3,2.6c0.1,0.1,0.2,0.2,0.4,0.2l21.9,10.3l3.1,1.5l-1.1-1.8c-0.1,6.4-1.1,12.8-2.9,18.9
		c-1.5,5-3.5,9.5-6.9,13.4c-1.5,1.7-3.3,3-5.2,4.1c-1.1,0.6-2.3,1-3.5,1.2c-1.5,0.3-3,0.3-4.5,0c-4.4-0.7-8.4-2.8-12.1-5.2
		c-4.3-2.9-8.2-6.1-11.9-9.7c-1.2-1.1-4.5-0.5-4.3,1.5c0.4,6.4,0.7,12.8,0.5,19.1l2.7-2.1H330l2.1,2.6c1.1-2.7,2-5.5,2.6-8.4
		c1.4-5.2,2.9-10.5,4.3-15.7c0.6-2.1-1.7-3.1-3.4-2.3c-11.1,5.1-22.8,8.8-34.8,10.9c-0.6,0.1-1.1,0.2-1.7,0.2c-0.4,0-1.3,0.1,0,0
		l2.2,1.5L297,353l-0.6-4.2l-2,2.6c15.9-2.2,30.9-8.7,44-17.8c8.9-6.2,17-13.6,24-21.9c1.3-1.5,2.6-3.1,3.7-4.7l-4.3,0.1
		c-0.4-1.1,0.1,0.4,0.2,0.6c0.3,0.9,0.6,1.8,0.9,2.7c0.5,1.7,2.8,2,4.1,0.9c4-3.6,8.8-5.8,14.2-4.3c5,1.4,8.9,5.3,11.8,9.5
		c0.6,0.8,1.7,1.2,2.7,0.9c0.2-0.1,0.4-0.1,0.6-0.1c-0.1,0-0.5,0,0,0c0.2,0,0.4,0,0.6,0c-0.6,0,0,0,0.2,0.1s0.4,0.1,0.6,0.1
		c0.6,0.1-0.1-0.1,0.2,0s0.9,0.4,1.3,0.6l0.7,0.4c0.3,0.2-0.3-0.2,0,0l0.3,0.2c0.5,0.4,1,0.7,1.4,1.1c0.9,0.8,1.8,1.6,2.6,2.5
		c3.8,4.3,7.1,9,10,14c2.7,4.5,5.2,9.1,7.9,13.5c0.8,1.4,1.7,2.8,2.8,4c1.5,1.6,3.7,1.4,5.4,0.1c2.5-1.9,4.1-5,5.6-7.7
		c1.1-1.9,2.1-3.8,3-5.7c0.4-1-0.2-2.1-1.2-2.5c-0.1,0-0.2-0.1-0.3-0.1C436.2,338,435,338.7,434.4,339.8z"></path><path class="st1" d="M435.4,337.7c0,0-9.9-17.2-4.8-19s9.8,7.2,9.8,7.2s5.7-21.8,9.8-21.8s2.7,18.2,2.7,18.2s5.8-19.1,9.7-15.9
		s-1,17.3-1,17.3s5.5-10.3,8.1-7.4s-7.9,35.9-7.9,35.9c-9.5,1-19-1.3-27-6.6C434.8,342.9,435,340.3,435.4,337.7z"></path><path class="st2" d="M437.6,336.6c-0.6-1.1-1.2-2.2-1.8-3.3c-0.2-0.4,0-0.1,0,0l-0.2-0.4l-0.4-0.8c-0.3-0.6-0.6-1.2-0.8-1.8
		c-0.5-1.2-1.1-2.5-1.5-3.7c-0.4-1.2-0.8-2.4-1.1-3.6c-0.1-0.5,0,0.1,0-0.3s-0.1-0.5-0.1-0.8s0-0.5,0-0.7c0-0.6-0.1,0.3,0-0.3
		s-0.1-0.2,0-0.1c-0.1-0.2,0.7-0.5,0,0c0.4-0.2-0.2,0.1-0.1,0c-0.7,0.4,0.4-0.1,0,0c0.4-0.1,0.8,0,1.1,0.1c0.6,0.2,1.2,0.6,1.6,1.1
		c1.6,1.5,3,3.2,4,5.1c0.9,1.8,4.1,1.2,4.5-0.6c0.5-2,1.1-4,1.8-6c0.6-1.8,1.1-3.6,1.8-5.4c0.3-0.9,0.6-1.8,1-2.6
		c0.4-1,0.6-1.5,1-2.3s0.7-1.4,1.1-2.1c0.2-0.3,0.4-0.6,0.6-0.9l0.2-0.3c0.3-0.5-0.2,0.2,0.1-0.1s0.4-0.4,0.6-0.6
		c-0.4,0.4-0.4,0.2-0.2,0.1s0.3,0-0.3,0.1c0.5-0.1-0.8-0.1-0.6,0c-0.4-0.1-0.3,0-0.6-0.3l0.3,0.2c-0.1,0-0.4-0.4-0.1-0.1
		c0.1,0.1,0.3,0.6,0,0c0.1,0.2,0.2,0.5,0.3,0.7c0.1,0.4,0.2,0.7,0.3,1.1l0.1,0.6c0,0.1,0.1,0.2,0.1,0.3c0.2,1.8,0.4,3.7,0.4,5.5
		c0,2.7,0,5.4-0.2,8s4.2,2.8,4.9,0.5c1.2-4.3,2.9-8.4,5-12.3c0.3-0.5,0.7-1.1,1-1.6s-0.2,0.1,0.2-0.3l0.6-0.6
		c-0.1,0.1-0.3,0.2,0.1,0c-0.6,0.3-0.4,0.1-0.2,0.1s-0.7,0.1-0.3,0c-0.2,0-0.9-0.2-0.6-0.1s-0.6-0.2-0.1-0.1c0.3,0.1-0.1-0.2,0,0.1
		c0.3,0.5,0-0.1,0.2,0.4c0.1,0.3,0.2,0.6,0.2,0.9c0.1,0.6,0-0.3,0,0.1c0,0.2,0,0.4,0.1,0.6c0,0.4,0,0.8,0,1.2c0,1.5-0.2,3.1-0.5,4.6
		c-0.5,2.4-1.1,4.9-1.9,7.2c-0.9,2.6,3.5,3.8,4.6,1.6c0.5-1,1.1-2,1.8-3c0.3-0.4,0.5-0.8,0.9-1.2c0.1-0.2,0.3-0.4,0.4-0.6
		c0.1-0.1,0.5-0.6,0.3-0.4c0.3-0.4,0.6-0.7,1-1l0.5-0.4c0.2-0.2-0.1,0-0.1,0.1c0.1-0.1,0.3-0.1,0.4-0.2c0.3-0.3,0,0,0,0
		c0.5-0.1-0.2,0-0.4,0s-0.2,0-0.6-0.2c0,0-0.3-0.3-0.2-0.2c-0.2-0.3-0.2-0.5-0.1-0.1s0-0.5,0,0.2c0,0.6,0,1.1,0,1.7
		c0,0.3,0,0.6-0.1,0.9c-0.1,0.6,0-0.2,0,0.2l-0.1,0.6c-1.2,8.1-3.7,16.1-6,24c-0.6,2.2-1.3,4.4-2,6.5l1.7-1.6c0.6-0.1,0.6-0.1,0,0
		s-1.2,0.1-1.7,0.1c-1.8,0.1-3.7,0-5.5-0.1c-6.3-0.7-12.4-3-17.7-6.5l1.3,1.9c0-2.4,0.2-4.8,0.6-7.2c0.3-1.2-0.5-2.4-1.8-2.7
		c0,0,0,0,0,0c-1.1-0.2-2.8,0.3-3,1.6c-0.5,2.7-0.8,5.5-0.7,8.2c0.1,1.8,2.1,2.6,3.5,3.4c1.7,1,3.5,1.8,5.3,2.5
		c5.6,2.2,11.5,3.3,17.5,3.2c1.3,0,2.6-0.1,3.9-0.4c0.8-0.2,1.5-0.8,1.7-1.6c2-6.3,3.8-12.7,5.5-19.1c1.2-4.2,2-8.4,2.7-12.7
		c0.3-1.5,0.3-3,0-4.5c-0.6-2-2.6-3.3-4.7-2.8c-2.5,0.5-4.3,2.9-5.7,4.9c-1,1.3-1.8,2.7-2.6,4.1l4.6,1.6c0.8-2.3,1.4-4.7,1.9-7.1
		c0.7-3.4,1.5-8-0.5-11.2s-5.6-2.5-7.8,0s-3.5,5.9-4.8,9c-0.9,2.2-1.7,4.5-2.4,6.7l4.9,0.5c0.2-2.5,0.3-5.1,0.2-7.7c0-2-0.1-4-0.4-6
		c-0.1-1.8-0.7-3.5-1.6-5c-1.1-1.6-3.2-2.2-4.9-1.4c-1.5,0.7-2.6,1.9-3.4,3.4c-2,3.6-3.6,7.5-4.8,11.5c-0.9,2.8-1.8,5.6-2.5,8.4
		l4.6-0.6c-1.2-2.2-2.7-4.2-4.5-5.8c-2.5-2.2-7-4-9.9-1.3c-2.1,2-1.5,5.1-0.9,7.6c0.8,2.9,1.9,5.7,3.2,8.3c0.9,1.8,1.8,3.7,2.8,5.4
		C434.7,341.4,439.1,339.2,437.6,336.6z"></path><path class="st2" d="M439.8,327.2c0.8,0.4,1.5,0.7,2.3,1.1l1,0.4c0.3,0.1-0.4-0.2,0,0l0.5,0.3l0.4,0.2c0.3,0.2,0.2,0,0,0
		c0.2,0,0.6,0.5,0.7,0.6s0.4,0.4,0.6,0.6c-0.2-0.2-0.1-0.1,0,0.1s0.2,0.2,0.3,0.4c0.7,0.9,1.3,1.9,1.8,3c0,0,0.1,0.1,0.1,0.1
		c0.1,0.1,0.1,0.2,0.2,0.4c0.1,0.3,0.3,0.6,0.4,0.9c0.2,0.6,0.5,1.1,0.7,1.7c0.6,1,1.7,1.6,2.8,1.6c0.6,0,2.5-0.3,2-1.4
		c-0.8-2.5-2-4.9-3.6-7.1c-0.9-1.2-2-2.2-3.3-3c-0.8-0.4-1.6-0.8-2.4-1.1l-1.1-0.5l-0.2-0.1c0.3,0.1-0.4-0.2-0.4-0.2
		c-1-0.6-2.3-0.7-3.5-0.2C438.3,325.7,438.9,326.7,439.8,327.2L439.8,327.2z"></path><path class="st1" d="M363.6,301.8c0,0-14.9-16.3-9.4-38.8s17.3-26.6,35.9-27.8s33.4,31.4,25.2,53.6s-18.9,17.2-18.9,17.2
		s7,9.5,3.3,14.5s-31.3,2.4-37.1-3S363.6,301.8,363.6,301.8z"></path><path class="st2" d="M365.3,301.2l-0.5-0.5l-0.5-0.6l-0.3-0.4c0.4,0.5-0.1-0.1-0.2-0.2c-1.3-1.8-2.5-3.7-3.5-5.7
		c-3.3-6.2-5.1-13.2-5.1-20.3c0.1-8.1,2.3-16,6.4-22.9c2.9-4.8,7.3-8.6,12.6-10.6c2.7-1,5.6-1.7,8.5-2.2c3.3-0.6,6.6-0.9,9.9-0.9
		c1.6,0.1,3.2,0.5,4.7,1.1c0.7,0.3,1.4,0.7,2,1.1c0.3,0.2,0.8,0.5,1.4,1s1.2,1,1.5,1.2c1.2,1.1,2.3,2.2,3.3,3.5
		c4.2,5.5,7.1,11.8,8.5,18.6c2.9,11.3,1,23.4-5.3,33.2c-1.4,2.4-3.3,4.5-5.6,6.2c-0.7,0.5-1.5,1-2.4,1.3c-0.4,0.1-0.7,0.2-1.1,0.3
		c-0.2,0-0.6,0.1-0.2,0l-0.6,0.1c-0.3,0-0.6,0-0.9,0c-0.5,0,0.3,0,0,0h-0.4c-0.2,0-0.5-0.1-0.7-0.1c0.5,0,0.4,0.2,0,0
		s-0.4-0.2,0.2,0.1c-0.7-0.5-1.6-0.6-2.5-0.3c-0.5,0.3-0.7,1-0.4,1.5c0,0.1,0.1,0.1,0.1,0.2c2.2,3,4.6,7.3,4.1,11.1
		c-0.1,0.5-0.3,1.1-0.5,1.5c-0.1,0.2-0.3,0.4-0.4,0.6c0.2-0.3,0,0-0.1,0.1c-0.2,0.2-0.5,0.4-0.8,0.5c0.3-0.2-0.2,0.1-0.3,0.1
		l-0.6,0.2c-1.9,0.6-3.8,0.9-5.8,0.9c-5.3,0.2-10.6-0.2-15.9-1.2c-2.3-0.4-4.6-1-6.8-1.8l-0.6-0.2l-0.4-0.2c0.1,0,0.5,0.2,0.1,0
		s-0.9-0.4-1.3-0.6c-0.2-0.1-0.5-0.3-0.1,0l-0.5-0.3c-0.1-0.1-0.3-0.2-0.4-0.3c0.3,0.3-0.3-0.3-0.3-0.4c-1.8-2.3-1.1-5.9-0.2-8.4
		c0.6-1.7,1.3-3.3,2.3-4.8c1.1-1.7-3.3-4.1-4.4-2.4c-2.4,3.8-4.4,9.3-2.8,13.7c2,5.5,8.3,7.3,13.5,8.6c5.9,1.4,11.9,2.1,18,2
		c2.5,0,5.1-0.3,7.6-0.8c1.8-0.3,3.5-1.3,4.6-2.8c1.8-2.9,0.8-6.8-0.5-9.6c-0.9-2.1-1.9-4-3.2-5.8l-2.8,1.4c2.4,1.1,5.1,1.2,7.7,0.4
		c6-1.8,9.8-7.9,12.2-13.2c3.5-7.4,4.9-15.7,4-23.9c-0.8-7.8-3.3-15.3-7.3-22c-3.6-5.9-8.7-11.3-15.2-13.8c-3.1-1.1-6.4-1.5-9.7-1.2
		c-3.6,0.2-7.1,0.7-10.6,1.4c-5.9,1.3-11.6,3.8-15.8,8.3c-5.3,5.7-8.1,13.3-9.5,20.8c-2.6,13.1,1.4,27.4,10,37.7
		c0.1,0.2,0.3,0.4,0.5,0.6c0.8,0.9,2.1,1.4,3.3,1.1C366.2,303,365.9,301.9,365.3,301.2z"></path><path class="st1" d="M376.8,291c0,0,4.5,11.3,20,10.8c0,0,9.7-2.7,15.3-9.5c8.3-10-6.1-37.5-6.1-37.5c-5.2-7.4-14.2-3.9-14.2-3.9
		c-12.8,6.2-16.5,19.7-16.5,19.7S374.2,282.8,376.8,291z"></path><path class="st2" d="M374.7,289.8c1.3,2.7,3.2,5.1,5.6,7c2.6,2.2,5.5,3.9,8.6,5c1.6,0.6,3.3,1,5.1,1.2c1.6,0.3,3.2,0.4,4.8,0.2
		c1.8-0.5,3.5-1.1,5.1-2c3.3-1.5,6.3-3.5,8.9-6c1.9-1.8,3.2-4.1,3.6-6.7c0.4-2.6,0.4-5.3,0-7.9c-0.9-5.6-2.4-11.1-4.6-16.3
		c-1-2.8-2.3-5.6-3.7-8.3c-1.8-3.2-5.7-5.6-9.1-6.7c-2.4-0.8-5.1-0.9-7.5-0.3c-2.1,0.6-4,1.5-5.7,2.8c-2.8,2-5.3,4.4-7.3,7.2
		c-1.5,2.1-2.9,4.4-3.9,6.8c-0.5,1.1-1,2.2-1.3,3.4c-0.2,1.4-0.3,2.8-0.2,4.3c-0.1,3.5,0,7.1,0.5,10.6
		C373.7,286.1,374.1,288,374.7,289.8c0.2,0.9,1.6,1.6,2.3,2c0.2,0.1,2,1,1.8,0.4c-1.9-6-2-12.6-1.6-18.8c0.3-2.3,1-4.5,2.2-6.4
		c2.6-5.3,6.6-9.8,11.6-13.1c1.5-1,3.1-1.7,4.9-2.1c2-0.4,5-0.6,6.8,0.6c0.7,0.6,1.2,1.4,1.6,2.2c0.7,1.4,1.3,2.8,1.9,4.2
		c2.1,4.6,3.8,9.4,5,14.2c1.1,4.7,2.1,10.1,0.4,14.8c-1,2.5-2.8,4.7-5,6.3c-2.5,2-5.3,3.6-8.2,4.9c-1.3,0.7-2.8,1.2-4.3,1.4
		c-3.2,0.1-6.4-0.5-9.3-1.7c-0.5-0.2-0.9-0.4-1.3-0.7c0.5,0.3-0.6-0.4-0.1-0.1c-0.1-0.1-0.7-0.6-0.5-0.3c-0.7-0.5-1.3-1.1-1.8-1.8
		c-0.8-0.9-1.5-2-2.1-3.1c-0.1-0.2-0.2-0.3-0.2-0.5c-0.4-0.9-1.6-1.5-2.4-2C376.3,290.1,374.5,289.3,374.7,289.8z"></path><path class="st1" d="M382.6,282.8c0,0-1.2,6.7,5.2,5.8"></path><path class="st2" d="M380.1,282.8c-0.4,2.5,0.4,5.4,2.8,6.5c1.7,0.8,3.7,1,5.5,0.6c0.6-0.1,1.1-0.3,1.5-0.7
		c0.3-0.3,0.4-0.8,0.2-1.2c-0.6-1-2.1-1.1-3.1-1h-0.2h-0.1l0.5,0h-0.4h-0.4c-0.1,0-0.4,0,0.1,0h0.1l-0.3,0h-0.2
		c-0.3,0,0.7,0.2,0.4,0.1c-0.2,0-0.4,0-0.6-0.1l0.5,0.2c-0.2-0.1-0.4-0.2-0.6-0.4l0.4,0.3c-0.3-0.2-0.5-0.4-0.7-0.7l0.3,0.4
		c-0.3-0.5-0.6-1-0.7-1.6l0.1,0.4c-0.2-0.9-0.2-1.9-0.1-2.9c0.1-0.4-0.5-0.9-0.8-1c-1.1-0.6-2.4-0.5-3.5,0l-0.4,0.3
		C380.3,282.3,380.1,282.6,380.1,282.8L380.1,282.8z"></path><path class="st1" d="M402.8,271.4c3,2,6.3,3.6,9.7,4.6c11.6,3.8,12.4,8.1,8.3,9.9s-19.9-2.4-19.9-2.4"></path><path class="st2" d="M400.6,271.1c3.1,2.1,6.4,3.8,10,4.9c2.4,0.7,4.8,1.7,7,2.9c1.2,0.6,2.2,1.6,2.8,2.8c0.3,0.8,0.2,1.7-0.4,2.3
		c-0.7,0.7-1.6,1.1-2.6,1.2c-0.6,0.1-1.3,0.1-1.9,0c-0.5,0-0.5,0-0.8,0l-1.4-0.1l-1.3-0.2l-0.7-0.1l-0.4-0.1h-0.1
		c-0.9-0.1-1.8-0.3-2.7-0.5s-2-0.4-2.9-0.6l-1.3-0.3l-0.3-0.1c0.4,0.1-0.2,0-0.3-0.1c-0.8-0.2-1.5-0.4-2.3-0.6
		c-0.4-0.1-2.4-0.7-2.6,0s2,1.2,2.2,1.3c2.4,0.6,4.8,1.2,7.2,1.7c3.9,0.9,7.9,1.4,11.9,1.5c2,0,5.6-0.6,5.6-3.3
		c-0.1-1.3-0.7-2.4-1.8-3.2c-1.8-1.5-3.8-2.7-5.9-3.5c-3.1-1.3-6.4-2.2-9.5-3.7c-0.9-0.4-1.8-0.9-2.7-1.5l-0.8-0.5
		c-0.1-0.1,0.3,0.2,0,0c-1-0.6-2.1-1-3.2-1.1C401.3,270.5,399.7,270.5,400.6,271.1L400.6,271.1z"></path><path class="st2" d="M390.5,269.2c0,0,1.9,0,1.7,1.9s-2.5,1.6-2.8,0c-0.3-0.7,0.1-1.5,0.8-1.8C390.3,269.2,390.4,269.2,390.5,269.2
		z"></path><path class="st2" d="M403.4,267c0,0,1.9,0,1.7,1.9s-2.5,1.6-2.8,0c-0.3-0.7,0.1-1.5,0.9-1.8C403.2,267,403.3,267,403.4,267z"></path><path class="st1" d="M338.6,373.7c4-7.4,7.5-15,10.6-22.8c0.6-1.5-3.9-3.6-4.4-2.3c-3.1,7.8-6.7,15.4-10.6,22.8
		C333.5,372.7,337.9,375,338.6,373.7z"></path><path class="st1" d="M412.8,374.3l-3.5-24.8c-0.2-1.5-0.4-3-0.6-4.5c0-0.2-2.1,1-2.3,1.1c-0.4,0.2-2,1.1-1.9,1.6
		c1.2,8.3,2.4,16.5,3.5,24.8c0.2,1.5,0.4,3,0.6,4.5c0,0.2,2.1-1,2.3-1.1C411.3,375.7,412.9,374.8,412.8,374.3z"></path></g><g id="character-1"><path class="st1" d="M134.1,341.9c0,0,39.6,42.5,71.1,40.6l2.8-27.5c0,0-15.3-0.4-76.9-59.4C131.1,295.5,123.6,325.4,134.1,341.9z"></path><path class="st2" d="M131.7,342.2c4.9,5.2,10.1,10,15.6,14.6c10.6,8.9,22.2,17.2,35.2,22.3c7.2,2.9,14.9,4.7,22.7,4.2
		c0.6,0,2.4-0.1,2.5-1l2.4-24.1l0.3-3.5c0.1-0.6-1.6-0.8-1.9-0.8c-0.1,0,0.9,0.1,0.1,0c-0.5-0.1,0.3,0.1,0.2,0s-0.2-0.1-0.4-0.1
		l-0.9-0.3l-1.2-0.4l-0.4-0.1l-0.9-0.4c-1.4-0.6-2.8-1.4-4.2-2.1c-12.2-6.7-23.1-15.8-33.7-24.7c-11.6-9.8-22.8-20.2-33.8-30.7
		c-0.8-0.8-4.6-1-4.9,0.4c-0.9,3.7-1.5,7.4-1.9,11.2c-1,7.7-0.9,15.5,0.4,23.1C127.9,334.2,129.4,338.4,131.7,342.2
		c0.7,1.1,5.5,0.3,4.8-0.7c-4.2-6.7-5.4-15-5.5-22.8c-0.1-6.5,0.5-13.1,1.8-19.5c0.2-1.3,0.5-2.6,0.8-3.9l-4.9,0.4
		c10.1,9.7,20.5,19.3,31.1,28.4c7.1,6.1,14.4,12.1,22,17.6c4.5,3.3,9.2,6.4,14,9.3c2.5,1.5,5.1,2.7,7.9,3.8c1.1,0.5,2.3,0.8,3.6,0.8
		l0,0l-1.9-0.8l-2.4,24.1l-0.4,3.5l2.5-1c-2.9,0.2-5.8-0.1-8.7-0.6c-3.1-0.6-6.1-1.5-9.1-2.7c-6.4-2.5-12.5-5.7-18.3-9.5
		c-9.9-6.5-19.1-13.9-27.6-22.1c-1.7-1.7-3.4-3.3-5.1-5.1c-0.7-0.7-2.2-0.6-3.1-0.5C133.1,341.1,131.1,341.5,131.7,342.2z"></path><path class="st1" d="M68.4,247.2c3.1,11.8,10.2,22.2,20.2,29.4c8.9,6.4,19,13.8,22.8,16c7,4.1-13.2,33.4-20.3,32.2
		s-34-29.9-42-46.6s-17.9-73.4-17.9-73.4s-2.9-34.5,0.3-36.7s6.2,9,6.2,9s-1.6-14.9,2.9-17.1s5.9,17.7,5.9,17.7s2.7-18.1,6.7-17.2
		s4.6,23.4,4.6,23.4s6.7-7.7,11.2-4.8s-11.6,25.9-11.6,25.9L68.4,247.2z"></path><path class="st2" d="M66.2,248.4c2,7.6,5.7,14.6,10.7,20.6c5.3,6.3,12.2,10.8,18.9,15.5c3,2.2,6.1,4.4,9.2,6.5
		c1.1,0.8,2.2,1.5,3.3,2.2c0.6,0.3,1.2,0.7,1.7,1.3c0.7,1.2,0.8,2.5,0.5,3.8c-0.4,1.9-1,3.8-1.8,5.5c-2.1,4.5-4.7,8.7-7.8,12.6
		c-1.4,1.8-3,3.5-4.6,5.1c-0.4,0.4-0.5,0.5-0.8,0.8l-0.6,0.5c-0.1,0.1-0.7,0.5-0.2,0.2c-0.2,0.1-0.3,0.2-0.5,0.3
		c-0.5,0.4,0.3-0.1-0.1,0c-0.6,0.2,0.2-0.1-0.1,0s0.3-0.3-0.1,0c-0.2,0.2,0.3,0-0.1,0s0.2,0-0.1,0c-0.2,0.1-0.4,0.1-0.7,0
		c-0.6-0.1-1.1-0.3-1.6-0.6c-1.5-0.8-3-1.7-4.4-2.7c-4.2-3.4-8.1-7.1-11.8-11c-4.5-4.7-8.8-9.7-12.8-14.9c-3.7-4.6-7.1-9.5-10-14.6
		c-1.9-3.7-3.5-7.5-4.7-11.5c-1.6-5.1-3-10.2-4.3-15.4c-2.7-10.9-5-21.9-7.2-32.9c-1.1-5.4-2.3-10.8-3-16.2c-0.3-2.3-0.4-4.7-0.5-7
		c-0.3-4.9-0.5-9.7-0.6-14.5c-0.2-4.2-0.1-8.3,0.5-12.5c0.1-0.6,0.2-1.2,0.5-1.7c0.1-0.1,0-0.3,0-0.1c0-0.1,0.3-0.3,0-0.1
		s-2.5,1.7-2.6,1.5c0.1,0,0.2,0.1,0.4,0.1c1.7,1.1,2.5,3.3,3.3,5.1c0.5,1.3,0.9,2.6,1.3,4c0.2,0.6,4.5-1.3,4.3-2.5
		c-0.2-2-0.3-4-0.3-6c0-2.9,0-6.6,1.6-9.2c0.1-0.2,0.2-0.4,0.4-0.5c0,0-1.2,0.8-1.2,0.8l-0.7,0.3c-0.2,0-0.3,0-0.1,0
		c-0.1-0.1,0.1,0,0.2,0.1c0.2,0.1,0.3,0.2,0.4,0.3c0.7,0.8,1.3,1.7,1.5,2.7c1,2.8,1.6,5.8,1.9,8.7c0.3,2,0.5,4,0.7,5.9
		c0,0.5,4.2-1.3,4.3-2.3c0.3-2.3,0.8-4.6,1.3-6.8c0.4-1.8,0.9-3.6,1.5-5.3c0.3-0.8,0.5-1.5,0.9-2.2c0.3-0.6,0.8-1.1,1-1.7
		c-0.1,0.2,0.2-0.2-0.2,0.2s-1.9,1.4-2.2,1.1c0,0.1,0.1-0.1,0.3,0.1c0.3,0.2,0.6,0.5,0.8,0.8c0.7,1.2,1.2,2.4,1.4,3.8
		c0.8,3.7,1.4,7.4,1.6,11.2c0.2,2.4,0.4,4.8,0.5,7.3c0,1.2,3.9-1.4,4.2-1.8c-0.5,0.6,0.4-0.4,0.5-0.5c0.5-0.6,1.1-1.1,1.7-1.5
		c0.3-0.3,0.7-0.5,1-0.7c0.3-0.2,0.1-0.1,0.5-0.3c0.7-0.2,1.4-0.3,2.1-0.2c2.9,0.6,1.9,3.6,1.2,5.7c-2.2,6.5-6.3,12.5-10.1,18.1
		c-0.5,0.8-1.7,1.9-1.4,2.9c0.4,1.8,1,3.6,1.4,5.5l5.5,21.1L66.2,248.4c0.2,0.6,4.7-1.2,4.4-2.5l-3.7-14.3l-5.9-22.6l-1.4-5.2
		l-0.1,0.5c3.2-4.5,6.1-9.3,8.8-14.2c1.5-2.8,3.2-5.9,3.7-9.1c0.3-0.9,0.1-1.9-0.4-2.8c-1.1-1.4-3.5-1.2-5-0.8
		c-4.2,1.1-8,4.1-10.8,7.3l4.2-1.8c-0.2-6.3-0.5-12.9-2.1-19.1c-0.2-1.4-0.8-2.7-1.6-3.9c-1-1.2-2.5-0.8-3.8-0.2
		c-3.9,1.9-5.2,5.8-6.2,9.7c-0.8,3.1-1.5,6.2-2,9.3l4.3-2.3c-0.1-2-0.4-4-0.6-5.9c-0.3-3.3-1.1-6.4-2.2-9.5c-0.3-1-1-1.9-2-2.4
		c-1.6-0.6-3.8,0.9-5,1.8c-2.9,2.2-3.3,6.1-3.5,9.5c-0.2,2.8-0.1,5.6,0.2,8.4l4.3-2.5c-0.4-1.5-0.9-3-1.5-4.4
		c-0.7-1.6-1.7-4.3-3.5-5c-1.4-0.5-3.1,0.6-4.2,1.3c-0.8,0.5-1.4,1.1-1.8,1.9c-0.5,1.3-0.8,2.7-0.8,4.1c-0.3,4.8-0.4,9.6-0.1,14.4
		c0.2,4.6,0.4,9.3,0.8,13.9c0.4,4,1,8,1.8,11.9c2,10.5,4.1,21,6.4,31.4s4.8,21.1,8.7,31.1c2,4.7,4.5,9.1,7.5,13.2
		c3.9,5.5,8,10.8,12.5,15.8c4.1,4.7,8.4,9.2,13,13.4c1.8,1.6,3.6,3.1,5.5,4.5c1.3,1,2.7,1.8,4.2,2.4c1.4,0.4,3,0.2,4.3-0.5
		c2.2-1,4.2-2.3,6-3.9c3.8-3.4,7.2-7.4,9.9-11.8c2.6-3.9,5.1-8.2,6.1-12.8c0.4-1.5,0.4-3,0-4.5c-0.7-1.5-2.7-2.3-4-3.2
		c-6.8-4.6-13.5-9.5-20.2-14.3c-6.5-4.8-11.9-11-15.6-18.2c-1.8-3.5-3.2-7.2-4.2-10.9C70.4,245.4,65.9,247.2,66.2,248.4z"></path><path class="st2" d="M55.9,182c-1.4,0.4-2.9,0.5-4.3,0.9c-1.3,0.4-2.5,1-3.6,1.9c-2,1.7-3.8,3.8-5.2,6.1c-0.7,1-0.4,2.4,0.5,3.2
		c0.8,0.6,2.5,1.2,3.2,0.1s1.3-2,2.1-2.9c0.4-0.5,0.8-1,1.2-1.4l0.6-0.6l0.3-0.3l0.2-0.2l0.1-0.1l0.4-0.3c0.2-0.2,0.5-0.3,0.8-0.5
		s0.5-0.3,0.7-0.4s0.4-0.1,0.1-0.1l0.5-0.2c1.4-0.4,2.8-0.5,4.2-0.9c1-0.3,1.5-1.4,1.2-2.4c0-0.1-0.1-0.2-0.1-0.3
		C58.5,182.5,57.2,181.8,55.9,182z"></path><path class="st2" d="M81,399.5c0,0,9-119.6,41.2-109.2S158,396.4,158,396.4L81,399.5z"></path><path class="st2" d="M83.3,399.3c0.2-3.3,0.6-6.5,0.9-9.8c0.8-7.9,1.8-15.8,3-23.7c1.5-9.9,3.3-19.8,5.6-29.6
		c2-9.3,4.9-18.4,8.6-27.1c0.8-1.9,1.7-3.7,2.7-5.5c0.2-0.4,0.5-0.8,0.7-1.2c0.1-0.2,0.2-0.4,0.3-0.6s-0.2,0.3,0,0.1l0.2-0.4
		c0.5-0.8,1-1.5,1.5-2.2s1-1.4,1.6-2.1c0.2-0.3,0.5-0.6,0.8-0.9l0.4-0.4c0.2-0.2-0.4,0.4-0.1,0.1l0.2-0.3c0.5-0.5,1.1-1,1.6-1.5
		c0.3-0.2,0.6-0.4,0.8-0.6s0.4-0.2,0,0l0.5-0.3c0.6-0.4,1.2-0.6,1.8-0.9c0.4-0.2-0.6,0.2,0,0l0.5-0.2c0.3-0.1,0.6-0.2,0.9-0.3
		l0.5-0.1c0.3-0.1-0.6,0,0,0c0.3,0,0.7-0.1,1-0.1s0.7,0,1,0c0,0-0.5,0,0,0l0.6,0.1c0.3,0,0.7,0.1,1,0.2l0.5,0.1
		c0.4,0.1,0.4,0.1,0.2,0c0.8,0.3,1.7,0.6,2.5,1c0.8,0.4,1.7,0.9,2.4,1.4c-0.4-0.2,0.2,0.1,0.3,0.2l0.6,0.4c0.4,0.3,0.8,0.6,1.2,0.9
		c3.1,2.7,5.8,5.9,7.9,9.5c2.5,4.2,4.6,8.7,6.4,13.3c3.8,10.3,6.6,20.9,8.4,31.6c1.8,9.8,3.1,19.6,4.1,29.5c0.5,5.5,1,10.9,1.2,16.4
		v0.8l2.7-2.8l-26.1,1L90.8,397l-9.6,0.4c-1.3,0.1-2.4,1-2.7,2.2c-0.2,1.2,0.9,2,2,1.9l26.1-1l41.4-1.6l9.6-0.4
		c1.5,0,2.7-1.3,2.7-2.8c-0.1-4-0.5-8-0.8-11.9c-0.8-9.4-1.9-18.8-3.4-28.1c-1.7-11.1-4.3-22.1-7.7-32.8c-3.1-9.4-7-19-13.6-26.6
		c-4.8-5.5-12-10.1-19.5-8.4c-6.9,1.6-11.7,8-15,13.8c-4.6,8-7.5,17-10,25.9c-2.7,10-4.9,20.1-6.6,30.4c-1.5,8.8-2.8,17.7-3.8,26.6
		c-0.5,4.7-1,9.5-1.4,14.3c0,0.2,0,0.4,0,0.7C78.4,402.5,83.1,401.8,83.3,399.3z"></path><path class="st1" d="M161.5,302.4c0,0-63.8-6.9-73.1-25c0,0,18.9-43.2,29.5-47.3c19-7.4,44.4,7.7,46,20.1
		C167.4,275.7,161.5,302.4,161.5,302.4z"></path><path class="st2" d="M162.2,301.3c-7.3-0.8-14.5-2-21.7-3.3c-12.5-2.3-25.6-5.3-37.2-10.9c-4.7-2.3-9.9-5.2-12.4-10v0.6
		c2.5-5.8,5.3-11.4,8.1-17c2.5-4.8,5-9.6,7.8-14.2c2.4-4.2,5.1-8.1,8.3-11.8c1.1-1.2,2.3-2.3,3.6-3.2c0.4-0.2-0.1,0.1,0.1-0.1
		l0.5-0.2c0.5-0.2,0.9-0.4,1.4-0.5c1.6-0.5,3.1-0.9,4.8-1.1c6.5-0.8,13.2,0.7,19.1,3.4c5.4,2.5,10.8,6.1,14.3,11
		c1.4,1.9,2.4,4.1,2.8,6.4c0.6,4.6,0.9,9.2,1,13.9c0.2,12.6-0.9,25.2-3.4,37.5c0,0.2-0.1,0.4-0.1,0.6c-0.3,1.5,4.6,1.8,5,0.1
		c1.6-7.9,2.7-15.8,3.2-23.8c0.6-7.5,0.6-15.1,0-22.6c-0.2-2.9-0.3-6-1.4-8.7c-0.8-2-1.9-3.8-3.2-5.4c-7.1-8.6-18.7-13.9-29.7-14.9
		c-5.6-0.5-12-0.2-17.2,2.3c-2.8,1.4-5,3.9-6.9,6.3c-5.5,6.8-9.7,14.7-13.7,22.5c-3,5.9-5.9,11.8-8.6,17.8c-0.2,0.3-0.3,0.7-0.5,1.1
		c-0.3,1.2,1.5,3,2.2,3.8c2.3,2.5,5,4.5,8,6.1c7.4,4.2,15.7,6.8,23.9,9c8.3,2.2,16.8,4,25.3,5.4c4.9,0.8,9.8,1.5,14.7,2.1l0.7,0.1
		c0.9,0.1,2.6,0.1,3.1-0.8S162.9,301.3,162.2,301.3z"></path><path class="st2" d="M156.6,265c-7.6-5.5-16.1-12.4-16.9-22.4c-0.1-0.8-1.6-1.8-2.2-2.2c-0.2-0.1-1.8-1.2-1.8-0.6
		c0.4,5.5,3.3,10.3,6.9,14.4c4.2,4.8,9.2,8.7,14.4,12.4c0.3,0.2,1.6,1.2,1.8,0.5S156.9,265.2,156.6,265L156.6,265z"></path><path class="st2" d="M162.9,262.5c-5.7-6.7-11.7-13.9-13.1-22.8c-0.1-0.9-5,0.2-4.8,1.4c1.4,9.1,7.6,16.4,13.4,23.1
		C159.1,265.1,163.6,263.3,162.9,262.5L162.9,262.5z"></path><path class="st1" d="M98.2,274.9c-5.2-12.2,17-34.9,17-34.9c5.2,0.9,14.8-0.6,14.8-0.6c-8,13.7,7.6,24.3,7.6,24.3
		c6.5-6.6,14.6-0.2,11.2,7.3s-11.2,5.6-11.2,5.6s-3.4,20.5-5.3,23.3c0,0-15.8,4-19.5-10.1C112.8,289.8,101.7,283.2,98.2,274.9z"></path><path class="st2" d="M99.6,274.9c-0.1-0.2-0.1-0.3-0.2-0.5c-0.1-0.3,0.1,0.3,0,0s-0.2-0.6-0.2-0.9s0-0.2,0-0.1c0-0.1,0-0.3,0-0.4
		c0-0.4,0-0.8,0-1.2c0-1.3,0.2-2.6,0.6-3.9c0.9-3.1,2.2-6,3.8-8.7c3-5.1,6.6-9.9,10.6-14.4c0.8-0.9,1.7-1.9,2.6-2.8l-1,0.3
		c5,0.8,10.3,0.2,15.2-0.5l-2.4-4.2c-2.8,4.9-3.2,10.8-0.9,15.9c1.8,4,4.4,7.5,7.7,10.4c0.8,0.7,1.6,1.3,2.4,1.9
		c0.2,0.1,0.9,0.4,1.2,0.2c2-2,5.4-3.8,8.1-1.9c0.1,0.1,0.3,0.2,0.4,0.3c0,0,0.4,0.5,0.2,0.2c0.2,0.4,0.4,0.7,0.4,1.2
		c0.1,1.5-0.3,3-1.1,4.3c-1.3,2.3-3.5,3.9-6.1,4.3c-0.9,0.1-1.8,0.2-2.8,0.1h-0.4c-0.4,0,0.2,0-0.1,0l-0.3-0.1
		c-0.4-0.2-0.9,0-1.1,0.4c0,0.1,0,0.1-0.1,0.2c-0.6,3.5-1.2,7-1.9,10.5c-0.5,2.6-1.1,5.2-1.7,7.9c-0.3,1.6-0.8,3.2-1.5,4.6l0.6-0.4
		c-3.8,1-7.9,0.7-11.6-0.7c-2.7-1.1-4.7-3.4-5.4-6.3c-0.4-1.4-1.3-2.6-2.6-3.4c-1.2-0.8-2.3-1.6-3.4-2.5c-3.4-2.7-7-6-8.8-10
		c-0.4-0.8-1.2-2.3-2.3-2.2s-0.8,1.7-0.5,2.3c3.1,7.1,9.5,12.9,16.1,16.8l-1.7-2.5c1.4,5.1,4.5,9.6,9.4,11.9c3.2,1.3,6.6,1.8,10,1.4
		c0.8-0.1,1.7-0.2,2.5-0.4c1.1-0.3,1.4-1.6,1.7-2.6c1.2-3.9,2.1-7.9,2.8-12c0.6-3.1,1.2-6.3,1.7-9.4l-1.1,0.7
		c3.6,0.9,7.4-0.2,10.1-2.8c4.6-4.8,3.9-13.4-2.4-16.5c-3.3-1.6-6.9-0.5-9.5,2l1.2,0.2l-0.6-0.5c-0.4-0.3,0.3,0.3,0,0l-0.3-0.2
		l-0.8-0.7c-1.5-1.3-2.9-2.8-4-4.4l0,0l-0.3-0.4c-0.2-0.3-0.4-0.6-0.5-0.9c-0.3-0.4-0.5-0.8-0.6-1.3c-0.5-1-0.8-2.1-0.9-3.2
		c-0.3-3.1,0.4-6.2,2-8.8c0.7-1.2-0.8-4.4-2.4-4.2c-4,0.7-8.1,1-12.2,0.9c-1,0-2.5-0.5-3.2,0.1c-0.1,0.1-0.2,0.2-0.3,0.4
		c-0.7,0.7-1.3,1.5-2,2.2c-5.4,6.1-10.8,13-13.8,20.7c-1.7,4.4-2.6,9.1-0.8,13.6c0.3,0.8,1.2,2.3,2.3,2.2S99.9,275.5,99.6,274.9z"></path><path class="st1" d="M114.5,256.8c-3.5,1.1-7.2,1.6-10.9,1.6c-12.5,0.3-14.5,4.3-11.1,7.2s20.2,3.5,20.2,3.5"></path><path class="st2" d="M115.7,255.4c-4.1,1.4-8.4,1.4-12.7,1.6c-4.6,0.3-10,1.3-13.2,5c-1.8,2.1-0.7,4.4,1.6,5.6
		c1.4,0.7,3,1.2,4.6,1.4c2,0.4,4.1,0.7,6.1,0.9c2.9,0.3,5.8,0.5,8.7,0.6c1.1-0.1,2.1-0.5,2.9-1.2c0.1-0.1,1.8-1.7,1-1.7
		c-5.7-0.2-11.6-0.5-17.1-2.1c-1.8-0.5-4.6-1.6-4.4-4c0-0.2,0.1-0.3,0.1-0.4c0-0.1,0.1-0.1,0.1-0.2s-0.1,0,0-0.1l-0.2,0.2
		c0.2-0.2,0.1-0.1-0.1,0.1c0.4-0.3-0.5,0.4,0,0c-0.6,0.4-0.1,0,0,0c-0.6,0.2,0.3-0.1,0.4-0.1c-0.2,0.1,0.1,0,0.1,0l0.7-0.2
		c0.5-0.1,0.9-0.2,1.4-0.3c1.3-0.2,2.6-0.4,3.9-0.5c4.6-0.3,9.3-0.3,13.7-1.8c1.2-0.4,2.2-1,3-1.9
		C116.8,255.7,116.6,255.1,115.7,255.4L115.7,255.4z"></path><path class="st2" d="M143.1,279.8c-0.9,5.4-1.6,10.9-2.2,16.4c0,0.3,0.6,0.9,0.7,1c0.4,0.5,0.9,0.9,1.4,1.2
		c0.2,0.2,1.7,1.2,1.8,0.6c0.5-5.3,1.2-10.7,2.1-16c0.1-0.7-1.1-1.6-1.6-2C145.2,280.9,143.1,279.4,143.1,279.8L143.1,279.8z"></path><path class="st2" d="M151,289.6l2.6,8.9c0.1,0.3,0.6,0.4,0.8,0.4c0.6,0.1,1.2,0,1.8-0.1c0.6-0.1,1.2-0.2,1.7-0.5
		c0.2-0.1,0.7-0.3,0.6-0.6l-2.6-8.8c-0.1-0.3-0.6-0.4-0.8-0.4c-1.2-0.1-2.4,0.1-3.5,0.6C151.4,289.1,150.9,289.3,151,289.6
		L151,289.6z"></path><path class="st2" d="M159.8,276.3h-0.2c-0.3,0,0.7,0.1,0.4,0.1l-0.4-0.1c-0.4-0.1-0.7-0.2-1.1-0.4l-0.3-0.1l0.4,0.1l-0.2-0.1
		l-0.6-0.3c-0.5-0.2-1-0.5-1.4-0.7s-1-0.5-1.4-0.8l-0.8-0.5c-0.3-0.1-0.5-0.3-0.8-0.5c0,0,0.5,0.3,0.1,0l-0.4-0.3l-0.6-0.5
		c-0.4-0.4-0.8-0.7-1.2-1.1c-1-0.9-2.5-0.9-3.5-0.1c-0.9,0.6-1.1,1.8-0.4,2.7c0.1,0.1,0.2,0.2,0.3,0.3c1.8,1.8,3.9,3.3,6.2,4.4
		c1.8,1.1,3.9,1.8,6,2.1c1.1,0.1,2.6-0.7,2.6-2C162.2,277.2,161.1,276.3,159.8,276.3L159.8,276.3z"></path><path class="st2" d="M123.3,269.7L123.3,269.7v-0.4c0,0.5,0,1-0.2,1.4l0.1-0.5c-0.1,0.5-0.4,0.9-0.7,1.3l0.3-0.4
		c-0.3,0.4-0.7,0.7-1.1,0.9l0.4-0.2c-0.3,0.2-0.7,0.3-1.1,0.4l0.5-0.1c-0.3,0.1-0.6,0.1-0.9,0.1h0.4c-0.5-0.1-1.1,0.1-1.5,0.4
		c-0.4,0.3-0.5,0.8-0.4,1.3c0.2,0.6,0.5,1.1,1,1.4c0.5,0.4,1.1,0.7,1.8,0.7c0.9,0.1,1.8-0.1,2.7-0.4c0.7-0.3,1.3-0.7,1.8-1.2
		c0.5-0.5,0.9-1.1,1.1-1.8c0.1-0.4,0.3-0.8,0.3-1.2c0-0.4,0-0.9,0-1.3c-0.1-0.3-0.2-0.5-0.3-0.7c-0.2-0.3-0.4-0.5-0.6-0.7
		c-0.5-0.4-1.1-0.7-1.8-0.7c-0.5-0.1-1.1,0.1-1.5,0.4l-0.3,0.4C123.4,269.1,123.3,269.4,123.3,269.7L123.3,269.7z"></path><path class="st2" d="M121.5,255.4c0.9-0.3,1.8-0.2,1.9,0.2c0.1,0.4-0.6,0.9-1.5,1.2s-1.8,0.2-1.9-0.2S120.5,255.7,121.5,255.4z"></path><ellipse class="st2" transform="matrix(0.7867 -0.6174 0.6174 0.7867 -132.9837 122.8814)" cx="111.3" cy="253.9" rx="0.7" ry="1.6"></ellipse><path class="st1" d="M122.1,362.5c-5.4-6.4-11-13.2-13.6-21.3c-0.6-1.8-1.1-4.1,0-5.8c0.4-0.6,1.5-1.7,2.3-1.2
		c0.7,0.6,1.3,1.3,1.6,2.2c0.5,0.9,1,1.8,1.4,2.7c0.9,2,1.5,4,2,6.1c0.3,1.2,1.2,2,2.4,2.2c1,0.1,2.3-0.4,2.4-1.6
		c0.2-3.7,1.7-7.3,4.2-10c1.2-1.4,2.7-2.5,4.4-3.3c0.4-0.2,0.7-0.4,1.1-0.5c0.2-0.1,0.5-0.2,0.7-0.2c0.6,0,0.2-0.3-0.9-0.7
		c0,0.5,0.1,1.1,0.2,1.6c0,0.5,0.1,1,0.1,1.5c0,9.3-5.3,17.7-10,25.4l4.7,1.7c0.3-7.6,1.7-15.2,4.4-22.3c0.6-1.6-0.5-2.7-1.9-3.2
		c-4.1-1.4-5.4,3.8-6.3,6.6l-3.7,11.6h4.2c-3.9-5.1-7-10.7-9.1-16.8l-4.5,1.1c2.9,6.9,5.4,14,7.7,21.2c0.8,2.6,5.4,1.9,4.5-1.1
		c-2.2-7.2-4.8-14.2-7.7-21.2c-1-2.5-5.6-1.9-4.5,1.1c2.3,6.4,5.6,12.5,9.7,17.9c0.8,1.1,3.6,1.8,4.2,0l3-9.3l1.4-4.4
		c0.2-0.7,0.4-1.3,0.7-1.9c0.1-0.2,0.2-0.4,0.3-0.5c0.2-0.6,0.1,0.1-0.4,0l-2-3.3c-2.8,7.5-4.5,15.4-4.8,23.4
		c-0.1,2.4,3.3,3.9,4.7,1.7c4.6-7.3,9.3-15.2,10.2-24c0.4-3.9,0.6-11-5.2-10.3c-3.5,0.4-7.1,3.2-9.3,5.8c-2.8,3.2-4.4,7.2-4.7,11.5
		l4.8,0.6c-0.9-4.1-2.5-8.1-4.8-11.7c-2.3-3.6-6.7-5-10.2-2.2s-2.9,7.4-1.7,11.1c1.4,3.9,3.2,7.7,5.6,11.1c2.6,3.9,5.5,7.6,8.6,11.2
		c0.8,1,2.2,1.4,3.4,0.8c0.9-0.6,1.2-1.8,0.7-2.8C122.2,362.7,122.1,362.6,122.1,362.5L122.1,362.5z"></path><path class="st1" d="M83.7,378.3c0,0-4.9,4.6-15.2,5.8s-10.7-4-8.4-6.7s19.6-5.6,21.6-10.6S83.7,378.3,83.7,378.3z"></path><path class="st2" d="M82,377.5c-0.3,0.2-0.5,0.5-0.8,0.7c0.4-0.3,0.2-0.1-0.1,0l-0.6,0.4c-0.5,0.3-1,0.6-1.6,0.9
		c-0.5,0.3-1,0.5-1.5,0.7c-0.8,0.3-1.6,0.6-2.4,0.9c-1.9,0.6-3.8,1-5.7,1.2c-2.4,0.3-6.1,0.6-7.6-1.4c-0.1-0.1,0,0-0.2-0.3
		c-0.1-0.2-0.1-0.3-0.2-0.5c-0.1-0.3-0.1-0.7,0-1c0-0.4,0-0.1,0-0.2s0.1-0.4,0.2-0.5s0.3-0.6,0.1-0.2c0.1-0.2,0.3-0.4,0.4-0.6
		c-0.2,0.3-0.2,0.3,0,0c-0.3,0.3-0.3,0.2,0,0c0.2-0.1,0.8-0.4,0.1-0.1c0.2-0.1,0.5-0.2,0.7-0.3c1.1-0.5,2.2-0.9,3.3-1.2
		c2.8-1,5.7-1.9,8.4-3c2.7-0.9,5.2-2.3,7.4-4c0.9-0.7,1.6-1.6,2-2.7c0.2-0.4,0.1-0.1,0,0l0,0c-0.4,0.5-1.1,0.8-1.8,0.6l-1.5,0.4
		c-0.3-0.2-0.4-0.3-0.3-0.2c-0.2,0-0.1-0.4-0.1,0c0,0.1,0.1,0.3,0.2,0.4c0.2,0.9,0.4,1.8,0.4,2.7c0.1,1.3,0.2,2.5,0.2,3.8
		c0.1,1.5,0.1,3.1,0.1,4.6c0,2.2,4.8,0.8,4.8-1.1c0-3.8,0.1-8-0.8-11.7c-0.8-3.1-4.7-1.5-5.7,0.6c-0.1,0.2-0.2,0.4-0.2,0.6
		c0.2-0.4-0.1,0.1-0.2,0.3c-0.3,0.4,0.2-0.1-0.2,0.2c-0.1,0.1-0.8,0.6-0.4,0.3c-0.5,0.4-1.1,0.7-1.6,1c0,0-0.6,0.3-0.3,0.2
		s-0.4,0.2-0.3,0.2c-0.4,0.2-0.8,0.3-1.1,0.5c-3,1.3-6.2,2.3-9.4,3.4c-2.3,0.8-5.2,1.6-7,3.3c-1.7,1.4-2.4,3.7-1.8,5.8
		c1.1,2.9,4.9,3.5,7.6,3.5c5.2,0,10.3-1.1,14.9-3.2c2.2-0.9,4.2-2.1,6-3.7c0.7-0.6,1.1-1.7,0.1-2.2C84.2,376.4,82.9,376.7,82,377.5z
		"></path><path class="st1" d="M80.9,357.9c0,0-9.2,3.2-9.9,8.1s11,13.2,15.3,8.6s-5.1-10.3-5.1-10.3L80.9,357.9z"></path><path class="st2" d="M79.5,355.8c-2.9,1-5.5,2.5-7.8,4.4c-1.6,1.3-2.6,3.1-2.8,5.1c0.1,2,0.8,4,2.1,5.5c2.7,3.4,6.8,6.5,11.2,7.2
		c1.9,0.4,3.9,0,5.4-1.2c1.5-1.4,2.1-3.5,1.5-5.5c-1-3.6-4.3-6.5-7.4-8.4l1.4,2.5l-0.2-6.5c-0.1-1.2-0.9-2.3-2-2.9
		c-0.8-0.4-2.3-0.4-2.2,0.9l0.2,4.3c0,0.7,0,1.4,0.1,2c0,1.1,0.6,2.2,1.6,2.8c0.4,0.3,0.9,0.6,1.3,0.9s0.6,0.5,0.9,0.7l0.2,0.2
		c0.3,0.2-0.5-0.5-0.1-0.1l0.5,0.5c0.3,0.3,0.6,0.7,0.9,1s-0.1-0.1-0.1-0.1s0.2,0.2,0.2,0.3s0.3,0.5,0.4,0.7s-0.2-0.4-0.1-0.1
		c0,0.1,0.1,0.2,0.1,0.3l0.1,0.4c0-0.1-0.1-0.5,0-0.1c0,0.2,0.1,0.4,0.1,0.6c-0.1-0.5,0,0.2,0,0.4s0,0.1,0,0c0,0.1-0.1,0.3-0.1,0.4
		c-0.1,0.2-0.2,0.4-0.3,0.6c0,0-0.2,0.2-0.3,0.4c-0.2,0.2-0.3,0.3-0.5,0.5c-0.1,0-0.3,0.2,0,0c-0.1,0.1-0.2,0.1-0.2,0.1
		c-0.2,0.1-0.4,0.2-0.6,0.2c-0.1,0-0.3,0.1-0.4,0.1h-0.2h-0.4c-0.2,0-0.4,0-0.7,0c-0.1,0-0.4,0,0,0l-0.3,0c-0.5-0.1-1-0.2-1.5-0.4
		l-0.2-0.1l-0.2-0.1l-0.7-0.3l-0.7-0.3c-0.2-0.1-0.9-0.5-0.4-0.2c-0.4-0.3-0.9-0.6-1.3-0.9c-0.2-0.2-0.4-0.3-0.7-0.5l-0.3-0.2
		c0.5,0.4,0.1,0,0,0c-0.4-0.3-0.7-0.6-1-1c-0.1-0.1-0.2-0.2-0.3-0.3s0.3,0.4,0.1,0.1s-0.3-0.4-0.5-0.6s-0.2-0.4-0.4-0.6
		c0.2,0.4,0.1,0.2,0-0.1c-0.1-0.2-0.1-0.3-0.2-0.5c0.2,0.6,0,0,0-0.2c-0.1-0.5-0.1,0.2,0-0.2c0-0.2,0-0.4,0.1-0.6
		c-0.1,0.4,0.1-0.2,0.1-0.3c0.1-0.3,0.2-0.5,0.3-0.7l0.2-0.3c-0.2,0.2,0.1-0.2,0.1-0.2c0.2-0.2,0.4-0.5,0.6-0.7
		c0.4-0.4,0.9-0.8,1.3-1.2c0.9-0.7,1.8-1.3,2.8-1.8c1.2-0.6,2.4-1.2,3.7-1.6C84.4,359.1,81.5,355.1,79.5,355.8z"></path><path class="st1" d="M85.7,349.6c0,0-9.6,2-10.9,6.8s9.2,14.6,14,10.6S85,356.1,85,356.1L85.7,349.6z"></path><path class="st2" d="M84.4,347.4c-2.8,0.5-5.6,1.6-8,3.2c-1.6,1-2.8,2.6-3.2,4.4c-0.3,2,0.7,4.3,1.6,6.1c2.2,3.8,5.8,7.5,10.1,8.7
		c1.6,0.6,3.4,0.4,4.8-0.5c1.8-1.3,2.2-3.4,1.7-5.5c-0.9-3.8-3.7-7.2-6.7-9.6l1.7,3.5l0.6-6.5c0-1.2-0.5-2.3-1.3-3.2
		c-0.4-0.4-1.5-1.3-1.6-0.1l-0.4,4.3c-0.1,0.7-0.2,1.3-0.2,2c0,1.4,0.7,2.8,1.8,3.7l1.1,1c0.2,0.2-0.3-0.3,0.1,0.1l0.4,0.4
		c0.3,0.4,0.6,0.7,0.9,1.1c-0.4-0.5,0,0.1,0.1,0.2s0.3,0.4,0.4,0.6c-0.4-0.6,0,0.1,0.1,0.2s0.2,0.4,0,0.1s0,0.1,0.1,0.1
		c0.3,0.4-0.1-0.3,0,0c0,0.1,0.1,0.2,0.1,0.3c0.1,0.3,0-0.3,0,0c0,0.1,0,0.2,0,0.3c0,0.3,0-0.4,0,0.1c0,0.1,0,0.2,0,0.3
		c0,0.2-0.1,0.3-0.1,0.5c-0.7,1.6-2.4,2.6-4.1,2.4c-1.9-0.3-3.7-1.1-5.2-2.4c-0.4-0.3-0.8-0.7-1.2-1c0.2,0.2-0.2-0.2-0.3-0.3
		s-0.4-0.5-0.6-0.7s-0.2-0.2-0.2-0.3c0.3,0.4,0.1,0.1,0,0s-0.3-0.4-0.5-0.7c-0.4-0.5,0.2,0.4-0.1-0.2l-0.2-0.3c-0.3-0.5,0.1,0.2,0,0
		s-0.3-0.7-0.2-0.4s-0.1-0.3-0.1-0.4c0.1,0.4,0,0,0-0.2s0-0.3,0,0c0-0.1,0-0.2,0-0.4c0-0.3,0-0.1,0-0.3c0.1-0.2,0.1-0.4,0.2-0.6
		c0.2-0.4,0.5-0.9,0.8-1.2c1.7-1.6,3.7-2.8,5.9-3.5c1.2-0.5,2.5-0.8,3.8-1.1C87.8,351.6,86,347.1,84.4,347.4z"></path></g></svg>