<svg transform="scale(1)" version="1.1" id="PchBgkPJBX" xmlns="http://www.w3.org/2000/svg" xmlns:xlink="http://www.w3.org/1999/xlink" x="0px" y="0px" viewBox="0 0 500 500" xml:space="preserve" class="pbimage_pbimage__wrapper__image__0LEis false"><title>Dream 1</title><style type="text/css"> .st0{fill:#59BE4C;} .st1{fill:#FFFFFE;} .st2{fill:#101013;}
 .st2{fill:#101013;}
 .st1{fill:#FFFFFE;}
 .st0{fill:#59BE4C;}</style><g id="star"><path class="st0" d="M399.1,219.6c0,0-0.3-40.6,5-31.6s16.3,25.7,10.6,25.7s-26.6-9.1-22.8-12.3s27.6-10.3,24.7-3.2
		S403.7,219.1,399.1,219.6z" fill="#59BE4C"></path><path class="st0" d="M401.6,220.2c-0.1-7.6,0.1-15.2,0.8-22.8c0.2-2.1,0.5-4.2,0.9-6.3c0.1-0.7,0.3-1.4,0.6-2.1
		c0.2-0.4,0.4-0.8,0.7-1.2c0.1-0.2,0.2,0.1,0,0c0.2,0.1-0.5,0-0.6,0c-0.8-0.1-1.7-0.3-2.4-0.7c-0.4-0.1-0.1-0.2,0,0.1
		c0.2,0.2,0.3,0.4,0.4,0.7c0.5,0.8,0.9,1.5,1.4,2.3c1.9,3.2,3.8,6.3,5.7,9.6c1.7,2.9,3.2,5.9,4.4,9c0.4,0.9,0.6,2,0.6,3
		c0,0.3-0.1,0.6-0.2,0.9c0,0-0.2,0.1-0.2,0.2s-0.1,0,0,0s0.2,0.1-0.2,0H413l-0.7-0.1c0.7,0.1-0.3-0.1-0.5-0.1l-0.8-0.2l-0.5-0.1
		c-0.7-0.2-1.5-0.5-2.2-0.7c-2.8-1-5.5-2.1-8.2-3.5c-2.1-0.9-4-2.2-5.7-3.8c-0.3-0.3-0.7-0.9-0.5-1.4s0.9-0.8,1.4-1.1
		c2.1-1.1,4.4-2,6.7-2.7c2.7-0.9,5.5-1.6,8.4-2.1c1.2-0.2,2.4-0.3,3.6-0.4c-0.1,0,0.5,0,0.6,0h0.3c-0.3,0-0.2,0.1-0.1,0
		c0.1,0,0.2,0,0.3,0c-0.6-0.1-0.4-0.1-0.2,0c-0.5-0.1-0.4-0.2-0.7-0.3c0.1,0.1-0.1-0.2,0.1,0.1s0-0.1,0.1,0.1c0.1,0.3,0.1,0.6,0,0.9
		c-0.4,1.3-0.9,2.4-1.6,3.6c-1.8,3.3-3.8,6.4-6.1,9.3c-2,2.7-4.3,5.2-6.9,7.3c-0.4,0.3-0.9,0.7-1.4,0.9c-0.2,0.1-0.3,0.2-0.5,0.2
		s-0.8,0.2-0.4,0.1c-0.9,0.1-1.1,0.6-0.3,1.2c1,0.7,2.2,1,3.4,0.9c2.9-0.4,5.3-2.9,7.2-5c2.8-3.1,5.3-6.4,7.5-9.9
		c1-1.6,1.9-3.2,2.8-4.9c0.5-1,1.2-2.1,1.1-3.3c-0.2-2.6-4.5-3.2-6.4-3.3c-3-0.1-6,0.2-9,1c-3.1,0.7-6.2,1.7-9.2,2.8
		c-1.2,0.5-2.4,1-3.5,1.6c-0.8,0.3-1.5,0.8-2,1.5c-0.9,1.7,1.8,3.6,2.9,4.4c2.7,1.9,5.6,3.5,8.6,4.7c3.2,1.5,6.6,2.7,10,3.6
		c1.4,0.4,2.9,0.7,4.4,0.8c1,0.1,2.3,0.1,3.1-0.6c1.6-1.5-0.1-4.9-0.8-6.5c-1.7-3.6-3.5-7.2-5.6-10.6c-1-1.7-2.1-3.5-3.1-5.2
		c-0.8-1.3-1.5-2.7-2.4-4c-0.6-0.8-1.5-1.4-2.5-1.8c-1.1-0.4-2.8-0.8-3.8,0s-1.4,2.7-1.6,3.9c-0.9,5.2-1.4,10.4-1.4,15.7
		c-0.2,4.2-0.2,8.4-0.2,12.6v0.7C396.7,220.4,401.6,221.1,401.6,220.2z" fill="#59BE4C"></path><path class="st0" d="M357.4,75.1c0,0-0.2-24.9,3.1-19.4s10,15.8,6.5,15.8s-16.3-5.6-14-7.5c2.4-1.9,16.9-6.3,15.2-2
		S360.2,74.8,357.4,75.1z" fill="#59BE4C"></path><path class="st0" d="M359.8,74.5c0-4.5,0.1-9.1,0.5-13.6c0.1-1.3,0.2-2.6,0.5-3.9c0-0.2,0.1-0.5,0.2-0.7s0.1-0.3,0,0
		c0-0.1,0.1-0.2,0.1-0.4s0.1-0.3,0.2-0.5c0.2-0.5-0.2,0.2,0,0c-0.7,0.8-1.7,1.2-2.8,1.2c-0.2,0-0.9-0.2-0.4-0.1
		c0.1,0,0.1,0.1,0.1,0.2c-0.3-0.3-0.1-0.1,0,0c0.2,0.4,0.5,0.8,0.7,1.1c1.1,1.9,2.3,3.8,3.4,5.7c1.1,1.8,2,3.6,2.8,5.5
		c0.1,0.3,0.3,0.7,0.4,1.1c0,0.2,0.1,0.3,0.1,0.5s0,0,0,0.2s0,0.3,0,0.4s-0.2,0.3,0,0c0.3-0.5,1.8-1.5,2.5-1.3
		c-0.2-0.1-0.5-0.1-0.8-0.1H367l-0.4-0.1c-0.8-0.2-1.6-0.4-2.3-0.7c-1.8-0.6-3.5-1.3-5.1-2.2c-1.3-0.6-2.6-1.4-3.7-2.4
		c-0.1-0.1-0.2-0.2-0.2-0.3c-0.2-0.2-0.1-0.1-0.1-0.1S355,64,355,63.9c0-0.1,0,0,0,0s0.2-0.5-0.1,0.1c-0.1,0.2-0.2,0.4-0.4,0.5
		c0.2-0.2-0.6,0.3-0.2,0.1l0.3-0.2c0.1-0.1,0.6-0.3,0.1-0.1s0,0,0.1-0.1l1-0.4l1-0.4c0.1,0,0.7-0.3,0.4-0.1s0.3-0.1,0.4-0.1
		c0.8-0.3,1.7-0.5,2.6-0.8c0.4-0.1,0.8-0.2,1.2-0.3l0.7-0.2c0.5-0.1-0.1,0,0.2,0c0.8-0.1,1.6-0.2,2.4-0.3c-0.5,0,0.2,0,0.4,0
		s0.5,0.1,0.2,0s0.2,0.1,0.2,0.1s0.3,0.2,0.1,0s0.1,0.1,0.1,0.1s0-0.1,0,0V62c0.1,0-0.1-0.2,0-0.1c0,0.1,0,0.2,0,0.3
		c0.1-0.3,0-0.1,0,0.1c-0.2,0.4-0.4,0.8-0.6,1.2c-0.9,1.9-2,3.6-3.2,5.3c-0.7,0.9-1.4,1.8-2.1,2.6c-0.6,0.7-1.2,1.3-1.9,1.8
		c-0.1,0.1-0.6,0.5-0.1,0.1l-0.4,0.3c-0.4,0.3,0.5-0.2,0.1,0s0.3-0.1,0.3-0.1c-0.2,0.1-0.4,0.1,0.3,0c-1.2,0.1-2.3,0.7-3,1.8
		c-0.4,1,0.7,1.4,1.5,1.3c2.6-0.4,4.5-2.1,6.3-3.9c1.8-1.9,3.3-3.9,4.7-6.1c0.7-1.1,1.4-2.2,2-3.3c0.5-0.8,0.9-1.6,1-2.6
		c0-1.6-1.7-2.1-3-2.2c-2.1-0.1-4.1,0.2-6.1,0.7c-2.1,0.5-4.2,1.2-6.2,2c-1.5,0.6-3.4,1.3-4.5,2.7s0,2.7,1.1,3.5
		c1.6,1.2,3.4,2.2,5.3,3c1.9,0.8,3.8,1.5,5.8,2c2.1,0.6,4.4,0.8,6.2-0.8c1.5-1.3,1-3.2,0.4-4.8c-0.9-2.2-2.1-4.4-3.3-6.4
		c-1.2-2-2.3-4.1-3.6-6.1c-1.1-1.6-2.9-1.3-4.4-0.4c-1.2,0.8-1.9,2.1-2.1,3.5c-0.6,3.2-0.9,6.4-0.9,9.7c-0.1,2.7-0.1,5.3-0.1,8v0.4
		C355.1,77.7,359.8,76.2,359.8,74.5z" fill="#59BE4C"></path><path class="st0" d="M121.7,211.1c0,0,20-31.1,21.1-20.5s4.4,30.8-1.6,26.9s-23.7-25.5-18.1-25.2c5.6,0.2,34.4,11.4,27.8,14.8
		S126.8,213.8,121.7,211.1z" fill="#59BE4C"></path><path class="st0" d="M123.2,213.1c1.7-2.7,3.5-5.3,5.3-7.8c3-4.4,6.3-8.6,10.1-12.3c0.6-0.6,1.2-1.1,1.9-1.6
		c0.3-0.2,0.6-0.3,0.9-0.5c0.1-0.1,0.6-0.1,0.1-0.1c0.1,0,0.3,0,0.4,0c0.4-0.1-0.3-0.1,0,0s-0.4-0.3-0.1,0c-0.3-0.2-0.5-0.4-0.6-0.7
		c0,0-0.3-0.6-0.1-0.3s-0.1-0.6,0,0c0,0.4,0.1,0.7,0.1,1.1c0.1,0.9,0.2,1.7,0.3,2.6c0.4,3.9,0.9,7.7,1.2,11.6
		c0.1,1.7,0.3,3.5,0.3,5.1c0,0.7,0,1.4-0.1,2.2c0,0.3,0,0.7-0.1,1l-0.1,0.5c0,0.1-0.1,0.6,0,0.2c-0.1,0.5-0.2,0.9-0.4,1.3
		c0.2-0.3,0,0-0.1,0.1c-0.2,0.3,0.2,0-0.2,0.2s0.2,0.1-0.1,0s0,0,0.1,0c-0.1,0-0.2,0-0.3-0.1c-0.1,0-0.4-0.2,0,0l-0.3-0.2l-0.6-0.4
		l-0.6-0.5c0.4,0.3-0.1-0.1-0.2-0.2c-0.5-0.4-1-0.9-1.5-1.4c-1.1-1.1-2.1-2.1-3.2-3.2c-2.3-2.5-4.2-4.8-6.3-7.4
		c-0.9-1.2-1.9-2.5-2.7-3.8c-0.4-0.6-0.8-1.1-1.1-1.7l-0.3-0.4c-0.2-0.4,0.3,0.5,0,0c-0.2-0.3-0.3-0.5-0.4-0.8s-0.2-0.5-0.3-0.7
		s-0.3-0.9-0.1-0.1c-0.1-0.2-0.1-0.4-0.2-0.6c-0.2-0.6,0.1,0.4,0-0.1c0,0.2,0,0.4-0.1,0.5c0.2-0.3-0.2,0.2-0.1,0s-0.2-0.1,0.1,0
		c0.7,0,1.3,0.1,1.9,0.3c1.2,0.3,2.3,0.6,3.4,0.9c5.8,1.7,11.4,4,16.7,6.8c1.1,0.6,2.2,1.3,3.3,2l0.6,0.5l0.3,0.2
		c0,0-0.4-0.3-0.1-0.1l0.5,0.4c0.1,0.1,0.1,0.2,0.2,0.2c0.3,0.3-0.4-0.4-0.1-0.1s0.1,0.2-0.1-0.1c-0.1-0.2-0.2-0.4-0.2-0.6
		c0,0,0-0.4,0.1-0.6c-0.1,0.3,0.3-0.2,0,0.1s0.1,0-0.1,0.1c-0.2,0.1-0.4,0.2-0.6,0.3c-0.7,0.3-1.3,0.6-2,0.9
		c-3.6,1.4-7.3,2.4-11.1,3c-3.7,0.8-7.5,1.1-11.3,0.9c-0.6,0-1.2-0.1-1.8-0.2c-0.3-0.1-0.6-0.1-0.9-0.2c-0.1,0-0.9-0.4-0.5-0.2
		c-2.6-1.4-2,3.2-0.3,4.1c3.2,1.6,7,1.4,10.5,1.1c4.4-0.4,8.8-1.2,13.1-2.4c1.9-0.5,3.7-1.1,5.5-1.9c1.1-0.4,2.3-0.9,2.8-2
		c1.1-2.5-1.2-5.1-3-6.6c-2.4-1.8-5-3.3-7.7-4.5c-3.1-1.5-6.3-2.8-9.6-4c-2.7-1-5.4-1.9-8.2-2.5c-1.8-0.4-4.2-0.9-4.5,1.6
		s1.6,5.4,2.8,7.4c1.9,2.9,4,5.8,6.2,8.4c2.3,2.9,4.8,5.6,7.4,8.2c1,1,2.1,2,3.3,2.9c0.9,0.8,2,1.4,3.2,1.5c2.6,0,3-3.9,3.1-5.8
		c0.2-4.1,0-8.2-0.6-12.2c-0.4-3.9-0.7-7.8-1.3-11.6c-0.3-2.1-1.8-5.1-4.4-4.7c-2,0.3-3.7,2.1-5,3.5c-2.1,2.1-4,4.3-5.7,6.7
		c-3,3.9-5.8,8-8.6,12.1l-0.5,0.7c-0.5,1.1-0.3,2.3,0.4,3.2C121.1,212.8,122.5,214,123.2,213.1z" fill="#59BE4C"></path><path class="st0" d="M87,308.2c0,0-0.2-20.3,2.5-15.8s8.1,12.8,5.3,12.8s-13.3-4.5-11.4-6.1s13.8-5.1,12.4-1.6S89.2,308,87,308.2z" fill="#59BE4C"></path><path class="st0" d="M88.4,310.1c0-3.7,0-7.5,0.4-11.2c0.1-1.1,0.2-2.1,0.4-3.2c0.1-0.4,0.2-0.8,0.3-1.1c0-0.1,0.1-0.3,0.2-0.4
		s-0.1,0.1,0,0c0,0,0.1-0.1,0.1-0.1c0.1,0,0.2-0.1,0.2-0.1s-0.1,0-0.1,0H90c0.1,0.1-0.2-0.1-0.2-0.1l-0.2-0.1
		c-0.3-0.3-0.5-0.5-0.7-0.8c-0.3-0.4-0.2-0.2-0.1-0.1s-0.4-0.7-0.2-0.3l0.3,0.5c0.9,1.6,1.9,3.1,2.8,4.7c0.2,0.4,0.4,0.8,0.7,1.2
		c0.1,0.2,0.2,0.4,0.3,0.6l0.2,0.4l0.2,0.4c0.1,0.2,0.2,0.3,0.2,0.5s0.2,0.4,0.2,0.5c0.2,0.4-0.1-0.2,0.1,0.2c0,0.1,0.1,0.3,0.1,0.4
		s0.1,0.5,0.1,0.1l0.1,0.3c0.1,0.3,0,0,0,0.2c0,0.4,0,0.5-0.4,0.6c-0.7,0.2-2.2-0.4-3-0.6c-1.4-0.5-2.8-1-4.1-1.6
		c-0.7-0.3-1.3-0.6-1.9-1c-0.3-0.2-0.5-0.3-0.8-0.5s-0.2-0.2-0.4-0.3s0.2,0.1-0.1-0.1s-0.1-0.1,0.1,0.1c-0.4-0.4,0.5,0.7,0.4,0.6
		c0.3,0.5,0.6,1,0.8,1.5c0.1,0.3-0.1,0.1,0,0l0.1,0l0.2-0.1c0.2-0.1,0.3-0.2,0.5-0.3c2.4-1.2,4.9-2.1,7.6-2.5
		c1.1-0.2,2.2-0.3,3.2-0.1c0.1,0,0.3,0,0.2,0s0,0,0,0s-0.2-0.1-0.2-0.1s-1.8-2.9-1.8-2.9s0,0,0-0.1c0,0.1,0,0.2-0.1,0.3
		c-0.2,0.6-0.5,1.3-0.9,1.9c-0.9,1.6-1.9,3.2-3,4.7c-1,1.3-2.1,2.5-3.4,3.5c-0.4,0.3-0.8,0.5-1.3,0.6c-0.6,0.1,0.7,2.3,0.8,2.4
		c0.4,0.5,1.1,1.9,1.9,1.7c1.4-0.2,2.6-1.7,3.5-2.6c1.4-1.6,2.7-3.3,3.8-5.1c0.5-0.8,0.9-1.6,1.3-2.5c0.3-0.5,0.4-1.1,0.3-1.7
		c-0.4-1.5-1.3-2.9-2.5-3.9c-0.4-0.3-1-0.6-1.6-0.6c-1.4-0.1-2.9,0.1-4.3,0.5c-1.6,0.4-3.1,0.8-4.6,1.4c-0.7,0.3-2.3,0.7-2.6,1.6
		s0.3,1.8,0.7,2.4c0.6,1,1.3,2,2.2,2.7c1.3,1,2.7,1.8,4.1,2.5c1.6,0.8,3.2,1.4,4.9,1.9c0.7,0.2,2.5,0.9,3.1,0.2
		c0.9-0.9-0.2-3.1-0.6-4c-0.8-1.9-1.8-3.8-2.9-5.6c-1.1-1.8-2.1-3.7-3.3-5.5c-0.4-0.6-1.8-2.9-2.8-2.3c-0.5,0.3-0.7,1.4-0.8,1.9
		c-0.5,2.6-0.7,5.2-0.7,7.8c-0.1,2.1-0.1,4.3-0.1,6.4v0.4c0.1,1.1,0.6,2,1.3,2.8C86.9,309.3,88.4,310.8,88.4,310.1z" fill="#59BE4C"></path><path class="st0" d="M398.9,367.8c0,0,0.2-25.5-3.5-19.8s-11.2,16.1-7.2,16.1s18.3-5.7,15.7-7.7s-18.9-6.4-17-2
		S395.8,367.5,398.9,367.8z" fill="#59BE4C"></path><path class="st0" d="M401.4,367.7c0.2-5.7-0.1-11.4-0.9-17c-0.1-1.1-0.4-2.3-1-3.2c-0.2-0.3-0.6-0.5-0.9-0.5
		c-1.1-0.1-2.2,0-3.2,0.1c-0.6,0-1.1,0.1-1.7,0.4c-0.4,0.3-0.8,0.7-1,1.2c-0.7,1.1-1.4,2.1-2.1,3.2c-1.5,2.3-3,4.6-4.3,7
		c-0.5,0.9-1,1.9-1.4,2.9c-0.3,0.6-0.4,1.3-0.3,2c0.2,0.6,0.7,0.7,1.3,0.8c1.5,0.1,3.1,0,4.6-0.2c4.4-0.7,8.6-2.2,12.5-4.3
		c1.1-0.6,3-1.5,3.5-2.7c0.4-1-1.2-1.5-1.9-1.8c-3.7-1.6-7.6-2.6-11.7-3c-1.2-0.1-2.3-0.1-3.5-0.1c-1.4,0-2.8,0.2-4.2,0.6
		c-1.4,0.5-1,1.6-0.4,2.7c1.3,2.3,2.7,4.5,4.5,6.5c1.5,2,3.3,3.7,5.3,5.2c0.6,0.5,1.4,0.8,2.2,0.9c1.1,0.1,2.3,0,3.4-0.1
		c0.2,0,1.8-0.3,0.9-0.4c-1.5-0.2-3.2-2-4.2-3c-1.7-1.7-3.3-3.6-4.7-5.6c-0.7-0.9-1.3-1.9-1.9-2.9c-0.4-0.7-0.8-1.4-1-2.2
		c-0.1-0.4,0-0.8,0.3-1c0.1-0.1,0.3-0.2,0.5-0.2c0,0,0.2,0,0,0s-0.5,0.1-0.8,0.1c-0.4,0-0.8,0-1.2,0.1c0.2,0,0.1,0-0.1,0
		c3.6,0.3,7,1.1,10.4,2.4c0.9,0.3,2.6,0.7,3.2,1.5s-0.7,1.7-1.2,2.1c-3.2,2.1-6.7,3.6-10.4,4.5c-0.7,0.2-1.6,0.4-2.1,0.5
		c-0.4,0.1,0,0,0.1,0h0.2c0.7-0.1,1.4-0.1,2.1,0c-0.2-0.1-0.3-0.2-0.5-0.4c-0.6-1.1,0.5-3,1-4c1.1-2.1,2.2-4.1,3.5-6
		c1.2-1.9,2.5-3.9,3.8-5.8c0.1-0.2,0.2-0.3,0.4-0.5c1.3-1.4-2.6,2-4.1,0.2c-0.1-0.1,0.1,0.1,0.1,0.1s0.2,0.2,0.3,0.4
		c0.4,0.9,0.7,2,0.8,3c0.5,3.2,0.7,6.3,0.8,9.5c0.1,2.4,0,4.8,0.1,7.1c0,0.1,0,0.3,0,0.4S401.4,368.2,401.4,367.7z" fill="#59BE4C"></path></g><g id="moon"><path class="st0" d="M156.1,94.2L156.1,94.2c-5.1-1.3-9.7-4.3-12.9-8.6c-2.9-3.8-4.5-8.5-4.4-13.3c-1.6-0.3-1.1-0.7,0-1.1
		c0-0.3,0-0.6,0.1-0.9c0.2-3,1-6,2.4-8.8c1.5-3,3.7-5.7,6.4-7.8c-2.6-0.3-5.3-0.2-7.8,0.3c-0.4,0.1-0.9,0.2-1.3,0.3
		c0,0-9.6,2.6-14.3,12c-1,1.9-1.6,4-2,6.2c-0.2,0.9-0.3,1.7-0.4,2.6c0,0.3,0,0.6,0,0.9c-1.2,0.4-1.6,0.8,0,1.1
		c0,4.8,1.5,9.5,4.4,13.3c3.2,4.2,7.6,7.2,12.7,8.6l0,0c1.9,0.5,3.9,0.7,5.9,0.6l0,0c1.6-0.1,3.1-0.3,4.6-0.8
		c1.9-0.6,3.8-1.3,5.5-2.3c1.1-0.6,2.2-1.3,3.3-2.1C157.5,94.6,156.8,94.4,156.1,94.2z"></path><path class="st0" d="M157.4,94.8c-0.6-1.3-1.7-2.3-3.1-2.7c-1.1-0.3-2.2-0.7-3.3-1.2c-2-0.9-3.9-2.2-5.5-3.8
		c-3.6-3.5-5.1-8.3-5.1-13.3c-0.3-1.6-1.4-3-2.9-3.5c-0.5-0.2-0.5-0.1,0.1,0.3l1.7,2.5v-0.1l0.1,0.7c0.1-0.2,0.8-0.4,0.9-0.4
		l0.1-0.2c0.3-6.7,3.4-13,8.7-17.2c0.6-0.5-0.4-1.9-0.6-2.2c-0.5-0.7-1.2-1.7-2.2-1.8c-4.8-0.6-9.6,0.3-13.8,2.6
		c-5.8,3.1-10,8.5-11.7,14.9c-0.3,1.2-0.5,2.3-0.6,3.5c-0.1,0.6,0,1.1-0.4,1.5c-0.2,0.2-0.5,0.2-0.7,0.5c-0.5,0.9,0.6,2.3,1.1,2.9
		c0.7,0.9,1.6,1.4,2.7,1.6l-2.9-3.5c0.1,11.5,8.8,22.4,19.9,25.3l-2.3-2.5c0.7,1.5,2.1,2.6,3.8,2.9c1.6,0.3,3.2,0.2,4.8,0.4
		c0.3,0,0.4-0.4,0.4-0.6l0,0l-0.4,0.6c4.9-0.4,9.7-2.2,13.6-5.2c0.6-0.4-0.4-1.9-0.6-2.2c-0.5-0.7-1.2-1.7-2.2-1.8
		c-0.7-0.1-1.5-0.3-2.2-0.4c-0.9-0.1,0.1,1.8,0.2,2c0.5,0.8,1.4,2,2.4,2.1c0.7,0.1,1.5,0.3,2.2,0.4l-2.8-4
		c-3.8,2.9-8.3,4.7-13.1,5.1c-0.3,0-0.4,0.3-0.4,0.6l0,0l0.4-0.6c-1-0.1-2,0-2.9-0.1s-2-0.4-2.9-0.5l2.6,2.6
		c-0.6-1.3-1.7-2.3-3.1-2.7c-1.1-0.3-2.2-0.7-3.3-1.2c-2-0.9-3.9-2.2-5.5-3.8c-3.6-3.5-5.1-8.3-5.1-13.3c-0.3-1.6-1.4-2.9-2.9-3.5
		c-0.5-0.2-0.5-0.1,0.1,0.2l1.7,2.5v-0.1l0.1,0.7c0.1-0.2,0.8-0.4,0.9-0.4l0.1-0.2c0.3-7.7,4.4-14.7,10.9-18.7
		c1.6-1,3.3-1.9,5.1-2.5l0.5-0.2c-0.5,0.2,0.2,0,0.2-0.1l1.3-0.3c2.4-0.4,4.9-0.5,7.4-0.2l-2.8-4c-3.7,2.9-6.5,6.9-7.9,11.5
		c-0.4,1.2-0.7,2.4-0.9,3.6c0,0.7-0.1,1.3-0.2,2c-0.2,0.4-0.5,0.4-0.8,0.7c-0.8,0.8,0.3,2.2,0.7,2.8c0.7,1,1.8,1.7,3,1.9l-2.9-3.5
		c0.1,11.5,8.8,22.4,19.9,25.3l-2.3-2.5l0,0c0.4,0.9,1.3,2.3,2.3,2.5S157.7,95.3,157.4,94.8z"></path></g><g id="character"><path class="st1" d="M243.5,392.5c0,0-5.6,17.7-3.8,20.6s6.4,8.3,1.7,10.5s-13.9,9.4-17.1,14.2s-19.3,13-17.2,5.6
		c1.1-4.1,9.4-11.6,9.4-11.6l3.5-63.5L243.5,392.5z"></path><path class="st2" d="M241,392.7c-1.5,4.6-2.7,9.4-3.6,14.2c-0.4,2-1.1,4.8,0,6.7c1.3,2.2,5.8,7.3,2.5,9.6c-0.7,0.4-1.4,0.8-2.1,1.1
		c-0.9,0.5-1.7,1-2.5,1.5c-1.8,1.2-3.4,2.4-5.1,3.7c-3.1,2.4-6,5.2-8.4,8.4c-1.9,2.3-4.2,4.1-6.9,5.4c-1.4,0.8-2.8,1.5-4.2,2
		c-0.3,0.1-0.6,0.2-0.9,0.3l-0.3,0.1c-0.6,0.2-0.1,0,0.3,0c0.9,0-0.2,0.1,0.2,0s0.2,0.2,0.1,0s-0.4-0.3-0.6-0.6
		c-0.2-0.4-0.2-0.9-0.1-1.4c0.3-1.5,1-2.8,2-4c2-2.6,4.2-5.1,6.7-7.4c0.7-0.6,0.8-0.7,0.8-1.6l0.2-3.7l1.8-32.7l0.9-16.6
		c0.2-3.1,0.5-6.1,0.5-9.2c0-0.1,0-0.3,0-0.4l-4.9,0.6l20.6,21.2l3,3c0.6,0.6,2.4,0.3,3.1,0.2c0.3,0,2.2-0.4,1.7-0.9l-20.6-21.2
		l-3-3c-0.6-0.6-4.8-0.4-4.9,0.6l-1.3,23l-1.9,34.7l-0.2,4.5c0,0.4,0,0.7-0.1,1c0,0.1,0,0.1,0,0.2c0.1-0.3,0,0-0.2,0.1
		c-1,0.8-1.9,1.7-2.7,2.7c-1.3,1.4-2.6,2.8-3.8,4.3c-1.1,1.5-4.1,5.1-2.4,7c0.8,1,2.5,1,3.7,0.9c1.8,0,3.6-0.4,5.3-0.9
		c3.2-1.1,6.3-2.7,9-4.7c1.2-0.8,2.3-1.7,3.2-2.8c1.1-1.2,2-2.6,3.1-3.9c3.1-3.2,6.5-6.1,10.2-8.5c1.5-1,3.2-1.8,4.7-2.8
		c1.5-0.9,2.1-2.7,1.5-4.3c-0.7-1.9-1.8-3.7-3-5.3c-0.6-0.8-0.9-1.8-0.9-2.8c0.1-3,0.6-6.1,1.4-9c0.7-2.8,1.4-5.6,2.3-8.4
		c0.1-0.5,0.3-0.9,0.4-1.4C246.1,392,241.4,391.4,241,392.7z"></path><path class="st1" d="M257.1,347.7c0,0,12,14.1,15.5,14.2s10.4-1,9.8,4.1s0.5,16.8,2.8,22s0.7,23.3-4.5,17.5
		c-2.8-3.1-4.8-14.1-4.8-14.1L224,354.7L257.1,347.7z"></path><path class="st2" d="M255,349.1c3.2,3.9,6.7,7.6,10.5,11c1.7,1.6,3.8,3.6,6.3,3.7c1.6,0,3.2-0.1,4.8,0c1.1,0.1,2.7,0.3,3.3,1.3
		s0.1,3,0.1,4.3c0,2.1,0,4.3,0.2,6.4c0.2,4.2,1,8.4,2.4,12.4c0.5,1.2,0.9,2.4,1.1,3.6c0.2,1.5,0.4,3,0.3,4.5c0,2.8-0.3,6.1-1.4,8.5
		c-0.1,0.1-0.4,0.7-0.2,0.5s-0.6,0.5,0,0l0.2-0.2c-0.4,0.2,0.7-0.3,0.6-0.3s0.4,0,0.3,0s0,0,0,0c-0.1-0.1-0.2-0.1-0.3-0.2l-0.4-0.3
		c-0.5-0.5-0.9-1.1-1.2-1.8c-1.5-3.2-2.6-6.5-3.1-9.9c-0.2-1.1-0.2-2.3-1.2-3s-1.8-1.3-2.7-1.9L248,368.8l-14.1-10
		c-2.6-1.8-5.1-3.8-7.8-5.5l-0.4-0.3l-2.1,3.5l28.9-6.1l4.2-0.9c1.2-0.3,2.2-1.2,2.5-2.4c0.1-1.2-1-1.4-1.9-1.2l-28.9,6.1l-4.1,0.9
		c-1.1,0.2-3.7,2.4-2.1,3.5l17.5,12.4l27.9,19.8l6.4,4.5l-0.5-0.7c0.5,2.7,1.2,5.5,2,8.1c0.8,2.6,2.1,7.3,5.3,7.9
		c3.6,0.7,5.7-3.2,6.5-6.1c0.9-3.4,1.2-7,0.9-10.5c-0.1-1.5-0.3-2.9-0.7-4.4c-0.6-1.7-1.2-3.4-1.7-5.2c-1.1-4.6-1.6-9.3-1.6-14.1
		c0-1.7,0.6-3.7,0-5.3s-2.3-2.5-4-2.8c-1.9-0.3-3.7-0.3-5.6-0.2h-1.2c-0.2,0-0.4-0.1,0.1,0c-0.1,0-0.2,0-0.3-0.1c0,0-0.3-0.1,0.1,0
		c-0.1,0-0.3-0.1-0.4-0.2c-0.3-0.2-0.6-0.3-0.9-0.5c-3.1-2-5.6-4.9-8.1-7.5c-1.7-1.8-3.3-3.6-4.9-5.5
		C257.8,344.6,253.7,347.5,255,349.1z"></path><path class="st1" d="M277.3,260.7l-37.1-13.3v0.1l-22-17.4c0,0-41.7,66.6-30.7,97.3c3.7,10.4,13,20.5,23.7,29.2
		c-2.6,26.2-2.9,46.1-2.9,46.1h41.5c-0.4-6.9-0.2-13.8,0.5-20.7c4.8,2.5,7.7,3.9,7.7,3.9l14.5-30.7c0,0-7.4-5.7-15.8-13.8
		C265,301.3,277.3,260.7,277.3,260.7z"></path><path class="st2" d="M279.4,260.4l-32.5-11.7l-4.6-1.6c-0.8-0.2-1.7-0.3-2.5-0.2c-0.5,0-1.7,0-2.1,0.5l-0.1,0.1l4.8-0.1L223.3,232
		l-2.7-2.1c-0.7-0.4-1.6-0.5-2.4-0.4c-0.5,0-2.1,0-2.4,0.5c-3.1,4.9-5.9,10-8.6,15.1c-6,11-11.3,22.4-15.8,34.1
		c-4.4,11.8-8.4,24.5-8.2,37.2c0.1,6.2,1.8,12.3,4.9,17.6c2.5,4.2,5.5,8.2,8.9,11.8c1.7,1.9,3.5,3.6,5.4,5.4c1,0.9,2,1.9,3,2.8
		l1.4,1.2c0.6,0.4,1.2,0.9,1.8,1.5c0.4,0.6,0.1,1.5,0.1,2.1l-0.2,2.2c-0.1,1.4-0.2,2.9-0.4,4.3c-0.2,2.6-0.4,5.2-0.6,7.9
		c-0.3,4.5-0.6,9.1-0.9,13.6c-0.3,5.1-0.5,10.3-0.6,15.5c0,0.2,0,0.5,0,0.7c0,0.6,2.3,0.6,2.5,0.6h41.5c0.3,0,2.5-0.1,2.5-0.7
		c-0.4-6.9-0.2-13.8,0.5-20.7l-4.6,0.4c2.6,1.3,5.1,2.7,7.7,3.9c0.9,0.4,4.1,0.7,4.7-0.4l12.7-26.9l1.8-3.8L275,355
		c-4.6-3.6-9-7.5-13.3-11.4c-0.5-0.4-1-0.9-1.4-1.3c-0.7-0.6-0.9-0.9-0.8-1.8c0.2-1.3,0.5-2.5,0.8-3.8c0.5-2.5,1.1-5,1.6-7.5
		c1.1-4.8,2.2-9.7,3.4-14.5c3.7-15.2,7.7-30.3,12-45.4c0.8-2.9,1.6-5.7,2.5-8.5c0.1-0.4-4.6-1.1-5,0.1c-1.7,5.7-3.3,11.4-4.9,17.1
		c-3.8,13.5-7.3,27.2-10.5,40.9c-1,4-1.9,8-2.8,12.1c-0.4,2-0.9,3.9-1.3,5.9c-0.2,1-0.4,2-0.6,3.1c-0.2,0.5-0.3,0.9-0.3,1.4
		c0,0.5,0.4,0.7,0.8,1.1c4.5,4.2,9.1,8.3,13.9,12.2c0.3,0.2,0.9,0.5,1.1,0.9c-0.1-0.1,0-0.1-0.1,0.1c-0.4,0.8-0.8,1.5-1.1,2.4
		l-4.5,9.6l-5.3,11.2c-1.1,2.3-2.3,4.6-3.3,6.9c-0.1,0.1-0.1,0.2-0.2,0.4l4.6-0.4c-2.6-1.2-5.2-2.5-7.7-3.9
		c-0.6-0.3-4.6-0.6-4.7,0.4c-0.7,6.9-0.9,13.8-0.5,20.7l2.5-0.7h-41.5l2.5,0.6c0.2-12.6,1-25.1,2.1-37.6l0.4-4l0.2-2
		c0.2-0.8,0.3-1.6,0.2-2.5c-0.2-0.4-0.8-0.8-1.1-1c-0.5-0.4-1.1-0.9-1.6-1.3c-1-0.9-2.1-1.8-3.1-2.7c-3.8-3.4-7.3-7.2-10.5-11.2
		c-4.6-5.8-8.1-12.4-9-19.9c-1.4-12.2,2.1-24.8,6.1-36.2c4.3-12.2,9.6-24.1,15.7-35.5c2.2-4.1,4.4-8.2,6.7-12.2c1.1-2,2.4-3.9,3.5-6
		l0.2-0.2l-4.8,0.1l19.2,15.3l2.7,2.1c0.8,0.4,1.6,0.5,2.4,0.4c0.6,0,2,0,2.4-0.5l0.1-0.1l-4.6,0.2l32.5,11.7l4.6,1.6
		c1.1,0.3,2.3,0.4,3.4,0.1C278.9,261.2,280.4,260.7,279.4,260.4z"></path><path class="st2" d="M206.2,245.8c0,0,57.8,35.2,70.8,23.9s19.7-88.4-0.4-92.6S225,205.1,206.2,245.8z"></path><path class="st2" d="M205,247.7c4,2.4,8,4.7,12.1,6.9c8.6,4.7,17.4,9,26.4,12.8c4.6,1.9,9.3,3.6,14.1,4.9c3.9,1.2,8,1.8,12.1,1.8
		c3.3-0.1,6.7-0.8,9.2-3c2.2-2.3,3.8-4.9,4.9-7.9c3.5-8.1,5.1-17,6.3-25.7c1.4-10.4,1.9-20.9,1.3-31.4c-0.5-8.2-1.6-17.3-5.9-24.5
		c-1.6-2.9-4.1-5.1-7.1-6.3c-3.9-1.4-8.6-1-12.5,0.1c-11.3,3.1-21,11.4-28.9,19.7c-10.8,11.5-20,24.3-27.4,38.3
		c-2,3.7-3.9,7.4-5.6,11.2C203.4,245.7,203.9,247.1,205,247.7C205,247.7,205,247.7,205,247.7c1,0.5,2.8,0.5,3.4-0.7
		c6.6-14.5,15-28,25-40.4c7.6-9.4,16.7-18.7,27.6-24.2c2-1,4.1-1.9,6.2-2.5c1-0.3,2.1-0.5,3.2-0.7l0.8-0.1c0.4-0.1-0.3,0,0.3,0
		s1-0.1,1.6-0.1s0.9,0,1.3,0l0.7,0.1h0.4h-0.1c0.4,0.1,0.7,0.1,1.1,0.2l0.4,0.1c0.5,0.1,0,0,0,0c0.6,0.3,1.1,0.6,1.6,0.9
		c-0.6-0.4,0,0,0.3,0.2c0.3,0.2,0.5,0.5,0.8,0.7l0.3,0.4c0.4,0.4-0.2-0.3,0,0s0.5,0.6,0.7,0.9c0.4,0.6,0.8,1.3,1.2,1.9l0.2,0.4
		l0.1,0.3c0,0-0.2-0.4-0.1-0.1s0.4,0.8,0.5,1.2c0.4,0.8,0.7,1.7,0.9,2.5c1.2,3.8,2.1,7.8,2.5,11.8c1.1,9.8,1.1,19.7,0,29.6
		c-0.7,9.1-2.4,18.1-5,26.8c-0.3,0.9-0.6,1.8-0.9,2.7c-0.1,0.4-0.3,0.8-0.5,1.2l-0.2,0.6l-0.1,0.3c-0.6,1.4-1.3,2.7-2.1,4
		c-0.4,0.5-0.7,1.1-1.1,1.6c-0.2,0.3,0.4-0.4,0,0l-0.3,0.3c-0.2,0.2-0.4,0.4-0.6,0.5c-0.2,0.2-0.9,0.6-0.3,0.3
		c-0.3,0.2-0.6,0.3-0.9,0.5c-0.2,0.1-1,0.4-0.6,0.3s-0.1,0-0.2,0.1l-0.6,0.1c-0.3,0.1-0.7,0.1-1,0.2s-1.3,0.1-0.6,0.1
		c-0.8,0.1-1.6,0.1-2.5,0.1c-0.9,0-1.8-0.1-2.7-0.2l-0.7-0.1h0.2l-0.4-0.1l-1.4-0.2c-4.4-0.9-8.7-2.1-12.9-3.7
		c-4.5-1.6-8.8-3.5-13.4-5.6c-4.3-2-8.6-4.1-12.8-6.3c-5.5-2.9-10.9-5.9-16.2-9l-0.8-0.5c-0.9-0.8-2.3-0.8-3.2,0.1
		c-0.8,0.9-0.8,2.3,0.1,3.2C204.6,247.4,204.8,247.6,205,247.7z"></path><path class="st1" d="M176.1,124.2c-0.4-0.1-5.8-6.8-12-5.4s-13.2,4.9-12.7,7.8s8.9,0.8,8.9,0.8l11.7,8L176.1,124.2z"></path><path class="st2" d="M175,122.8c-0.1,0,2.5,1.8,1.8,1.2c0.5,0.5,0.3,0.3,0.2,0.2l-0.4-0.4c-0.6-0.5-1.1-1-1.7-1.6
		c-1.5-1.3-3.1-2.4-4.7-3.3c-1.6-0.9-3.3-1.5-5.1-1.7c-2.1-0.1-4.1,0.2-6.1,1c-2,0.6-3.9,1.5-5.7,2.5c-1.3,0.8-2.9,1.8-3.6,3.2
		c-1.4,3,3.2,5.6,5.6,5.9c2.3,0.2,4.6,0,6.9-0.6l-1.7-0.7l11.7,8c0.1,0.1,1.7,1.1,1.9,0.6l4.1-11.3c0.4-1.2-3.8-3.6-4-3L170,134
		l1.9,0.6l-6.4-4.3l-4.1-2.8c-0.8-0.6-2-1.6-3-1.6c-1.1,0-2.4,0.5-3.5,0.6c-0.9,0.1-1.7,0.1-2.6,0.1c-0.3,0-0.8-0.2-0.9-0.2
		c0.8,0,1.8,5.2,2,1.7c0-0.1-0.1-0.4-0.1-0.5c0.1-2,3-3.5,4.4-4.3c2.7-1.5,5.7-2.5,8.7-3c1.4-0.2,2.7,0,4,0.5
		c0.9,0.4,1.7,0.9,2.4,1.5c-0.4-0.3,0.2,0.2,0.2,0.2l0.5,0.4l0.4,0.4c-0.4-0.4,0,0,0.1,0.1c0.8,0.9,1.8,1.6,2.9,2.2
		c0.8,0.4,1.1-0.1,0.6-0.8C177,124,176.1,123.3,175,122.8z"></path><path class="st1" d="M175.7,117.6c-0.4-0.1-5.8-6.8-12-5.4s-13.2,4.9-12.7,7.8s8.9,0.8,8.9,0.8l11.7,8L175.7,117.6z"></path><path class="st2" d="M177.5,117.2c0.6,0.3,0-0.1-0.2-0.3c-0.4-0.4-0.8-0.8-1.2-1.1c-1.2-1.1-2.6-2-4-2.8c-1.8-1-3.8-1.6-5.8-1.8
		c-2.4-0.2-4.8,0.1-7,0.9c-2.2,0.6-4.2,1.5-6.2,2.6c-1.6,0.7-2.9,1.8-4,3.2c-2,3.1,1.9,4.3,4.3,4.6c2.7,0.2,5.5,0,8.1-0.7l-3.9-0.7
		l11.7,8c0.8,0.5,4.2,1.5,4.7,0.2l4.1-11.3c0.3-0.9-4.5-2-5-0.7l-4.1,11.3l4.7,0.2l-6.4-4.3l-4-2.8c-1.1-0.9-2.3-1.4-3.7-1.6
		c-1.4,0-2.7,0.2-4.1,0.5c-0.3,0-0.7,0.1-1.1,0.1s-0.6,0-0.8,0h-0.2h-0.2c0.2,0,0.3,0.1,0.5,0.1c0.2,0,0,0.1-0.1-0.2
		c-0.8-1.7,1.9-3.4,3-4.1c2.5-1.5,5.3-2.6,8.2-3.3c0.8-0.3,1.8-0.3,2.6,0.1c1.1,0.5,2.1,1,3,1.8c0.8,0.6,1.5,1.2,2.2,1.9
		c0.4,0.4,0.8,0.7,1.2,1c1.1,0.5,2.3,0.7,3.5,0.5C178.2,118.2,178.4,117.6,177.5,117.2z"></path><path class="st1" d="M175.9,152.1c0,0-13.9-11.8-15.9-26.7s7.4-14.7,9.8-0.4c2-3.3,2.3-7.4,0.9-11c-2.4-6.1-9.6-9.8-6.4-13.7
		s14.2,7.5,20.2,16.3s9.9,25.2,9.9,25.2S180.8,152.7,175.9,152.1z"></path><path class="st2" d="M176.5,151.4l-0.3-0.2c0.9,0.7-0.2-0.2-0.4-0.4c-0.9-0.8-1.9-1.9-2.6-2.6c-2.7-3-5.1-6.2-7.1-9.7
		c-2.5-4.3-4-9.1-4.3-14.1c-0.1-2.2-0.3-7.6,2.6-8.3c0.4-0.1,0.3,0,0.6,0s-0.2,0.1,0.1,0s0.1,0-0.1-0.1c0.2,0.1,0.2,0.1-0.1-0.1
		c0.4,0.2-0.1-0.1-0.1-0.1c0.2,0.1,0,0-0.1-0.1c0.2,0.3,0.4,0.4,0.5,0.7c1.3,2.2,2.2,4.7,2.5,7.3c0.3,0.9,0.9,1.7,1.7,2.2
		c0.4,0.2,1.8,1.3,2.2,0.7c3.1-4.7,1.9-11-1.2-15.3c-0.9-1.3-1.9-2.5-3-3.8c-0.8-0.8-1.4-1.7-1.9-2.8c-0.6-1.6,0.4-3.6,2.2-3.4
		c0.7,0.1,1.4,0.4,2,0.8c1,0.6,1.9,1.4,2.8,2.2c2.4,2.2,4.7,4.7,6.7,7.2c3.9,5,7,10.6,9.1,16.5c1.5,4.2,2.8,8.4,3.9,12.7v-0.6
		c-2.3,1.8-4.7,3.6-7.2,5.2c-1.9,1.3-3.9,2.5-6,3.5c-1.4,0.7-3.2,1.6-4.8,1.4c-1.1-0.1-0.4,1.1-0.1,1.5c0.7,1,1.7,1.6,2.9,1.9
		c1.8,0,3.6-0.4,5.2-1.4c2.1-1,4.2-2.2,6.1-3.6c2.6-1.7,5.2-3.6,7.6-5.5c0.1-0.2,0.1-0.4,0-0.6c-2.6-10.6-6.4-21.2-13.2-29.8
		c-2.3-3-4.8-5.8-7.4-8.3c-2.3-2.4-5-4.4-7.9-5.9c-1.7-0.8-4.2-1.6-5.6,0.2c-1.7,2.3,0,4.9,1.4,6.8c2.4,3.1,5.2,5.8,5.8,9.8
		c0.4,2.7-0.1,5.5-1.6,7.8l4,2.9c-0.9-4.9-2.6-9.9-7-12.7c-1.3-0.8-3-1.5-4.4-0.8s-2,2.4-2.3,3.8c-1.2,5.3,0.4,11.4,2.5,16.3
		c2.2,4.8,5,9.2,8.5,13.2c2,2.4,4.1,4.5,6.4,6.6c0.4,0.3,2,1.5,2.5,0.9S176.8,151.7,176.5,151.4z"></path><path class="st2" d="M273.4,174.6c0,0-54.9-0.4-63.4-10.2s-14.2-31.7-14.2-31.7s-28,11.4-28,15.4s9.3,31.3,21.1,41.8
		s51.6,14.6,51.6,14.6L273.4,174.6z"></path><path class="st2" d="M271.3,173.9c-10.8-0.1-21.6-0.7-32.4-1.8c-3.9-0.4-7.7-0.9-11.6-1.6c-1.6-0.3-3.3-0.6-5.1-1h-0.1l-0.5-0.1
		c-0.4-0.1-0.9-0.2-1.3-0.3l-0.4-0.1l-0.2-0.1l-1.3-0.4l-0.5-0.2l-0.2-0.1l-0.9-0.3l-0.2-0.1l-0.5-0.2c-0.3-0.1-0.6-0.3-0.9-0.4
		c-0.9-0.4-1.7-1-2.5-1.6c-1.3-1.3-2.4-2.7-3.4-4.3c-1.3-2-2.5-4.1-3.5-6.2c-3.4-6.9-6-14.2-7.9-21.6c-0.1-0.6-1.6-0.8-2-1
		c-0.7-0.2-2-0.7-2.7-0.4c-4.4,1.8-8.8,3.7-13.1,5.8c-3.2,1.5-6.5,3.1-9.6,4.9c-1.7,1-4.3,2.3-5.3,4.2c-0.2,0.6-0.3,1.3-0.1,1.9
		c0.2,1.1,0.5,2.3,0.9,3.4c1.1,3.6,2.3,7.1,3.7,10.6c3.4,8.4,7.6,16.9,13.5,23.8c5,5.8,11.9,8.6,19,10.9c8.1,2.5,16.4,4.5,24.8,5.8
		c4.8,0.8,9.6,1.6,14.5,2c1.1,0.1,1.4-0.4,2.2-1.1l4.9-4.4l26.3-24.1l0.6-0.5c0.2-0.2-2.1-1-2.3-1c-0.6-0.1-2-0.7-2.5-0.2
		l-11.1,10.1l-17.7,16.2L238,204l0.8-0.1l-1.6-0.2l-0.8-0.1l-0.4-0.1h-0.2l-2.4-0.3c-4.5-0.6-9.1-1.4-13.5-2.2
		c-5.3-1-10.5-2.3-15.6-3.9c-4.1-1.3-8.7-3.1-12.2-5.8c-4.4-3.4-7.6-8.4-10.4-13.2c-3.1-5.5-5.8-11.2-8-17.1
		c-1.4-3.6-2.9-7.5-3.5-11.4c-0.4-2.6,3.2-4.3,5.1-5.4c7.2-4.1,14.6-7.6,22.3-10.6l0.5-0.2l-4.7-1.3c1.7,6.5,3.9,12.9,6.7,19.1
		c2,4.4,4.3,9.1,7.6,12.8c1.7,1.9,4.2,3,6.6,3.9c7.4,2.9,15.4,4.1,23.2,5.1c8.1,1,16.2,1.6,24.4,2c4.5,0.2,9.1,0.4,13.7,0.4
		c1,0-0.5-0.7-0.7-0.8C273.6,174.1,272.5,173.9,271.3,173.9z"></path><path class="st1" d="M343.1,287.1c0,0,8.7,9.6,15,17.2s7.6,15.9,3.9,14c0,0,2.2,5,0.7,8.3L359,323c0,0-13.8-13.7-18.4-14
		s-5,6.1-5.5,8.9s-2.8,5.9-4.9,3.6s-3-17.4-4.8-27.1c-2.4-12.8,2.8-14.9,2.8-14.9C329.7,279.8,343.1,287.1,343.1,287.1z"></path><path class="st2" d="M340.7,287.5c2.7,3,5.3,5.9,7.9,8.9c4.4,5,9.6,10.1,12,16.4c0.5,1.2,0.8,2.5,0.9,3.9c0,0.4,0,0.8-0.1,1.1
		c0,0.1-0.2,0.3-0.2,0.4c0-0.4,5.3-0.8,1.5-0.3c0.9-0.1,1.9,0,1.4-0.2c-0.9-0.3-1.9-0.4-2.9-0.2c-0.3,0-2,0.4-1.8,1
		c1,2.4,1.8,5.6,0.8,8.1l4.8-0.4c-2.8-2.8-5.6-5.5-8.5-8.2c-2.5-2.3-5.1-4.4-7.8-6.4c-2.3-1.6-4.8-3.4-7.7-3.4c-2.1,0-4.5,0.5-6,2.1
		c-1,1.3-1.6,2.8-1.9,4.4c-0.4,1.6-0.4,3.4-1,4.9c-0.2,0.5-0.5,1-0.8,1.4c-0.2,0.2-0.4,0.4-0.5,0.6h0c-0.7,0.5,0.1,0.5,2.3-0.1
		c-0.3-0.5-0.8-0.7-1-1.3c-0.5-1.3-0.9-2.7-1.1-4.1c-0.4-2-0.7-4.1-0.9-6.1c-0.6-4.6-1.1-9.2-1.9-13.8c-0.7-4.3-1.8-9.1-0.2-13.3
		c0.3-1,0.9-1.9,1.6-2.6c-0.2,0.2,0.4-0.2,0.5-0.4c0.3-0.3-0.4,0.2-0.1,0l-3.5,0.3c0.4,0.1-0.3-0.1,0.1,0l0.7,0.3
		c0.7,0.3,1.3,0.6,2,0.9c1.7,0.8,3.3,1.7,5,2.6c2.3,1.2,4.5,2.4,6.8,3.6c1.1,0.4,2.3,0.4,3.4,0c0.5-0.2,1.8-0.7,0.8-1.3
		c-2.5-1.4-5-2.7-7.6-4.1c-1.7-0.9-3.4-1.8-5.1-2.6s-3.5-1.6-5.7-1c-1.7,0.7-3.1,2.1-3.7,3.9c-1.9,4.9-0.5,10.2,0.2,15.2
		c0.9,5.6,1.4,11.2,2.3,16.9c0.2,1.9,0.7,3.9,1.3,5.7c1,2.6,3.8,3.2,6.4,2.5c5.3-1.4,3.7-7.8,5.9-11.6c0.2-0.4,0.5-0.8,0.8-1.1
		c0.4-0.4,1-0.4,0.1-0.3c-0.5,0-0.9-0.2-0.3,0.1s-0.3-0.1,0.2,0.1l0.6,0.3c1.7,0.8,3.2,1.8,4.7,3c5.2,4.3,10.2,8.9,14.9,13.8
		c0.7,0.5,1.6,0.6,2.5,0.5c0.6,0,2.1-0.2,2.4-0.8c1.1-2.7,0.5-5.9-0.7-8.5l-4.6,0.8c1.9,0.9,6.1,1,6.6-1.7s-1.2-5.8-2.4-8
		c-2-3.7-4.8-6.8-7.5-9.9c-2.4-2.8-4.8-5.5-7.2-8.3c-1.3-1.5-2.6-2.9-3.9-4.4c-0.6-0.7-2.3-0.5-3.1-0.4
		C342,286.4,340.1,286.8,340.7,287.5z"></path><path class="st1" d="M353.9,306.9c0,0,7.3,10.2,8.5,12.8"></path><path class="st2" d="M352,307.9l2.5,3.5l1.1,1.6c0.2,0.3,0.4,0.5,0.6,0.8l0.3,0.4l0.1,0.2c0.2,0.2-0.3-0.4,0-0.1
		c0.7,1.1,1.4,2.1,2.1,3.2c0.5,0.8,1.1,1.7,1.6,2.6c0.6,1.1,1.9,1.7,3.2,1.5c0.9-0.2,1.5-1.1,1.3-2c0-0.2-0.1-0.3-0.2-0.5
		c-1-1.9-2.2-3.7-3.5-5.4c-1.5-2.2-3-4.3-4.5-6.5c-0.3-0.4-0.6-0.9-0.9-1.3c-0.8-1-2.2-1.3-3.4-0.8C351.2,305.8,351.3,307,352,307.9
		L352,307.9z"></path><path class="st2" d="M279.7,179.1c0,0,13.1,8.7,29.4,33.2s38.7,70.3,38.7,70.3s-10.4,14.7-27.2,14.7c0,0-15.4-50.1-43-69.8
		L279.7,179.1z"></path><path class="st2" d="M278.5,181c0.2,0.2,0.5,0.3,0.7,0.5l0.8,0.6c0.5,0.4-0.5-0.4,0.1,0.1l0.6,0.5c2.5,2.1,4.8,4.3,7.1,6.6
		c8,8.4,15.2,17.5,21.4,27.3c11,17.2,20.5,35.3,29.8,53.5c2.3,4.5,4.6,9,6.8,13.6l-0.1-2.3c-0.1,0.1-0.2,0.3-0.3,0.4
		s-0.2,0.3-0.3,0.4s-0.6,0.7-0.3,0.4l-0.4,0.5c-0.2,0.3-0.5,0.6-0.8,0.8c-0.6,0.7-1.2,1.3-1.9,1.9c-3.4,3.3-7.4,5.8-11.8,7.5
		c-3,1.1-6.2,1.7-9.4,1.8l2.4,1.9c-2-6.3-4.3-12.4-7-18.4c-5.4-12.6-11.9-24.9-20.2-35.8c-4.8-6.5-10.5-12.2-17-17l1.3,2.1l0.7-16.4
		l1.2-26.1l0.3-6c0.1-2.8-4.7-3.4-4.9-0.3l-0.9,18.9l-1.2,26.7c0,0.9-0.1,1.7-0.1,2.6c0,0.8,0.4,1.6,1,2.1c1.2,1.1,2.3,1.7,3.5,2.7
		c4.8,4.1,9.1,8.8,12.9,13.9c7.3,10.1,13.4,20.9,18.3,32.4c2.8,6.3,5.1,12.7,7.4,19.2l0.1,0.3c0.4,1.1,1.3,1.8,2.4,1.9
		c10.6-0.1,20.5-5.4,27.4-13.4c0.7-0.7,1.3-1.5,1.9-2.3c0.4-0.7,0.4-1.6,0-2.3c-6.1-12.4-12.4-24.7-19.1-36.9
		c-10.8-19.9-22.1-39.9-37.7-56.4c-3.7-4-7.7-8.1-12.3-11.1c-1-0.8-2.4-0.6-3.1,0.4c-0.8,1-0.6,2.4,0.4,3.1
		C278.2,180.8,278.4,180.9,278.5,181L278.5,181z"></path><path class="st1" d="M286.5,134.4c0,0-8.7,3.5-14.7,0.4s-16.6-11.1-20.8-5.8s2.8,11.4,8.4,12.9c0,0-9.1,14.9-1.9,23.8
		s12.5,8.6,12.4,12.1c0,0,3.8,8,11.9,9.9c2,0.5,7.4-30.1,5.9-38.7C287.7,149,281.3,141.2,286.5,134.4z"></path><path class="st2" d="M285,132.5c-0.8,0.3-1.7,0.6-2.5,0.8c-1.9,0.5-3.9,0.8-5.9,0.7c-4.2-0.2-7.5-2.9-11-4.9s-7.7-4.2-11.9-3.9
		c-3.6,0.3-6.4,3.4-6.1,7.1c0,0.4,0.1,0.8,0.2,1.3c1.3,5.2,6.9,9,11.7,10.4l-1.9-3.6c-4,6.5-6.8,15.4-3.7,22.8
		c1.2,2.9,3.6,5.3,5.8,7.5c1.9,1.8,4.1,3.5,6.3,4.9l0.9,0.6c-0.6-0.4,0.3,0.2,0.5,0.4s0.2,0.2,0.4,0.3c0.5,0.3-0.4-0.4-0.1,0
		c0.2,0.2,0.1,0.4,0-0.1c0.2,0.6-0.1-0.2,0,0.1s0-0.4,0,0c0,0.3,0,0.6,0.1,0.8c0.1,0.2,0.2,0.4,0.3,0.6c0.2,0.4,0.5,0.9,0.7,1.3
		c2.6,4.3,6.4,7.6,11,9.5c1.4,0.6,3.3,1.4,4.4-0.1c0.6-1,1-2,1.3-3.1c1-3.6,1.8-7.3,2.4-11c0.8-4.6,1.5-9.2,1.9-13.9
		c0.2-2.2,0.4-4.4,0.4-6.6c0-1.9,0.2-4.5-0.9-6.1c0-0.1-0.1-0.1-0.2-0.2l-0.2-0.3c-0.4-0.5,0.2,0.3-0.1-0.1c-0.6-0.9-1-1.8-1.4-2.8
		c-1.2-2.9-0.8-6.2,1-8.7c1.4-1.9-2.5-5.1-3.8-3.2c-3.8,5.3-2.4,12.2,1.5,17.1l-0.6-1.1c0.1,0.5,0-0.4,0,0.1c0,0.1,0,0.3,0,0.5
		c0,0.3,0,0.7,0.1,1c0,0.8,0,1.6,0,2.4c0,2-0.1,3.9-0.3,5.8c-0.4,4.4-1,8.8-1.7,13.2c-0.6,3.7-1.4,7.3-2.3,10.9
		c-0.3,1.1-0.6,2.1-1.1,3.1c0,0,0.3-0.2-0.1,0s0.4-0.2,0.5-0.2c0.3-0.1,1,0.2,0.3-0.1c-0.2-0.1-0.5-0.1-0.7-0.2
		c-0.7-0.2-1.3-0.5-1.9-0.8c-2-1.1-3.8-2.7-5.1-4.6c-0.1-0.2-0.3-0.4-0.4-0.5s-0.5-0.7-0.3-0.4s-0.1-0.2-0.1-0.2l-0.3-0.5
		c-0.2-0.3-0.3-0.6-0.5-0.9l0.3,1.1c0-2.7-2.1-4.4-4.1-5.8c-1.3-0.9-1.9-1.3-3-2.1c-1.6-1.2-3.1-2.6-4.5-4.1
		c-1.3-1.2-2.2-2.7-2.9-4.4c-0.5-1.6-0.7-3.2-0.6-4.8c0.2-3.2,0.9-6.3,2.2-9.2c0.5-1.2,1-2.4,1.6-3.5l0.3-0.6c0.2-0.4-0.2,0.3,0-0.1
		c0.1-0.1,0.1-0.3,0.2-0.4c0.9-1.4-0.5-3.1-1.9-3.6c-2.8-0.8-6.9-3-7.5-6.2c-0.2-1.6,0.5-3.1,1.9-3.9c1.1-0.6,2.4-0.7,3.5-0.3
		c3.6,0.8,6.9,2.9,10,4.8c1.6,1,3.2,1.9,4.8,2.7c2,0.9,4.3,1.3,6.5,1.2c3.2,0,6.4-0.7,9.4-1.9c1.1-0.4,0.6-2.1,0-2.8
		C287.3,132.6,286.1,132.2,285,132.5z"></path><path class="st2" d="M292.9,176.3c0,0,5.7,7.6,10,4.8s-1.1-5.7-1.1-5.7s11.7-3.5,5.6-10.8c0,0,10.9-1,10.6-10.4
		s-12.8-13.5-12.8-13.5s2.9,11.6-5.4,6.7s-6.5-18.3-6.5-18.3s-5.3-3.2-7.8-0.4s0.1,6.9,0.1,6.9s-5.5,9.5,2,13.5l-2.3,15.6
		c-3.3,1.4-5.6,4.4-6.2,7.9C278.4,178.3,288.7,182,292.9,176.3z"></path><path class="st2" d="M290.6,177.3c2.1,2.8,5.5,6,9.3,5.6c1.7-0.3,3.4-0.9,4.7-2c1.1-0.8,2.3-1.9,2.2-3.4s-1.7-2.7-2.9-3.4l-3,2.4
		c2.8-0.8,5.4-2.1,7.6-3.9c1.3-1,2.3-2.3,2.8-3.9c0.3-1.9-0.3-3.9-1.7-5.2l-3.6,2.3c4.7-0.4,10.4-3,12.9-7.1c1.8-3.1,1.9-6.8,0.3-10
		c-1.5-2.8-3.8-5.1-6.6-6.7c-1.6-1.1-3.4-1.9-5.3-2.6c-0.9-0.3-4.7,0.9-4.4,2.2c0.3,1.1,0.5,2.3,0.5,3.5c0.1,0.9,0,1.7-0.3,2.5
		c0,0.1-0.2,0.4-0.1,0.4c-0.1,0.3-0.3,0.2-0.1,0.2c0.4,0,1.7-1.4,2.2-1c-0.1-0.1-0.6-0.1-0.7-0.1c-3-0.7-5.4-3.3-6.8-5.9
		c-1.2-2.6-1.9-5.4-2-8.3c-0.1-1.6-0.1-3.2,0.1-4.8c0.1-0.2,0-0.3-0.2-0.4c-2.8-1.8-6.4-2-9.4-0.6c-2.2,1-4,2.9-3.9,5.4
		c0,1.4,0.5,2.8,1.2,3.9l0.1-0.5c-1,1.7-1.7,3.6-2,5.6c-0.7,3.4,0.9,6.9,4,8.5l-0.2-0.4l-2.3,15.6l2.6-1.8c-4.1,1.6-8,5-8.7,9.5
		c-0.7,5,4.9,7.6,9.1,7.3c3.5-0.2,6.7-1.9,8.9-4.6c0.7-0.9-0.8-0.7-1.3-0.6c-1.2,0.2-2.2,0.8-3,1.7c-0.2,0.2-0.4,0.5-0.5,0.7
		c-0.1,0.1-0.4,0.4-0.3,0.2s-0.3,0.1,0,0s-0.2,0.1-0.2,0c-1.1,0.2-2.2,0.1-3.2-0.2c-2.1-0.5-3.8-1.9-4.8-3.8c-0.9-2.3,0.2-5,1.7-6.8
		c0.3-0.4,0.6-0.7,1-1c0.1-0.1,0.2-0.2,0.4-0.3c0.1-0.1,0.7-0.5,0.2-0.2c0.1-0.1,0.3-0.2,0.4-0.2c0.5-0.2-0.5,0.3-0.1,0.1
		s0.9-0.4-0.2,0.1c0.7-0.3,2.4-0.9,2.6-1.8l2.3-15.6c0.1-0.1,0-0.3-0.1-0.4c0,0,0,0,0,0c-2.9-1.6-4.3-4.8-3.6-8
		c0.2-1.2,0.5-2.3,1-3.5c0.2-0.4,0.3-0.8,0.5-1.2l0.2-0.3c0,0.1-0.1,0.2,0,0.1c0.1-0.1,0.2-0.3,0.1-0.5c-0.4-0.7-0.8-1.4-1-2.2
		c-0.2-0.7-0.3-1.5-0.2-2.2c0.1-0.4,0.2-0.8,0.4-1.1c0.2-0.4,1.2-1.5-0.5-0.2c-0.4,0.3-0.3,0,0.1,0.1s0.7,0,1.1,0.1
		c0.6,0.1,1.1,0.3,1.7,0.5c0.6,0.2,1.2,0.5,1.8,0.9l-0.2-0.4c-0.7,4.8-0.1,10.4,2.4,14.5c1.6,2.6,4.7,5.4,8,5.5c2.9,0,6.1-2,6.4-5
		c0.2-1.8,0-3.6-0.5-5.3l-4.4,2.2c3.9,1.2,7.4,3.6,10.1,6.7c2,2.4,2.9,5.7,2.3,8.8c-0.2,1.3-0.8,2.6-1.7,3.6c-0.3,0.3-0.6,0.6-1,0.9
		c-0.1,0.1-0.2,0.2-0.4,0.2c-0.3,0.2,0.3-0.2,0,0l-0.4,0.2c-0.3,0.2,0.4-0.2-0.1,0l-0.4,0.2c-0.6,0.3,0.5-0.2-0.1,0.1l-0.8,0.3
		c-0.3,0.1,0.4-0.1,0.1,0l-0.4,0.1l-0.7,0.2c-0.5,0.1,0.2,0-0.1,0L309,163l-0.4,0.1c-0.5,0.1-4.3,1.5-3.6,2.3
		c1.9,2.3,2.5,5.1,0.1,7.2c-0.1,0.1-0.3,0.3-0.5,0.4l-0.3,0.2c0.4-0.3,0,0-0.1,0s-0.9,0.5-0.3,0.2l-0.8,0.4l-0.3,0.1
		c-0.5,0.2,0.4-0.2,0.2-0.1l-0.5,0.2c-0.4,0.2-0.7,0.2,0,0c-0.4,0.1-4,1.8-3,2.3c1,0.5,1.8,1.2,2.3,2.2c0.2,0.3,0.2,0.7,0.2,1
		c0,0.4-0.5,0.8-0.5,1c-0.1,0.1-0.1,0.1,0,0l0.9-0.4c0,0,0.1,0.1-0.2,0s-0.7-0.1-1.1-0.2c-2.5-0.8-4.6-2.9-6.1-5
		C294.3,174.1,290.1,176.6,290.6,177.3z"></path><path class="st1" d="M285.3,149.7c0,0,5.7-4.9,9-0.4s-5.7,18.7-12.9,12.3"></path><path class="st2" d="M287.4,150.8c0.1-0.1,0.2-0.2,0.4-0.3c0.1-0.1,0.2-0.2,0.4-0.3s-0.3,0.2,0,0l0.4-0.2c0.4-0.3,0.9-0.5,1.3-0.7
		c0.3-0.1,0.5-0.2,0.8-0.3c-0.3,0.1-0.1,0,0.1,0l0.5-0.1h0.2c0.1,0,0.2,0.1,0,0s-0.1,0,0,0h0.2c0.1,0,0.1,0,0.2,0c0,0-0.5-0.1-0.3,0
		c0.1,0,0.2,0,0.3,0c0.3,0-0.5-0.1-0.2-0.1c0.5,0.1-0.2-0.1-0.1-0.1c0.1,0,0.1,0.1,0.2,0.1c0,0-0.4-0.3-0.2-0.1s0.4,0.3,0.2,0.2
		s0,0,0,0l0.2,0.2c0.2,0.2,0-0.1,0.1,0.1l0.1,0.2l0.1,0.2c0.2,0.3,0-0.2,0,0c0.1,0.4,0.2,0.8,0.2,1.2c0,0.2,0,0.4,0,0.6s0-0.2,0,0.1
		s0,0.3-0.1,0.4c-0.1,0.5-0.2,0.9-0.3,1.4c-0.3,1-0.8,2.1-1.3,3l-0.2,0.3c-0.1,0.1,0,0,0,0l-0.1,0.2c-0.2,0.2-0.3,0.5-0.5,0.8
		c-0.3,0.4-0.6,0.9-1,1.3c-0.4,0.4-0.8,0.8-1.2,1.1c-0.2,0.2-0.4,0.3-0.6,0.5s0.2-0.1-0.1,0.1l-0.4,0.2c-0.2,0.1-0.5,0.3-0.7,0.4
		l-0.4,0.2c-0.1,0-0.1,0-0.2,0.1c-0.3,0.1,0.3-0.1,0.1,0s-0.5,0.1-0.8,0.2h-0.2c-0.3,0.1,0.2,0,0.2,0c-0.1,0-0.3,0-0.4,0h-0.2
		c-0.4,0,0.5,0.1,0.2,0l-0.4-0.1c-0.4-0.1,0.6,0.2,0.1,0c-0.1,0-0.3-0.1-0.4-0.1s0.5,0.3,0.3,0.1c-0.1,0-0.1-0.1-0.2-0.1l-0.2-0.1
		c-0.4-0.2,0.4,0.2,0.1,0.1l-0.4-0.3c-0.1-0.1-0.6-0.5-0.1-0.1c-0.9-0.9-2.1-1.3-3.4-1.1c-0.9,0.2-1.4,1.1-0.6,1.8
		c2.6,2.5,6.3,3.3,9.7,2.2c2.4-1,4.4-2.7,5.8-4.9c1.5-2.1,2.4-4.6,2.5-7.2c0-3.4-3.3-5.8-6.5-6.2c-2.8-0.2-5.6,0.8-7.7,2.7
		c-0.9,0.7,0.6,1.9,1.1,2.1C285.2,151.1,286.6,151.5,287.4,150.8L287.4,150.8z"></path><path class="st2" d="M264.7,148.2c-0.9,0.8-1.9,1.4-3,1.9c-0.4,0.2-0.9,0.3-1.3,0.4c-0.5,0.1-1.1,0.1-1.6,0.1h-0.4h-0.2
		c0.1,0,0.1,0-0.1,0s-0.6-0.1-0.8-0.2c-0.1,0-0.3-0.1-0.4-0.2c0.3,0.1-0.1-0.1-0.2-0.1l-0.4-0.3c-0.2-0.1-0.2-0.1,0,0l-0.3-0.2
		c-0.4-0.4-1.7-1-1.6,0.1c0.2,1.2,0.8,2.3,1.7,3c1.3,1.1,2.9,1.9,4.6,2.1c1.2,0.2,2.5,0,3.6-0.4c1.3-0.4,2.5-1.1,3.5-2
		c0.7-0.6-0.2-2.1-0.7-2.6c-0.3-0.5-0.8-0.9-1.3-1.2c-0.2-0.1-0.7-0.4-1-0.2L264.7,148.2z"></path><path class="st2" d="M272.9,141.5c-0.6,1.1-0.2,2.4,0.9,3c0.3,0.2,0.6,0.2,0.9,0.3c0.5,0,1-0.2,1.5-0.5c0.2-0.1,0.4-0.3,0.6-0.4
		c0-0.1,0.2-0.2,0-0.3c-0.4,0-0.8-0.2-1.1-0.4l0.1,0.1c-0.6-0.4-0.9-1.1-0.9-1.9v0.1c0-0.3,0.1-0.6,0.2-0.9c0.1-0.1-0.1-0.2-0.2-0.2
		c-0.3,0-0.5,0.1-0.7,0.2c-0.3,0.1-0.6,0.3-0.9,0.4C273.2,141.2,273,141.3,272.9,141.5L272.9,141.5z"></path><path class="st2" d="M248.4,276.3c0.9,7.6,3.9,14.7,8.8,20.5c0.8,0.9,2,1.4,3.2,1.3c0.7-0.1,2.1-0.7,1.3-1.6
		c-4.7-5.6-7.6-12.5-8.4-19.8C253.1,275,248.2,274.2,248.4,276.3L248.4,276.3z"></path><path class="st2" d="M221.9,280.9c-1.6,4.2-3,8.5-4.1,12.8c-3.1,11.4-5.3,23-6.7,34.6c-1.1,9.3-1.8,18.6-2.1,28
		c-0.1,2.9,4.3,3.7,4.4,0.5c0.4-15,2-29.9,4.8-44.6c1.6-8.5,3.7-16.8,6.3-25c0.2-0.5,0-0.1,0-0.1l0.2-0.5c0.1-0.3,0.2-0.5,0.3-0.8
		l0.4-1.2c0.1-0.3,0.2-0.7,0.4-1c0.5-1.2,0.1-2.6-1-3.4c-0.9-0.7-2.1-0.5-2.8,0.4C221.9,280.8,221.9,280.8,221.9,280.9L221.9,280.9z
		"></path><path class="st2" d="M252.4,383.3c0.5-9.4,1.7-18.7,3.4-27.9c0.8-4.2,1.8-8.3,2.9-12.4c0.4-1.4-3.8-3.7-3.9-3.1
		c-3.6,12.2-5.3,25-6.3,37.7c-0.1,1-0.1,2-0.2,3.1C248.3,382,252.4,384.3,252.4,383.3L252.4,383.3z"></path><path class="st2" d="M229.7,263.5c-3.6-0.8-7.4-0.4-10.8,1.2c-1.6,0.7-2.9,1.9-3.9,3.3c-1,1.5,0.5,2.5,1.8,3
		c3.5,1.4,7.8,2.5,11.6,1.5c3.5-0.9,4.9-4,6-7.1c0.2-0.7-4.5-1.8-5-0.6c-0.8,2.3-1.2,4.8-1.1,7.2c0.1,2,0.4,4.8,2.3,5.9
		c2.3,1.2,5,1.4,7.5,0.6c1.8-0.7,3.2-2.2,3.8-4c1.3-3.9-1.8-8-5.2-9.6c-2-0.9-5.6-1.6-7,0.6c-1,1.7-1.5,3.7-1.6,5.6
		c-0.4,4.6,1.2,9.1,4.4,12.5c0.9,0.6,1.9,0.9,3,0.9c0.2,0,2.4-0.1,1.8-0.6c-2.4-2.5-3.8-5.7-4.2-9.1c-0.2-1.7-0.1-3.3,0.2-5
		c0.2-1.1,0.8-4,2.1-4.2h-1.8c-0.9-0.1-0.6-0.1-0.2,0.1c0.2,0.1,0.5,0.3,0.7,0.5c0.4,0.3,0.8,0.7,1.2,1.1c0.8,0.9,1.4,1.9,1.7,3.1
		c0.6,2.2-0.1,4.5-1.8,6c-0.4,0.3-0.8,0.6-1.3,0.8c-0.2,0.1-0.4,0.2-0.4,0.2c0.4,0,0.8,0.1,1.1,0.1l-0.2-0.3
		c-0.3-0.6-0.5-1.1-0.7-1.7c-0.2-0.7-0.3-1.3-0.3-2c-0.3-2.8,0-5.6,1-8.2l-5-0.6c-0.7,2.1-1.6,4.3-3.4,5.6s-3.5,0.7-5.4,0
		c-2.6-1,1-3.5,2.2-4.2c1.5-0.9,3.7-1.8,5.5-1.5c0.7,0.1,2.6,0.6,3.1-0.1S229.9,263.6,229.7,263.5L229.7,263.5z"></path><path class="st1" d="M291.2,129.1c0,0-3.5,9.9,5.4,21.2s6.6,25,9.5,25.9s14.7-12.9,15.3-10.9s-4,10.8-1.5,10.4s22.9-11,17.6-25.9
		S293.7,122.7,291.2,129.1z"></path><path class="st0" d="M289.1,127.8c-1.9,5.5-0.3,12,2.1,17c1.4,2.5,3,4.9,4.8,7.2c1.4,2.1,2.5,4.3,3.4,6.7c1.3,3.8,2.2,7.8,2.7,11.8
		c0.5,2.8,0.9,5.6,3.8,7c2.5,1.1,4.5-0.5,6.4-2c2.4-1.9,4.6-4.1,7-6.2c0.8-0.8,1.7-1.5,2.7-2.2l0.4-0.2c0.1-0.1,0.1-0.1,0.2-0.1
		c0.2-0.2-0.1,0-0.1,0c0.6-0.8-2.9-3.3-3.2-2c0.1-0.3,0,0,0,0.1s0,0.4,0,0.6c-0.4,2.8-2.2,5.4-2.3,8.2c-0.1,1.9,1.8,3.5,3.6,3.7
		c0.8,0.1,1.6-0.1,2.3-0.5c5.1-2.2,9.6-5.6,13.1-9.9c4.4-5.4,6-12.4,2.6-18.8c-3-5.7-8.9-9.8-14.4-12.9c-6.2-3.6-12.8-6.3-19.7-8.1
		c-2.7-0.8-5.5-1.3-8.4-1.5c-1.9-0.1-4.1-0.2-5.8,0.7C289.8,126.7,289.4,127.2,289.1,127.8c-0.7,1.7,3.6,4.2,4.2,2.8
		c0.1-0.2,0.2-0.4,0.4-0.6c0.1-0.1-0.2,0.1,0.1-0.1c0.1-0.1,0.3-0.2,0.4-0.2l0.4-0.2c0.4-0.1-0.1,0,0.2-0.1c0.4-0.1,0.8-0.2,1.2-0.2
		c2.1-0.1,4.2,0.1,6.2,0.5c5.9,1.2,11.6,3.2,17,5.9c2.8,1.4,5.6,2.9,8.1,4.8c0.7,0.5,0.6,0.4,1.3,1s1.2,1,1.8,1.5
		c0.9,0.8,1.8,1.8,2.6,2.7c1.6,2,2.6,4.4,2.9,7c0.2,3.2-0.6,6.3-2.3,9c-2.9,4.8-7.6,8.6-12.5,11.2c-0.8,0.4-1.5,0.8-2.3,1.1
		l-0.4,0.1c-0.1,0-0.2,0.1,0,0s0,0.1,0,0h-0.1h0.1c1.2,0.1,2.3,0.8,2.8,1.9c0-0.1,0-0.1,0,0c0-0.1,0-0.3,0-0.4
		c0.3-2.7,1.8-5.2,2.2-7.9c0.3-1.3-0.3-2.6-1.4-3.3c-1-0.9-2.4-1.1-3.6-0.5c-2,1.1-3.7,3-5.4,4.5c-2,1.9-4.1,3.7-6.4,5.3
		c-0.4,0.3-0.8,0.5-1.2,0.7l-0.5,0.2c0.2-0.1,0.1-0.1,0,0s-0.5-0.3,0.1,0c0.4,0.2,0.8,0.2,1.3,0.5c-0.1-0.1,1.1,0.9,0.7,0.6
		c0.5,0.4,0.1,0.3,0.1,0.1s0,0,0,0.1c-0.1-0.5-0.3-1-0.5-1.4c-0.7-3.1-1-6.3-1.7-9.4c-1-4.5-2.8-8.8-5.3-12.7
		c-1.6-2.1-3.1-4.4-4.5-6.7c-1-1.9-1.7-4-2.2-6.1c-0.6-2.7-0.6-5.4-0.1-8.1c0.1-0.3,0.1-0.6,0.2-0.9s0,0,0-0.1
		C293.9,128.7,289.6,126.4,289.1,127.8z"></path><path class="st0" d="M320,154c0.1,0.5,0.2,1,0.3,1.4c0,0.2,0,0.2,0,0v0.4c0,0.2,0,0.5,0,0.7c0,0.9-0.1,1.8-0.3,2.6
		c-0.4,1.8-1.2,3.5-2.4,5c-1.1,1.4,1.6,5.5,2.9,3.9c2.8-3.7,3.8-8.4,2.7-12.9c-0.2-1.2-0.9-2.2-2-2.8C320.1,152,319.8,153.2,320,154
		L320,154z"></path><path class="st0" d="M319.3,173.5c-2.6,0.7-3,4.1-2.9,6.3c0,0.7,0.1,1.5,0.3,2.2c0.4,1.1,1.1,2.2,2,2.9c0.9,0.9,2.2,1.4,3.4,1.5
		c0.9,0,1.7-0.3,2.4-0.8c0.6-0.5,1.1-1.1,1.5-1.8c0.4-0.7,0.8-1.5,1.1-2.3c0.2-1-0.1-2.1-0.8-2.9c-0.8-1.1-1.9-2-3.2-2.6
		c-1.6-0.7-3.8-1-5.1,0.5c-1.5,1.7-0.4,4,1.1,5.2c1.2,1.1,4.3,2.6,5.2,0.3c0.2-0.7,0.1-1.6-0.3-2.2c-0.8-1.5-2.3-2.6-3.9-2.9
		c-0.3-0.1-0.7,0.1-0.7,0.5c0,0.5,0.2,0.9,0.5,1.2c0.7,1,1.7,1.7,2.9,1.9c-0.5-0.1-1-0.4-1.4-0.7l-0.7-0.7c-0.2-0.3-0.2-0.4-0.1-0.2
		c-0.2-0.5,0,0,0,0.1c0-0.4,0,0.1-0.1,0.2s0.1-0.1,0,0.1c-0.1,0.1-0.2,0.2-0.2,0.3c0.1-0.1,0,0,0,0l-0.3,0.1c-0.3,0.1,0.3-0.1-0.1,0
		s0,0,0.1,0c-0.4-0.1,0.5,0.2,0.1,0.1c0.4,0.2,0.7,0.5,1,0.8c0.2,0.2,0.3,0.4,0.4,0.6c-0.1-0.2-0.1-0.1,0,0.1c0-0.1,0-0.2,0-0.2
		c0,0.3,0-0.1,0-0.1c0-0.1,0-0.2,0-0.2c0,0,0.1-0.4,0-0.2c0.1-0.1,0.1-0.2,0.2-0.3c0.2-0.4,0.6-0.7,1-0.8c0.1,0,0.3-0.1,0.4-0.1
		c0.3-0.1-0.2,0,0.2,0h0.3c0.1,0,0.5,0.1,0.1,0c0.1,0,0.4,0.1,0.4,0.1s-0.5-0.2-0.1,0s-0.5-0.3-0.1,0c-0.3-0.3-0.4-0.3-0.2-0.1
		c-0.2-0.1-0.3-0.3-0.4-0.4l-0.1-0.1c0.1,0.2,0.1,0.1-0.1-0.1s0,0,0,0.1c0-0.2,0,0.1,0,0.1s0,0.2-0.1,0.4c-0.2,0.5-0.4,1-0.7,1.5
		c-0.4,0.9-1.1,1.7-2.1,2.2c-0.2,0.1-0.4,0.1-0.7,0.2c0.3,0-0.2,0-0.2,0c-0.4,0,0.3,0.1-0.1,0c0.2,0.1,0.4,0.2,0.5,0.3l0.3,0.3
		c0.3,0.3,0.4,0.4,0.2,0.2l0.2,0.3l0.1,0.2c0-0.2-0.3-0.3,0,0c-0.1-0.1-0.1-0.5-0.2-0.7v-0.2c0,0,0-0.4,0-0.1c0-0.5,0-1,0-1.4
		c0-1,0.2-1.9,0.5-2.8c0.1-0.2-0.1,0.2,0-0.1l0.2-0.4c0.1-0.2,0.2-0.3,0.4-0.5l0.2-0.2c0,0,0.3-0.2,0.1-0.1c0.2-0.1,0.5-0.2,0.7-0.3
		c0.4-0.1,0.4-0.5,0.4-0.8c-0.1-0.5-0.4-1-0.8-1.4c-0.4-0.5-1-0.9-1.5-1.2c-0.4-0.2-0.9-0.3-1.3-0.2L319.3,173.5z"></path><path class="st0" d="M302.8,126.4c-0.4,2.8-0.5,5.6-0.1,8.3c0.7,3,2.1,5.8,4.2,8.1c1.4,1.7,3.5,2.7,5.7,2.7c2.2,0,4.1-1.4,4.8-3.4
		c1.1-2.8,0.5-5.8,0.9-8.7c0-0.4-0.2-0.8-0.4-1.1c-0.3-0.6-0.6-1.1-1-1.7c-0.1-0.2-1.4-1.7-1.5-1.1c-0.5,3.7,0.8,9.4-3.4,11.3
		c-1.6,0.7-3.5,0.6-5.1-0.3c-0.3-0.2-0.7-0.4-1-0.7l-0.3-0.3l-0.1-0.1l0.3,0.4c0.2,0.2,0,0,0-0.1s0.1,0.3,0,0s0-0.1,0,0l-0.1-0.3
		c-0.2-0.4-0.3-0.8-0.4-1.3c-0.4-2.7-0.4-5.4,0.1-8c0-0.4-0.2-0.8-0.4-1.1c-0.3-0.6-0.6-1.1-1-1.7
		C304.1,127.3,302.9,125.7,302.8,126.4L302.8,126.4z"></path><path class="st0" d="M329.2,144c-2.3,3.1-3,7.1-1.9,10.8c1.1,3.5,3.7,6.4,7.1,7.8c1.2,0.5,2.6,0.3,3.5-0.6c0.6-0.5,0.7-1.4,0.1-2
		c-0.2-0.2-0.4-0.3-0.6-0.4c-2.5-1.1-4.5-3.2-5.3-5.9c-0.9-3-0.3-6.2,1.6-8.7c0.7-1-0.4-2-1.3-2.2C331.3,142.5,330,143,329.2,144
		L329.2,144z"></path><path class="st0" d="M301.2,155.4c-0.3,0.1,0.3-0.1,0.3-0.1c0.2-0.1,0.5-0.1,0.7-0.1c0.5-0.1-0.2,0,0.3,0c0.3,0,0.5,0,0.8,0
		c0.1,0,0.8,0,0.5,0s0.4,0.1,0.5,0.1l0.7,0.1c0.1,0,0.7,0.2,0.5,0.1s0.4,0.1,0.5,0.2l0.7,0.3c0.1,0,0.6,0.4,0.3,0.1
		c0.2,0.1,0.4,0.2,0.6,0.4c0.7,0.4,1.3,1,1.8,1.6c2.3,3,3.2,6.9,2.3,10.7c-0.5,2.4,4.4,3.4,4.9,1.1c1.1-5-0.3-10.2-3.7-14
		c-3.7-3.9-9.3-5.4-14.5-3.9c-0.8,0.3-1.2,1.2-0.9,1.9c0.1,0.2,0.2,0.4,0.3,0.5C298.7,155.5,300,155.8,301.2,155.4L301.2,155.4z"></path></g></svg>