<svg transform="scale(1)" version="1.1" id="b8nS774epC" xmlns="http://www.w3.org/2000/svg" xmlns:xlink="http://www.w3.org/1999/xlink" x="0px" y="0px" viewBox="0 0 500 500" xml:space="preserve" class="pbimage_pbimage__wrapper__image__0LEis false"><title>Being Happy 1</title><style type="text/css"> .st0{fill:#000005;} .st1{fill:#FFFFFF;} .st2{fill:#59BE4C;}
 .st2{fill:#59BE4C;}
 .st1{fill:#FFFFFF;}
 .st0{fill:#000005;}</style><g id="character"><path class="st0" d="M226.8,457.6c0,0,2.1-34.3-1.3-44.1c-1.7-4.9-9.7-9.7-9.7-9.7l0.1,29.8C215.8,433.5,223.6,464.5,226.8,457.6z" fill="#000005"></path><path class="st0" d="M229,458.6c0.4-6.2,0.6-12.4,0.6-18.6c0-5,0-9.9-0.3-14.9c-0.2-3.6-0.4-7.7-1.8-11.1c-1.2-2.8-3.6-5.1-6-7
		c-1.5-1.3-3.1-2.4-4.8-3.5c-0.3-0.2-3.1-1.8-3.1-0.7v27.5c-0.1,0.8-0.1,1.6,0,2.4c0.3,1.4,0.6,2.7,1.1,4.1c1.3,5.1,3,10.2,4.9,15.1
		c0.8,2,1.8,4.3,3.4,5.9c1.3,1.3,4.8,3.6,6,1c0.5-1-4-3.3-4.4-2.4c-0.1,0.3-0.3,0.5-0.4,0.7c-0.1,0.1,0,0-0.1,0.1s-0.2-0.1-0.1,0
		c0.2,0.1,0.4,0.1,0.7,0.1c0.6,0.2,1.3,0.6,1.8,1c-0.2-0.2,0.2,0.2,0.2,0.2l-0.1-0.1c-0.1,0-0.1-0.1,0.1,0.1l-0.2-0.2
		c-0.1-0.1-0.2-0.3-0.3-0.5c-1.1-1.8-2-3.7-2.6-5.6c-1.8-4.6-3.1-9.4-4.5-14.2c-0.4-1.1-0.7-2.3-0.9-3.4c-0.1-0.8-0.1-1.5,0-2.3
		l0-15.2v-12.3l-3.1-0.7c1.1,0.7,2.2,1.5,3.3,2.3c2,1.4,3.7,3.3,4.9,5.5c1.5,3.2,1.6,7.4,1.9,10.8c0.5,9.1,0.5,18.2,0,27.3
		c-0.1,2.2-0.2,4.5-0.3,6.7C224.5,457.7,229,459.6,229,458.6z" fill="#000005"></path><path class="st1" d="M157.3,317.2c-26.3,37.7,46.8,98.9,51,107.6s12.3,24.6,12.4,21.6s0-30-2.9-37.3s-24.3-60.4-24.3-60.4
		L157.3,317.2z" fill="#FFFFFF"></path><path class="st0" d="M155.2,316c-3.3,4.7-5.4,10.2-5.9,16c-0.5,5.7,0.2,11.5,1.8,17c3.6,12.5,10.7,23.8,18.3,34.1
		c7.5,9.9,15.5,19.3,24,28.3c2.9,3.2,6,6.3,8.9,9.5c0.5,0.6,1.1,1.2,1.6,1.8c0.2,0.2,0.4,0.5,0.6,0.7l0.1,0.2l0.2,0.2
		c0.8,1.1,1.5,2.3,2,3.5c1.7,3.6,3.5,7.1,5.3,10.6c1.4,2.9,3,5.6,4.8,8.3c0.5,0.9,1.2,1.6,2,2.1c1.6,0.9,3.9,0.4,4.2-1.6
		c0.1-1.6,0.1-3.3,0-5c-0.1-6.8-0.3-13.5-0.8-20.3c-0.4-4.8-0.8-9.6-2.6-14.1c-3.9-9.7-7.8-19.4-11.7-29.1
		c-3.8-9.4-7.6-18.9-11.4-28.3c-0.2-0.6-0.5-1.3-0.8-1.9c-0.5-0.8-1.2-1.5-1.9-2l-10-8.6l-23.4-20.3l-1.5-1.3c-1-0.9-2.4-1-3.5-0.3
		c-0.8,0.5-1.1,1.6-0.6,2.4c0.1,0.1,0.2,0.3,0.3,0.4l12.3,10.7l19.5,16.9l4.5,3.9L191,349l5.6,14c3.7,9.1,7.3,18.3,11,27.4
		c2.5,6.3,5.1,12.6,7.6,18.9c1.5,4,1.8,8.7,2.1,12.9c0.4,5.3,0.6,10.7,0.7,16c0,1.9,0,3.9,0,5.8c0,0.6,0,1.1,0,1.7
		c0,0.2,0,0.3,0,0.5c0,0.1,0.1-0.4,0.1-0.4l1.5-0.5c0.5-0.6,1.4-0.7,2-0.3c0.2,0.1,0.6,0.4,0.2,0.1c-0.1,0-0.4-0.4-0.1-0.1
		s-0.1-0.2-0.2-0.2c-0.2-0.3-0.5-0.7-0.7-1c-0.6-1-1.2-2-1.8-3c-1.5-2.6-2.9-5.2-4.2-7.9s-2.7-5.4-4-8.1c-0.4-0.8-0.8-1.6-1.3-2.3
		c-1.5-2-3.2-3.9-4.9-5.7c-5.4-5.9-11-11.7-16.3-17.7c-6.7-7.5-13-15.4-18.7-23.7c-5.6-8.2-10.6-17-13.4-26.5
		c-2.5-8.3-3.1-17.1,0.2-25.1c0.8-1.9,1.8-3.7,3-5.5C161,315.9,156.7,313.9,155.2,316z" fill="#000005"></path><path class="st1" d="M206.6,236.8c0,0-60.3,67-61.3,94.8s16.3,59.4,36.4,69.9s52.7-4.8,42.1-38.3S204.7,323,204.7,323
		s23.9-83.3,21.1-83.3S206.6,236.8,206.6,236.8z" fill="#FFFFFF"></path><path class="st0" d="M204.5,235.5c-2.8,3.1-5.4,6.2-8.1,9.3c-6.3,7.5-12.5,15.1-18.5,22.8c-7.1,9.3-14,18.8-20.3,28.7
		c-5.2,8.3-10.4,17.1-13.1,26.6c-1.3,4.6-1.7,9.4-1.3,14.2c0.5,8,2.2,15.9,5,23.4c5.1,14.2,13.8,28,25.9,37.3
		c4.8,3.7,10.2,6.8,16.2,8c5.1,1,10.4,0.9,15.4-0.5c10.2-2.7,18.7-10.4,21.2-20.8c1.4-6.4,1.1-13.1-0.9-19.4
		c-2.3-8-5.2-15.8-8.6-23.3c-2-4.5-4.3-8.9-6.9-13c-1.2-1.9-2.5-3.6-4.1-5.2c-0.3-0.3-0.6-0.6-0.9-0.9l1.1,1.8
		c1.1-3.9,2.2-7.8,3.3-11.7c2.5-8.8,4.9-17.6,7.3-26.5c2.5-9.3,5-18.6,7.3-28c0.9-3.5,1.7-7,2.4-10.6c0.5-2,0.8-4,0.9-6
		c-0.1-1.1-0.8-2.2-1.8-2.7c-1.6-1-3.7-0.9-5.4-1.1c-4.8-0.6-9.6-1.5-14.4-2.3l-1-0.2c-0.9-0.2-1.3,0.3-0.7,1.1c0.7,1,1.8,1.7,3,1.9
		c3.7,0.6,7.4,1.3,11.2,1.9c2.3,0.4,4.7,0.7,7,1c0.3,0,0.6,0.1,1,0.1c0.1,0,0.2,0,0.4,0c-0.5,0.1-1.4-0.6-1.9-0.9
		c-0.6-0.3-1.2-0.8-1.6-1.4c0.1,0.1,0-0.3,0-0.1c0,0.1,0,0.2,0,0.3c-0.1,1.8-0.4,3.7-0.8,5.5c-0.7,3.3-1.4,6.6-2.2,9.9
		c-2.2,9-4.6,18-7,27c-2.4,8.8-4.8,17.6-7.3,26.3c-0.9,3.1-1.7,6.1-2.6,9.2c-0.4,1.5-1,2.9-1.3,4.4l-0.1,0.2c-0.2,0.7,0.6,1.4,1,1.8
		l0.1,0.1c-0.5-0.5-0.4-0.3,0,0s0.4,0.5,0.6,0.7s-0.3-0.4-0.1-0.1l0.2,0.3l0.5,0.6c2,2.6,3.8,5.5,5.3,8.4c3,5.7,5.6,11.7,7.8,17.7
		c2.7,7.3,5.6,14.8,5.7,22.7c0.3,10.8-5.6,20.9-15.2,25.8c-4.4,2.3-9.3,3.5-14.2,3.5c-2.4,0-4.8-0.2-7.2-0.8
		c-2.2-0.5-4.3-1.4-6.3-2.5c-5.4-3-10.2-7.6-14.2-12.5c-9.7-12.2-16-26.6-18.4-42c-0.8-5.6-1.4-11.5-0.2-17.1
		c1.8-8.9,6.6-17.3,11.2-25c5.8-9.7,12.2-19,19.1-28c6.1-8.1,12.5-16.1,19-23.9c3.6-4.3,7.2-8.6,10.9-12.7l0.5-0.6
		C209.5,237.3,205.5,234.4,204.5,235.5z" fill="#000005"></path><path class="st0" d="M356.2,320.7c0,0-34-4.9-44.1-2.3c-5,1.3-10.5,8.9-10.5,8.9l29.7,2.4C331.3,329.6,362.9,324.4,356.2,320.7z" fill="#000005"></path><path class="st0" d="M354.5,319.3c-6.1-0.9-12.2-1.6-18.4-2.1c-4.9-0.5-9.8-0.8-14.7-0.9c-3.7-0.1-7.6-0.2-11.2,0.8
		c-2.8,0.7-5.2,2.8-7.2,4.9c-1.3,1.3-2.5,2.7-3.6,4.2c-0.7,0.9,3.3,2.5,3.9,2.6l27.3,2.2c0.9,0.1,1.8,0.2,2.7,0.1
		c1.2-0.1,2.5-0.4,3.7-0.7c5.2-0.9,10.3-2.1,15.4-3.6c2-0.6,4.4-1.3,6.1-2.6c1.9-1.6-0.6-3.2-2-4c-0.4-0.2-2.2-1.2-2.5-0.6
		s1.6,1.7,1.8,1.8c-0.3-0.2-0.6-0.4-0.8-0.6c0,0-0.2-0.2-0.1-0.2s0.1,0.2,0,0.4c-0.3,0.4-0.7,0.8-1.1,1c-1.8,1-3.7,1.7-5.7,2.2
		c-4.9,1.4-9.8,2.5-14.8,3.4c-1.3,0.2-2.5,0.4-3.8,0.7c-0.4,0.1,0.4,0.1-0.2,0s-1.1-0.1-1.7-0.1l-15.2-1.2l-12.5-1l3.9,2.6
		c2.3-3.2,5.4-6.6,9-8.3c3.3-1.5,7.5-1.2,11-1.2c9.2,0.2,18.3,1,27.4,2.2c2.2,0.3,4.5,0.5,6.7,0.9c1.1,0.2-0.1-1.1-0.3-1.3
		C356.8,320,355.7,319.5,354.5,319.3z" fill="#000005"></path><path class="st1" d="M214.2,255.1c0,0-29.1,102.3-3.6,123.4c35.5,29.3,102.4-38.6,111.4-42s25.6-10.3,22.6-10.6s-29.9-2.5-37.4-0.2
		S245,344.9,245,344.9s8.7-79.1,7.6-81.4S214.2,255.1,214.2,255.1z" fill="#FFFFFF"></path><path class="st0" d="M212.3,254c-1.9,6.8-3.6,13.6-5.1,20.5c-3.4,14.6-6,29.5-7.7,44.4c-0.9,7.9-1.4,15.9-1.3,23.8
		c-0.1,7,0.7,13.9,2.2,20.7c1.4,5.6,3.7,11.2,7.8,15.4c4.6,4.8,11.3,7.8,17.8,8.8c15.1,2.4,30.4-4,43.4-11.1
		c13.7-7.5,26.2-16.8,38.4-26.4c4-3.2,8-6.4,12.1-9.5l-0.1,0.1l0.3-0.2l0.4-0.3l1-0.6c0.5-0.3,0.9-0.6,1.4-0.8
		c4.1-1.8,8.4-3.2,12.5-5c3.3-1.4,7-2.7,10-4.8c1.4-0.7,1.9-2.5,1.2-3.9c-0.1-0.2-0.2-0.4-0.3-0.5c-0.8-1.1-1.8-1.1-3-1.2
		c-7.6-0.7-15.2-1.1-22.8-1.2c-3.8-0.1-7.7,0.1-11.5,0.5c-2,0.4-3.9,0.9-5.8,1.5c-5.9,1.8-11.9,3.7-17.8,5.5l-38.9,12.1l-2.5,0.8
		l3,3.3c0.6-5.4,1.2-10.8,1.7-16.2c1.2-11.1,2.3-22.2,3.4-33.4c0.9-9.3,1.9-18.6,2.4-27.9c0.1-2.2,0.6-5.2-1.1-6.8
		c-1.1-0.9-2.5-1.5-3.9-1.8c-2.1-0.6-4.3-1.1-6.4-1.6c-9.4-2.1-18.8-3.8-28.3-5.4l-0.6-0.1c-2.8-0.5-2.1,4.3,0.2,4.7
		c8.2,1.4,16.3,2.8,24.4,4.5c2.5,0.5,5,1.1,7.5,1.7c1,0.2,2,0.5,2.9,0.8l1.1,0.3l0.6,0.2c0.4,0.1,0.3,0.1,0.1,0l0.7,0.3
		c0.1,0,0.2,0.1,0.3,0.2s-0.5-0.4-0.3-0.2s0.2,0.2-0.1-0.1c-0.3-0.4-0.6-0.8-0.7-1.3c0,0,0,0.1,0,0.1c-0.1-0.5,0-0.7,0-0.2
		c0,0.9,0,1.8,0,2.7c-0.1,1.5-0.2,3-0.3,4.5c0,0.2,0,0.5-0.1,0.7c0-0.5,0,0.1,0,0.2c0,0.5-0.1,1-0.1,1.5l-0.3,3.3
		c-0.4,5-0.9,10.1-1.4,15.1c-1.1,11-2.2,22.1-3.4,33.1c-0.7,6.3-1.4,12.6-2,18.9v0.3c-0.2,1.7,1.1,3.9,3,3.3l35.1-10.9
		c7.2-2.2,14.5-4.5,21.7-6.7l3.3-1l1.2-0.4l0.5-0.1l0.2-0.1c0.5-0.1-0.2,0,0.2,0c3.8-0.9,7.9-0.9,11.8-0.9c5.3,0,10.6,0.2,16,0.5
		l3.4,0.2l1.5,0.1l1,0.1l2,0.2c0.2,0,0.4,0.1,0.6,0.1c0.1,0,0.1,0,0.2,0h0.1c-0.5-0.1-0.9-0.4-1.2-0.9l-0.6-1.2
		c0.1,0.3,0-1.9,0.3-1.8c-0.1,0.1-0.2,0.2-0.3,0.2l0,0c-0.2,0.1-0.4,0.2-0.6,0.4c-1,0.6-2,1.1-3.1,1.6c-2.9,1.4-5.9,2.6-8.9,3.9
		s-6.1,2.5-9.2,3.6c-0.8,0.3-1.5,0.7-2.2,1.2c-6,3.9-11.4,8.8-17,13.1c-8.4,6.7-17.2,13-26.3,18.7c-9.6,5.9-19.8,11.3-30.7,14.3
		c-4.8,1.3-9.7,2-14.6,1.9c-4.6-0.1-9.1-1.1-13.2-3.1c-2.1-1-4-2.3-5.8-3.7c-0.3-0.3-0.6-0.5-0.9-0.8c-0.1-0.1-0.3-0.3-0.4-0.4
		c-0.4-0.4,0.1,0.2-0.1-0.1c-0.6-0.7-1.1-1.3-1.6-2c-0.1-0.2-0.2-0.4-0.4-0.6s-0.4-0.6-0.2-0.3s-0.2-0.3-0.2-0.4s-0.2-0.5-0.4-0.7
		c-0.4-0.8-0.8-1.7-1.2-2.5c-0.2-0.4-0.3-0.9-0.5-1.3c-0.2-0.7,0.1,0.1-0.1-0.3s-0.2-0.5-0.3-0.8c-0.3-1-0.6-2-0.8-2.9
		c-1.1-4.4-1.7-8.9-1.9-13.5c-0.3-5.3-0.3-10.6,0-15.9c0.6-11.2,2-22.3,3.9-33.3c1.6-9.6,3.6-19.1,5.9-28.6
		c1.2-5.1,2.5-10.2,3.9-15.2c0.1-0.2,0.1-0.5,0.2-0.7C216.8,253.8,213.2,251.1,212.3,254z" fill="#000005"></path><path class="st1" d="M206.9,230.9c0,0-29.2,125.4-1.9,157.5s84.6-1,86.5-20.4s-5.2-45.7-36.1-38.9c0,0,26.4-76.8,4-106
		S206.9,230.9,206.9,230.9z" fill="#FFFFFF"></path><path class="st0" d="M204.5,230.1c-0.9,3.7-1.6,7.4-2.4,11.1c-1.9,9.3-3.6,18.7-5.1,28.1c-2,12.3-3.6,24.6-4.7,37
		c-1.2,12.7-1.7,25.5-1.2,38.3c0.4,10.7,1.5,21.8,5.2,31.9c1.4,4,3.5,7.8,6.1,11.2c4.5,5.5,10.4,9.6,17.1,12.1
		c12.9,5,27.3,3.5,40.1-1.2c11.1-4.1,22.4-10.7,29.7-20.2c1.4-1.8,2.6-3.7,3.5-5.7c0.8-2,1.2-4.1,1.2-6.2c0.4-5.9-0.1-11.8-1.6-17.5
		c-1.4-5.7-4.4-10.8-8.6-14.9c-5-4.6-11.9-6.9-18.6-7.3c-3.9-0.1-7.9,0.2-11.7,1.1l4.2,2c2.1-6.2,3.9-12.6,5.5-19
		c3.6-13.5,6-27.4,7.1-41.3c0.6-7.2,0.5-14.5-0.2-21.6c-0.6-6.5-2.3-12.8-5-18.7c-3.3-6.9-8.9-12.5-15.8-15.9
		c-6.4-3-13.7-3.3-20.4-1.1c-9.4,3.1-17.6,9.9-24,17.3C204.8,229.8,204.7,230,204.5,230.1c-0.4,0.7,3.8,2.9,4.8,1.8
		c5.3-6.4,11.8-11.6,19.1-15.4c2.7-1.4,5.6-2.4,8.5-2.9c1.5-0.3,3-0.4,4.5-0.4c1.4,0,2.7,0.2,4,0.6c1.2,0.3,2.4,0.8,3.5,1.4
		c1.6,0.9,3.1,2.1,4.4,3.3c2.5,2.4,4.7,5.2,6.4,8.2c6.3,11.6,6.8,25.8,6,38.7c-0.9,13.8-3.1,27.4-6.5,40.8
		c-1.2,4.9-2.5,9.7-3.9,14.5c-0.7,2.4-1.6,4.8-2.2,7.2c0,0.1-0.1,0.2-0.1,0.3c-0.2,0.6,1.1,1.2,1.4,1.4c0.8,0.5,1.8,0.7,2.8,0.6
		c3.7-0.9,7.6-1.2,11.5-1c1.4,0.1,2.8,0.4,4.2,0.7c1,0.3,2,0.7,3,1.2c4.7,2.4,8,7,10.1,11.8c2.2,5.3,3.3,11,3.4,16.7
		c0.1,4.6,0,9.2-2.3,13.3c-2.5,4.3-5.9,8-9.8,11c-4.8,3.9-10,7.1-15.5,9.7c-11.2,5.3-24.9,8.7-37.1,5.9c-2.8-0.6-5.4-1.6-7.9-2.9
		c-2.8-1.5-5.4-3.5-7.7-5.8c-3.1-3.1-5.5-6.8-7.2-10.9c-3.9-9.3-5.3-19.7-5.9-29.7c-0.7-12.3-0.5-24.6,0.6-36.8
		c0.9-12.3,2.4-24.5,4.2-36.7c1.5-9.9,3.2-19.7,5.1-29.4c1-5,2-10,3.1-15l0.1-0.7C209.5,230.5,204.8,229,204.5,230.1z" fill="#000005"></path><path class="st1" d="M153.7,86.2c0,0-10.8-31.3-4.7-35.8c2.5-1.8,7.9,13.4,7.9,13.4s-5.1-18.7-1.9-21s8.1,17,8.1,17
		s-1.4-18.5,1.9-18.3s7.5,21.8,7.5,21.8s5.1-8.7,9.4-8.6c8.8,0.2-3.8,24.8-3.8,24.8s8.1,41.4,12.6,53.3s40.5,29.1,40.5,29.1
		s-11.4,38.2-22.8,38.2S154.9,162.2,153.7,86.2z" fill="#FFFFFF"></path><path class="st0" d="M155.5,87.4c-2.2-6.2-3.9-12.6-5.2-19.1c-0.8-4-1.6-8.3-1.1-12.4c0.1-1.3,0.6-2.6,1.4-3.6
		c0.1-0.1,0.4-0.2,0.4-0.3s0.2,0.2,0.1,0s-0.7-0.5-0.9-0.6s-0.6-0.6-0.4-0.3s-0.1-0.2-0.1-0.2s0.3,0.3,0.2,0.2
		c0.3,0.4,0.5,0.8,0.8,1.2c1.8,3.2,3.3,6.6,4.4,10.1c0.5,1,1.3,1.9,2.3,2.5c0.4,0.3,1.5,1,1.3,0c0.2,0.6,0-0.1-0.1-0.3
		c-0.1-0.4-0.2-0.9-0.3-1.3c-0.4-1.5-0.7-2.9-1-4.4c-0.8-3.5-1.3-7-1.4-10.6c-0.1-1.2,0.1-2.4,0.6-3.5c0.2-0.3,0.5-0.4,0.8-0.6
		s0.2,0.1-0.1-0.1c-0.3-0.2-0.6-0.4-0.9-0.7c-0.1-0.1-0.8-0.7-0.4-0.4s-0.2-0.3,0.1,0.1l0.2,0.3c0.2,0.3,0.3,0.5,0.4,0.8
		c0.4,0.7,0.7,1.4,1,2.2c0.7,1.6,1.2,3.2,1.8,4.9c0.7,2.3,1.4,4.5,2,6.8c0.4,1,1,1.8,1.9,2.4c0.2,0.1,1.9,1.3,1.8,0.6
		c-0.2-2.2-0.2-4.5-0.3-6.7c0-3.2-0.2-6.9,0.8-9.9c0.1-0.4,0.3-0.8,0.6-1.2c0.1-0.1,0.2-0.2,0.3-0.3c0.2-0.2,0.5,0.2,0-0.2
		c-0.6-0.4-1.2-0.9-1.7-1.5c0.1,0.2,0.2,0.4,0.4,0.6c0.2,0.3,0.6,1.2,0.8,1.8c1.3,3.4,2.4,6.9,3.1,10.5c0.6,2.4,1.1,4.8,1.6,7.2
		c0.1,0.6,3.2,4.1,3.7,3.2c1.1-1.9,2.5-3.7,3.9-5.3c1-1.2,2.3-2.2,3.8-3c0.5-0.2,1.1-0.3,1.7-0.3h0.4c0.1,0,0.2,0.1,0.3,0.1
		s-0.1-0.2,0,0c-0.3-0.4-1-0.7-1.3-1.1c-0.1-0.2-0.2-0.3-0.4-0.5c0.2,0.2,0-0.1,0,0c0,0.1,0.1,0.2,0.1,0.2c0.1,0.4,0.2,0.7,0.2,1.1
		c0.1,1,0.1,2.1-0.1,3.1c-0.4,2.6-1.1,5.1-2.1,7.6c-0.9,2.4-1.8,4.7-2.9,7c-0.7,1.2-1.2,2.4-1.7,3.6c-0.1,0.6,0,1.2,0.2,1.7
		c0.3,1.7,0.7,3.4,1,5.2c2.5,12.3,5.1,24.6,8.3,36.7c1.2,4.5,2.1,9.6,4.8,13.4c3.6,5.1,8.8,9.2,13.9,12.8c8.6,6,17.7,11.2,27.1,15.7
		l0.5,0.2l-2.8-3.3c-2.6,8.8-6,17.3-10.2,25.4c-1.3,2.6-2.9,5.1-4.7,7.4c-1.3,1.9-3.1,3.4-5.1,4.6c-1.2,0.6-2.6,0.8-4,0.6h-0.1
		l-0.4-0.1c-0.3-0.1-0.6-0.2-0.8-0.2l-0.8-0.3l-0.4-0.2l-0.2-0.1c-0.6-0.3-1.3-0.6-1.9-1l-0.5-0.3c-0.1-0.1-0.6-0.4-0.3-0.2
		s-0.3-0.2-0.3-0.2s-0.4-0.2-0.6-0.4c-0.4-0.2-0.7-0.5-1.1-0.7l-0.5-0.4l-0.2-0.2c-0.4-0.3,0.4,0.3,0,0c-0.8-0.6-1.6-1.2-2.3-1.9
		l-0.6-0.5c0.6,0.5-0.1-0.1-0.2-0.2l-1.3-1.2l-1.2-1.2l-0.5-0.5c0.5,0.5-0.2-0.2-0.4-0.4c-0.9-0.9-1.7-1.8-2.6-2.8
		c-1-1.1-1.4-1.5-2.4-2.8c-8.2-10.3-14.7-21.9-19.4-34.2c-6.4-16.9-10.1-34.7-10.9-52.8c-0.1-2.6-0.2-5.2-0.3-7.7
		c0-0.9-1.3-1.9-1.9-2.4c-0.2-0.2-1.8-1.4-1.8-0.6c0.2,19.2,3.4,38.2,9.6,56.4c4.6,13.6,11.4,26.3,20,37.8
		c5.9,7.7,12.9,15.3,21.3,20.3c2.1,1.3,4.7,2.6,7.2,2.7c4.5,0.2,8-4.7,10.2-8c3.4-5.4,6.3-11.2,8.5-17.2c1.6-4.1,3.1-8.2,4.4-12.3
		c0.1-0.2,0.1-0.4,0.2-0.6c0.3-1.1-2-2.9-2.8-3.3c-8.1-3.8-16-8.3-23.5-13.2c-2.6-1.7-5.2-3.6-7.7-5.6c-1.3-1-1.8-1.5-3-2.6
		l-0.3-0.3l-0.1-0.1l-0.6-0.6c-0.1-0.1-0.7-0.8-0.4-0.4c-0.2-0.3-0.4-0.5-0.6-0.8c-0.5-0.7-1-1.5-1.4-2.3c-0.4-0.9-0.7-1.9-1-2.8
		c-0.8-2.5-1.5-5-2.2-7.5c-3.2-12.2-5.8-24.6-8.3-37c-0.3-1.7-0.7-3.3-1-5c-0.1-0.3-0.2-0.7-0.2-1c0-0.2-0.1-0.1-0.1,0.1
		c0-0.1,0.1-0.2,0.1-0.3c2-3.7,3.6-7.6,4.9-11.6c1.3-4,3.4-9.5,0.4-13.2c-1.7-2.2-4.3-4-7.1-2.7s-4.9,4.1-6.6,6.5
		c-0.4,0.6-0.8,1.2-1.1,1.7l3.7,3.2c-1.2-6.2-2.6-12.7-5-18.6c-0.6-1.6-1.5-3-2.6-4.3c-0.8-0.8-2.8-3-4.1-2
		c-0.9,0.7-1.1,2.3-1.3,3.3c-0.3,1.9-0.4,3.8-0.4,5.7c-0.1,3.1,0,6.2,0.3,9.3l3.7,3c-0.6-2.3-1.3-4.6-2-6.9
		c-1.1-3.5-2.3-7.2-4.5-10.1c-0.9-1.2-2.7-3.4-4.4-3.4c-1.1,0-1.5,1-1.7,1.9c-0.9,3.5,0.1,7.6,0.8,11c0.6,3,1.2,5.9,2,8.8l3.6,2.5
		c-1.2-3.4-2.6-6.8-4.3-10c-1.1-2.1-5.9-9.5-8.2-5.1c-1.8,3.3-0.9,8.1-0.4,11.6c0.8,5,2,9.9,3.4,14.8c0.8,2.9,1.7,5.8,2.7,8.7
		c0.5,1,1.3,1.9,2.3,2.5C154.6,87.7,155.8,88.4,155.5,87.4z" fill="#000005"></path><path class="st0" d="M169.7,60.7l-0.5,0.2l-0.3,0.1c0.2-0.1,0.2-0.1,0,0c-0.5,0.2-0.9,0.3-1.4,0.5c-0.7,0.3-1.4,0.7-2.1,1.1
		c-1.1,0.7-2.1,1.7-2.9,2.8c-0.6,0.8-1,1.7-1.3,2.7c-0.2,0.5-0.3,1.1-0.5,1.6c-0.1,0.5,0,1,0.4,1.5c0.4,0.5,0.9,1,1.4,1.3
		c0.5,0.3,1.1,0.4,1.6,0.3c0.4-0.1,0.8-0.4,0.9-0.9c0.4-0.9,0.5-1.8,0.9-2.7l-0.2,0.4c0.5-1,1.2-2,2-2.7l-0.3,0.3
		c0.8-0.7,1.6-1.3,2.5-1.7c0.2-0.1,0.4-0.2,0.7-0.3c0.5-0.2-0.4,0.1,0.1-0.1l0.4-0.2c0.6-0.2,1.2-0.4,1.8-0.7
		c0.4-0.2,0.6-0.7,0.5-1.2c-0.1-0.6-0.4-1.1-0.8-1.5C172.1,60.7,170.8,60.3,169.7,60.7L169.7,60.7z" fill="#000005"></path><path class="st0" d="M192.8,245.3c0,0,19.5-96.2,46.2-91.3s31,91.9,31,91.9S226.3,258.7,192.8,245.3z" fill="#000005"></path><path class="st0" d="M195.3,245.5c0.6-2.9,1.2-5.8,1.9-8.6c1.6-7,3.4-13.8,5.4-20.5c2.5-8.6,5.3-17.2,8.5-25.6
		c2.9-8,6.7-15.7,11.2-22.9l0.3-0.5l0.2-0.3c0,0-0.1,0.2,0,0l0.8-1.1c0.5-0.7,1.1-1.4,1.6-2.1c1-1.3,2.1-2.5,3.2-3.6
		c0.3-0.3,0.6-0.5,0.9-0.8l0.4-0.3c0.2-0.2-0.2,0.2,0.2-0.1s1.1-0.9,1.7-1.2s1.1-0.7,1.7-1c0,0-0.4,0.2,0,0l0.4-0.2
		c0.3-0.1,0.6-0.2,0.9-0.3l0.8-0.2c0.4-0.1-0.5,0.1,0,0l0.5-0.1c0.3,0,0.6-0.1,0.9-0.1h0.5c0,0-0.6,0-0.1,0c0.3,0,0.6,0,0.9,0.1
		s1.2,0.2,0.4,0c0.7,0.2,1.3,0.4,2,0.6l0.4,0.2c0.4,0.2-0.4-0.2,0,0c0.3,0.2,0.6,0.3,0.9,0.5c0.3,0.2,0.6,0.4,0.9,0.6l0.4,0.3
		l0.3,0.2c0.3,0.2-0.3-0.3-0.1-0.1c1.2,0.9,2.3,2,3.3,3.1l0.4,0.5c0.1,0.1,0.4,0.6,0.2,0.2c0.3,0.3,0.5,0.7,0.8,1
		c0.5,0.7,1,1.4,1.5,2.2c1,1.6,1.9,3.2,2.7,4.9c1.8,3.7,3.3,7.4,4.5,11.3c2.8,8.7,4.9,17.6,6.4,26.6c1.4,8,2.5,16.1,3.3,24.2
		c0.3,2.9,0.5,5.7,0.8,8.6l0.1,0.8v0.4c0,0.4,0,0.1,0,0l0.1,1.3l0.1,1.9v0.6l1.4-1.6c-1.5,0.4-3,0.8-4.5,1.1l-1.1,0.2
		c-0.1,0,0.4-0.1-0.1,0l-0.8,0.2c-0.9,0.2-1.9,0.4-2.8,0.6c-2.3,0.5-4.5,0.9-6.8,1.2c-12.1,2-24.5,2.5-36.7,1.4
		c-7.7-0.7-15.3-2.5-22.6-5.3c-1.2-0.5-2.5,0-3.2,1.1c-0.6,1.2,0.5,2.2,1.5,2.6c13.2,5.2,27.6,6.6,41.7,6.2
		c10.6-0.4,21.2-1.7,31.6-4.1c2-0.4,3.9-0.9,5.9-1.5c0.6-0.2,1.4-0.8,1.4-1.6c-0.2-3.4-0.4-6.7-0.7-10c-0.7-7.7-1.6-15.3-2.7-22.9
		c-1.3-9.2-3.3-18.4-5.8-27.4c-2.3-8-5.1-16.2-9.8-23.2c-3.6-5.4-9-10.5-15.9-10.8c-6.5-0.2-11.9,3.9-15.9,8.7
		c-5.2,6.3-9,13.8-12.3,21.2c-3.7,8.6-6.9,17.3-9.6,26.2c-2.4,7.8-4.6,15.7-6.6,23.7c-1,4.2-2,8.5-2.9,12.7l-0.1,0.6
		C189.8,247.6,194.8,248.1,195.3,245.5z" fill="#000005"></path><path class="st0" d="M258.7,123.8c2.2,2,4.7,3.7,7.3,5c4.1,2,10,3,13.1-1.2c1.4-2.2,2-4.9,1.7-7.5c-0.1-2-1-3.9-2.6-5.1
		c-3.1-2.4-8.3-1.6-10.8,1.3c-3.1,3.7,0.6,8.1,3.4,10.5c4.4,3.6,9.9,5.6,15.6,5.9c3.7,0.1,10.6-0.6,11-5.5c0.4-4.4-3.8-7.2-7.8-7.5
		s-9,1.2-11.3,4.7c-2.6,4.2,1.4,7.8,4.9,9.6c1.7,0.9,3.6,1.7,5.4,2.3c1.2,0.3,2.5,0.1,3.5-0.7c0.5-0.3,0.7-0.9,0.4-1.4
		c-0.2-0.3-0.5-0.5-0.8-0.5c-2.7-0.8-5.2-2.1-7.5-3.8c-1.2-0.9-1.9-2.2-1.9-3.6c0.1-1,0.6-1.8,1.4-2.4l0.4-0.3
		c0.5-0.3-0.4,0.2,0.1-0.1c0.2-0.2,0.5-0.3,0.8-0.4c0.5-0.3-0.5,0.2,0.1-0.1l0.5-0.2c0.2-0.1,0.4-0.1,0.5-0.2c-0.7,0.2,0.1,0,0.2,0
		l0.5-0.1c-0.7,0.1-0.1,0,0.1,0h0.6c0.6,0-0.5-0.1,0.1,0c0.6,0,1.2,0.1,1.7,0.4c0.5,0.2-0.3-0.2,0.2,0.1l0.5,0.2
		c0.2,0.1,0.5,0.3,0.7,0.5c0.5,0.5,0.9,1.1,1.2,1.8c0.6,1.1,0.6,2.4,0,3.5c-0.3,0.4,0.3-0.3-0.1,0.1c-0.1,0.1-0.2,0.2-0.4,0.3
		c0.4-0.3,0,0-0.1,0c-0.6,0.2,0.5-0.2-0.1,0l-0.5,0.2c0.6-0.2,0,0-0.1,0l-0.6,0.1c-0.6,0.1,0.3,0-0.2,0c-1.9,0.1-3.9,0-5.7-0.5
		c-2.2-0.5-4.3-1.4-6.3-2.5c-2.7-1.6-7.2-4.9-6.7-8.3c0-0.5,0.2-0.9,0.5-1.3c0-0.1,0.1-0.2,0.2-0.2c0.3-0.4-0.3,0.3,0.1,0
		c0.1-0.1,0.2-0.2,0.3-0.3c-0.5,0.4,0,0,0.1-0.1c0.5-0.2-0.5,0.1,0,0c0.2,0,0.7-0.1-0.1,0c0.1,0,0.3-0.1,0.4-0.1
		c0.5-0.1-0.6,0.1-0.1,0s-0.4-0.1,0.3,0c0.1,0,0.6,0.1,0,0l0.6,0.2c0.5,0.2-0.3-0.2,0.1,0.1c0.1,0.1,0.3,0.2,0.4,0.2
		c0.2,0.1,0.4,0.3,0.5,0.4c0.4,0.5,0.8,1,1,1.6c0.6,1.9,0.7,4,0.1,5.9c-0.2,0.9-0.6,1.7-1.2,2.4c-0.1,0.1-0.3,0.3-0.4,0.4
		c0.5-0.4-0.6,0.5,0.1-0.1c-0.1,0.1-0.8,0.2,0,0c-0.3,0.1-0.4,0,0,0h-0.5c0.6,0-0.2,0-0.3,0s-0.7-0.1-0.2,0
		c-0.3-0.1-0.5-0.1-0.8-0.2c-0.8-0.2-1.6-0.6-2.3-0.9c-1.6-0.8-3.2-1.8-4.7-2.9c-0.5-0.4-1-0.8-1.5-1.1c-0.2-0.1-0.9-0.8-0.3-0.3
		c-0.9-0.7-2.2-0.8-3.2-0.3C259.6,122,257.9,123,258.7,123.8L258.7,123.8z" fill="#000005"></path><path class="st1" d="M267.9,141.4c7.4-29.2-10.4-39.7-23.6-42.4s-22.6,1.3-25.8,6.5c-2.4,3.9,4.5,29.5,4.5,29.5l20.3,23.4
		C243.3,158.4,262.3,163.7,267.9,141.4z" fill="#FFFFFF"></path><path class="st0" d="M270.3,141.6c2.2-8.8,2.9-18.5-1.1-26.9c-3-6-7.9-10.7-13.9-13.6c-7.5-3.7-16-5-24.3-3.8
		c-4.4,0.7-8.8,2.1-12.3,5c-1.2,0.9-2.1,2.1-2.8,3.4c-0.3,0.9-0.5,1.9-0.4,2.9c0.1,3.1,0.4,6.1,1,9.1c0.6,3.5,1.4,6.9,2.1,10.3
		c0.5,2.2,1.1,4.5,1.6,6.7c0.2,0.8,0.7,1.6,1.4,2.1l11.4,13.1l5.7,6.6c0.9,1,2,2.8,3.4,3.2c3.4,0.8,6.9,0.9,10.3,0.2
		c6.8-1.2,12.5-5.6,15.5-11.8C269,146,269.8,143.8,270.3,141.6c0.5-2-4.4-1.9-4.9-0.3c-1.5,5.9-4.4,11.8-10.1,14.8
		c0.3-0.2-0.4,0.2-0.5,0.2c-0.2,0.1-0.5,0.2-0.8,0.3l-0.8,0.3L253,157c0.3-0.1,0.1,0-0.1,0c-0.5,0.1-0.9,0.2-1.4,0.3l-0.7,0.1
		c0.7-0.1-0.2,0-0.4,0l-1.3,0.1h-0.6c0.2,0,0.3,0-0.2,0c-0.8,0-1.5-0.1-2.2-0.1c-0.4,0-0.3-0.1,0.1,0l-0.5-0.1l-0.7-0.1
		c-0.2,0-0.4-0.1-0.6-0.1l1.2,0.7L231,141l-3.8-4.4c-0.5-0.7-1.1-1.4-1.8-2c-0.2-0.1,0.1,0.5,0.1,0.2s-0.1-0.3-0.1-0.4
		c-0.1-0.5-0.3-1.1-0.4-1.6c-0.5-1.9-1-3.9-1.4-5.9c-1.2-5-2.2-10-2.8-15.1c-0.3-1.7-0.3-3.5-0.1-5.2c0.4-1.8,2.2-3.1,3.6-4.1
		c5.7-3.7,13.3-3.4,19.6-2c4.1,0.9,8,2.5,11.5,4.8c4.1,2.7,7.3,6.5,9.3,11c2.6,5.9,2.9,12.6,2,18.9c-0.3,2.1-0.7,4.1-1.2,6.1
		C265,143.3,269.9,143.2,270.3,141.6z" fill="#000005"></path><path class="st1" d="M208.6,145.9c-6.9-10.5,10-35.3,10-35.3c4.9,0,13.7-3,13.7-3c-5.2,14.1,11.1,21.3,11.1,21.3
		c4.9-7.2,13.6-2.7,11.6,4.9s-9.5,7.1-9.5,7.1s0.3,19.7-1,22.6c0,0-14.1,6.4-19.9-6.1C224.7,157.3,213.3,153,208.6,145.9z" fill="#FFFFFF"></path><path class="st0" d="M210.5,145.6c-0.5-0.8-0.9-1.8-1.1-2.7c-0.2-1.3-0.3-2.7-0.2-4.1c0.3-3,1-5.9,2.1-8.7
		c1.9-5.2,4.4-10.2,7.3-14.9c0.6-1,1.3-2.1,2-3.1l-0.8,0.4c4.8-0.1,9.7-1.6,14.1-3.2l-3.7-3.1c-1.8,4.9-1.2,10.4,1.8,14.8
		c2.3,3.4,5.4,6.2,9,8.3c0.9,0.5,1.7,1,2.6,1.4c0.6,0.3,1.3,0.2,1.8-0.3c1.5-2.1,4-4,6.4-2.9c-0.5-0.2,0.7,0.4,0.1,0.1l0.4,0.3
		c-0.2-0.2-0.2-0.2,0,0c0.3,0.3,0.5,0.6,0.6,0.9c0.4,1.3,0.4,2.7,0,4c-0.7,2.5-2.5,4.5-4.9,5.4c-0.7,0.3-1.5,0.4-2.3,0.5h-0.8
		c0.7,0,0.3,0,0.1,0c-0.8-0.1-1.6,0.3-1.5,1.2c0.1,3.4,0,6.7,0,10.1c0,2.5-0.1,5-0.3,7.5c0,1.6-0.2,3.1-0.7,4.6l0.6-0.6
		c-1.1,0.5-2.2,0.9-3.4,1.1c-2.4,0.6-4.9,0.6-7.4-0.1c-1.3-0.4-2.5-1.1-3.4-2.1c0.1,0.1-0.4-0.5-0.5-0.6c-0.2-0.3-0.5-0.6-0.6-0.9
		c-0.8-1.2-1.2-2.6-2.4-3.3c-0.6-0.3-1.3-0.6-1.9-0.8c-0.1,0-1-0.4-0.4-0.2l-0.8-0.4c-0.7-0.4-1.4-0.7-2.1-1.1
		C216.4,151.3,212.8,149,210.5,145.6c-0.6-1-1.7-2-2.9-1.8s-1.3,1.4-0.7,2.2c4.1,6.2,11.2,10.4,18,13.1l-1.9-1.6
		c2.1,4.7,6.3,8.1,11.4,9.2c3.3,0.6,6.8,0.3,10-0.8c0.7-0.1,1.3-0.4,1.9-0.7c0.9-0.6,1-2.2,1.1-3.2c0.4-4,0.6-8,0.6-12
		c0-2.8,0-5.7,0-8.5l-1.5,1.2c3.8,0.3,7.5-1.5,9.6-4.6c1.7-2.6,2.2-5.9,1.2-8.9c-1.2-3-3.7-5.2-6.9-5.9c-3.4-0.7-6.6,1.1-8.6,3.9
		l1.8-0.3c1.1,0.5,0.1,0-0.2-0.1c-0.6-0.3-1.1-0.6-1.6-0.9c-0.4-0.2-0.8-0.5-1.1-0.7c0.6,0.4-0.5-0.4-0.7-0.5
		c-0.4-0.3-0.9-0.7-1.3-1.1l-0.6-0.6l-0.3-0.3c0.2,0.2,0.2,0.2,0.1,0.1c-1.6-1.6-2.8-3.5-3.5-5.6c-0.8-2.8-0.6-5.8,0.4-8.4
		c0.7-1.8-2.2-3.6-3.7-3.1c-3.6,1.3-7.2,2.2-10.9,2.7c-1.2,0.2-2.6-0.1-3.4,1c-0.5,0.8-1,1.6-1.5,2.4c-4.1,6.7-7.9,14-9.5,21.7
		c-0.9,4.2-1,8.9,1.4,12.7c0.6,0.9,1.8,2,3,1.8S211,146.5,210.5,145.6z" fill="#000005"></path><path class="st0" d="M233.8,139.2c0.1,0.6,0.1,1.2,0,1.8v-0.2c0,1.1-0.4,2.2-0.9,3.2l0.2-0.3c-0.1,0.1-0.1,0.2-0.2,0.3
		s-0.4,0.3-0.1,0.1s0.1-0.1,0,0c-0.3,0.2,0.5-0.3,0.3-0.2s0.4-0.2,0.4-0.2c-0.4,0.2,0.7-0.3,0.4-0.2s0.8-0.2,0.4-0.1
		c-0.2,0,0.8-0.1,0.4-0.1s0.6,0,0.3,0c-0.1,0-0.1,0-0.2,0h0.2h-0.2c-0.2,0-0.3-0.1-0.5-0.1l0.3,0.1c-0.4-0.1-0.8-0.3-1.2-0.5
		c-0.4-0.1-0.8-0.1-1.2,0c-0.6,0.1-1.3,0.3-1.8,0.6c-0.5,0.2-0.9,0.5-1.3,0.8c-0.1,0.2-0.4,0.5-0.1,0.6c1.2,0.6,2.5,0.8,3.9,0.6
		c1.3-0.2,2.5-0.7,3.6-1.4c0.4-0.3,0.8-0.6,1.1-1.1c0.8-1.3,1.2-2.8,1.1-4.3c0-0.4,0-0.7,0-1.1s-0.8-0.2-0.9-0.2
		c-1.2,0.1-2.3,0.5-3.3,1.2c-0.2,0.2-0.6,0.4-0.5,0.7L233.8,139.2z" fill="#000005"></path><path class="st1" d="M220.8,126.3c-3.1,1.6-6.4,2.7-9.9,3.4c-11.6,2.3-12.8,6.4-9.1,8.6s19.4-0.1,19.4-0.1" fill="#FFFFFF"></path><path class="st0" d="M219.3,124.7c-0.2,0.1-0.5,0.3-0.8,0.4c-0.5,0.2,0.4-0.2,0,0l-0.5,0.2c-0.5,0.2-1,0.4-1.4,0.6
		c-2.7,0.9-5.4,1.7-8.2,2.2c-2.5,0.5-4.9,1.4-7.2,2.6c-1.4,0.7-2.6,1.9-3.4,3.3c-1.4,3,1.1,5.8,3.9,6.6c3.6,1,7.7,0.7,11.4,0.5
		c2.8-0.2,5.5-0.5,8.2-0.9c1.2-0.2,2.4-1,2.3-2.3c-0.2-1.3-1.4-2.1-2.7-1.9c-2,0.3-4,0.5-6,0.7c-1.8,0.2-3.6,0.3-5.4,0.3h-1.3h-0.9
		c-0.8,0-1.6-0.1-2.4-0.2l-1-0.1h-0.2c0.4,0.1-0.1,0-0.2-0.1l-0.4-0.1c-0.4-0.1-0.1-0.1,0.1,0.1c-0.2-0.2-0.4-0.3-0.7-0.4
		c-0.4-0.2,0.2,0.3,0,0c-0.1-0.1-0.1-0.2-0.2-0.2c-0.1-0.1-0.1-0.2-0.2-0.2c0.2,0.1,0.2,0.4,0.1,0.1c0-0.1-0.1-0.2-0.1-0.3
		c-0.1-0.1,0.3,0.5,0.1,0.2c0-0.1,0-0.2,0-0.3s0,0.3,0,0.3s0-0.2,0-0.2s0.1-0.3,0.1-0.3c0,0.2-0.2,0.4,0,0.1
		c0.1-0.1,0.1-0.2,0.2-0.3c-0.1,0.3-0.2,0.3,0,0l0.4-0.4c0.2-0.2,0.3-0.2,0,0c0.3-0.2,0.7-0.4,1-0.6l0.5-0.3l0.4-0.2l0.5-0.2
		l0.8-0.3c1.2-0.4,2.4-0.8,3.6-1.1c4.2-1,8.5-1.9,12.3-4c1-0.5,1.3-1.8,0.7-2.7c0-0.1-0.1-0.1-0.1-0.2
		C221.8,124.1,220.3,123.9,219.3,124.7L219.3,124.7z" fill="#000005"></path><path class="st0" d="M227.9,127.7c0.1-0.1,0.1-0.2,0.2-0.3l-0.1,0.1c0.2-0.2,0.5-0.4,0.8-0.5h-0.2c0.3-0.1,0.5-0.1,0.8-0.1h-0.2
		c0.1,0,0.3,0.1,0.4,0.1h0.1c0,0-0.2-0.1-0.1,0s0.1,0.1,0.2,0.1s-0.2-0.2-0.1-0.1l0.1,0.1c0,0,0.1,0.2,0,0l0,0c0,0,0,0.1,0.1,0.1
		s-0.2-0.3-0.1-0.2l0.1,0.1c0.1,0.1-0.2-0.3-0.1-0.2c0.1,0.3,0.3,0.6,0.6,0.8c0.2,0.2,0.4,0.3,0.6,0.3c0.5-0.1,0.4-0.8,0.3-1.2
		c-0.4-1.1-1.3-1.9-2.5-2.2c-0.5-0.1-0.9,0-1.4,0.2c-0.4,0.2-0.7,0.5-1,0.8c-0.1,0.2-0.1,0.5-0.1,0.7c0.1,0.3,0.2,0.6,0.4,0.9
		C227,127.6,227.6,128.1,227.9,127.7L227.9,127.7z" fill="#000005"></path><path class="st0" d="M220.4,123.5c0.2-0.6,0-1.2-0.4-1.7c-0.3-0.3-0.6-0.5-0.9-0.6c-0.5-0.2-1-0.2-1.6-0.2c-0.3,0-0.6,0.1-0.9,0.3
		c-0.1,0.1-0.4,0.3-0.3,0.5c0.1,0.2,0.2,0.4,0.4,0.4c0.3,0.1,0.6,0.1,0.9,0.1h0.2h-0.1h-0.3l0.2,0.1l-0.3-0.1c0.1,0,0.2,0.1,0.3,0.1
		l-0.2-0.1c0.1,0.1,0.2,0.2,0.3,0.2l-0.1-0.2c0.1,0.1,0.2,0.3,0.3,0.5l-0.1-0.2c0.1,0.2,0.1,0.5,0.1,0.7v-0.2v0.2c0,0.1,0,0.2,0,0.3
		c0,0.1,0.1,0.2,0.2,0.2c0.2,0.2,0.5,0.2,0.8,0.2c0.3,0,0.7-0.1,0.9-0.2l0.2-0.1C220.3,123.8,220.4,123.7,220.4,123.5L220.4,123.5z" fill="#000005"></path><path class="st1" d="M344.9,107.7c0,0,18.9-27.2,14.2-33.2c-1.9-2.5-11.2,10.7-11.2,10.7s10-16.6,7.5-19.7
		c-2.5-3.1-12.3,14.1-12.3,14.1s6.3-17.4,3.1-18.2s-13.2,19-13.2,19s-2.6-9.8-6.8-10.9c-8.6-2.2-3.1,24.9-3.1,24.9
		s-19,37.6-26.6,47.9s-46.8,17-46.8,17s0.6,39.8,11.6,42.9C272.2,205.5,323.1,180.6,344.9,107.7z" fill="#FFFFFF"></path><path class="st0" d="M346.7,109.4c4.3-6.1,8-12.4,11.3-19.1c1.7-3.6,3.9-7.9,3.7-11.9c-0.2-2.2-1.4-4.2-3.4-5.4
		c-1.7-1.2-3-0.2-4.4,1c-3,2.9-5.7,6.1-8,9.5l3.7,3.4c1.3-2.1,2.5-4.3,3.6-6.5c1.7-3.3,3.5-6.9,4.2-10.6c0.4-1.4,0-2.9-0.9-4
		c-1-1.2-2.8-3.1-4.5-2.3c-1.2,0.7-2.2,1.6-3,2.6c-1.2,1.4-2.3,2.9-3.4,4.4c-1.6,2.4-3.1,4.8-4.6,7.3l3.6,3.4
		c0.9-2.4,1.7-4.9,2.4-7.4c0.6-1.9,1-3.8,1.4-5.8c0.4-1.4,0.4-2.9,0.2-4.3c-0.3-1-1-2-1.8-2.7c-0.6-0.6-1.6-1.5-2.6-1.5
		s-2,1-2.6,1.8c-2.5,3-4.7,6.2-6.5,9.7c-1.4,2.5-2.8,5-4.1,7.6l3.7,3.2c-0.6-2.1-1.3-4.2-2.3-6.2c-1.5-3.1-4.1-6.8-7.6-7.8
		c-4.7-1.4-5.3,5-5.4,8.1c-0.1,5,0.4,10,1.3,14.8c0.1,0.6,0.2,1.2,0.3,1.8c0,0.1,0.1,0.2,0.1,0.3c0,0.1,0.1-0.3,0-0.1
		c-0.4,1-0.9,2-1.5,3c-5.6,11-11.4,22-17.5,32.7c-1.5,2.6-3,5.2-4.6,7.8c-1.1,1.9-2.3,3.7-3.8,5.3c-3.7,3.9-9.4,6-14.3,7.9
		c-10,3.5-20.4,6.2-30.9,8l-0.6,0.1c-0.1,0-0.2,0.1-0.2,0.2c0,0,0,0,0,0.1c0.1,9.4,1.1,18.7,3.1,27.9c1.3,5.6,3.1,11.5,7.4,15.6
		c1.5,1.5,3.4,2.6,5.5,3c1.1,0.1,2.2,0.1,3.3-0.1c3.4-0.5,6.7-1.6,9.8-3c4.4-2,8.6-4.4,12.6-7.1c11.1-7.8,21-17.2,29.1-28.1
		c11.2-14.8,19.9-31.4,25.8-49c0.9-2.5,1.7-5,2.4-7.6c0.2-0.8-0.9-1.7-1.4-2.2c-0.1-0.1-2.1-1.7-2.3-1.2
		c-5.3,18.1-13.3,35.2-23.9,50.8c-7.8,11.5-17.4,21.8-28.4,30.4c-7,5.4-15,10.5-23.6,12.9c-1.3,0.4-2.7,0.7-4.1,0.8
		c-0.6,0.1-1.1,0.1-1.7,0.1h-0.7c-0.2,0-0.7-0.1-0.4-0.1c-0.3-0.1-0.6-0.2-0.9-0.3c-0.1,0-0.2-0.1-0.3-0.2c0.5,0.3,0.1,0.1,0.1,0
		c-0.2-0.4,0.3,0.3,0,0s0.4,0.4,0.1,0.1s-0.4-0.4,0.1,0.1c-0.2-0.2-0.5-0.5-0.1-0.1c-0.3-0.4-0.6-0.7-0.8-1.1
		c-1.3-2.3-2.3-4.7-2.9-7.2c-1.6-5.9-2.6-12-3.1-18.1c-0.4-4.1-0.7-8.2-0.8-12.3c0-0.2,0-0.4,0-0.6l-0.2,0.2
		c8.7-1.5,17.2-3.5,25.6-6.1c5.7-1.8,11.5-3.8,16.7-6.9c1.9-1.1,3.6-2.5,4.9-4.3c1.4-1.9,2.6-3.8,3.8-5.8
		c6.7-10.9,12.6-22.3,18.4-33.6l2.9-5.7c0.5-0.8,0.9-1.6,1.3-2.5c0-0.8-0.1-1.6-0.3-2.4c-0.4-2.2-0.7-4.3-0.9-6.5
		c-0.3-2.6-0.4-5.3-0.4-7.9c-0.1-2.2,0.3-4.3,1.1-6.3c0.3-0.7,0.8-1.3,1.5-1.7c0.2-0.1,2.2-0.2,2.1,0l-0.4-0.4c-0.3-0.2,0.3,0.3,0,0
		l0.3,0.4c0.4,0.6,0.7,1.1,1,1.7c0.6,1.3,1.2,2.6,1.6,4c0.2,0.4,0.3,0.9,0.4,1.4c0,0.1,0.2,0.9,0.1,0.4c0.3,0.9,0.9,1.7,1.7,2.2
		c0.2,0.2,1.8,1.5,2,1c2.5-5.2,5.4-10.2,8.7-14.9c0.8-1.2,1.7-2.3,2.7-3.2c0.3-0.3,0.7-0.6,1.1-0.7c0.1,0,0.3,0,0.4,0h-0.1
		c-1.2-0.3-2.2-1.2-2.5-2.4c-0.1-0.2-0.1-0.3-0.1-0.1s0,0.1,0,0c0.4,3.1-0.5,6.2-1.4,9.2c-0.7,2.6-1.6,5.2-2.5,7.8
		c-0.4,1.1,3.3,4,3.6,3.4c1-1.7,2-3.4,3.1-5.1c1.7-2.8,3.7-5.5,6-7.9c0.4-0.4,0.9-0.8,1.4-1.1c0.3-0.1,0.7-0.3,1-0.3
		c-0.3,0.1-2.5-2.2-2.3-1.9c-0.9-1.2-0.2-0.5-0.2-0.3c0-0.1,0.1,0.4,0.1,0.5c0,0.6,0,1.2-0.2,1.8c-0.7,3.4-2.4,6.7-4,9.8
		c-1.2,2.3-2.4,4.5-3.7,6.7c-0.6,1,3.2,4,3.6,3.4c1.8-2.6,3.8-5.2,6-7.6c1-1.1,2.5-2.9,4-3.4c0.2,0,0.5-0.2,0.4-0.1l-1.2-1.1
		c-1.1-1.2-1.5-1.5-1.2-1c0,0-0.1-0.3,0-0.1c0.1,0.2,0.1,0.3,0.2,0.4c0.2,0.6,0.3,1.2,0.3,1.8c-0.1,4-2.1,7.9-3.8,11.4
		c-2.1,4.1-4.3,8.2-6.8,12.1c-1.4,2.2-2.8,4.4-4.3,6.6C342.4,106.9,346.3,110.1,346.7,109.4z" fill="#000005"></path><path class="st0" d="M333.3,81.4c0.5,0.4,1.1,0.8,1.7,1.3l0.4,0.3c0.1,0.1,0.5,0.3,0.2,0.1s0.1,0.1,0.2,0.2l0.3,0.4
		c0.1,0.1,0.2,0.3,0.4,0.4c0.4,0.5-0.3-0.4,0.1,0.1c0.2,0.3,0.4,0.5,0.5,0.8c0.1,0.1,0.2,0.3,0.2,0.4c0-0.2-0.2-0.4,0,0
		c0.1,0.2,0.2,0.5,0.3,0.8c0.1,0.2,0.1,0.4,0.2,0.7c-0.2-0.4-0.1-0.2,0,0c0,0.1,0,0.2,0,0.3c0.1,0.4,0.1,0.8,0.1,1.1
		c0,0.5,0,1.1,0,1.6c0.3,1.2,1.2,2.2,2.4,2.5c0.9,0.2,2.2,0,2-1.3c-0.1-0.6,0-1.2,0-1.8c0-1.1-0.3-2.2-0.6-3.2
		c-0.6-1.5-1.5-3-2.7-4.2c-1.2-1.2-2.5-2.2-3.9-3.2c-0.7-0.6-2.4-1.1-3-0.2S332.5,80.8,333.3,81.4L333.3,81.4z" fill="#000005"></path><path class="st1" d="M221.6,184.7C221.5,184.6,221.1,184.4,221.6,184.7c-0.2-0.1-0.3-0.2-0.4-0.3c-0.1-0.1-0.4-0.5-0.2-0.2
		s-0.1-0.1-0.1-0.1s-0.2-0.3-0.3-0.4c0.1,0.2,0.3,0.4,0.1,0.1c-0.1-0.1-0.1-0.3-0.2-0.3c0.2,0.3,0.2,0.4,0.1,0.2l-0.1-0.2
		c-0.1-0.1-0.1-0.3-0.2-0.4c0.1,0.2,0.1,0.4,0,0.1l-0.1-0.4c-0.2-0.5,0.1,0.4,0-0.1c-0.1-0.3-0.1-0.6-0.2-0.9c0-0.1,0-0.3-0.1-0.4
		c0,0.3,0-0.1,0-0.2c0-0.1,0-0.3,0.1-0.4c0.1-0.1,0.1-0.1,0.2-0.1c0,0,0.4,0,0.2,0l0.1,0.1c-0.4-0.2-0.6-0.5-0.8-0.9
		c-0.4-0.6-0.5-0.7-0.3-0.4l-0.1-0.3c0.1,0.3,0.2,0.7,0.3,1l0.1,0.2c-0.1-0.2-0.1-0.2,0,0s0.1,0.3,0.1,0.4c0.1,0.3,0.1,0.7,0.2,1
		s0.1,0.7,0.2,1l0.1,0.6c0,0.1,0,0.2,0,0.3l3.1,2.7c0,0.4,0-0.2,0-0.3s0-0.4,0-0.6c0-0.3,0.1-0.5,0.1-0.8c0.2-0.7,0.5-1.4,0.9-2
		c0.4-0.6,0.9-1.1,1.4-1.4c0.3-0.2,0.6-0.4,0.9-0.5c0.1-0.1,0.4-0.1,0.5-0.2c-0.7-0.6-1.3-1.3-1.6-2.2c-0.1-0.3-0.1-0.4-0.1-0.2
		s0,0.1,0-0.1c0,0.1,0,0.2,0,0.2c0,0.2,0,0.4-0.1,0.6s-0.1,0.7-0.1,1c-0.2,0.8-0.4,1.6-0.7,2.3c-0.6,1.5-1.4,2.8-2.5,4
		c-1.1,1.2,1.9,5,2.6,4.2c2.2-2.4,3.6-5.5,3.8-8.8c0.1-1.1-0.2-2.2-0.8-3.2c-0.6-1.1-1.7-2.7-3.1-2.3c-1.4,0.5-2.6,1.5-3.3,2.8
		c-0.9,1.5-1.3,3.3-1,5c0.2,1.1,0.8,2.1,1.7,2.8c0.4,0.3,1.5,0.9,1.4-0.1c-0.1-2.2-0.6-4.3-1.3-6.4c-0.5-1.6-1.5-2.9-2.8-3.8
		c-0.8-0.4-1.9-0.4-2.3,0.5c-0.2,0.9-0.2,1.9,0.1,2.9c0.7,3.3,2.5,6.3,5.1,8.4c0.2,0.2,0.7,0.4,1,0.3s0.2-0.7,0.2-1
		C223.2,186.5,222.6,185.4,221.6,184.7L221.6,184.7z" fill="#FFFFFF"></path><path class="st1" d="M213.6,237.2c-1-1.7-1.8-3.4-2.5-5.2c-0.3-0.7-0.5-1.6-0.8-2.4c-0.1-0.4-0.3-0.9-0.4-1.3
		c0-0.2-0.1-0.3-0.1-0.5c0.1,0.4,0-0.1,0-0.2s0.1-0.5,0-0.2c0-0.1,0.1-0.4,0.1-0.2s0,0.1,0.1,0c0,0.1-0.1,0.1-0.2,0.1
		c-0.3,0-0.7,0-1-0.2c-0.1,0-0.7-0.7-0.4-0.3c-0.3-0.4,0,0,0,0.1c0.2,0.5-0.1-0.4,0,0.1c0.1,0.2,0.1,0.5,0.2,0.8
		c0.5,1.8,0.8,3.7,1,5.6l4.3,1.1c-0.3-0.8-0.4-1.6-0.3-2.5c0.1-0.8,0.3-1.7,0.7-2.4c0.1-0.3,0.3-0.6,0.5-0.9c0.3-0.4,0.6-0.7,0.9-1
		c0.3-0.3,0.6-0.6,1-0.8c0,0,0.5-0.2,0.4-0.1c-0.7,0-1.4-0.4-1.8-1.1c-0.1-0.3-0.1-0.3,0,0c0.4,1.9,0.2,3.9-0.7,5.7
		c-1,2-2.2,3.8-3.8,5.4c-1.6,1.7,2.1,5.1,3.7,3.3c3-3.2,5.7-7.4,5.3-11.9c0-1.4-0.4-2.7-1.2-3.8c-1-1.5-2.9-2.1-4.6-1.5
		c-1.8,0.9-3.2,2.5-4,4.4c-1,2.1-1.1,4.5-0.4,6.7c0.3,1.1,1.2,2,2.4,2.3c0.8,0.2,2.1-0.1,2-1.2c-0.2-2.6-0.7-5.2-1.4-7.8
		c-0.4-1.4-1.3-2.7-2.6-3.5c-1.2-0.9-2.8-0.8-3.9,0.2c-1.6,1.7-0.3,4.8,0.4,6.6c0.8,2.5,1.9,4.9,3.2,7.1c0.5,1.2,1.7,1.9,3,1.8
		c0.8-0.2,1.3-1,1.2-1.8C213.8,237.6,213.7,237.4,213.6,237.2L213.6,237.2z" fill="#FFFFFF"></path><path class="st1" d="M255.4,232.1c-1.1-0.5-2.1-1.2-2.9-2.2c-0.8-1-1.4-2-1.9-3.1c-0.4-1-1-2.4-0.3-3.4c0.1-0.1,0.2-0.2,0.2-0.3
		c0,0,0.1-0.1,0.1-0.1s-3,1.1-3,1.1s-0.4,0,0,0c0.1,0,0.3,0,0.4,0.1c0.5,0.1,1,0.4,1.4,0.8c1,1.1,1.2,2.8,1.3,4.2
		c0,0.3,4.3-1,4.7-1.5c1.2-1.8,2.7-3.4,4.4-4.8l-4.4,1.4c0.6,3.2-0.6,6.4-3,8.5c-0.2,0.2,0.3,0.2,0.3,0.2c0.5-0.1,1-0.2,1.5-0.4
		c1-0.2,2-0.7,2.8-1.2c2.5-2.2,3.7-5.5,3.1-8.7c-0.1-0.5-4.1,1.1-4.4,1.4c-1.9,1.4-3.5,3.1-4.8,5.1l4.7-1.6
		c-0.1-1.5-0.3-3.2-1.4-4.3c-1.5-1.5-3.6-0.9-5.3-0.2c-1,0.4-2.6,0.8-3.1,1.9c-0.3,0.6-0.4,1.3-0.2,1.9c0.4,1.4,1,2.8,1.9,3.9
		c0.8,1.4,2.1,2.5,3.6,3.1c0.4,0,0.8-0.1,1.1-0.2c0.6-0.2,1.2-0.4,1.8-0.6c0.5-0.2,0.9-0.4,1.4-0.6
		C255.4,232.3,255.6,232.2,255.4,232.1L255.4,232.1z" fill="#FFFFFF"></path><path class="st1" d="M240.1,202.3C239.6,202.1,240.4,202.6,240.1,202.3c-0.4-0.2-0.1,0,0.3,0.3c-0.2-0.2-0.1-0.1,0.2,0.3l-0.1-0.1
		c-0.1-0.1,0-0.1,0.2,0.3c-0.2-0.5,0.1,0.4,0,0c0-0.1-0.1-0.1-0.1-0.2c0-0.2,0-0.1,0,0.1c0-0.1,0-0.2,0-0.3c0-0.1,0-0.1,0-0.2
		c0-0.2,0-0.1,0,0.1c0-0.1,0-0.2,0.1-0.3c0.1-0.1,0.1-0.3,0.2-0.4c-0.2,0.3,0.1,0,0.1-0.1l0.2-0.2l0.2-0.1c-0.2,0.1-0.2,0.1,0,0
		c0.1,0,0.6-0.3,0.8-0.2h0.4c0.2,0,0.2,0,0,0s0.1,0,0.2,0.1s0.1,0-0.2-0.1l0.2,0.1c-0.4-0.2-0.4-0.3-0.3-0.2l0.1,0.1
		c-0.4-0.3-0.4-0.4-0.3-0.2c-0.3-0.4-0.4-0.5-0.2-0.3s0.1,0.1-0.2-0.3c0,0.1,0.1,0.1,0.1,0.2c-0.1-0.1-0.2-0.5-0.1-0.1s0-0.3,0,0
		c0,0.1,0,0.2,0,0.4v0.1c0,0.2,0,0.1,0-0.1c0,0.1-0.1,0.3-0.1,0.4c0,0.1-0.1,0.2-0.1,0.3s-0.1,0.1-0.1,0.2s-0.1,0.1,0.1-0.1
		c0.1,0-0.4,0.5-0.4,0.5l-0.1,0.1c0.2-0.1,0.2-0.1,0.1,0l-0.4,0.1l3.4,2.5c-0.1-0.4,0.1,0.4,0-0.1c0-0.1,0-0.1,0,0.1l0.1-0.2
		c0-0.1,0.1-0.2,0.1-0.4c-0.1,0.3,0.1-0.1,0.1-0.1c0.1-0.1,0.2-0.3,0.4-0.4c0,0,0.4-0.3,0.2-0.1c0.3-0.2,0.5-0.3,0.8-0.4
		c0.3-0.1,0.6-0.2,1-0.3l0.2-0.1c0.1,0,0.1,0,0,0c-1.8-2.3-2.6-2.9-2.2-1.8v0.1c0-0.3-0.1-0.3,0-0.1c0,0.1,0,0.2,0,0.3
		c0,0.1,0,0.2,0,0.4s0,0.2,0,0.4s-0.1,0.5,0,0.3s0,0.2-0.1,0.3l-0.1,0.4c-0.1,0.3-0.2,0.5-0.3,0.8c-0.1,0.3-0.2,0.5-0.4,0.8
		s0.2-0.2-0.1,0.1l-0.3,0.4c-0.3,0.4-0.7,0.8-1.1,1.2c-0.1,0.1-0.2,0.2-0.4,0.3s-0.4,0.2-0.1,0.1c-0.3,0.2-0.5,0.3-0.8,0.4
		c-1,0.4-0.4,1.8,0,2.4c0.4,0.5,0.9,1,1.5,1.2c0.4,0.3,0.9,0.3,1.4,0.2c2.3-1,3.9-3,4.4-5.5c0.4-1.6,0.2-3.3-0.7-4.7
		c-0.8-1.3-2.3-2-3.7-1.8c-0.6,0.1-1.2,0.3-1.8,0.6c-0.8,0.3-1.4,0.9-1.8,1.6c-0.5,0.8-0.6,1.8-0.3,2.7c0.3,0.8,0.8,1.5,1.5,1.9
		c0.5,0.5,1.2,0.7,1.9,0.5c1.2-0.4,2-1.4,2.1-2.6c0.2-3.2-2.2-6.1-5.4-6.3c-0.6,0-1.1,0-1.7,0.1c-1.4,0.5-2.3,1.8-2.3,3.2
		c0.1,2.3,1.5,4.3,3.6,5.2c0.4,0.2,0.9,0.3,1.4,0.2c0.4-0.2,0.6-0.6,0.6-1C242,203.8,241.2,202.8,240.1,202.3L240.1,202.3z" fill="#FFFFFF"></path><path class="st1" d="M244.4,175.5l-0.3,0.1c0.2,0,0.3,0,0.1,0S244,175.6,244.4,175.5l-0.4,0.1c0.4,0.1,0.4,0.1,0.2,0
		s-0.2-0.1,0.2,0.1l-0.3-0.1c-0.2-0.1-0.2-0.1,0.2,0.1l-0.1-0.1c-0.2-0.2-0.2-0.1,0.1,0.1c-0.2-0.1-0.3-0.3-0.4-0.5
		c0.2,0.2,0.2,0.2,0,0.1l-0.2-0.3c-0.1-0.2-0.2-0.4-0.3-0.5l-0.3-0.5c0-0.1-0.3-0.6-0.1-0.2c-0.2-0.3-0.3-0.6-0.3-0.9
		c0,0.2,0,0.2,0,0.1c0-0.1,0-0.2,0-0.2c0-0.3-0.1,0.2,0,0s0.1-0.1-0.1,0.1c0.1-0.1,0.1-0.1-0.1,0c-0.6,0.1-1.2-0.1-1.7-0.5
		c0.2,0.1,0.2,0.1-0.1-0.1l0.2,0.2c0.1,0.2,0.1,0.1-0.1-0.1l0.2,0.3c0.2,0.3,0.4,0.6,0.6,0.9c0.1,0.2,0.2,0.4,0.3,0.6
		s0.1,0.2,0.1,0.3l0,0c0.1,0.4,0.3,0.7,0.4,1s0.2,0.8,0.4,1.2c0.1,0.2,0.1,0.4,0.1,0.6c0,0,0.1,0.5,0,0.2c0.1,0.8,0.2,1.7,0.1,2.5
		c-0.1,1.1,1.3,2.1,2.3,2.3c0.8,0.2,2.3,0.4,2.4-0.8c0.1-1.8-0.1-3.6-0.7-5.3c-0.6-1.9-1.5-3.6-2.8-5c-1.1-1.2-2.6-1.8-4.1-1.8
		c-1.1,0-2,0.8-2.1,1.9c0,0.9,0.2,1.8,0.7,2.5c0.4,0.9,0.9,1.7,1.6,2.5c1.6,2,4.6,3.4,7.2,2.5c1.1-0.4,0.8-1.6,0.1-2.2
		c-0.8-0.9-2.1-1.3-3.3-1.1L244.4,175.5z" fill="#FFFFFF"></path><path class="st1" d="M208.1,207.5c0.1-0.3,0.3-0.7,0.5-1l0.1-0.2c-0.3,0.5-0.2,0.3-0.1,0.1c0.1-0.2,0.2-0.3,0.4-0.4l0.2-0.2
		c0.2-0.2-0.2,0.2-0.2,0.2c0.2-0.1,0.3-0.2,0.4-0.4c0.2-0.2,0.8-0.4,0,0l0.5-0.3l-3-0.4c0.2,0.4,0.4,0.8,0.5,1.2l-0.1-0.4
		c0.2,0.6,0.2,1.2,0.2,1.7V207c0,0.3-0.1,0.5-0.1,0.8c0,0.1-0.1,0.2-0.1,0.3c-0.1,0.4,0.2-0.4,0-0.1s-0.3,0.4-0.4,0.7
		c0.2-0.5,0.2-0.3,0.1-0.1c-0.1,0.1-0.2,0.2-0.2,0.3c-0.2,0.2-0.5,0.3,0.1-0.1c-0.1,0.1-0.2,0.1-0.2,0.2l-0.3,0.2
		c-0.4,0.3,0.6-0.4,0.1-0.1l-0.3,0.2c-0.4,0.2,0.6-0.2,0.2-0.1l-0.3,0.1c-0.6,0.2,0.5-0.1,0.1,0c-0.7,0.1-1.3,0.3-1.8,0.7
		c-0.5,0.3-0.8,0.8-1,1.4c-0.1,0.5,0,1,0.4,1.3c0.4,0.3,1,0.5,1.5,0.4c2.6-0.4,4.8-1.9,6.1-4.1c1.1-2,1.1-4.3,0-6.3
		c-0.6-1-2.1-0.8-3-0.4c-2,1-3.6,2.6-4.5,4.7c-0.2,0.4-0.3,1-0.1,1.4c0.3,0.4,0.7,0.7,1.2,0.8c0.6,0.1,1.2-0.1,1.8-0.4
		C207.3,208.5,207.8,208.1,208.1,207.5L208.1,207.5z" fill="#FFFFFF"></path></g><g id="love"><path class="st2" d="M127.3,188.3c1.8-0.8,3.7-1.4,5.6-1.7c0.1,0,0.8,0,0.6-0.1s0.4,0.5,0.5,0.6c0.6,0.7,1.1,1.5,1.5,2.3
		c1.6,3,2.5,7.5,0.8,10.7c-0.2,0.4-0.5,0.7-0.8,1c-0.2,0.2-0.6,0.3-0.9,0.4h-0.1c0,0,0.2,0.1,0.3,0.1c0.7-0.2,0,0.3,0.1,0.1
		s-0.1-0.3-0.1-0.4c-0.1-1.3,0.7-2.5,1.9-3c3-1.2,5.4,1.9,6.3,4.3c1.6,4.4,0.1,9.2-1.1,13.5c-0.6,2.2,4.2,3.5,4.8,1.3
		c1.6-5.5,3.1-11.8,0.1-17.1c-2.6-4.6-9.4-7.7-14.3-4.5c-1.9,1.2-3.2,3.8-2.4,6c1.1,2.8,4.6,3.7,7.3,2.9c5.8-1.8,5-10,3.3-14.4
		c-1.1-2.9-3.2-6.2-6.4-7s-7.1,0.5-10,1.8S125.2,189.1,127.3,188.3L127.3,188.3z"></path><path class="st2" d="M110,119C110.7,119.1,110.1,119,110,119l-0.2-0.1C109.6,118.9,109.7,118.9,110,119c0,0-0.3-0.1-0.4-0.2
		c-0.4-0.2,0.3,0.3,0.1,0.1c-0.1-0.1-0.7-0.5-0.6-0.6c0.2,0.2,0.3,0.3,0.2,0.2l-0.2-0.2c-0.1-0.1-0.2-0.3-0.3-0.4s-0.3-0.5-0.1-0.2
		s-0.1-0.2-0.1-0.3c-0.1-0.3-0.2-0.6-0.3-0.9c0-0.1-0.2-0.6,0-0.1c0-0.2-0.1-0.3-0.1-0.5c-0.1-0.3-0.1-0.6-0.1-0.9
		c0-0.1,0-0.3,0-0.4s0-0.6,0-0.1c0-0.2,0-0.4,0-0.6c0-0.1,0.2-0.5,0.1-0.3s0,0.1,0.1-0.1c0,0.1-0.1,0.2-0.2,0.2
		c-0.1,0.1-0.1,0.1,0.1,0l-0.7,0.1c-0.4-0.1-0.4-0.1-0.2,0l-0.3-0.1c0.4,0.2-0.3-0.3,0,0c0.1,0.1,0.4,0.5,0.1,0.1l0.3,0.4l0.2,0.3
		l0.2,0.3l1.4,2.5c0.5,1.1,1.6,1.8,2.8,1.7c1,0,2.1-0.8,1.8-2c-0.1-0.5-0.2-0.9-0.2-1.4c0-0.1,0-0.3,0-0.4c0,0.2,0,0.2,0,0
		s0-0.4,0.1-0.6c0.1-0.5,0.2-0.9,0.3-1.3c0.1-0.2,0.1-0.2,0,0c0-0.1,0.1-0.2,0.1-0.3s0.2-0.4,0.3-0.6c0.2-0.4,0.5-0.8,0.7-1.2
		c-0.2,0.3,0.2-0.2,0.2-0.2c0.2-0.2,0.4-0.4,0.6-0.6l0.2-0.1c-0.2,0.1-0.2,0.1,0.1,0l0.4-0.2c-0.2,0.1-0.2,0.1-0.1,0s0.1,0-0.1,0
		c-0.2,0-0.4-0.1-0.5-0.2c-0.3-0.2-0.3-0.2-0.1,0c-0.2-0.2-0.2-0.2-0.1-0.1s0.1,0.1,0-0.1c0.1,0.1,0.1,0.2,0.2,0.4
		c0.2,0.4,0-0.2,0.1,0.2c0,0.1,0,0.8,0,0.4c0,0.2,0,0.4-0.1,0.6c0,0.1-0.2,0.8-0.1,0.4c-0.1,0.2-0.2,0.4-0.2,0.6
		c-0.2,0.4-0.5,0.9-0.7,1.3c-0.1,0.2-0.2,0.4-0.4,0.5s-0.2,0.2-0.1,0.1l-0.3,0.3c-0.3,0.4-0.7,0.8-1,1.1l-2.5,2.6
		c-0.7,0.9-0.6,2.2,0.2,2.9c0,0,0.1,0.1,0.1,0.1c0.8,0.7,2.5,1.2,3.4,0.3c1.6-1.6,3.2-3.3,4.6-5.1c1.3-1.6,2-3.7,1.8-5.8
		c-0.4-2.8-2.9-5.2-5.8-4.7c-2.2,0.4-3.8,2.3-4.8,4.1c-1,2-1.4,4.4-0.9,6.6l4.6-0.2c-1.2-2.2-2.2-5-4.5-6.3
		c-1.4-0.9-3.1-0.9-4.5,0.1c-0.9,0.9-1.4,2.3-1.2,3.6c0,2,0.6,4,1.7,5.8c1.3,2,3.3,3.3,5.7,3.6c1,0.1,2-0.6,2.1-1.6
		c0-0.1,0-0.3,0-0.4C112.4,120.1,111.3,119.1,110,119z"></path><path class="st2" d="M331.8,234.8c-1.9-9.3,2.7-18.8,9.9-24.6c1.8-1.4,3.6-2.7,5.6-3.8c1.9-1.1,3.9-2,6-2.6c2.4-0.5,4.4,0.9,6,2.6
		c1.6,1.8,3,3.8,4.1,5.9c2,3.5,4.4,7.9,4.1,12.1c0,0.8-0.2,1.6-0.6,2.3c0,0-0.5,0.6-0.4,0.6s0.8-0.4,0.8-0.4s-0.2,0-0.4-0.1
		c-1.9-0.4-3.2-2.1-4-3.8c-1.8-3.9-0.9-8.7,0.8-12.4c1.8-3.9,4.7-7.3,8.4-9.5c4.6-2.8,9.7-1.8,13.7,1.7c4.1,3.6,6,9.1,7.6,14.2
		l0.1-0.5c-0.5,0.8,0,0.6,1.8-0.7h-0.3c-0.3-0.1-0.6-0.2-1-0.4c-0.6-0.5-1.1-1.1-1.5-1.8c-0.8-1.5-1.4-3.2-1.8-4.9
		c-1-3.5-1.2-7.1-0.5-10.7c1-5.4,4.7-11.2,10.6-11.8c1.2-0.1,2.3-0.7,3.2-1.5c0.6-0.7,0.5-1.2-0.5-1.1c-7.2,0.9-13.4,5.3-16.5,11.8
		c-1.5,3.5-2.1,7.4-1.6,11.2c0.2,1.9,0.6,3.9,1.2,5.7c0.4,1.7,1.2,3.4,2.4,4.8c1.1,1.2,2.7,1.6,4.3,1.2c1.4-0.3,4.1-1.4,4.6-3
		c0.2-0.7-0.4-1.7-0.6-2.4c-0.3-1-0.6-1.9-1-2.8c-0.7-1.8-1.5-3.5-2.5-5.2c-1.8-3.1-4.6-5.5-7.9-7c-3.6-1.3-7.5-1.2-11,0.2
		c-7.2,2.6-12.9,8.1-15.9,15.1c-1.3,3.1-1.7,6.5-1.2,9.8c0.5,2.8,2.4,6,5.4,6.6c3.4,0.4,6.8-1.3,8.4-4.4c1.2-2.6,0.6-5.7-0.3-8.3
		c-1.4-3.7-3.2-7.2-5.6-10.4c-2.1-2.9-4.6-5.7-8.5-5.4s-8,2.5-11.4,4.3c-3.4,1.8-6.5,4.1-9.4,6.7c-5.4,5.1-9.2,12-9.4,19.5
		c0,1.8,0.1,3.6,0.5,5.3C327.6,237.9,332.2,236.2,331.8,234.8L331.8,234.8z"></path><path class="st2" d="M402.1,120.4c-2.6-4.2-4.1-9.1-4.3-14.1c0-1,0.1-1.9,0.2-2.9c0-0.5,0.1-0.2,0.1-0.3c-0.1-0.5-1.1,0.7-1.3,0.4
		c0.1,0.1,0.4,0.3,0.5,0.3c0.2,0.2,0.4,0.4,0.5,0.6c1.4,1.9,1.9,4.7,1.9,7s4.2,1.1,4.7-0.5c0.7-2.3,1.6-5.8,3.8-7
		c-0.4,0.2,0.3-0.1,0.4-0.1c-0.5,0.2,0.5-0.1,0.3-0.1c0.4,0,0.8,0,1.2,0.1c0.9,0.2,1.6,1,1.8,1.9c0.3,1.4-0.5,2.9-1.3,4.1
		c-1,1.5-2.2,2.8-3.3,4.2l-7.2,9.2c-0.5,0.5-0.4,1.4,0.1,1.8c0.2,0.2,0.4,0.3,0.7,0.3c1.2,0.2,2.5-0.3,3.3-1.3l7-8.9
		c2-2.6,4.7-5.3,5.5-8.6c0.7-2.7-1-5.5-3.7-6.1c0,0,0,0,0,0c-2.8-0.7-5.7-0.2-8,1.6c-2.9,2.1-4.2,5.5-5.2,8.8l4.7-0.5
		c-0.1-3-0.8-6.9-3-9.1c-2.6-2.6-7.1-1.3-8.3,2.1c-0.4,1.4-0.5,2.9-0.3,4.4c0.1,1.7,0.3,3.3,0.7,4.9c0.7,3.3,2,6.4,3.7,9.3
		c0.7,0.9,1.9,1.2,2.9,0.6C401.1,122.5,402.7,121.3,402.1,120.4L402.1,120.4z"></path><path class="st2" d="M379.6,358.4c-0.4-0.2-0.8-0.5-1.2-0.8c0,0-0.5-0.5-0.3-0.3l-0.3-0.3c0.1,0.2,0.1,0.1-0.1-0.1
		c-0.4-0.4,0.2,0.3-0.2-0.2s0.2,0.4-0.1-0.2c-0.1-0.2-0.1-0.3,0-0.1c0-0.1-0.1-0.2-0.1-0.3c-0.1-0.2-0.1-0.3-0.2-0.5
		c-0.5-1.5-0.5-3.5,0.8-4.6c0.5-0.5,1.2-0.6,1.7-0.2c-0.3-0.2,0.2,0.2,0.2,0.3s0.5,0.6,0.2,0.3c0.2,0.3,0.4,0.6,0.6,0.9
		c0,0.1,0.4,0.7,0.2,0.3c1.1,1.9,2,3.9,2.5,6c0.3,1,0.9,1.9,1.6,2.6c0.2,0.2,1.1,1.1,1.3,0.5c0.9-2,0.5-4.2,1.2-6.2
		c0.3-0.8,0.9-1.5,1.6-1.9c0.3-0.1,0.7-0.2,1-0.2c0.2,0,0.4,0,0.5,0.1c0.1,0,0.1,0.1,0.2,0.1c-1.1-2.5-1.7-3.3-1.5-2.2
		c-0.4,2-1.3,3.9-2.7,5.4c-1.3,1.6-2.8,3-4.5,4.1c-0.9,0.6,1.8,4.8,2.8,4.2c2.2-1.4,4-3.2,5.4-5.3c0.8-1.1,1.4-2.3,1.8-3.5
		c0.5-1.6,0.1-3.4-1-4.7c-0.8-1.1-1.9-2.4-3.3-2.5c-1.1-0.1-2.1,0.4-2.7,1.3c-1.5,2.2-0.8,5.1-1.8,7.4l2.9,3.1
		c-0.7-2.6-1.7-5-3.1-7.4c-0.8-1.3-1.6-2.6-2.5-3.9c-0.8-1.2-1.8-2.2-2.9-3c-1.9-1-3.4,0.5-3.8,2.2c-0.6,2.3,0.4,4.8,1.4,6.9
		c1.4,2.7,3.5,5,6.1,6.6c1,0.5,0.5-0.9,0.4-1.3C381.3,360,380.5,359.1,379.6,358.4L379.6,358.4z"></path><path class="st2" d="M344.3,416.9c-2.8,0.4-5.6,0.4-8.4,0.1c-2-0.2-4.7-0.6-6.3-1.9c-0.4-0.3,0-0.1,0,0.1c-0.1-0.4-0.2-0.8-0.2-1.3
		c0.1-1,0.7-1.9,1.6-2.3c1.7-0.8,4-0.1,5.5,0.7c0.3,0.1,1,0.5,1.1-0.1c0.2-1.4,0.1-2.8-0.4-4.1c-0.4-1-0.6-2.1-0.7-3.1
		c0-0.9,0.4-1.7,1-2.2c0.3-0.2,0.7-0.4,1.1-0.3c0.2,0,0.7,0.4,0.4,0c0.3,0.3,0.5,0.7,0.7,1.1c0.3,0.5,0.5,1,0.8,1.5
		c0.6,1.1,1.1,2.3,1.5,3.5c1,2.6,1.6,5.2,2,7.9c0.2,1.2,0.9,2.2,1.8,2.9c0.4,0.3,1.8,1,1.6-0.1c-0.5-3.4-1.4-6.7-2.6-9.9
		c-1.2-3.1-2.7-6.6-5.1-9c-1-1-2.5-2.2-4.1-2c-1.1,0.2-2.1,1-2.4,2.1c-0.4,1.2-0.4,2.5,0,3.7c0.4,1.5,1.2,3.1,0.9,4.7l1.1-0.1
		c-2.2-1.1-5.4-2.3-7.8-0.9c-2.9,1.7-1.8,5.7-0.2,7.9c2,2.9,5.1,4.3,8.5,5c3.6,0.7,7.2,0.8,10.8,0.3c1.4-0.2-1.1-4.3-2.6-4.1
		L344.3,416.9z"></path><path class="st2" d="M94.2,354.8c-2-1.9-3.6-4.2-4.7-6.8c-1-2.4-1.9-5.4-1.5-8c0.1-1.2,0.8-2.2,1.9-2.7c0.2,0,0.4-0.1,0.6-0.1
		c0.6-0.3-1.9-0.4-1.6-0.2c0.4,0.3,0.8,0.5,1.2,0.9c1.9,2,1.9,5.1,1.9,7.7c0,0.7,4.8,1.5,4.9,0.9c0.6-2.8,2-5.3,4-7.4
		c0.5-0.5,1-1,1.6-1.5c0.3-0.2,0.7-0.4,1.1-0.6c1.1-0.4,0.3-0.5-2.4-0.5c0.1,0.1,0.2,0.3,0.3,0.4c0.6,1.2,0.7,2.7,0.3,4
		c-1.6,5.9-8.4,7.6-11.5,12.5c-0.2,0.3,2.2,0.8,2.4,0.9c0.5,0.1,2.2,0.5,2.5,0c2.9-4.5,8.8-6.2,11-11.2c1-2.1,1.2-5.5-1.4-6.6
		c-1.8-0.8-3.7-1-5.6-0.6c-1.2,0.4-2.2,1.1-3,2.1c-2.1,2.1-3.6,4.8-4.2,7.7l4.9,0.9c0-2.5-0.1-5.3-1.6-7.4s-4.9-2.8-7.3-2.9
		s-4.6,0.6-4.9,3.3c-0.1,2.6,0.4,5.2,1.4,7.6c1.1,2.7,2.8,5.2,4.9,7.3c0.7,0.6,2.1,0.7,3,0.8C92.7,355,94.6,355.1,94.2,354.8
		L94.2,354.8z"></path></g></svg>