<svg transform="scale(1)" version="1.1" id="KzZVVTYYf3" xmlns="http://www.w3.org/2000/svg" xmlns:xlink="http://www.w3.org/1999/xlink" x="0px" y="0px" viewBox="0 0 500 500" xml:space="preserve" class="pbimage_pbimage__wrapper__image__0LEis false"><title>Fast 1</title><style type="text/css"> .st0{fill:#FFFFFF;} .st1{fill:#59BE4C;} .st2{fill:#000005;}
 .st2{fill:#000005;}
 .st1{fill:#59BE4C;}
 .st0{fill:#FFFFFF;}</style><g id="cloud"><path class="st0" d="M81.9,120.9c0,0,67.8,0.5,74.7-1s14.9-13.3,7.3-27.2s-19-9.8-19-9.8s1-19.3-22.7-18.3S99.5,87.8,99.5,87.8
		s-17.8,0.8-15.6,15.1c0,0-8.3-3-12.7,7.5S81.9,120.9,81.9,120.9z" fill="#FFFFFF"></path><path class="st1" d="M81.2,121.4c5,0,10,0.1,15,0.1c10.4,0,20.7,0,31.1-0.1c8.7-0.1,17.4-0.1,26.1-0.6c3.1-0.2,6.2-0.4,8.9-2.2
		c5.5-3.8,7.8-11,6.9-17.5c-1-7-5.5-14.7-12.3-17.6c-4.2-1.7-8.9-2-13.3-0.9c-0.3,0.1-0.6,0.2-0.9,0.2l4.7,0.1
		c0-2.5-0.4-4.9-1.4-7.2c-2-4.9-6.1-8.7-11.2-10.2c-4.3-1.2-8.9-1.7-13.3-1.3c-4.1,0.1-8.2,1-12,2.6c-5.1,2.3-9,6.6-10.9,11.8
		c-1.1,2.9-1.7,6.1-1.6,9.2l2.5-0.5c-6,0.3-13.6,2-16.9,7.6c-1.3,2.4-1.7,5.2-1.2,7.9l4.7-0.3c-2.2-0.6-4.5-0.8-6.8-0.4
		c-3.5,0.2-6.8,2.1-8.8,5c-1.8,2.6-3.7,6.7-1.8,9.8c1.3,2.1,3.9,3.1,6.2,3.7C77,121.1,79.1,121.4,81.2,121.4c0.5,0,2.8,0.2,3.1-0.4
		s-1.5-0.5-1.8-0.5h-0.2c-0.7,0,0.6,0.1-0.2,0h-0.5h-0.3c-0.3,0,0.5,0.1,0,0s-0.9-0.1-1.3-0.2c-2-0.3-3.9-1.2-5.5-2.4
		c-1.9-1.8-2-4.4-1.1-6.7c1.1-3.2,3.3-6.6,6.6-7.8c0.3-0.1,0.5-0.2,0.8-0.3c0.1,0,0.3,0,0.4-0.1c-0.3,0.1,0.2,0.1-0.1,0h-0.3
		c-0.5,0,0.2,0-0.2,0c0.1,0,0.7,0.1,0.3,0l0.4,0.1l0.3,0.1c0.5,0.2,4.8,0.3,4.7-0.3c-0.6-4.3,0.5-8.3,4-11c2.5-1.8,5.4-3,8.4-3.4
		c0.5-0.1-0.3,0,0.1,0l0.4-0.1l0.7-0.1c-1.3,0.2,1.4-0.1-0.5,0c0.2,0,2.5,0,2.5-0.5c-0.3-7,3-14.5,8.6-18.7
		c9.3-6.8,25.2-5.2,30.2,6.2c1.1,2.4,1.6,5,1.6,7.7c0,0.7,4.2,0.3,4.7,0.1c0.2-0.1,0.6-0.2,0.3-0.1l0.7-0.1c0.5-0.1-0.3,0,0.1,0
		s0.6-0.1,0.1,0h0.3c-0.4,0,0.6,0-0.1,0c0.1,0,0.2,0,0.4,0c0,0-0.4,0-0.1,0h0.5c1,0.1,2,0.4,3,0.8c6.5,2.7,10.9,9.9,12.1,16.6
		c1.1,6.3-0.7,13.4-5.9,17.5c-0.9,0.8-2,1.4-3.2,1.8c-0.2,0-0.3,0.1-0.5,0.1c-0.4,0.1,0.5,0-0.1,0l-0.6,0.1h-0.1h-0.2
		c-0.6,0.1-1.1,0.1-1.7,0.1l-1,0.1h-0.7l-2.5,0.1c-1.9,0.1-3.9,0.1-5.8,0.2c-4.6,0.1-9.3,0.2-13.9,0.2c-9.8,0.1-19.5,0.1-28.9,0.1
		l-16.4-0.1h-0.2c-0.5,0-2.8-0.2-3.1,0.4S81,121.4,81.2,121.4z" fill="#59BE4C"></path><path class="st0" d="M135.9,89.1c0,0,5-10.8,19.4-4.8" fill="#FFFFFF"></path><path class="st1" d="M138.3,89.7c0-0.1,0.1-0.2,0.1-0.3l0.1-0.3c0.1-0.2-0.2,0.3,0,0l0.1-0.2c0.5-0.8,1.1-1.5,1.8-2.2
		c0.9-0.8,1.9-1.5,2.9-2c0.3-0.2,0.7-0.3,1-0.4c0.3-0.1,0.6-0.2,0.9-0.3c0.8-0.2,1.5-0.3,2.3-0.3h0.8h0.6c0.6,0.1,1.2,0.1,1.8,0.2
		c-0.3,0,0.4,0.1,0.6,0.1c0.3,0.1,0.7,0.2,1,0.3c0.7,0.2,1.3,0.5,2,0.8c0.8,0.3,2.5,0.8,3.2,0s-0.7-1.6-1.3-1.9
		c-4.8-1.9-10.2-3-15.2-1.3c-2.6,0.9-4.9,2.6-6.5,4.8c-0.4,0.5-0.7,1-1,1.6C132.8,89.8,137.5,91.4,138.3,89.7L138.3,89.7z" fill="#59BE4C"></path><path class="st0" d="M347.3,431.6c0,0,67.9,0.5,74.7-1s14.9-13.3,7.3-27.1s-19-9.8-19-9.8s1-19.4-22.7-18.3s-22.7,23.1-22.7,23.1
		s-17.8,0.8-15.6,15.1c0,0-8.3-3-12.7,7.5S347.3,431.6,347.3,431.6z" fill="#FFFFFF"></path><path class="st1" d="M347.1,433.7c4.9,0,9.8,0,14.8,0.1c10.2,0,20.3,0,30.5-0.1c8.5-0.1,17-0.1,25.5-0.6c3.4-0.2,6.3-0.6,9.2-2.6
		c5.7-4,8.3-11.4,7.6-18.1c-1.1-11.8-11.6-24-24.3-20.9c-0.2,0-0.4,0.1-0.6,0.2l3,2c0.3-8.4-4.9-16-12.7-18.8
		c-8-2.7-16.8-2.3-24.5,1.2c-5.3,2.6-9.4,7.2-11.4,12.8c-1.2,3.1-1.8,6.3-1.7,9.6l2.6-2.1c-6.5,0.3-14,3-17.1,9.1
		c-1.3,2.7-1.6,5.7-1.1,8.6l3.8-2.4c-5.8-2.1-12,0.9-15,6.1c-1.9,3.2-3.4,7.3-1.3,10.8c1.5,2.5,4.5,3.8,7.2,4.5
		C343.4,433.4,345.3,433.7,347.1,433.7c1.3,0,2.4-0.9,2.7-2.1c0-1.2-1-2.1-2.1-2.1c-0.1,0-0.1,0-0.2,0c-0.3,0-0.7,0-1,0H346
		c-0.4,0,0.6,0.1,0,0c-0.5-0.1-0.9-0.1-1.4-0.2s-0.9-0.2-1.4-0.3l-0.7-0.2l-0.4-0.1c-0.3-0.1,0.4,0.1-0.1,0s-1-0.4-1.5-0.7l-0.3-0.2
		c-0.3-0.2,0.3,0.2,0,0c-0.2-0.2-0.5-0.4-0.7-0.6c-0.1-0.1-0.5-0.5-0.4-0.4s-0.3-0.4-0.4-0.5s-0.3-0.7-0.2-0.3
		c-0.1-0.3-0.2-0.6-0.2-0.9c-0.1-0.5-0.1-0.9,0-1.4c0.1-0.7,0.3-1.4,0.6-2.1c0.7-1.7,1.7-3.3,3-4.6c0.3-0.2,0.5-0.5,0.8-0.7
		c0.2-0.2,0.4-0.3,0.6-0.4c0.3-0.1,0.5-0.3,0.8-0.4c0.1,0,0.5-0.2,0,0l0.6-0.2c0.3-0.1,0.6-0.1,0.9-0.2s-0.5,0-0.1,0h0.5
		c0.2,0,0.5,0,0.7,0h0.3c0.5,0-0.5-0.1-0.1,0s0.7,0.1,1,0.2s0.9,0.3-0.1-0.1c1.7,0.6,4.1-0.3,3.8-2.4c-0.4-2-0.1-4.1,0.7-6
		c0.3-0.7,0.8-1.4,1.3-2l0.3-0.3c0,0-0.2,0.2,0,0.1l0.5-0.4c0.3-0.3,0.7-0.6,1.1-0.8c0.1-0.1,0.5-0.4,0.1-0.1l0.5-0.3
		c0.4-0.2,0.8-0.4,1.2-0.6s0.8-0.4,1.2-0.5l0.5-0.2c-0.5,0.2,0,0,0.2,0c1.3-0.4,2.7-0.8,4-1c0.3-0.1,1.1-0.1,0.3,0
		c0.2,0,0.4,0,0.6-0.1h0.6c1.1,0,2.7-0.8,2.7-2.1c0-0.7,0-1.3,0.1-2c0-0.7,0.1-1.5,0.2-2.2c0.1-0.4,0.1-0.8,0.2-1.2l0.1-0.7
		c-0.1,0.5,0.1-0.3,0.1-0.4c0.3-1,0.6-2,1-2.9c0.2-0.5,0.4-1,0.7-1.5c0.1-0.3,0.3-0.5,0.4-0.8s-0.3,0.4,0.1-0.1l0.3-0.4
		c1.3-2.1,3-4,5.1-5.4c0.5-0.3,1-0.7,1.6-0.9c0.7-0.4,1.4-0.7,2.2-1c1.6-0.6,3.2-1,4.9-1.2c3.8-0.6,7.7-0.5,11.4,0.4
		c2.6,0.6,5,1.8,7,3.5c0.4,0.4,0.8,0.8,1.2,1.2c0.3,0.4,0.6,0.7,0.9,1.1c0.6,0.9,1.1,1.8,1.6,2.8l0.1,0.3c0.1,0.2-0.1-0.4,0,0.1
		c0.1,0.2,0.2,0.5,0.3,0.8c0.2,0.5,0.3,1,0.4,1.4c0.2,0.8,0.4,1.7,0.5,2.5c0,0.3,0,0.5,0.1,0.8c0-0.4,0,0.3,0,0.5s0,0.5,0,0.7
		c0,1.2,1.1,2.2,2.3,2.1c0.2,0,0.4-0.1,0.7-0.1l0.6-0.2c0.2-0.1,0.4-0.1,0.6-0.1l0.4-0.1c0.6-0.1-0.5,0,0.1,0c0.8-0.1,1.6-0.1,2.5,0
		h0.3c0.4,0-0.4,0,0,0l0.7,0.1c0.6,0.1,1.1,0.2,1.6,0.4c1.1,0.3,2.1,0.8,3,1.4c1.2,0.8,2.3,1.7,3.3,2.8c2.7,3,4.5,6.5,5.5,10.4
		c1.4,6-0.1,13-5,16.9c-0.4,0.3-0.8,0.6-1.2,0.8c-0.2,0.1-0.5,0.2-0.8,0.4c0,0-0.4,0.2-0.1,0.1s-0.3,0.1-0.3,0.1
		c-0.4,0.1-0.8,0.2-1.2,0.2s0.6-0.1,0.3,0h-0.3l-0.8,0.1l-1.8,0.1c-8.1,0.5-16.2,0.5-24.4,0.6c-9.8,0.1-19.6,0.1-29.4,0.1
		c-5.5,0-11.1-0.2-16.6-0.1h-0.2c-1.3,0-2.4,0.9-2.6,2.1C344.9,432.8,345.9,433.7,347.1,433.7C347.1,433.7,347.1,433.7,347.1,433.7z
		" fill="#59BE4C"></path><path class="st0" d="M401.3,399.7c0,0,5-10.8,19.4-4.8" fill="#FFFFFF"></path><path class="st1" d="M403.5,399.4c0.2-0.3,0.3-0.6,0.5-0.9c0.2-0.3,0.4-0.6,0.7-0.9s0,0,0,0s0.1-0.2,0.2-0.3s0.4-0.4,0.6-0.6
		l0.6-0.5c-0.2,0.2-0.2,0.1,0,0s0.3-0.2,0.4-0.3l0.4-0.3c0.4-0.2-0.4,0.2,0,0l0.4-0.2l0.2-0.1c0.3-0.2-0.5,0.2-0.1,0.1l0.6-0.2
		l0.3-0.1c-0.4,0.1,0.2-0.1,0.3-0.1l0.6-0.2c-0.5,0.1,0.1,0,0.3,0s0.4-0.1,0.6-0.1c0.4,0,0.7-0.1,1.1,0c2.6,0.1,5.1,0.6,7.4,1.7
		c1.1,0.3,2.2,0.1,3.1-0.5c0.3-0.1,2.1-1.4,1.1-1.8c-4.9-2-10-2.7-15-0.9c-3.1,1.1-5.8,3.1-7.8,5.7c-0.3,0.4-0.7,0.9-0.9,1.4
		c-0.5,1,0.6,1,1.4,0.9C401.4,400.9,403.1,400.4,403.5,399.4L403.5,399.4z" fill="#59BE4C"></path></g><g id="character"><path class="st1" d="M180.1,217.4c0,0-51.2,32.9-44.3,38.2c6.9,5.3,31.5-17.4,29.5-6s-41.2,42.4-33.8,61.1s37.7-30.6,48.6-49.2
		s14-21.8,11.9-3c-1.2,10.7,11.7-25.4,11.7-25.4L180.1,217.4z"></path><path class="st1" d="M178.6,215.4c-6.6,4.2-13,8.6-19.4,13.2c-5,3.6-10,7.3-14.7,11.2c-3.6,3-7.4,6.1-10,10
		c-0.9,1.2-1.4,2.6-1.3,4.1c0.4,2.3,2.1,4.1,4.4,4.5c2.4,0.4,4.9,0,7.1-1c2.8-1.1,5.5-2.4,8.2-3.9c2.5-1.3,4.8-2.6,7.3-3.8
		c1-0.5,2-0.8,3-1.1l0.6-0.1c0.5-0.1-0.3,0,0.2,0c0.1,0,0.3,0,0.4,0c0.5,0-0.5-0.1,0.1,0c-0.5-0.2-0.8-0.5-1.1-0.9
		c-0.3-0.6-0.2-0.5-0.1-0.3s0,0.3,0-0.2c0,0.2,0,0.4,0,0.6c0,0.4,0-0.3,0,0c0,0.1,0,0.3,0,0.4s-0.1,0.4-0.1,0.6l-0.1,0.5
		c-0.2,0.6,0,0-0.2,0.4c-1,2.1-2.2,4.1-3.5,5.9c-8.3,11.5-18.8,21.3-25.8,33.7c-3,5.2-5.7,11.4-4.9,17.5c0.6,4.4,3.2,10.2,8.5,10.2
		c4.5,0,8.6-3.8,11.6-6.8c4.8-4.9,9.1-10.2,13.1-15.8c8.5-11.8,15.8-24.4,23.4-36.9c1.1-1.9,2.3-3.8,3.6-5.6
		c0.7-1.2,1.6-2.3,2.5-3.3c0.3-0.3,0.6-0.6,1-0.8c-0.3,0.2-0.2,0.1,0.1,0c-0.5,0-1-0.1-1.4-0.5c-0.1-0.1-0.7-0.9-0.5-0.6
		c-0.2-0.4,0-0.3,0,0s-0.1-0.4,0-0.1l0.1,0.4c0,0.3,0,0.6,0.1,1c0.2,3.6-0.7,7-0.7,10.6c0,1.9,2.1,5.1,4.2,3.4c1.1-1,1.8-2.8,2.4-4
		c1-2.3,2-4.6,2.9-6.9c1.9-4.7,3.6-9.4,5.4-14.1c0.4-1,0.7-1.9,1.1-2.9c0.4-1.2-0.8-2.5-1.6-3.1l-20.7-13.7l-2.9-1.9
		c-0.6-0.5-1.6-0.4-2.1,0.2c-0.1,0.2-0.2,0.3-0.3,0.5c-0.3,1.2,0.7,2.4,1.6,3.1l20.5,13.7l2.9,1.9l-1.6-3.1
		c-0.1,0.2-0.2,0.5-0.2,0.7l-0.3,0.8l-0.2,0.5c-0.2,0.5,0.1-0.2-0.1,0.3c-0.8,2.1-1.6,4.2-2.4,6.4c-1.8,4.9-3.7,9.8-5.9,14.5
		c-0.4,0.8-0.7,1.6-1.2,2.3c-0.1,0.2-0.3,0.5-0.4,0.7c-0.1,0.1-0.1,0.2-0.2,0.3c0.1-0.2,0.3-0.3,0.1-0.1s0.5-0.2,0.2-0.1
		c1.3-0.1,2.5,0.7,2.9,2c-0.1-0.3,0,0.6,0,0.2c0-0.1,0-0.3,0-0.4c0-0.5-0.1,0.4,0-0.1c0-0.3,0.1-0.6,0.1-0.9
		c0.1-1.3,0.3-2.6,0.4-3.9c0.2-2.9,0.8-6.6-0.5-9.3c-0.6-1.3-1.8-2.2-3.2-2.4c-1,0.1-1.9,0.5-2.5,1.3c-2.5,2.5-4.4,5.7-6.2,8.7
		c-2.1,3.4-4,6.8-6,10.2c-3.4,5.7-6.9,11.4-10.6,17c-4,6.1-8.2,12.1-12.7,17.8c-3.6,4.4-7.4,9-12.1,12.2c-0.4,0.3-0.9,0.6-1.4,0.8
		c-0.3,0.2-0.7,0.4-1,0.5c-0.4,0.2-0.8,0.3-1.2,0.4l-0.5,0.1c-0.4,0.1,0.2,0-0.4,0h-0.5c-0.2,0-0.8-0.1-0.2,0
		c-0.2,0-0.3-0.1-0.5-0.1c-0.6-0.1,0.4,0-0.1,0c-0.1,0-0.3-0.2-0.4-0.2c0.7,0.3,0.1,0.2-0.1-0.1c-0.4-0.5,0.3,0.5,0,0
		c-0.1-0.2-0.3-0.4-0.4-0.6c0.3,0.4,0.1,0.3,0-0.1l-0.4-0.7c-0.3-0.6,0.1,0.3-0.1-0.3c-0.1-0.4-0.2-0.7-0.3-1
		c-0.1-0.5-0.2-0.9-0.3-1.4c-0.1-0.7-0.1-1.3-0.1-2c0-1.3,0.2-2.5,0.5-3.7c0.3-1.4,0.8-2.7,1.3-4c2.6-6.4,6.8-12.2,11-17.6
		c4.4-5.7,9.2-11.1,13.7-16.7c3-3.7,6.7-7.8,8-12.6c0.6-2.2,0.3-4.8-1.5-6.3c-1.7-1.4-3.9-1.1-5.8-0.4c-5.2,1.8-9.8,5-14.8,7.3
		c-1.2,0.6-2.5,1.1-3.7,1.5c-0.6,0.2-1.1,0.3-1.7,0.5l-0.7,0.1c0,0-0.5,0.1-0.3,0h-0.4c-0.4,0-0.9,0-1.3-0.1c0.4,0.1,0,0-0.1-0.1
		s-0.5-0.3,0,0c-0.1-0.1-0.2-0.1-0.3-0.2c-0.3-0.2,0.4,0.3,0.1,0.1c0.2,0.2,0.4,0.4,0.5,0.7c-0.2-0.4,0.1,0.3,0.1,0.3
		c-0.1-0.5,0.1,0.6,0,0.1s0,0,0,0.2c0-0.1,0-0.3,0.1-0.4s0.1-0.2,0.1-0.4c-0.1,0.4-0.1,0.2,0.1-0.1c0.3-0.6,0.7-1.3,1.1-1.9
		c0.2-0.3,0.5-0.6,0.8-1c0.1-0.1,0.2-0.2,0.3-0.3l0.5-0.6c0.8-0.8,1.5-1.6,2.4-2.4c4.2-3.8,8.5-7.4,13.1-10.8
		c8-6,16.3-11.7,24.7-17.2l1.5-0.9C183.6,218.1,180.6,214.2,178.6,215.4z"></path><path class="st1" d="M111.6,281.3c0,0-31.5,24.2-27.6,34.1s58.2-46.7,50.4-45.3C126,271.9,118.1,275.8,111.6,281.3z"></path><path class="st1" d="M109.7,280.3c-8,6-15.3,12.8-21.8,20.3c-1.9,2.2-3.6,4.6-5,7.1c-1.1,2-2,4.4-1.8,6.7c0.5,3.9,4.3,4.3,7.4,3.2
		c3.9-1.3,7.4-4,10.6-6.5c4.4-3.4,8.6-7.1,12.7-11c8-7.2,15.4-15.1,22.1-23.5c0.9-1.2,1.8-2.4,2.6-3.7c0.6-0.8,1-1.8,1-2.9
		c-0.4-2.6-4.1-1.6-5.6-1.3c-5.4,1.3-10.6,3.5-15.4,6.4C114.2,276.8,111.9,278.5,109.7,280.3c-0.6,0.4-0.8,1.2-0.3,1.8
		c0.1,0.2,0.3,0.4,0.6,0.5c1.1,0.5,2.5,0.4,3.5-0.4c4.1-3.4,8.7-6.2,13.7-8.2c2.2-0.9,4.6-1.6,6.9-2.1c0.5-0.1,1.2,0,0.2-0.1
		c-0.6,0-1.2-0.3-1.5-0.8c0.2,0.3-0.1-0.5-0.1-0.1c0-0.1,0.1-0.4,0,0c-0.1,0.2-0.1,0.3-0.2,0.5c-0.2,0.5,0.2-0.3-0.1,0.3
		c-0.7,1.2-1.4,2.3-2.3,3.3c-5.9,7.8-12.7,14.6-19.7,21.3c-3.9,3.7-7.8,7.4-12,10.8c-1.8,1.5-3.6,2.9-5.5,4.2l-1.2,0.9l-0.5,0.4
		c0.5-0.3-0.2,0.1-0.3,0.2c-0.7,0.5-1.5,0.9-2.2,1.3c-0.3,0.2-0.6,0.3-0.9,0.5l-0.5,0.2c-0.4,0.2,0.6-0.2-0.1,0l-0.8,0.2
		c-0.4,0.1-0.4-0.1,0.2,0c-0.1,0-0.3,0-0.4,0c-0.6,0,0.7,0.1,0,0c-0.3,0,0.7,0.2,0.3,0s0.4,0.2,0.2,0.1c-0.5-0.2,0.3,0.3,0,0
		s0.2,0.4,0.1,0.1s-0.1-0.2-0.2-0.3c-0.1-0.4,0,0.1-0.1-0.2s-0.1-0.4-0.1-0.5s0-0.4-0.1-0.6s0-0.7,0-0.6c0.1-1,0.4-1.9,0.8-2.8
		c1-2.2,2.3-4.4,3.9-6.3c6.1-8.1,14.1-14.9,22-21.2l0.5-0.4c0.6-0.4,0.8-1.3,0.3-1.9c-0.1-0.2-0.3-0.4-0.6-0.5
		C112.1,279.4,110.7,279.6,109.7,280.3z"></path><path class="st0" d="M176.1,211.7c0,0,14.1-25.1,33.2-42.4s37.4-29.4,41.4-25.6s-2.7,32.4-17,54.4c-8.2,12.7-17.2,24.8-27,36.4
		C206.7,234.4,181.6,226.3,176.1,211.7z"></path><path class="st1" d="M178.4,211.6c5.2-9,11.1-17.6,17.7-25.7c5.8-7.2,12.3-13.8,19.2-19.9c7-6.3,14.4-11.9,22.3-17
		c1.3-0.8,2.7-1.6,4.2-2.4c0.6-0.3,1.3-0.6,1.9-0.9l0.7-0.3l0.2-0.1l0.5-0.2l0.8-0.3c0.2-0.1,0.9-0.2,0.3-0.1l0.7-0.1l0.3-0.1
		c0.6-0.1-0.5,0,0,0h0.6c-0.4,0-0.1,0,0.1,0s-0.3-0.1,0.1,0c0.2,0.1,0.3,0.2,0.2,0.1c0.2,0.1,0.5,0.5,0.4,0.3
		c0.2,0.3,0.3,0.6,0.4,0.9c0.2,0.7,0.3,1.5,0.4,2.2c0.1,2.5-0.2,5-0.6,7.5c-2.8,16.3-10.1,31.9-19.2,45.6
		c-7.5,11.4-15.6,22.3-24.4,32.6l-0.4,0.5l3.8-1c-3-1-5.8-2.2-8.6-3.5c-5.7-2.5-10.9-6-15.5-10.2c-2.6-2.4-4.6-5.3-5.9-8.5
		c-0.6-1.6-5.3,0-4.7,1.6c2.3,6.1,7.5,10.8,12.9,14.3c4.7,3.1,9.7,5.7,15,7.7c1.1,0.4,2.1,0.8,3.2,1.2c1.4,0.4,2.8,0,3.8-1
		c7.8-9.1,15.1-18.6,21.8-28.6c5.7-8.1,10.7-16.6,14.8-25.6c3.4-7.5,5.9-15.3,7.7-23.2c0.6-2.8,1-5.7,1.2-8.5
		c0.1-1.7,0.1-3.8-0.7-5.3s-2.8-2-4.6-1.9c-2.8,0.3-5.6,1.2-8.1,2.6c-7.7,3.7-14.7,9.1-21.3,14.4c-8,6.3-15.4,13.2-22.3,20.7
		c-8.7,9.8-16.4,20.5-23,31.9l-0.3,0.6c-0.6,1,0.6,1.4,1.4,1.3C176.5,213.1,177.7,212.5,178.4,211.6z"></path><path class="st2" d="M155.6,212.3l22.7-4.1l13.1-19c0,0-11.5,0.2-13,1.4S155.6,212.3,155.6,212.3z"></path><path class="st2" d="M154.6,213.3l20.3-3.7l2.4-0.4c1.3-0.1,2.5-0.7,3.4-1.7c0.2-0.3,0.5-0.7,0.7-1l6.7-9.8l5.5-8.1
		c0.3-0.4-0.7-0.5-0.8-0.5c-3.4,0.1-6.7,0.2-10.1,0.6c-2.1,0.2-4.5,0.6-6.2,1.8c-0.7,0.5-1.3,1-1.9,1.6
		c-5.5,5.1-10.8,10.3-16.2,15.5l-5,4.9C152.6,213.4,154.2,213.4,154.6,213.3c1.2-0.1,2.3-0.5,3.2-1.3c3.9-3.8,7.8-7.6,11.7-11.3
		c2.6-2.5,5.2-5,7.9-7.5c0.8-0.8,1.6-1.6,2.5-2.3c0.2-0.2,0.9-0.6,0.3-0.3c-0.3,0.1-0.6,0.3-0.9,0.4c-0.7,0.3-0.2,0,0,0
		c-0.6,0.1,0.3,0,0.4-0.1c3.4-0.5,6.8-0.7,10.2-0.7l-0.8-0.5l-11.4,16.6l-1.7,2.4l3.4-1.6l-19.8,3.6l-2.9,0.5
		c-1,0.2-2.5,0.5-3.2,1.3S154,213.4,154.6,213.3z"></path><path class="st2" d="M207.4,201.1c0,0-5.8,6.4-7.7,8.9s-21.5,30.4-20.1,29.6s23.8-29.7,23.8-29.7L207.4,201.1z"></path><path class="st2" d="M205,201.6c-2.6,2.9-5.4,5.8-7.8,8.9c-1.6,2.1-3.1,4.2-4.6,6.4c-4.7,6.7-9.5,13.5-14,20.4
		c-0.6,0.8-1,1.6-1.5,2.5c-0.8,1.7,3.7,0.1,4.3-0.3c0.6-0.5,1.1-1,1.6-1.6c0.9-1.1,1.8-2.1,2.7-3.2c5.3-6.5,10.4-13.1,15.6-19.7
		c1.4-1.8,2.9-3.5,4.1-5.3c0.4-0.7,0.8-1.5,1.1-2.3l2.6-5.5l0.6-1.2c0.3-0.7-1.7-0.3-1.9-0.2C207.2,200.5,205.3,200.8,205,201.6
		c-1.4,2.9-2.5,5.9-4,8.6c-0.9,1.4-1.9,2.7-3,3.9c-5.2,6.6-10.4,13.3-15.7,19.8c-1.1,1.4-2.2,2.8-3.4,4.1c-0.4,0.4-0.8,0.9-1.2,1.3
		c-0.1,0.1-0.3,0.3-0.4,0.4s0.1,0,0-0.1l-0.1,0.1c-0.1,0-3.9,1.4,0.7-0.4l2.4-0.6c1.9-0.3,1,0.6,1.4-0.1c0.2-0.3,0.4-0.7,0.6-1
		c0.6-1,1.3-2.1,2-3.1c2.1-3.1,4.2-6.3,6.4-9.4c3.6-5.2,7.1-10.6,11-15.6c2.4-3.1,5.2-6,7.8-9c0.5-0.5-1.8-0.3-1.9-0.2
		C206.8,200.5,205.8,200.9,205,201.6z"></path><path class="st0" d="M364.8,88.2c0.5-0.5,20.4-25.4,25.9-24.5s-5.9,13.5-5.9,13.5c3.1,0.9,4.8,4.1,3.9,7.2c0,0,0,0.1,0,0.1
		c0,0,3.3,0.1,2.6,6.3c0,0-0.7,7-3,8.9s-4.3-3.1-4.3-3.1s-3.1,8-9.8,9c0,0-49.3,64.2-52.9,64.2s-19.9-19.2-19.7-25
		S364.8,88.2,364.8,88.2z"></path><path class="st2" d="M366.3,90.3c1.6-1.7,3.1-3.6,4.6-5.4c2.9-3.4,6-6.8,9.1-10.1c2.8-2.9,5.7-5.9,9.2-8c0.3-0.2,0.6-0.3,0.9-0.5
		c-0.4,0.2,0.4-0.1,0.6-0.2L391,66c0.4-0.1-0.3,0.1,0,0c0.1,0,0.2,0,0.3,0c0,0-0.2-0.1,0.1,0.1c-0.2-0.1-0.5-0.3-0.7-0.4
		c-0.1-0.2-0.3-0.3-0.4-0.5c0,0-0.2-0.6-0.1-0.3c-0.2-0.6,0.1-0.1,0-0.1s0,0.3,0,0s0,0.1,0,0.2c-0.2,0.7-0.5,1.4-0.8,2
		c-1.8,3.1-4,6-6.5,8.7c-1.1,1.2,0.7,3.5,1.8,3.8c0.2,0.1,0.4,0.2,0.6,0.2c0.4,0.2-0.5-0.3,0,0l0.3,0.2l0.4,0.3c0.4,0.2-0.2-0.2,0,0
		l0.4,0.3c-0.3-0.2-0.1-0.2,0,0.1s0.3,0.5,0.1,0.1c0,0,0.3,0.6,0.2,0.4c0.2,0.8,0.2,1.6,0,2.4c-0.2,1.7,0.9,3.2,2.5,3.5
		c0.2,0,0.4,0.2-0.2-0.1l0.2,0.1c0.3,0.1-0.5-0.3-0.1-0.1s0,0-0.1-0.1c0.3,0.5-0.1-0.2,0,0c0.4,0.5-0.1-0.4,0.1,0.1s0-0.3,0.1,0.3
		c0.3,1.6,0.3,3.3-0.1,4.9c-0.3,1.8-0.8,4.6-2.1,5.8c0.1,0-0.4,0.3-0.4,0.2s0.4,0,0.4,0.1c0.2,0.2,0.2,0.2,0,0s-0.2-0.2-0.1-0.1
		s-0.3-0.4-0.3-0.5c-0.3-0.4,0.1,0.3-0.1-0.2c-0.1-0.2-0.2-0.3-0.2-0.5s-0.2-0.4-0.3-0.6c-0.6-1.5-3-2.7-3.7-0.8
		c-0.1,0.3,0.2-0.5,0-0.1s-0.3,0.6-0.4,0.9c-0.4,0.9-0.9,1.7-1.5,2.5c-1.4,2.2-3.5,3.8-6,4.5c-0.7,0-1.3,0.3-1.7,0.8
		c-0.1,0.1-0.2,0.3-0.3,0.4l-1.2,1.7c-4,5.2-8,10.3-12,15.4c-5.8,7.4-11.6,14.7-17.5,22.1c-5.1,6.3-10.2,12.7-15.7,18.8
		c-0.5,0.5-1,1.1-1.5,1.6l-0.2,0.2c0.2-0.2-0.2,0.2-0.2,0.2c-0.2,0.2-0.4,0.4-0.6,0.6c-0.6,0.7-1.3,1.4-2,2
		c-0.2,0.2-0.5,0.4-0.7,0.5c-0.5,0.4,0.3-0.1-0.1,0.1c0,0,0.6-0.1,0.3,0c-0.2,0,0-0.1,0.1,0c0.2,0.5,0-0.2,0,0l-0.3-0.1
		c0.4,0.1,0.2,0.1,0,0l-0.8-0.5c-0.5-0.3,0.2,0.2-0.1-0.1l-0.6-0.5c-3.6-3.1-6.8-6.6-9.5-10.5c-0.8-1.1-1.6-2.1-2.3-3.2l-1-1.5
		c-0.4-0.7-0.3-0.5-0.7-1.2c-0.5-0.9-0.9-1.7-1.3-2.6c0-0.1-0.3-0.7-0.1-0.4s-0.1-0.2-0.1-0.3s-0.1-0.3-0.1-0.5c0-0.1,0-0.1,0-0.2
		c-0.1-0.4,0,0.4,0,0.1c0-0.6,0-0.4,0-0.1c0-0.1,0.1-0.2,0.1-0.3c0,0-0.3,0.5,0,0.1c0.1-0.1,0.2-0.3,0.3-0.5
		c0.5-0.8,1.1-1.5,1.7-2.2l0.6-0.7l0.3-0.4l0.1-0.2c0.5-0.5,1-1,1.5-1.5c1.2-1.2,2.4-2.4,3.7-3.6c6.4-6.1,13.2-11.9,19.9-17.7
		c7-6,14.1-11.9,21.2-17.8c4.2-3.4,8.3-6.8,12.5-10.2l0.6-0.5c1.8-1.5-1.1-5.5-2.9-4c-2.8,2.2-5.7,4.4-8.4,6.6
		c-6.4,5.3-12.8,10.5-19.1,15.9c-7,5.9-13.9,11.8-20.7,18c-4.8,4.3-9.8,8.6-13.8,13.7c-1.3,1.7-1.9,3.1-1.4,5.4
		c1,4.3,4,8.3,6.6,11.8c2.9,4,6.2,7.7,9.9,11.1c1.7,1.5,4.5,4.3,6.9,2.8c1.4-1,2.7-2.2,3.8-3.6c2.2-2.4,4.3-4.8,6.4-7.2
		c5.6-6.6,11.1-13.4,16.5-20.2s10.9-13.8,16.3-20.7c3.1-4,6.2-8,9.3-12l0.4-0.6l-0.7,0.5c5.1-0.8,8.9-5.3,10.7-9.9l-3.7-0.8
		c0.7,1.9,2,3.6,3.7,4.8c2.8,1.7,4.8-0.8,5.8-3.2c1.5-3.8,2.7-9.6,0.5-13.4c-0.8-1.6-2.4-2.7-4.1-3l2.5,3.5c1-4.4-1.4-9.3-5.9-10.7
		l1.9,3.8c2.3-2.4,4.3-5.1,6-8c1-1.7,2-3.8,1.5-5.8c-0.5-2.3-2.7-3.8-5.1-3.5c-1.5,0.4-2.9,1.1-4.1,2.1c-1.7,1.3-3.3,2.7-4.9,4.2
		c-3.7,3.6-7.2,7.4-10.6,11.3c-1.5,1.7-2.9,3.4-4.3,5.1l-1.4,1.7c-0.2,0.2-1,1.1-0.3,0.4c-0.7,0.9-0.7,2.2,0.1,3
		C363.9,89.9,365.5,91.1,366.3,90.3z"></path><polygon class="st0" points="321.4,169.8 299.2,195.4 281.5,155.3 303,138 	"></polygon><path class="st2" d="M319.8,167.9l-19.4,22.5l-2.8,3.2l3.2,2.2l-6-13.6l-9.5-21.6l-2.2-5l0.1,1.6L302,142l2.7-2.1l-2.9-1.7l16,27.9
		l2.3,4c0.4,0.7,1.6,2.1,2.6,1.8s0.2-1.7-0.1-2.2l-16.1-27.8l-2.3-4c-0.3-0.6-2-2.4-2.9-1.7l-18.9,15.2l-2.7,2.1
		c-0.5,0.4-0.1,1.2,0.1,1.6l6,13.6l9.5,21.6l2.2,5c0.2,0.6,2.3,3.2,3.2,2.2l19.4-22.5l2.8-3.2C324.1,170.4,320.7,166.8,319.8,167.9z
		"></path><path class="st0" d="M379.8,90.1c0,0-1.3,4.9,2.7,5s6.2-10.6,6.2-10.6"></path><path class="st2" d="M377.6,90.8c-0.3,1.1-0.3,2.2-0.1,3.3c0.2,0.9,0.7,1.7,1.5,2.2c1.1,0.6,2.4,0.7,3.5,0.4
		c2.3-0.7,4.2-2.3,5.3-4.4c0.9-1.7,1.7-3.4,2.2-5.3c0.3-1,0.6-2.1,0.8-3.1c0.2-1.1-0.9-1.2-1.7-1c-0.6,0.2-1.2,0.5-1.7,0.9
		c-0.5,0.3-0.8,0.8-1,1.3c-0.1,0.7-0.3,1.4-0.5,2.2s-0.4,1.4-0.7,2.1c-0.1,0.4-0.3,0.8-0.4,1.1c-0.1,0.2-0.1,0.3-0.2,0.5l-0.1,0.3
		c0,0.1-0.2,0.6,0,0.1c-0.3,0.7-0.7,1.4-1.1,2c-0.2,0.3,0.4-0.4,0.1-0.1l-0.2,0.2c-0.1,0.1-0.2,0.2-0.3,0.3
		c-0.2,0.3,0.5-0.4,0.2-0.2l-0.2,0.2c-0.2,0.2-0.4,0.2,0.3-0.2c-0.1,0.1-0.5,0.3,0,0s0.2-0.1,0.1,0s-0.3,0,0.3-0.1
		c-0.6,0.1,0.5,0,0,0s0.5,0.1-0.1,0h-0.4H383h0.1c-0.1-0.1-0.3-0.1-0.4-0.2s-0.1-0.1-0.2-0.2c-0.2-0.1,0.1,0.2,0,0
		c-0.2-0.3-0.4-0.6-0.5-0.9c0-0.1-0.1-0.3,0,0c0-0.1-0.1-0.2-0.1-0.3c0-0.2,0-0.3-0.1-0.5c0-0.3,0-0.7,0-1c0-0.2,0.2-0.6,0-0.1
		c0-0.1,0-0.2,0-0.3c0-0.1,0-0.2,0.1-0.3c0.3-1.1-0.9-1.2-1.7-1c-1.2,0.3-2.2,1.1-2.6,2.2L377.6,90.8z"></path><path class="st0" d="M374.8,80.5c0,0,10.6,1.2,10.6,5.1s-8.4,3.1-8.4,3.1c1.9,2.9,1.4,6.6-1.2,8.9"></path><path class="st2" d="M375.6,82.8l0.8,0.1c-0.1,0-0.3,0,0.1,0l0.5,0.1l1.1,0.2c0.9,0.2,1.7,0.4,2.6,0.7c0.4,0.1,0.9,0.3,1.3,0.4
		l0.5,0.2l0.3,0.1c0.5,0.2-0.3-0.2,0.1,0.1s0.7,0.4,1,0.6s-0.3-0.3,0.1,0.1s-0.2-0.3,0.1,0c0.1,0.1-0.3-0.6-0.1-0.1
		c-0.3-0.7-0.2-0.5-0.1-0.3c-0.2-0.6-0.1-0.4-0.1-0.3c-0.1-0.6,0-0.3,0-0.2c0,0.3,0,0,0-0.1s0,0.2-0.1,0.2c-0.1,0.3,0.2-0.2,0,0.1
		l-0.3,0.4c0,0-0.2,0.2,0,0c-0.1,0-0.1,0.1-0.2,0.2c-0.3,0.2-0.7,0.4-1,0.5c-0.7,0.3-1.5,0.4-2.3,0.5c-1.2,0.1-2.4,0.1-3.6,0
		c-0.6-0.1-0.9,0.7-1,1.2c0,0.8,0.3,1.7,0.8,2.3c0.2,0.3-0.2-0.3-0.2-0.3c0.1,0.2,0.2,0.3,0.3,0.5c0.2,0.4-0.1,0-0.1-0.2
		c0,0.1,0.1,0.3,0.1,0.4s0.1,0.3,0.1,0.5c-0.2-0.6,0,0,0,0.2s0.1,0.6,0,0.4s0,0.4,0,0.4c0,0.4-0.1,0.7-0.2,1.1c-0.4,1.1-1,2-1.8,2.8
		c-1.3,1.3,1.4,5.5,2.9,3.9c2-2,2.9-4.8,2.5-7.5c-0.2-1.6-0.8-3.1-1.7-4.5l-0.1,3.5c1.3,0.1,2.5,0.1,3.8,0c1.8-0.2,4-0.6,5-2.3
		c1.5-2.6-0.3-5.7-2.4-7.3c-1.7-1.2-3.7-2-5.8-2.4c-1.5-0.4-2.9-0.6-4.4-0.8c-1.1-0.1-1,1.8-0.8,2.4
		C373.6,81.7,374.5,82.6,375.6,82.8L375.6,82.8z"></path><path class="st2" d="M322.5,345.1c0,0,6.6,21.5,0.2,29.7s-15.1-18.5-18-29.9s-3.2-16.4,0.2-17s9.1-1.3,9.1-1.3L322.5,345.1z"></path><path class="st2" d="M320.2,345c1.4,4.7,2.4,9.5,2.8,14.3c0.4,3.6,0.2,7.2-0.7,10.7c-0.4,1.4-1.1,2.8-2,3.9
		c-0.1,0.2-0.3,0.3-0.5,0.5c-0.1,0.1-0.2,0.2-0.3,0.2c-0.2,0.2,0.3-0.2,0,0c-0.1,0-0.2,0.1-0.2,0.1c-0.4,0.1,0.2-0.1,0.1,0
		c-0.1,0-0.2,0-0.3,0c0.2,0.1,0.4-0.1,0.1,0c0.4,0,0.5,0.1,0.2,0c-0.5-0.1,0.5,0.2,0.2,0.1c-0.5-0.2,0.5,0.3-0.1-0.1
		s0.2,0.2-0.3-0.2c-0.2-0.2-0.4-0.4-0.6-0.6s-0.1-0.1,0,0l-0.4-0.5l-0.5-0.7c-0.4-0.6-0.9-1.3-1.2-1.9c-1.8-3.1-3.2-6.4-4.4-9.8
		c-2.8-7.3-5-14.8-6.6-22.5c-0.5-2-0.7-4.1-0.7-6.1c0-0.6,0.1-1.2,0.3-1.8c0.2-0.6,0.2-0.7,0.6-1c0.1-0.1,0.3-0.2,0,0
		c0.1-0.1,0.2-0.1,0.4-0.2l0.3-0.1c-0.5,0.2,0.3,0,0.4-0.1c1.2-0.2,2.5-0.4,3.7-0.6c1.6-0.2,3.2-0.4,4.8-0.6l-3.5-1.9L320.2,345
		c0.6,1.1,1.7,1.8,2.9,1.9c0.8,0.1,2.1-0.4,1.6-1.5l-8.5-18.5c-0.7-1.3-2-2-3.5-1.9c-1.5,0.2-3,0.4-4.5,0.5
		c-1.9,0.2-4.2,0.3-5.9,1.1c-2.8,1.3-2.5,4.9-2.3,7.4c0.6,4.6,1.6,9.2,3,13.7c1.1,3.8,2.3,7.6,3.6,11.3c1.3,3.9,3,7.6,4.9,11.2
		c1.5,2.7,3.4,5.7,6.3,7.1c7.6,3.8,9.7-7.2,9.8-12.4c0-6.7-1.1-13.3-3.1-19.6C324.2,343.6,319.5,342.5,320.2,345z"></path><path class="st0" d="M341.9,323.9c0,0-16.8,19.2-17,20.1s-0.7,24.8-4.2,20.7c-2.5-2.9-12-36.5-8.9-37.3S328,304,328,304
		L341.9,323.9z"></path><path class="st2" d="M339.8,322.7c-5.2,6-10.6,12-15.6,18.2c-0.8,0.8-1.4,1.8-1.7,2.9c-0.1,1.3-0.2,2.6-0.2,3.9
		c-0.1,4.5-0.6,9-1.4,13.4c-0.2,0.8-0.4,1.5-0.7,2.3c-0.1,0.3,0.2-0.4,0,0c0,0.1-0.2,0.2-0.2,0.3c0.1-0.8,2.1-0.3,2.5-0.2
		s0.7,0.7,0.4,0.2s0.2,0.4-0.1-0.3s-0.6-1.3-0.9-1.9c-1.7-4.4-3.1-8.9-4.3-13.5c-1.4-4.9-2.5-9.8-3.4-14.8c-0.1-0.9-0.2-1.8-0.3-2.6
		c0-0.3,0-0.7,0-1c0-0.2,0-0.3,0-0.5c0-0.4,0.1-0.3,0-0.1c0.1-0.2,0.1-0.4,0.1-0.6c0-0.2-0.3,0.4-0.1,0.2c-0.2,0.2-0.4,0.3-0.6,0.4
		c0.7-0.2,1.3-0.7,1.8-1.2c3.3-3.1,5.7-7.3,8.1-11.1c2.3-3.6,4.5-7.2,6.7-10.9l0.4-0.7l-4.2-0.5l12.1,17.3l1.8,2.5
		c1.3,1.9,5.9,1.1,4.1-1.4l-12.1-17.3l-1.8-2.5c-0.7-1-3.4-1.9-4.2-0.5c-1.7,2.9-3.5,5.8-5.3,8.7c-2.7,4.4-5.4,8.9-8.8,12.8
		c-0.3,0.3-0.5,0.6-0.8,0.9s0.1,0-0.1,0.1c-0.1,0.1-0.2,0.2-0.4,0.3c-0.3,0.3,0.4-0.2,0,0c-0.4,0.2-0.8,0.5-1.1,0.8
		c-0.8,1.2-0.6,2.9-0.5,4.3c0.6,5,1.6,9.9,3,14.7c1.3,5.1,2.8,10.2,4.6,15.1c0.5,1.6,1.2,3,2,4.4c1.1,1.6,3.6,2.7,5.3,1.4
		c1.4-1,1.7-3.2,2-4.7c0.4-2.5,0.8-5,0.9-7.5c0.2-2.3,0.3-4.6,0.5-7c0-0.7,0.1-1.5,0.1-2.2c0-0.2,0-0.4,0-0.6c0,0.2,0,0.4-0.2,0.6
		c0.3-0.4,0.6-0.8,0.9-1.2c0.6-0.7,1.1-1.4,1.7-2.1c1.6-2,3.3-3.9,4.9-5.8c2.9-3.4,5.9-6.8,8.8-10.2l0.5-0.6
		C345.8,323.1,341.2,321,339.8,322.7z"></path><path class="st2" d="M245.9,280c0,0,78.8-1.8,81.8-1.2s-23.7,28.4-10,43.8s41.4,17.1,58-46.1s-112.9-49-112.9-49L245.9,280z"></path><path class="st2" d="M244,281.4c9.8-0.2,19.5-0.4,29.3-0.6c14.9-0.3,29.8-0.6,44.7-0.7c2,0,4,0,6,0c0.5,0,1,0,1.5,0.1
		s0.5,0.1,0.4,0.3c-0.2,0.7-0.6,1.4-1,2c-0.7,1.2-1.5,2.4-2.2,3.5c-2,3.2-4,6.4-5.8,9.7c-3.6,7-7.2,15.9-4.1,23.7
		c2,4.9,6.8,9,11.5,11.2c4.4,2.2,9.3,2.8,14.1,1.7c6.7-1.5,12.8-5.8,17.5-10.6c6.5-6.7,11-15.3,14.5-23.9c2.5-6,4.6-12.2,6.3-18.5
		c1.3-4,2.1-8.1,2.5-12.3c0.5-5.6-0.7-11.3-3.3-16.3c-2.7-4.7-6.6-8.7-11.2-11.7c-10.6-7-23.8-10.1-36.3-12
		c-13-1.8-26.1-2.6-39.2-2.2c-7.8,0.1-15.5,0.5-23.3,1.2l-1.1,0.1c-0.8,0.2-1.6,0.5-2.2,1c-0.6,0.3-1.7,0.9-1.9,1.6l-5.7,17.7
		l-9.1,28.3l-2.1,6.5c-0.2,0.6,1.7-0.3,1.8-0.4c0.7-0.4,2.2-1.1,2.4-1.9l5.7-17.8l9.1-28.3l2.1-6.5l-4.1,2.5
		c5.4-0.6,10.9-0.9,16.3-1.1c12.2-0.6,24.4-0.3,36.6,0.7c13,1.2,26.3,3.4,38.4,8.6c10,4.4,19.4,11.7,22.1,22.8
		c1.6,6.5,0.6,13.1-1.1,19.5c-3.1,11.5-7,23-13.1,33.3c-2.1,3.6-4.5,7-7.4,10.1c-0.5,0.6-1.1,1.1-1.6,1.7s-1.2,1.1-1.8,1.6
		c-0.2,0.2-0.5,0.4-0.8,0.6c-0.1,0-0.6,0.4-0.1,0.1l-0.5,0.3l-0.5,0.3c-0.5,0.4,0.5-0.3-0.1,0l-0.5,0.3c-0.6,0.4,0.2-0.1-0.2,0.1
		l-0.8,0.4c0.5-0.3-0.4,0.2-0.5,0.2l-0.5,0.2c0.4-0.2-0.1,0-0.1,0l-1.1,0.4c-1.1,0.3-2.3,0.6-3.4,0.8c-2.3,0.3-4.6,0.2-6.9-0.3
		c-4.5-1.1-8.7-3.5-11.9-6.8c-2.6-2.4-4.3-5.4-5.1-8.9c-0.6-4.1-0.2-8.3,1.2-12.2c2.4-7.3,6.6-13.7,10.7-20.1
		c0.4-0.6,2.5-3.4,1.9-4.2c-0.4-0.5-2.2-0.2-2.8-0.2c-13-0.2-26,0.2-39,0.5c-12.7,0.2-25.4,0.5-38.1,0.8l-2.2,0
		c-1,0.2-2,0.6-2.8,1.3C245,280.1,243.4,281.4,244,281.4z"></path><path class="st2" d="M145.2,408.1c0,0-5.3,23.4-15.6,27.7s-4.2-25.2-0.8-37.4s5.1-15.4,7.8-18c3.5-3.4,9.4,0.6,9.4,0.6L145.2,408.1
		z"></path><path class="st2" d="M143.2,406.7c-1.2,5.1-2.8,10-5,14.8c-1.5,3.5-3.5,6.8-6.1,9.6c-1.1,1.2-2.5,2.2-4,2.9
		c-0.4,0.2-0.8,0.3-1.2,0.4c-0.2,0-0.7,0.1-0.3,0c-0.1,0-0.2,0-0.3-0.1c0.3,0.1,0.4,0.1,0.2,0.1s-0.1-0.1,0.1,0c0.4,0.2,0,0,0,0
		c0.6,0.4,0.3,0.3,0.2,0.1c0,0,0.5,0.5,0.2,0.2s0.3,0.5,0,0.1c-0.1-0.1-0.4-0.8-0.2-0.3c-0.1-0.3-0.2-0.6-0.3-0.9
		c-0.3-1.3-0.5-2.7-0.5-4.1c0-3.8,0.3-7.6,0.9-11.3c1.3-8.4,3.3-16.8,5.9-24.9c1.1-3.4,2.2-7.1,4.5-9.8c1.2-1.4,2.6-2.4,4.6-2.2
		c0.9,0.1,1.8,0.4,2.6,0.8l0.6,0.3c0.1,0,0.7,0.4,0.3,0.2s0.1,0,0.2,0.1l-1.5-2.4l-0.6,23.7l-0.1,3.4c0,1.7,4,4.5,4.1,2l0.6-23.6
		c0-1.1,0.1-2.3,0.1-3.4c-0.1-2.5-3.6-3.8-5.6-4.5c-3-1-6-0.8-8.2,1.6c-1.2,1.4-2.3,2.9-3,4.6c-2.7,5.6-4.2,12-5.6,18
		c-1.4,5.9-2.5,11.8-3.2,17.8c-0.5,4.6-1.2,10.1,0.9,14.4c0.9,2,2.6,3.5,4.7,4c2.2,0.4,4.3-0.8,6-2.1c4.4-3.3,7.1-8.9,9.2-13.8
		c1.6-3.9,3-8,4-12.1c0.1-0.2,0.1-0.5,0.2-0.7c0.2-1.1-0.7-2.2-1.5-2.8C145.1,406.3,143.5,405.5,143.2,406.7z"></path><path class="st0" d="M176,374.4c0,0-27.1,33.1-27.8,33.8s-13.9,22.6-14.9,17c-0.8-4.1,8-40.2,10.2-42.9c4-5.1,20.4-34.6,20.4-34.6
		L176,374.4z"></path><path class="st2" d="M174.3,372.6c-6.3,7.6-12.6,15.3-18.8,23c-2.9,3.5-5.7,7-8.6,10.4c-2.4,2.8-4.2,6.2-6.3,9.3
		c-1.6,2.4-3.3,4.7-5.2,6.9c-0.6,0.7-1.3,1.3-2.1,1.8c0.5-0.3,0,0-0.1,0c-0.3,0.1,0.3,0,0.5,0c0.6,0.3,1.1,0.7,1.5,1.2
		c-0.1-0.2,0.3,0.6,0.1,0.3s0.2,0.4,0.1,0.2c0-0.1,0-0.2,0-0.3c0-0.2,0,0.5,0,0c0-0.4,0-0.8,0.1-1.2c0.1-1.1,0.3-2.2,0.5-3.3
		c0.5-3,1.1-6,1.8-9c1.5-6.8,3.1-13.7,5.1-20.4c0.6-2,1.2-4.2,2-6.3c0.1-0.3,0.2-0.6,0.4-0.9c0.1-0.1,0.1-0.2,0.2-0.3
		c0.2-0.4-0.2,0.3,0,0c0.6-0.8,1.2-1.7,1.8-2.6c6.6-10.1,12.4-20.9,18.3-31.4l0.4-0.8l-3.8-1.5l10.7,23.4l1.5,3.3
		c0.5,1,1.4,2.2,2.7,2.2c0.8-0.1,1.4-0.8,1.3-1.6c0-0.2-0.1-0.4-0.2-0.6L167.2,351l-1.5-3.3c-0.5-1.1-2.8-3.4-3.8-1.5
		c-5.6,10-11.1,20-17.1,29.7c-0.7,1.1-1.4,2.2-2.1,3.2l-0.8,1.1c0,0.1-0.1,0.1-0.1,0.2c-0.2,0.3,0.2-0.3,0,0
		c-0.2,0.2-0.3,0.4-0.4,0.6c-0.8,1.6-1.4,3.3-1.9,5.1c-2,6.7-3.7,13.5-5.3,20.3c-0.8,3.3-1.5,6.7-2.1,10c-0.5,2.2-0.8,4.5-0.9,6.7
		c-0.1,2.3,1.3,5.8,4.3,5.1c2-0.5,3.6-2.7,4.8-4.2c3.5-4.4,6.4-9.1,9.5-13.8c0.2-0.2,0.6-0.7,0.1-0.1l0.2-0.1
		c0.4-0.4,0.7-0.8,1.1-1.2c1.5-1.8,2.9-3.5,4.4-5.3c7.3-8.8,14.5-17.7,21.8-26.5l0.5-0.6c0.6-1,0.5-2.2-0.4-3
		C176.7,372.8,175.1,371.6,174.3,372.6z"></path><path class="st2" d="M227.4,221.7c0,0-91.5,120.8-80.3,145s36.2,25.5,69.9-8.8s82.4-131.5,82.4-131.5L227.4,221.7z"></path><path class="st2" d="M225.2,220.8c-3.2,4.2-6.3,8.5-9.4,12.8c-7.5,10.3-14.9,20.8-22.1,31.3c-8.8,12.9-17.4,26-25.4,39.4
		c-7.2,12-14.1,24.3-19.5,37.3c-2,4.7-3.6,9.5-4.6,14.5c-0.6,3.3-1,7.1,0.4,10.3c2.9,6.8,7.9,13.1,14.6,16.4
		c7.2,3.6,15.4,3.7,23.1,1.4c10.4-3,19.4-9.5,27.5-16.5c7.2-6.2,13.8-13.1,19.7-20.5c11.4-14.2,21.3-29.6,30.8-45.2
		c9.3-15.2,18.1-30.8,26.6-46.5c4.9-9,9.6-18,14.2-27l0.6-1.3c0.7-1.5-1.6-2.2-2.6-2.3l-24.4-1.6l-38.7-2.5l-8.9-0.6
		c-0.8-0.1-2.2,0.2-2.1,1.3s1.9,1.5,2.8,1.6l24.4,1.6l38.8,2.5l8.9,0.6l-2.6-2.3c-3.2,6.3-6.5,12.6-9.8,18.8
		c-7.7,14.5-15.7,28.8-24,43c-9.4,16-19.1,31.8-30,46.8c-11.2,15.6-24,30.6-40.3,40.9c-4,2.6-8.3,4.7-12.8,6.2
		c-1.8,0.6-3.6,1-5.5,1.3c-1.7,0.3-3.5,0.4-5.2,0.3c-2.9-0.1-5.7-0.9-8.3-2.3c-2.8-1.6-5.3-3.7-7.2-6.3c-2.1-2.5-3.7-5.3-4.9-8.3
		c-0.2-0.7-0.4-1.4-0.5-2.2c-0.1-0.4-0.1-0.8-0.1-1.1s0-0.4,0-1c0.3-4.4,1.2-8.7,2.7-12.8c4.2-12.2,10.5-23.8,16.9-34.9
		c7.7-13.4,16-26.4,24.5-39.2c7.6-11.3,15.4-22.5,23.4-33.6c4.3-5.9,8.6-11.9,13-17.7l0.6-0.8C231,220.9,226.3,219.4,225.2,220.8z"></path><path class="st0" d="M222.4,216.7c0,0,34-81.9,69.9-75.1c30.2,5.7,7.1,84.7,7.1,84.7S265.8,241.8,222.4,216.7z"></path><path class="st2" d="M224.5,218.1c1.1-2.6,2.2-5.1,3.4-7.6c2.9-6.2,6-12.2,9.3-18.1c4.2-7.5,8.8-14.7,13.8-21.7
		c4.9-6.9,10.8-13.2,17.3-18.7c5.4-4.4,11.9-8,18.9-8.5c0.4,0,0.8,0,1.2-0.1h0.2h0.8c0.8,0.1,1.7,0.1,2.5,0.3
		c0.4,0.1,0.8,0.1,1.1,0.2s-0.3-0.1,0.1,0l0.6,0.2c0.7,0.2,1.3,0.5,2,0.8c0.4,0.2-0.4-0.2,0,0l0.4,0.2c0.3,0.2,0.6,0.4,0.9,0.6
		s0.6,0.4,0.9,0.6c-0.6-0.4,0.2,0.2,0.4,0.4c0.5,0.5,1,1,1.4,1.5c0.3,0.4-0.3-0.4,0,0l0.3,0.4c0.2,0.3,0.4,0.6,0.6,0.9
		c0.4,0.6,0.8,1.2,1.1,1.9c-0.3-0.5,0.2,0.4,0.3,0.6c0.2,0.4,0.3,0.8,0.5,1.2c0.3,0.7,0.6,1.5,0.8,2.2c0.1,0.4,0.2,0.7,0.3,1.1
		c0,0.2,0.1,0.4,0.2,0.6c0,0.1,0.1,0.2,0.1,0.3c0.8,3.5,1.3,7.1,1.5,10.8c0.3,7.9-0.1,15.9-1.3,23.8c-1,7.2-2.3,14.4-3.9,21.4
		c-0.9,3.9-1.8,7.8-2.9,11.6c0,0.2-0.1,0.4-0.2,0.5l0.9-1.2c-1.2,0.5-2.4,1-3.6,1.3l-0.9,0.3c-0.3,0.1,0.4-0.1-0.1,0l-0.6,0.2
		c-0.8,0.2-1.6,0.4-2.4,0.6c-1.9,0.5-3.9,0.9-5.8,1.2c-11.7,1.8-23.6,1.1-35-1.9c-9.3-2.5-18.2-6.2-26.5-11
		c-0.9-0.5-2.4-0.7-2.9,0.5c-0.4,1.2,0.1,2.5,1.2,3.1c15.3,8.8,32.5,14.5,50.2,14.8c9.3,0.3,18.6-1.2,27.4-4.2
		c0.5-0.2,1.1-0.4,1.6-0.6c0.6-0.4,1-1.1,1.1-1.8c0.6-2.1,1.1-4.1,1.6-6.2c2.2-8.7,3.9-17.6,5.1-26.5c1.4-10.4,2.3-21.1,0.7-31.5
		c-1.3-8.6-4.6-17.8-13-21.7c-8.6-4-18.9-0.9-26.4,3.9c-9.4,6-16.9,14.8-23.4,23.7c-6.5,9.1-12.3,18.7-17.4,28.6
		c-3,5.7-5.8,11.6-8.4,17.5l-0.4,0.9C219.4,217.7,223.5,220.6,224.5,218.1z"></path><path class="st0" d="M212.6,256.9c0,0-5.5,19.6-9.6,16.3s0.4-13.9,0.4-13.9s-20.2,11.1-25,9.1s22.8-21.3,22.8-21.3l43.4-72
		c0,0,17.8,9.8,17.8,12.2S223.2,250.2,212.6,256.9z"></path><path class="st2" d="M210.2,256.5c-1,3.7-2.3,7.4-4,10.9c-0.5,1.1-1.1,2.1-1.7,3.1c-0.4,0.5,0.1,0-0.2,0.3
		c-0.1,0.2-0.3,0.3-0.4,0.5s-0.2,0.2-0.3,0.2c-0.2,0.3,0.1-0.2,0.1-0.1c0,0.2-0.6,0.2-0.1,0.1c-0.1,0,0.5,0,0.7,0
		c-0.4-0.1,0.7,0.3,0.1,0l0.4,0.2l-0.1-0.1c-0.1,0-0.3-0.3-0.1,0c-0.4-0.4-0.2-0.2-0.4-0.6c-0.4-1.2-0.5-2.5-0.3-3.8
		c0.2-1.7,0.6-3.3,1.1-4.9c0.1-0.3,0.2-0.6,0.3-1c0-0.1,0.1-0.4,0,0.1l0.1-0.4c0.1-0.2,0.1-0.4,0.2-0.6c0.9-2.2-1.8-3.9-3.7-2.9
		c-4.4,2.4-8.9,4.6-13.5,6.5c-1.6,0.6-3.1,1.2-4.8,1.7c-0.7,0.2-1.4,0.4-2.1,0.6c-0.1,0-1.2,0.2-0.5,0.1c-0.3,0-0.7,0.1-1,0.1
		c-0.1,0-0.9,0-0.4,0s-0.3-0.1-0.4-0.1c-0.3,0,0.6,0.3,0.2,0.1s0.4,0.3,0.4,0.2c-0.2-0.2,0.4,0.5,0.4,0.5c0.2,0.5,0.1,0.6,0.1,0.4
		s0-0.5,0,0.4c0-0.1,0.1-0.3,0.1-0.4c0,0.5-0.2,0.4,0,0c0.1-0.2,0.2-0.4,0.3-0.5s0.4-0.5,0.1-0.1l0.5-0.6c0.4-0.5,0.8-0.9,1.2-1.4
		c0.9-1,1.9-1.9,2.9-2.8c2.4-2.1,4.9-4.1,7.4-6.1l1.6-1.2l1.8-1.3c1.1-0.8,2.1-1.6,3.2-2.4s2.1-1.5,3.1-2.3c0.6-0.5,1.1-1.2,1.4-1.9
		l2.1-3.5l7.5-12.4l20.2-33.6l8.4-13.9c1.5-2.4,3.1-4.8,4.4-7.3c0.1-0.1,0.1-0.2,0.2-0.3l-3.3,0.9l2.2,1.2l2.3,1.4l1.3,0.8l0.5,0.3
		l0.7,0.4c1.9,1.1,3.8,2.3,5.6,3.6c0.8,0.5,1.5,1.1,2.3,1.7c0.3,0.2,0.6,0.5,0.9,0.8l0.4,0.4c-0.3-0.3-0.2-0.2,0,0s0.4,0.7,0.2,0.1
		c0.1,0.3,0-0.6,0-0.7c-0.1,0.4,0.3-0.6,0-0.1s-0.6,1.3-1,1.9c-1.3,2.3-2.6,4.5-4,6.7c-4.5,7.2-9.1,14.2-13.9,21.2
		c-5.3,7.8-10.8,15.6-16.3,22.9c-3.9,5.2-8,10.8-13,15c-0.6,0.5,0.2-0.1-0.2,0.1l-0.5,0.4c-2.7,1.7,0.5,5.2,2.9,3.7
		c2.1-1.5,4-3.2,5.6-5.2c2.5-2.8,4.8-5.7,7.1-8.6c6-7.7,11.6-15.7,17.1-23.7c5-7.4,10-14.8,14.7-22.4c1.5-2.5,3.1-4.9,4.5-7.4
		c0.7-1.2,1.9-2.8,1.7-4.3c-0.2-1.6-1.9-2.9-3.1-3.8c-1.7-1.3-3.4-2.5-5.2-3.6c-3.4-2.1-6.8-4.1-10.3-6.1l-0.6-0.3
		c-1.2-0.6-2.6-0.2-3.3,0.9l-14.6,24.3l-23.4,38.8l-5.3,9l0.8-0.8c-7,4.7-13.6,9.9-19.8,15.6c-2,1.9-6.9,6.4-3.3,9.1
		c2,1.5,5,0.9,7.1,0.4c2.8-0.7,5.5-1.7,8.1-2.9c4.4-1.9,8.8-4,13-6.3l-3.7-2.9c-1,2.4-1.7,4.9-2.1,7.5c-0.5,3.4-0.2,8.1,3.4,9.7
		c3,1.3,5.4-1.3,6.9-3.6c1.5-2.6,2.8-5.4,3.7-8.3c0.7-2,1.4-4.1,2-6.1C215.9,254.7,211,253.7,210.2,256.5z"></path><path class="st2" d="M284.3,147.7l20.3-25c0,0,7.5-22.3,5.4-25.8c-2.8-4.7-11.4-8.6-23.8-6.7c-11.9,1.8-23.1,4.2-26.5,28.2
		c-0.5,3.6-8.3,22.6-6.5,25.8C256.1,149.7,269.3,155.7,284.3,147.7z"></path><path class="st2" d="M286.6,148.4l18.8-23.2c0.6-0.6,1.2-1.4,1.6-2.2c0.7-1.9,1.3-3.9,1.8-5.8c1-3.3,1.9-6.5,2.6-9.9
		c0.6-2.7,1.4-5.7,1.2-8.5s-2.8-4.7-5-6c-4.1-2.5-9-3.6-13.8-4c-4.6-0.2-9.2,0.2-13.7,1.1c-2.9,0.5-5.8,1.3-8.5,2.6
		c-6.5,3-10.4,9.1-12.5,15.8c-0.8,2.5-1.4,5-1.8,7.6c-0.2,1.4-0.5,2.7-0.8,4.1c-0.9,3.2-2.1,6.3-3.1,9.4c-1.2,3.3-2.1,6.7-2.9,10.2
		c-0.3,1.1-0.4,2.3-0.2,3.4c0.3,1.1,0.9,2.1,1.8,2.9c2.7,2.8,6.6,4.5,10.3,5.5c5.1,1.4,10.5,1.4,15.7,0.2
		C281.2,150.9,284,149.8,286.6,148.4c0.7-0.4-1.4-1.2-1.5-1.3c-1-0.4-2.1-0.5-3.1-0.1c-7.3,3.8-17.4,5.9-24.2,0.2
		c-1-0.7-1.8-1.7-2.3-2.8c-0.2-0.9-0.2-1.8,0-2.7c0.5-3.2,1.4-6.3,2.4-9.3c1-3.2,2.1-6.4,3.2-9.6c1-3,1.4-6.1,2.1-9.2
		c1.6-7,4.5-14.1,10.7-18.1c4.9-3.2,11.4-4.3,17.2-4.7c4-0.3,8.3-0.1,12,1.8c1.9,1,4.7,2.8,4.9,5.2c0.1,2.6-0.3,5.2-1,7.6
		c-0.7,3.2-1.5,6.3-2.4,9.4c-0.7,2.2-1.4,4.5-2.1,6.7c-0.1,0.2-0.4,1.1-0.2,0.7c-0.2,0.3-0.5,0.6-0.7,0.9l-19,23.3L282,147
		C281.4,147.8,285.9,149.3,286.6,148.4z"></path><path class="st0" d="M303.3,155.4c0,0-0.8-1.8-1.5-4.1s-0.4-3.7,6.5-7.1c13.5-6.6,9.8-19.6,9.8-19.6c1.8-0.1,3.6-0.7,5.1-1.6
		c2.7-1.4,5.2-6.7-3.3-8.2c-2.4-0.2-4.5-1.7-5.6-3.9c-1.7-3.6-2.4-6.8-5.5-13.3l-0.9,3.1c-2.5,8.1-8.4,14.7-16.1,18l0,0l-0.8-0.2
		c1.6,13.8-2.5,10.5-2.5,10.5s-3.6,16.4-4.1,18.7C284.3,147.7,294.7,160.6,303.3,155.4z"></path><path class="st2" d="M305.4,155.3c-0.6-1.3-1.1-2.7-1.5-4.1c-0.1-0.2-0.1-0.4-0.1-0.6c0-0.3,0,0.2,0-0.2s0-0.3,0.4-0.9
		c1-1,2.1-1.9,3.4-2.5c2-1,3.9-2,5.7-3.2c4.8-3.4,7.6-9,7.5-14.9c0-1.3-0.1-2.7-0.5-4l-1.3,1.5c3.8,0,10-2.9,8.9-7.6
		c-0.7-3.2-4.2-4.8-7.1-5.5c-1.3-0.3-2.7-0.4-3.5-1.1c-1-0.9-1.5-2.5-2-3.8c-1.4-3.7-2.8-7.3-4.5-10.8c-0.6-1.4-3.8-2.8-4.4-0.8
		c-1,3.9-2.7,7.6-5,11c-1.6,2.1-3.4,4.1-5.5,5.7c-1.1,0.8-2.2,1.6-3.4,2.2c-0.6,0.3-1.2,0.6-1.7,0.9c-0.5,0.1-0.5,0.2,0,0.2
		s0.4,0.1,0.1,0l-0.5-0.1c-1-0.2-2,0.3-1.9,1.4c0.3,2.2,0.4,4.5,0.3,6.7c0,0.6-0.1,1.2-0.3,1.8c0,0.1,0,0-0.1,0.4
		c-0.1,0.2-0.2,0.3-0.3,0.5s0.3-0.1,0,0c-0.4,0.1,0.3,0,0.1,0s0.6,0,0.2,0c0,0,0.6,0.1,0.3,0c0.8,0.2,0.6,0.2,0.3,0.1
		c0.1,0,0.7,0.4,0.4,0.2s0.6,0.5,0.4,0.3c-0.9-0.7-3.3-1.6-3.6,0.1c-1.2,5.4-2.4,10.8-3.6,16.2c-0.2,1-0.8,2.4-0.4,3.4
		c0.4,0.6,0.9,1.2,1.4,1.7c2.3,2.6,5.1,4.8,8.1,6.6c4.2,2.3,9.1,3.4,13.4,0.9c1-0.6,0.1-2.1-0.5-2.6c-0.9-0.8-2.1-1.1-3.2-0.6
		c-1.6,0.9-3.5,1.2-5.4,0.7c-0.8-0.2-1.6-0.6-2.3-0.9c-0.5-0.2-0.9-0.5-1.3-0.8l-0.7-0.4l-0.3-0.2c-0.8-0.6-1.5-1.2-2.3-1.8
		c-0.3-0.3-0.7-0.6-1-0.9c-0.1-0.1-0.2-0.2-0.4-0.4s0.2,0.3-0.1-0.1c-0.5-0.6-1.1-1.1-1.6-1.7l0.5,1.4c1.4-6.2,2.8-12.4,4.1-18.7
		l-3.6,0.1c1.3,1.1,3.5,1.8,5,0.6c0.9-1,1.4-2.2,1.4-3.5c0.2-2.7,0.1-5.5-0.3-8.2l-1.9,1.4c1.2,0.2,2.4,0,3.4-0.6
		c1.4-0.7,2.7-1.5,4-2.3c2.5-1.7,4.6-3.8,6.5-6.2c3-3.8,4.5-8.2,5.9-12.7l-4.4-0.8c1.5,3,2.7,6.2,3.9,9.3c1.1,2.8,2.1,5.8,4.7,7.6
		c1.4,1,2.9,1.6,4.6,1.9c0.7,0.1,1.5,0.3,2.2,0.5l0.7,0.3l0.3,0.2c0.4,0.2-0.3-0.2,0,0c0.1,0.1,0.2,0.2,0.3,0.2
		c-0.3-0.2-0.1-0.1,0,0c-0.2-0.3,0,0,0.1,0.2c-0.1-0.4,0,0.2,0.1,0.3c0,0.4,0,0,0,0.4c-0.1,0.7-0.4,1.3-0.9,1.9
		c-0.1,0.1-0.1,0.2-0.2,0.2c-0.2,0.2-0.3,0.3-0.5,0.4c-0.6,0.4-1.3,0.8-2.1,1c-0.7,0.3-1.4,0.5-2.1,0.6c-0.4,0.1,0.2,0,0,0h-0.3
		h-0.2c-0.7-0.1-1.3,0.5-1.3,1.1c0,0.1,0,0.2,0,0.3c0.1,0.3,0.1,0.6,0.2,0.8c0.1,0.3,0.1,0.6,0.1,0.9s0,0.4,0,0.6v0.3
		c0,0.1,0,0.1,0,0.2c0.1,2.3-0.3,4.7-1.1,6.8c-1.3,3.1-3.5,5.7-6.4,7.5c-2.8,1.8-7.1,2.9-9,5.9c-0.6,1-0.7,2.1-0.4,3.1
		c0.5,1.7,1.1,3.5,1.9,5.1C302,157.4,306.6,158.1,305.4,155.3z"></path><path class="st2" d="M308.7,113.4c0.6,0.7,0.6,1.8-0.1,2.4c-0.1,0.1-0.1,0.1-0.2,0.2c-1.6,1-2.9-0.9-1.8-2.2c0.4-0.7,1.3-0.9,2-0.5
		C308.5,113.3,308.6,113.4,308.7,113.4z"></path><path class="st2" d="M322.8,108.1c0.4-5-2.6-9.3-6.5-12.2s-8.3-3.6-12.9-3.7c-0.9,0,0.6,1.7,0.7,1.8c0.7,0.8,1.7,1.3,2.7,1.5
		c1.7,0,3.5,0.2,5.2,0.6c0.8,0.2,1.5,0.4,2.2,0.7c0.6,0.2,1.2,0.5,1.7,0.8c0.1,0,0.5,0.4,0.2,0.1c0,0,0.5,0.4,0.3,0.2
		s0.2,0.2,0.3,0.3c-0.2-0.2,0.1,0.2,0.2,0.2c0.4,0.6,0.8,1.2,1.1,1.8c0.7,1.6,1,3.3,0.8,5c-0.1,0.9,1.4,1.9,2,2.4
		C321,108,322.7,109,322.8,108.1L322.8,108.1z"></path><path class="st0" d="M294.2,124.5c0,0-1.7-8.6-7.5-4.7s-0.3,12.7,5.2,13.8"></path><path class="st2" d="M296.6,123.8c-0.6-3.1-2.6-6.9-6.1-7.1c-3.4-0.1-6.6,1.9-8,5.1c-1.2,2.7-0.5,5.8,1,8.2c1.7,2.9,4.4,5,7.7,5.8
		c1.3,0.2,2.6-0.6,3-1.8c0.4-1-0.1-2-1.1-2.4c-0.1-0.1-0.3-0.1-0.4-0.1l-0.4-0.1c0.5,0.1,0.2,0.1,0.1,0l-0.7-0.3
		c-0.2-0.1-0.5-0.2-0.7-0.4s-0.5-0.3-0.1,0l-0.4-0.3c-0.4-0.3-0.9-0.7-1.3-1.1c-0.2-0.2-0.4-0.4-0.6-0.6c-0.4-0.4,0.2,0.2,0,0
		s-0.2-0.3-0.4-0.5c-0.3-0.4-0.6-0.9-0.9-1.4c-0.1-0.2-0.2-0.5-0.4-0.7s-0.1-0.4,0,0.1c0-0.2-0.1-0.3-0.2-0.5
		c-0.1-0.5-0.2-1-0.3-1.5c-0.1-0.3,0,0.5,0,0v-0.3c0-0.1,0-0.8,0.1-0.9l-0.1,0.3c0-0.1,0-0.2,0.1-0.3l0.1-0.3c0.2-0.5,0,0,0,0
		c0-0.1,0.1-0.2,0.1-0.3c0.1-0.1,0.2-0.2,0.3-0.4c0.2-0.3-0.1,0.2-0.1,0.1c0.2-0.3,0.4-0.5,0.7-0.7c-0.2,0-0.4,0.3,0,0l0.4-0.2
		c0.1-0.1,0.2-0.1,0.3-0.2c0.5-0.3-0.6,0.2,0,0c0.1,0,0.6-0.3,0.6-0.2s-0.6,0.1-0.2,0h0.5c0,0-0.6-0.1-0.3,0h0.3
		c0.3,0-0.1,0.2-0.2-0.1c0.1,0,0.2,0.1,0.3,0.1c0.1,0,0.6,0.3,0.2,0.1s0.2,0.1,0.3,0.2s0.2,0.2,0.4,0.4c0.4,0.4-0.2-0.4,0,0.1
		c0.2,0.3,0.4,0.7,0.6,1c0.2,0.4,0.3,0.8,0.5,1.1c0,0-0.2-0.6-0.1-0.3c0,0.1,0.1,0.2,0.1,0.3s0.1,0.3,0.1,0.4c0.1,0.3,0.2,0.7,0.2,1
		C292.5,128,297.1,126.2,296.6,123.8L296.6,123.8z"></path><path class="st2" d="M284.4,134.5c-0.1,4.5-0.5,8.9-1.3,13.4c-0.3,2.1-0.9,4.1-1.7,6c-0.4,0.9-0.9,1.7-1.5,2.4
		c-0.2,0.2-0.4,0.5-0.6,0.7c-0.6,0.6,0,0.1-0.3,0.2c-1.1,0.4-2.2,1-3,1.9c-0.5,0.6-0.5,1.1,0.5,0.8c4.9-1.7,8.7-5.7,10.1-10.7
		c1.4-5.5,2.1-11.1,2.1-16.8c0-0.8-1.6,0.1-1.9,0.3C286.3,132.8,284.4,133.7,284.4,134.5L284.4,134.5z"></path><path class="st2" d="M294.8,101.7c-5.1,8.6-13.7,14.7-23.5,16.6"></path><path class="st0" d="M293,100c-5,8.4-13.3,14.2-22.9,16.2c-2.1,0.4,0.4,4.7,2.3,4.3c10.1-2,18.9-8.2,24.1-17.1
		C297.5,101.8,294.1,98.1,293,100L293,100z"></path><path class="st2" d="M272.9,129.7l-2.6,16.1"></path><path class="st0" d="M271.6,127.6l-2.6,16.1c0,0.4,0.2,0.8,0.4,1.1c0.3,0.6,0.6,1.1,0.9,1.7c0.1,0.2,1.2,1.7,1.3,1.3l2.6-16.1
		c0-0.4-0.2-0.8-0.4-1.1c-0.3-0.6-0.6-1.2-0.9-1.7C272.8,128.7,271.7,127.2,271.6,127.6z"></path><path class="st2" d="M300.7,124.8c0,1.8,0.6,3.6,1.9,4.9c1.3,1.6,3.2,2.6,5.3,2.8c0.5,0.1,1-0.1,1.3-0.5c0.3-0.4,0.3-0.9,0.2-1.4
		c-0.2-0.6-0.6-1.1-1.1-1.5c-0.5-0.4-1.1-0.6-1.7-0.7c-0.2,0-0.5,0-0.7-0.1l0.5,0.1c-0.3-0.1-0.5-0.1-0.8-0.2l0.6,0.2
		c-0.3-0.1-0.5-0.2-0.7-0.4l0.6,0.4c-0.3-0.2-0.5-0.4-0.7-0.6l0.5,0.5c-0.2-0.2-0.4-0.4-0.6-0.7l0.4,0.5c-0.2-0.3-0.4-0.6-0.5-0.9
		l0.2,0.5c-0.1-0.3-0.2-0.7-0.3-1l0.1,0.5c-0.1-0.4-0.1-0.7-0.1-1.1c-0.1-0.6-0.3-1.1-0.7-1.5c-0.4-0.5-1-0.9-1.6-1.1
		c-0.5-0.2-1-0.2-1.5,0l-0.4,0.3C300.8,124.1,300.7,124.4,300.7,124.8L300.7,124.8z"></path><path class="st0" d="M290.5,244.4c-4.9,10.9-10.2,21.6-15.8,32.1c-0.8,1.5,3,4.6,3.5,3.5c5.8-10.7,11.1-21.5,16.1-32.6
		C294.9,246.1,291.2,242.9,290.5,244.4L290.5,244.4z"></path><path class="st1" d="M269.7,154.2c0.2,0.1,0.2,0.1-0.1-0.1c0.1,0,0.2,0.2,0.2,0.3c0.1,0.3,0.2,0.6,0.3,0.8c0.3,0.9,0.4,1.9,0.6,2.8
		c0.3,2.1,0.3,4.3,0,6.4c-0.5,4.2-1.6,8.3-3.4,12.1c-3.5,7.9-8.7,15-13,22.5c-0.9,1.5,2.5,5.1,3.5,3.3c7.5-12.9,18-25.8,16.5-41.6
		c-0.4-4-1.6-8.6-5.5-10.5c-1-0.5-1.6,0.2-1.5,1.2C267.7,152.6,268.5,153.6,269.7,154.2L269.7,154.2z"></path><path class="st1" d="M301.6,149.2c3.9,10.7,9.5,22.7,6.3,34.3c-0.4,1.4,3.9,3.8,4.4,2c3.2-11.8-2.5-24.1-6.5-35
		c-0.6-1.1-1.5-1.8-2.7-2.1C302.5,148.2,301.2,148.1,301.6,149.2L301.6,149.2z"></path><path class="st2" d="M229.3,150.6c-0.9,3.9,1.6,7.7,4.5,10.1c3.5,2.8,7.6,4.5,12,5.1c0.4,0.1,2.4,0.4,2.6-0.1s-2.2-0.9-2.4-0.9
		l-0.7-0.1c0.5,0.1-0.2-0.1-0.3-0.1c-0.4-0.1,0,0-0.2-0.1l-0.7-0.2c-0.7-0.2-1.3-0.5-1.9-0.8c-1.6-0.8-3-1.8-4.3-3
		c-2.5-2.3-4.5-5.7-3.7-9.2c0.1-0.5-2.1-0.9-2.4-0.9S229.5,149.9,229.3,150.6L229.3,150.6z"></path><path class="st2" d="M208.7,169.3c4.8,9.8,12.7,17.7,22.3,22.8c0.8,0.4,1.8,0.2,2.2-0.6c0.1-0.2,0.2-0.3,0.2-0.5
		c0-1.3-0.8-2.4-1.9-2.9c-8.1-4.3-14.6-11-18.7-19.2c-0.5-1.2-1.6-2-2.9-2c-0.9,0.2-1.5,1-1.3,1.9
		C208.6,168.9,208.6,169.1,208.7,169.3L208.7,169.3z"></path><path class="st1" d="M207.6,181.2l0.9-0.5c0.2-0.1,0.4-0.3,0.6-0.6c0.2-0.2,0.3-0.5,0.3-0.8c0.1-0.3,0.1-0.6,0-0.9
		c0-0.3-0.1-0.6-0.3-0.9l-0.4-0.6c-0.3-0.3-0.6-0.6-1-0.7l-0.5-0.1c-0.3-0.1-0.7,0-1,0.2l-0.9,0.5c-0.2,0.1-0.4,0.3-0.6,0.6
		c-0.2,0.2-0.3,0.5-0.3,0.8c-0.1,0.3-0.1,0.6,0,0.9c0,0.3,0.1,0.6,0.3,0.9l0.4,0.6c0.3,0.3,0.6,0.6,1,0.7l0.5,0.2
		C207,181.4,207.3,181.3,207.6,181.2L207.6,181.2z"></path><path class="st1" d="M214.5,190.1c0.1,0.1,0.3,0.2,0.4,0.3h0.1c0.1,0.1,0.3,0.1,0.4,0.1h0.1c0.1,0,0.3,0,0.4-0.1l0.1-0.1
		c0,0,0.1-0.1,0.1-0.1c0.1-0.1,0.2-0.2,0.3-0.4c0,0,0.1-0.1,0.1-0.1c0.1-0.3,0.2-0.7,0.1-1c0-0.2-0.1-0.4-0.1-0.5l0,0l0,0l0,0
		l-0.2-0.6c-0.1-0.2-0.2-0.5-0.3-0.7c-0.2-0.4-0.5-0.8-0.8-1.1c-0.2-0.2-0.4-0.4-0.6-0.5c-0.2-0.1-0.3-0.2-0.5-0.2
		c-0.2,0-0.3,0-0.4,0.2c-0.1,0.1-0.2,0.3-0.2,0.5v0.4c0,0.4,0.1,0.7,0.3,1.1l0.3,0.6c0.2,0.4,0.5,0.7,0.7,1l0,0l-0.4-0.5l0,0
		l-0.4-0.6l0,0l-0.3-0.6l0,0l-0.2-0.6c0,0,0,0,0,0.1l-0.1-0.5c0,0,0,0.1,0,0.1V186c0,0,0,0.1,0,0.1l0.1-0.4c0,0.1-0.1,0.2-0.2,0.3
		l0.2-0.2c-0.1,0.1-0.2,0.2-0.4,0.2l0.3-0.1h-0.2l0.4,0.1l-0.1-0.1l0.4,0.2l-0.1-0.1c-0.2-0.1-0.4-0.2-0.6-0.3
		c-0.1-0.1-0.3-0.1-0.5,0c-0.1,0.1-0.2,0.2-0.3,0.4c-0.1,0.2-0.1,0.4-0.1,0.6l0.1,0.5c0.1,0.4,0.3,0.8,0.5,1.2l0.4,0.6
		C213.9,189.6,214.2,189.8,214.5,190.1L214.5,190.1z"></path><path class="st1" d="M226.5,196.4l0.5-0.5c0.2-0.2,0.3-0.4,0.4-0.6c0.1-0.2,0.1-0.5,0.1-0.7c-0.1-0.2-0.2-0.5-0.4-0.6
		c-0.2-0.2-0.4-0.4-0.6-0.6l-0.6-0.3c-0.4-0.1-0.9-0.2-1.3-0.2L224,193c-0.4,0.1-0.7,0.2-1,0.5l-0.5,0.5c-0.2,0.1-0.3,0.4-0.4,0.6
		c-0.1,0.2-0.1,0.5,0,0.7c0,0.2,0.2,0.5,0.4,0.6c0.2,0.2,0.4,0.4,0.6,0.6l0.6,0.3c0.4,0.2,0.9,0.2,1.3,0.2l0.6-0.1
		C226,196.7,226.3,196.6,226.5,196.4L226.5,196.4z"></path><path class="st1" d="M127.8,221.9c-10.4-1.6-19.8,5.3-24.9,13.9c-2.7,4.5-4.8,9.4-6.1,14.5c-1.2,4.7-1.1,10.1,2.5,13.7
		c3.1,3,8,4.3,11.9,2.3c2-1,3.8-3,3.6-5.4s-2.4-3.8-4.5-4.3c-4.9-1.2-10.4,0.6-14.6,3c-4.2,2.6-8.2,5.7-11.8,9.1
		c-8,7-16.1,14.9-18.7,25.6c-0.6,2.5,4.3,2.7,4.9,0.5c1.9-7.8,7-14,12.7-19.5c3-2.8,6.1-5.5,9.2-8.1s6.3-5,10-6.4
		c1.4-0.5,8.5-2.4,7.9,1c-0.1,0.7-0.6,1.3-1.2,1.6c-0.2,0.1-0.4,0.2-0.7,0.3c-0.2,0-0.4,0.1-0.4,0.1c-1.4-0.1-2.7-0.6-3.7-1.5
		c-3.1-2.6-3.2-6.9-2.4-10.6c1-4.3,2.5-8.4,4.6-12.2c4-7.6,11.3-15.4,20.7-13.9c1,0.2,2.6-0.4,2.9-1.5S128.8,222,127.8,221.9
		L127.8,221.9z"></path><path class="st1" d="M114.3,326.6c-1.9,6.3-6.3,11.6-12.2,14.5c-1,0.5-0.5,1.6,0.2,2.1s2.3,1.2,3.4,0.7c6.4-3.1,11.3-8.8,13.3-15.6
		c0.3-1-1.1-1.9-1.9-2.2S114.6,325.5,114.3,326.6L114.3,326.6z"></path><path class="st0" d="M151.5,284.2c-0.2,0.6-0.4,1.1-0.6,1.6c-0.1,0.2-0.1,0.3-0.2,0.5c0.1-0.1,0.1-0.3,0-0.1s-0.2,0.5-0.4,0.8
		c-0.6,1.1-1.2,2.1-2,3l-0.6,0.7c-0.1,0.1-0.2,0.2-0.3,0.3c0.2-0.2,0.2-0.2,0,0c-0.4,0.4-0.8,0.8-1.2,1.2c-0.9,0.8-1.9,1.5-2.9,2.2
		c-0.5,0.4-0.7,1-0.7,1.5c0,0.6,0.3,1.2,0.7,1.7c0.9,0.9,2.3,1.1,3.4,0.4c4.5-2.8,7.8-7.2,9.4-12.2c0.3-1.3-0.5-2.6-1.7-3
		c-1.1-0.5-2.4,0.1-2.9,1.2C151.5,284,151.5,284.1,151.5,284.2L151.5,284.2z"></path><path class="st0" d="M112.4,294.8c0.4-0.7,0.9-1.3,1.4-1.9l-0.3,0.4c1.2-1.4,2.6-2.7,4.2-3.7l-0.4,0.3l0.4-0.3
		c0.5-0.2,0.8-0.6,0.9-1.1c0.1-0.5-0.1-1-0.5-1.3c-0.5-0.4-1-0.7-1.7-0.8c-0.6-0.1-1.3,0-1.8,0.2c-2.7,1.6-5,3.9-6.8,6.5
		c-0.2,0.4-0.2,0.9,0,1.4c0.3,0.5,0.8,0.8,1.3,1C110.2,295.8,111.7,295.8,112.4,294.8L112.4,294.8z"></path><path class="st1" d="M282.7,340.5c-8.5,8-16.2,16.8-23.2,26.1c-0.8,1-0.8,2.5,0.1,3.4c0.7,0.8,2.4,1.3,3.2,0.2
		c7-9.3,14.8-18.1,23.2-26.1C288.1,342.2,284.9,338.4,282.7,340.5L282.7,340.5z"></path><path class="st1" d="M292.8,369l-26.7,38.7c-0.5,0.8,3.8,3.2,4.5,2.1l26.6-38.7C297.9,370.3,293.6,367.9,292.8,369z"></path></g></svg>