<svg transform="scale(1)" id="KDr8vpEBo7" data-name=" 0901 Coming Soon" xmlns="http://www.w3.org/2000/svg" version="1.1" viewBox="0 0 500 500" class="pbimage_pbimage__wrapper__image__0LEis false"><title>Coming Soon</title><defs><style> .cls-1{fill:#101720;} .cls-1, .cls-2, .cls-3, .cls-4, .cls-5, .cls-6{stroke-width:0px;} .cls-2{fill:#ff9c0f;} .cls-3{fill:#008eb1;} .cls-4{fill:#ff7e6e;} .cls-5{fill:#8fdce8;} .cls-6{fill:#fffffe;}
 .cls-6{fill:#FFFFFE;}
 .cls-5{fill:#8FDCE8;}
 .cls-4{fill:#FF7E6E;}
 .cls-3{fill:#008EB1;}
 .cls-2{fill:#FF9C0F;}
 .cls-1{fill:#101720;}</style></defs><g id="calendar"><g><polygon class="cls-3" points="53.6 173.5 309.2 173.5 361.3 387.7 105.7 387.7 53.6 173.5"></polygon><path class="cls-1" d="M361.3,388H105.7c-.1,0-.3,0-.3-.2l-52.1-214.1c0,0,0-.2,0-.3,0,0,.1-.1.2-.1h255.6c.1,0,.3,0,.3.2l52.1,214.1c0,0,0,.2,0,.3,0,0-.1.1-.2.1ZM105.9,387.4h255l-51.9-213.5H54l51.9,213.5Z"></path></g><g><path class="cls-1" d="M316.9,205.2c0,148.8-.9,182.5,19.7,182.5h-60.4l33-214.1,7.7,31.6h0Z"></path><path class="cls-1" d="M336.7,388h-60.4c0,0-.2,0-.2-.1,0,0,0-.2,0-.2l33-214.1c0-.1.1-.2.3-.3.1,0,.3,0,.3.2l7.7,31.7s0,0,0,0v18.1c0,67.2,0,107.8,2.4,132.2,2.7,26.6,8.5,31.9,17,31.9s.3.1.3.3-.1.3-.3.3ZM276.6,387.4h55.8c-7.5-2.3-11.3-11.7-13.3-31.8-2.5-24.4-2.5-65-2.4-132.3v-18.1s-7.3-30.1-7.3-30.1l-32.8,212.3Z"></path></g><g><rect class="cls-6" x="53.6" y="211.8" width="255.6" height="175.8"></rect><path class="cls-1" d="M309.2,388H53.6c-.2,0-.3-.1-.3-.3v-175.8c0-.2.1-.3.3-.3h255.6c.2,0,.3.1.3.3v175.8c0,.2-.1.3-.3.3ZM53.9,387.4h255v-175.2H53.9v175.2Z"></path></g><g><rect class="cls-2" x="53.6" y="173.5" width="255.6" height="38.3"></rect><path class="cls-1" d="M309.2,212.1H53.6c-.2,0-.3-.1-.3-.3v-38.3c0-.2.1-.3.3-.3h255.6c.2,0,.3.1.3.3v38.3c0,.2-.1.3-.3.3ZM53.9,211.5h255v-37.7H53.9v37.7Z"></path></g><path class="cls-1" d="M83.4,185.4c-.8,0-1.7-.4-2.5-1.5-2-2.6-1.6-7,1.1-12.4,1.8-3.6,4.5-7.4,7.4-10.3-.9-3.1-2.4-4.8-4.4-4.9-4.3-.4-10.1,6.5-14.7,17.4,0,.2-.2.2-.4.2-.2,0-.2-.2-.2-.4,4.8-11.4,10.6-18.2,15.3-17.8,2.2.2,3.9,2,4.9,5.1,3.1-3,6.3-5.1,8.9-5.1s.3.1.3.3-.1.3-.3.3c-2.2,0-5.5,1.9-8.8,5.1,0,.2,0,.3.1.5,2.3,9.6-1.1,21.2-5.4,23.3-.4.2-.8.3-1.3.3ZM89.4,161.8c-2.6,2.6-5.1,6-7,10-2.5,5.2-2.9,9.5-1.1,11.8.9,1.2,2,1.5,3.1,1,3.6-1.7,7.4-12.8,5.1-22.6,0,0,0-.1,0-.2Z" fill="#101720"></path><path class="cls-1" d="M97.6,185.4c-.8,0-1.7-.4-2.5-1.5-2-2.6-1.6-7,1.1-12.4,1.8-3.6,4.5-7.4,7.4-10.3-1-3.3-2.7-5.1-5-5-.2,0-.3-.1-.3-.3,0-.2.1-.3.3-.3,2.5-.1,4.4,1.7,5.5,5.1,3.1-3,6.3-5.1,8.9-5.1s.3.1.3.3-.1.3-.3.3c-2.2,0-5.5,1.9-8.8,5.1,0,.2,0,.3.1.5,2.3,9.6-1.1,21.2-5.4,23.3-.4.2-.8.3-1.3.3ZM103.6,161.8c-2.6,2.6-5.1,6-7,10-2.5,5.2-2.9,9.5-1.1,11.8.9,1.2,2,1.5,3.1,1,3.6-1.7,7.4-12.8,5.1-22.6,0,0,0-.1,0-.2Z" fill="#101720"></path><path class="cls-1" d="M112,185.4c-.8,0-1.7-.4-2.5-1.5-2-2.6-1.6-7,1.1-12.4,1.8-3.6,4.5-7.4,7.4-10.3-1-3.3-2.7-5.1-4.9-5-.2,0-.3-.1-.3-.3,0-.2.1-.3.3-.3,2.5-.1,4.4,1.7,5.5,5.1,3.1-3,6.3-5.1,8.9-5.1s.3.1.3.3-.1.3-.3.3c-2.2,0-5.5,1.9-8.8,5.1,0,.2,0,.3.1.5,2.3,9.6-1.1,21.2-5.4,23.3-.4.2-.8.3-1.3.3ZM118,161.8c-2.6,2.6-5.1,6-7,10-2.5,5.2-2.9,9.5-1.1,11.8.9,1.2,2,1.5,3.1,1,3.6-1.7,7.4-12.8,5.1-22.6,0,0,0-.1,0-.2Z" fill="#101720"></path><path class="cls-1" d="M126.4,185.4c-.8,0-1.7-.4-2.5-1.5-2-2.6-1.6-7,1.1-12.4,1.8-3.6,4.5-7.4,7.4-10.3-1-3.3-2.7-5.1-4.9-5-.2,0-.3-.1-.3-.3,0-.2.1-.3.3-.3,2.5-.1,4.4,1.7,5.5,5.1,3.1-3,6.3-5.1,8.9-5.1s.3.1.3.3-.1.3-.3.3c-2.2,0-5.5,1.9-8.8,5.1,0,.2,0,.3.1.5,2.3,9.6-1.1,21.2-5.4,23.3-.4.2-.8.3-1.3.3ZM132.4,161.8c-2.6,2.6-5.1,6-7,10-2.5,5.2-2.9,9.5-1.1,11.8.9,1.2,2,1.5,3.1,1,3.6-1.7,7.4-12.8,5.1-22.6,0,0,0-.1,0-.2Z" fill="#101720"></path><path class="cls-1" d="M140.8,185.4c-.8,0-1.7-.4-2.5-1.5-2-2.6-1.6-7,1.1-12.4,1.8-3.6,4.5-7.4,7.4-10.3-1-3.3-2.7-5.1-4.9-5-.2,0-.3-.1-.3-.3,0-.2.1-.3.3-.3,2.5-.1,4.4,1.7,5.5,5.1,3.1-3,6.3-5.1,8.9-5.1s.3.1.3.3-.1.3-.3.3c-2.2,0-5.5,1.9-8.8,5.1,0,.2,0,.3.1.5,2.3,9.6-1.1,21.2-5.4,23.3-.4.2-.8.3-1.3.3ZM146.8,161.8c-2.6,2.6-5.1,6-7,10-2.5,5.2-2.9,9.5-1.1,11.8.9,1.2,2,1.5,3.1,1,3.6-1.7,7.4-12.8,5.1-22.6,0,0,0-.1,0-.2Z" fill="#101720"></path><path class="cls-1" d="M155.2,185.4c-.8,0-1.7-.4-2.5-1.5-2-2.6-1.6-7,1.1-12.4,1.8-3.6,4.5-7.4,7.4-10.3-1-3.3-2.7-5.1-4.9-5-.2,0-.3-.1-.3-.3,0-.2.1-.3.3-.3,2.5-.1,4.4,1.7,5.5,5.1,3.1-3,6.3-5.1,8.9-5.1s.3.1.3.3-.1.3-.3.3c-2.2,0-5.5,1.9-8.8,5.1,0,.2,0,.3.1.5,2.3,9.6-1.1,21.2-5.4,23.3-.4.2-.8.3-1.3.3ZM161.2,161.8c-2.6,2.6-5.1,6-7,10-2.5,5.2-2.9,9.5-1.1,11.8.9,1.2,2,1.5,3.1,1,3.6-1.7,7.4-12.8,5.1-22.6,0,0,0-.1,0-.2Z" fill="#101720"></path><path class="cls-1" d="M169.5,185.4c-.8,0-1.7-.4-2.5-1.5-2-2.6-1.6-7,1.1-12.4,1.8-3.6,4.5-7.4,7.4-10.3-1-3.3-2.7-5.1-4.9-5-.2,0-.3-.1-.3-.3,0-.2.1-.3.3-.3,2.5-.1,4.4,1.7,5.5,5.1,3.1-3,6.3-5.1,8.9-5.1s.3.1.3.3-.1.3-.3.3c-2.2,0-5.5,1.9-8.8,5.1,0,.2,0,.3.1.5,2.3,9.6-1.1,21.2-5.4,23.3-.4.2-.8.3-1.3.3ZM175.6,161.8c-2.6,2.6-5.1,6-7,10-2.5,5.2-2.9,9.5-1.1,11.8.9,1.2,2,1.5,3.1,1,3.6-1.7,7.4-12.8,5.1-22.6,0,0,0-.1,0-.2Z" fill="#101720"></path><path class="cls-1" d="M183.9,185.4c-.8,0-1.7-.4-2.5-1.5-2-2.6-1.6-7,1.1-12.4,1.8-3.6,4.5-7.4,7.4-10.3-1-3.3-2.7-5.1-4.9-5-.2,0-.3-.1-.3-.3,0-.2.1-.3.3-.3,2.5-.1,4.4,1.7,5.5,5.1,3.1-3,6.3-5.1,8.9-5.1s.3.1.3.3-.1.3-.3.3c-2.2,0-5.5,1.9-8.8,5.1,0,.2,0,.3.1.5,2.3,9.6-1.1,21.2-5.4,23.3-.4.2-.8.3-1.3.3ZM190,161.8c-2.6,2.6-5.1,6-7,10-2.5,5.2-2.9,9.5-1.1,11.8.9,1.2,2,1.5,3.1,1,3.6-1.7,7.4-12.8,5.1-22.6,0,0,0-.1,0-.2Z" fill="#101720"></path><path class="cls-1" d="M198.3,185.4c-.8,0-1.7-.4-2.5-1.5-2-2.6-1.6-7,1.1-12.4,1.8-3.6,4.5-7.4,7.4-10.3-1-3.3-2.7-5.1-5-5-.2,0-.3-.1-.3-.3,0-.2.1-.3.3-.3,2.5-.1,4.4,1.7,5.5,5.1,3.1-3,6.3-5.1,8.9-5.1s.3.1.3.3-.1.3-.3.3c-2.2,0-5.5,1.9-8.8,5.1,0,.2,0,.3.1.5,2.3,9.6-1.1,21.2-5.4,23.3-.4.2-.8.3-1.3.3ZM204.4,161.8c-2.6,2.6-5.1,6-7,10-2.5,5.2-2.9,9.5-1.1,11.8.9,1.2,2,1.5,3.1,1,3.6-1.7,7.4-12.8,5.1-22.6,0,0,0-.1,0-.2Z" fill="#101720"></path><path class="cls-1" d="M212.7,185.4c-.8,0-1.7-.4-2.5-1.5-2-2.6-1.6-7,1.1-12.4,1.8-3.6,4.5-7.4,7.4-10.3-1-3.3-2.7-5.1-5-5-.2,0-.3-.1-.3-.3,0-.2.1-.3.3-.3,2.5-.1,4.4,1.7,5.5,5.1,3.1-3,6.3-5.1,8.9-5.1s.3.1.3.3-.1.3-.3.3c-2.2,0-5.5,1.9-8.8,5.1,0,.2,0,.3.1.5,2.3,9.6-1.1,21.2-5.4,23.3-.4.2-.8.3-1.3.3ZM218.8,161.8c-2.6,2.6-5.1,6-7,10-2.5,5.2-2.9,9.5-1.1,11.8.9,1.2,2,1.5,3.1,1,3.6-1.7,7.4-12.8,5.1-22.6,0,0,0-.1,0-.2Z" fill="#101720"></path><path class="cls-1" d="M227.1,185.4c-.8,0-1.7-.4-2.5-1.5-2-2.6-1.6-7,1.1-12.4,1.8-3.6,4.5-7.4,7.4-10.3-1-3.3-2.7-5.1-5-5-.2,0-.3-.1-.3-.3,0-.2.1-.3.3-.3,2.5-.1,4.4,1.7,5.5,5.1,3.1-3,6.3-5.1,8.9-5.1s.3.1.3.3-.1.3-.3.3c-2.2,0-5.5,1.9-8.8,5.1,0,.2,0,.3.1.5,2.3,9.6-1.1,21.2-5.4,23.3-.4.2-.8.3-1.3.3ZM233.2,161.8c-2.6,2.6-5.1,6-7,10-2.5,5.2-2.9,9.5-1.1,11.8.9,1.2,2,1.5,3.1,1,3.6-1.7,7.4-12.8,5.1-22.6,0,0,0-.1,0-.2Z" fill="#101720"></path><path class="cls-1" d="M241.5,185.4c-.8,0-1.7-.4-2.5-1.5-2-2.6-1.6-7,1.1-12.4,1.8-3.6,4.5-7.4,7.4-10.3-1-3.3-2.7-5.1-5-5-.2,0-.3-.1-.3-.3,0-.2.1-.3.3-.3,2.5-.1,4.4,1.7,5.5,5.1,3.1-3,6.3-5.1,8.9-5.1s.3.1.3.3-.1.3-.3.3c-2.2,0-5.5,1.9-8.8,5.1,0,.2,0,.3.1.5,2.3,9.6-1.1,21.2-5.4,23.3-.4.2-.8.3-1.3.3ZM247.6,161.8c-2.6,2.6-5.1,6-7,10-2.5,5.2-2.9,9.5-1.1,11.8.9,1.2,2,1.5,3.1,1,3.6-1.7,7.4-12.8,5.1-22.6,0,0,0-.1,0-.2Z" fill="#101720"></path><path class="cls-1" d="M255.9,185.4c-.8,0-1.7-.4-2.5-1.5-2-2.6-1.6-7,1.1-12.4,1.8-3.6,4.5-7.4,7.4-10.3-1-3.3-2.7-5.1-5-5-.2,0-.3-.1-.3-.3,0-.2.1-.3.3-.3,2.5-.1,4.4,1.7,5.5,5.1,3.1-3,6.3-5.1,8.9-5.1s.3.1.3.3-.1.3-.3.3c-2.2,0-5.5,1.9-8.8,5.1,0,.2,0,.3.1.5,2.3,9.6-1.1,21.2-5.4,23.3-.4.2-.8.3-1.3.3ZM262,161.8c-2.6,2.6-5.1,6-7,10-2.5,5.2-2.9,9.5-1.1,11.8.9,1.2,2,1.5,3.1,1,3.6-1.7,7.4-12.8,5.1-22.6,0,0,0-.1,0-.2Z" fill="#101720"></path><path class="cls-1" d="M270.3,185.4c-.8,0-1.7-.4-2.5-1.5-2-2.6-1.6-7,1.1-12.4,1.8-3.6,4.5-7.4,7.4-10.3-1-3.3-2.7-5.1-5-5-.2,0-.3-.1-.3-.3,0-.2.1-.3.3-.3,2.5-.1,4.4,1.7,5.5,5.1,3.1-3,6.3-5.1,8.9-5.1s.3.1.3.3-.1.3-.3.3c-2.2,0-5.5,1.9-8.8,5.1,0,.2,0,.3.1.5,2.3,9.6-1.1,21.2-5.4,23.3-.4.2-.8.3-1.3.3ZM276.4,161.8c-2.6,2.6-5.1,6-7,10-2.5,5.2-2.9,9.5-1.1,11.8.9,1.2,2,1.5,3.1,1,3.6-1.7,7.4-12.8,5.1-22.6,0,0,0-.1,0-.2Z" fill="#101720"></path><path class="cls-1" d="M291.4,173.8s0,0,0,0c-.2,0-.3-.2-.2-.3.5-2.8.8-7-.3-11.5-.9-3.8-2.8-5.9-5.2-5.8-.2,0-.3-.1-.3-.3,0-.2.1-.3.3-.3,2.8-.1,4.8,2.1,5.8,6.2,1.1,4.6.8,8.9.3,11.8,0,.1-.2.3-.3.3Z" fill="#101720"></path><g><rect class="cls-6" x="75.6" y="228.6" width="37.6" height="37.6"></rect><path class="cls-1" d="M113.1,266.5h-37.6c-.2,0-.3-.1-.3-.3v-37.6c0-.2.1-.3.3-.3h37.6c.2,0,.3.1.3.3v37.6c0,.2-.1.3-.3.3ZM75.9,265.9h37v-37h-37v37Z"></path></g><g><rect class="cls-6" x="133.1" y="228.6" width="37.6" height="37.6"></rect><path class="cls-1" d="M170.6,266.5h-37.6c-.2,0-.3-.1-.3-.3v-37.6c0-.2.1-.3.3-.3h37.6c.2,0,.3.1.3.3v37.6c0,.2-.1.3-.3.3ZM133.3,265.9h37v-37h-37v37Z"></path></g><g><rect class="cls-6" x="190.6" y="228.6" width="37.6" height="37.6"></rect><path class="cls-1" d="M228.1,266.5h-37.6c-.2,0-.3-.1-.3-.3v-37.6c0-.2.1-.3.3-.3h37.6c.2,0,.3.1.3.3v37.6c0,.2-.1.3-.3.3ZM190.8,265.9h37v-37h-37v37Z"></path></g><g><rect class="cls-6" x="248.1" y="228.6" width="37.6" height="37.6"></rect><path class="cls-1" d="M285.6,266.5h-37.6c-.2,0-.3-.1-.3-.3v-37.6c0-.2.1-.3.3-.3h37.6c.2,0,.3.1.3.3v37.6c0,.2-.1.3-.3.3ZM248.3,265.9h37v-37h-37v37Z"></path></g><g><rect class="cls-6" x="75.6" y="276.6" width="37.6" height="37.6"></rect><path class="cls-1" d="M113.1,314.5h-37.6c-.2,0-.3-.1-.3-.3v-37.6c0-.2.1-.3.3-.3h37.6c.2,0,.3.1.3.3v37.6c0,.2-.1.3-.3.3ZM75.9,313.9h37v-37h-37v37Z"></path></g><g><rect class="cls-6" x="133.1" y="276.6" width="37.6" height="37.6"></rect><path class="cls-1" d="M170.6,314.5h-37.6c-.2,0-.3-.1-.3-.3v-37.6c0-.2.1-.3.3-.3h37.6c.2,0,.3.1.3.3v37.6c0,.2-.1.3-.3.3ZM133.3,313.9h37v-37h-37v37Z"></path></g><g><rect class="cls-6" x="190.6" y="276.6" width="37.6" height="37.6"></rect><path class="cls-1" d="M228.1,314.5h-37.6c-.2,0-.3-.1-.3-.3v-37.6c0-.2.1-.3.3-.3h37.6c.2,0,.3.1.3.3v37.6c0,.2-.1.3-.3.3ZM190.8,313.9h37v-37h-37v37Z"></path></g><g><rect class="cls-6" x="248.1" y="276.6" width="37.6" height="37.6"></rect><path class="cls-1" d="M285.6,314.5h-37.6c-.2,0-.3-.1-.3-.3v-37.6c0-.2.1-.3.3-.3h37.6c.2,0,.3.1.3.3v37.6c0,.2-.1.3-.3.3ZM248.3,313.9h37v-37h-37v37Z"></path></g><g><rect class="cls-6" x="75.6" y="324.6" width="37.6" height="37.6"></rect><path class="cls-1" d="M113.1,362.5h-37.6c-.2,0-.3-.1-.3-.3v-37.6c0-.2.1-.3.3-.3h37.6c.2,0,.3.1.3.3v37.6c0,.2-.1.3-.3.3ZM75.9,361.9h37v-37h-37v37Z"></path></g><g><rect class="cls-6" x="133.1" y="324.6" width="37.6" height="37.6"></rect><path class="cls-1" d="M170.6,362.5h-37.6c-.2,0-.3-.1-.3-.3v-37.6c0-.2.1-.3.3-.3h37.6c.2,0,.3.1.3.3v37.6c0,.2-.1.3-.3.3ZM133.3,361.9h37v-37h-37v37Z"></path></g><g><rect class="cls-6" x="190.6" y="324.6" width="37.6" height="37.6"></rect><path class="cls-1" d="M228.1,362.5h-37.6c-.2,0-.3-.1-.3-.3v-37.6c0-.2.1-.3.3-.3h37.6c.2,0,.3.1.3.3v37.6c0,.2-.1.3-.3.3ZM190.8,361.9h37v-37h-37v37Z"></path></g><g><rect class="cls-6" x="248.1" y="324.6" width="37.6" height="37.6"></rect><path class="cls-1" d="M285.6,362.5h-37.6c-.2,0-.3-.1-.3-.3v-37.6c0-.2.1-.3.3-.3h37.6c.2,0,.3.1.3.3v37.6c0,.2-.1.3-.3.3ZM248.3,361.9h37v-37h-37v37Z"></path></g><g><polygon class="cls-5" points="209.3 307 217.8 324.2 236 318.1 229.9 336.2 247 344.8 229.9 353.3 236 371.4 217.8 365.3 209.3 382.5 200.8 365.3 182.7 371.4 188.8 353.3 171.6 344.8 188.8 336.2 182.7 318.1 200.8 324.2 209.3 307"></polygon><path class="cls-1" d="M209.3,382.8c-.1,0-.2,0-.3-.2l-8.4-16.9-17.9,6c-.1,0-.2,0-.3,0,0,0-.1-.2,0-.3l6-17.9-16.9-8.4c-.1,0-.2-.2-.2-.3s0-.2.2-.3l16.9-8.4-6-17.9c0-.1,0-.2,0-.3,0,0,.2-.1.3,0l17.9,6,8.4-16.9c.1-.2.4-.2.5,0l8.4,16.9,17.9-6c.1,0,.2,0,.3,0,0,0,.1.2,0,.3l-6,17.9,16.9,8.4c.1,0,.2.2.2.3s0,.2-.2.3l-16.9,8.4,6,17.9c0,.1,0,.2,0,.3,0,0-.2.1-.3,0l-17.9-6-8.4,16.9c0,.1-.2.2-.3.2ZM200.8,365c.1,0,.2,0,.3.2l8.2,16.6,8.2-16.6c0-.1.2-.2.4-.2l17.6,5.9-5.9-17.6c0-.1,0-.3.2-.4l16.6-8.2-16.6-8.3c-.1,0-.2-.2-.2-.4l5.9-17.6-17.6,5.9c-.1,0-.3,0-.4-.2l-8.2-16.6-8.2,16.6c0,.1-.2.2-.4.2l-17.6-5.9,5.9,17.6c0,.1,0,.3-.2.4l-16.6,8.3,16.6,8.2c.1,0,.2.2.2.4l-5.9,17.6,17.6-5.9s0,0,0,0Z"></path></g></g><g id="paper"><g><rect class="cls-5" x="309.5" y="145.9" width="153.2" height="182.6"></rect><path class="cls-1" d="M462.7,328.8h-153.2c-.2,0-.3-.1-.3-.3v-182.6c0-.2.1-.3.3-.3h153.2c.2,0,.3.1.3.3v182.6c0,.2-.1.3-.3.3ZM309.8,328.2h152.6v-182h-152.6v182Z"></path></g><g><path class="cls-6" d="M453,136.3v160.1c0,13.5-11,24.5-24.5,24.5s-24.5-11-24.5-24.5v-22.7h-100.5v-137.4h149.5Z"></path><path class="cls-1" d="M428.5,321.2c-13.7,0-24.8-11.1-24.8-24.8v-22.4h-100.2c-.2,0-.3-.1-.3-.3v-137.4c0-.2.1-.3.3-.3h149.5c.2,0,.3.1.3.3v160.1c0,13.7-11.1,24.8-24.8,24.8ZM303.8,273.3h100.2c.2,0,.3.1.3.3v22.7c0,13.3,10.9,24.2,24.2,24.2s24.2-10.9,24.2-24.2v-159.8h-148.9v136.8Z"></path></g><g><path class="cls-3" d="M428.5,320.9h-144.1c-13.5,0-24.5-11-24.5-24.5v-22.7h144.1v22.7c0,13.5,11,24.5,24.5,24.5Z"></path><path class="cls-1" d="M428.5,321.2h-144.1c-13.7,0-24.8-11.1-24.8-24.8v-22.7c0-.2.1-.3.3-.3h144.1c.2,0,.3.1.3.3v22.7c0,13.3,10.9,24.2,24.2,24.2s.3.1.3.3-.1.3-.3.3ZM260.2,273.9v22.4c0,13.3,10.9,24.2,24.2,24.2h138.6c-11.1-2.5-19.4-12.4-19.4-24.2v-22.4h-143.5Z"></path></g><path class="cls-1" d="M421.6,159.2h-102.2c-.2,0-.3-.1-.3-.3s.1-.3.3-.3h102.2c.2,0,.3.1.3.3s-.1.3-.3.3Z"></path><path class="cls-1" d="M421.6,176.1h-102.2c-.2,0-.3-.1-.3-.3s.1-.3.3-.3h102.2c.2,0,.3.1.3.3s-.1.3-.3.3Z"></path><path class="cls-1" d="M421.6,192.9h-102.2c-.2,0-.3-.1-.3-.3s.1-.3.3-.3h102.2c.2,0,.3.1.3.3s-.1.3-.3.3Z"></path><path class="cls-1" d="M421.6,209.8h-102.2c-.2,0-.3-.1-.3-.3s.1-.3.3-.3h102.2c.2,0,.3.1.3.3s-.1.3-.3.3Z"></path><path class="cls-1" d="M421.6,226.6h-102.2c-.2,0-.3-.1-.3-.3s.1-.3.3-.3h102.2c.2,0,.3.1.3.3s-.1.3-.3.3Z"></path><path class="cls-1" d="M421.6,243.5h-102.2c-.2,0-.3-.1-.3-.3s.1-.3.3-.3h102.2c.2,0,.3.1.3.3s-.1.3-.3.3Z"></path><path class="cls-4" d="M404.5,154.8c-1.2,0-2.3-.4-3.2-1.2-1-.9-1.6-2.1-1.6-3.4l-.8-13.5c0-1.5,1-2.8,2.5-3,.8-.1,1.6.1,2.2.6.6.5,1,1.3,1,2.1l.7,12.8c0,.2-.1.3-.3.3-.2,0-.3-.1-.3-.3l-.7-12.8c0-.6-.3-1.2-.8-1.6-.5-.4-1.1-.6-1.8-.5-1.2.2-2,1.2-1.9,2.4l.8,13.5c0,1.1.6,2.2,1.4,3,.9.8,2,1.1,3.1,1.1,2.4-.2,4.2-2.2,4-4.6l-1-15c-.1-1.7-.9-3.3-2.3-4.3-1.3-1.1-3.1-1.5-4.7-1.2-3.1.5-5.3,3.2-5.1,6.3v.8c0,.2,0,.3-.2.3-.2,0-.3-.1-.3-.3v-.8c-.2-3.4,2.2-6.4,5.6-6.9,1.8-.3,3.7.2,5.2,1.4,1.5,1.2,2.4,2.9,2.5,4.8l1,15c.2,2.7-1.8,5-4.5,5.2-.1,0-.2,0-.3,0Z"></path></g><g id="pin"><g><polygon class="cls-6" points="326 138.7 320.4 147.1 329.4 140.6 326 138.7"></polygon><path class="cls-1" d="M320.4,147.4c0,0-.2,0-.2,0-.1-.1-.1-.3,0-.4l5.6-8.4c0-.1.3-.2.4,0l3.4,1.9c0,0,.1.1.2.2,0,.1,0,.2-.1.3l-9,6.5c0,0-.1,0-.2,0ZM326.1,139.1l-4.5,6.8,7.3-5.3-2.8-1.5Z"></path></g><g><path class="cls-5" d="M329.9,129c-1,2.7-2.8,4.8-4.4,6.2-1.7,1.6-1.7,4.2,0,5.8l1.4,1.3c1.5,1.3,3.8,1.3,5.2,0,1.5-1.4,3.8-3.2,6.9-4.3l-9.1-8.8h0Z"></path><path class="cls-1" d="M329.6,143.5c-1,0-2-.3-2.8-1l-1.4-1.3c-.9-.8-1.4-1.9-1.4-3.1,0-1.2.5-2.3,1.4-3.1,2-1.9,3.5-3.9,4.3-6.1,0-.1.2-.2.3-.2,0,0,.2,0,.2.1l9.1,8.8c0,0,.1.2,0,.3s0,.2-.2.2c-2.5.9-4.8,2.4-6.8,4.3-.8.7-1.8,1.1-2.8,1.1ZM330,129.5c-.9,2.1-2.3,4.1-4.3,5.9-.8.7-1.2,1.7-1.2,2.7,0,1,.4,1.9,1.2,2.6l1.4,1.3c1.4,1.2,3.5,1.2,4.8,0,1.9-1.8,4.1-3.3,6.5-4.2l-8.5-8.2Z"></path></g><g><path class="cls-2" d="M341.5,138.3c-.1.2-.3.4-.4.6-1.8,1.8-6,.5-9.4-3-3.4-3.4-4.7-7.6-3-9.4,0,0,0,0,0,0,.1,0,.8-.5,1.9-.8h0c1-.3,2.3-.4,4-.3-.7,0-1.3.2-1.7.6,0,0,0,0,0,0-.9,1-.6,2.8.5,4.7.5.8,1.1,1.6,1.9,2.4,1,1,2.2,1.8,3.2,2.3,1.3.6,2.5.7,3.4.3.2-.1.4-.2.5-.4.3-.3.5-.8.6-1.3,0,1.3-1.4,4.1-1.4,4.1h0Z"></path><path class="cls-1" d="M338.9,140.1c-2.1,0-5-1.4-7.4-3.9-1.7-1.7-2.9-3.6-3.5-5.4-.6-1.9-.4-3.5.5-4.4,0,0,0,0,.1,0,.2-.2.9-.5,2-.8,0,0,0,0,0,0,.8-.2,2.1-.5,4-.3.2,0,.3.1.3.3,0,.2-.1.3-.3.3-.6,0-1.1.2-1.4.5,0,0,0,0,0,0-.8.8-.6,2.5.5,4.3.5.8,1.1,1.6,1.8,2.3,1,1,2.1,1.8,3.1,2.2,1.2.6,2.4.7,3.1.3.2,0,.3-.2.5-.3.3-.3.4-.6.5-1.1,0-.2.2-.3.3-.3.2,0,.3.1.3.3,0,1.2-1.1,3.8-1.4,4.3h0c-.1.3-.3.5-.5.7-.6.6-1.4.9-2.4.9ZM328.9,126.8c-.8.8-.9,2.1-.4,3.8.5,1.7,1.7,3.6,3.4,5.2,3.3,3.3,7.3,4.6,9,3,.2-.2.3-.3.4-.5,0,0,0,0,0,0,.1-.2.6-1.2,1-2.2,0,0-.2.1-.3.2-.9.4-2.2.3-3.6-.3-1.1-.5-2.3-1.3-3.3-2.4-.8-.8-1.4-1.6-1.9-2.4-1.2-2.1-1.4-4-.4-5.1,0,0,0,0,0,0,0,0,0,0,.1-.1-.9,0-1.6.2-2.1.3,0,0,0,0,0,0-1.1.3-1.7.7-1.8.7,0,0,0,0,0,0Z"></path></g><g><path class="cls-2" d="M342.9,134.2c0,.5-.2.9-.6,1.3-.2.2-.3.3-.5.4-.8.4-2,.2-3.4-.3-1.1-.5-2.2-1.3-3.2-2.3-.8-.8-1.4-1.6-1.9-2.4-1.1-1.9-1.4-3.7-.5-4.7,0,0,0,0,0,0,.4-.4,1-.6,1.7-.6s.2,0,.2,0h0c1.5.1,3.5,1.1,5.2,2.8,1,1,1.7,2,2.2,3.1,0,0,0,0,0,0,.5,1,.7,2,.6,2.8h0Z"></path><path class="cls-1" d="M340.7,136.4c-.7,0-1.5-.2-2.4-.6-1.1-.5-2.3-1.3-3.3-2.4-.8-.8-1.4-1.6-1.9-2.4-1.2-2.1-1.4-4-.4-5.1,0,0,0,0,0,0,.4-.4,1.1-.7,1.9-.7s.2,0,.3,0c1.7.1,3.7,1.2,5.4,2.9,1,1,1.8,2.1,2.3,3.1.5,1.1.8,2.2.6,3,0,.6-.3,1.1-.7,1.4-.2.2-.4.3-.6.4-.4.2-.8.2-1.2.2ZM334.6,125.8h0c-.6,0-1.1.2-1.4.5,0,0,0,0,0,0-.8.8-.6,2.5.5,4.3.5.8,1.1,1.6,1.8,2.3,1,1,2.1,1.8,3.1,2.2,1.2.6,2.4.7,3.1.3.2,0,.3-.2.5-.3.3-.3.4-.6.5-1.1,0,0,0,0,0,0,0-.7,0-1.6-.6-2.6-.5-1.1-1.3-2.1-2.2-3-1.6-1.6-3.5-2.6-5-2.7-.1,0-.2,0-.2,0Z"></path></g></g></svg>